<?xml version="1.0" encoding="UTF-8" standalone="no"?>
<!-- Created with Inkscape (http://www.inkscape.org/) -->

<svg
   width="240mm"
   height="120mm"
   viewBox="0 0 240 120"
   version="1.1"
   id="svg8"
   inkscape:version="1.1.2 (0a00cf5339, 2022-02-04)"
   sodipodi:docname="oblast_border_sum_of_smooth_paths.svg"
   xmlns:inkscape="http://www.inkscape.org/namespaces/inkscape"
   xmlns:sodipodi="http://sodipodi.sourceforge.net/DTD/sodipodi-0.dtd"
   xmlns="http://www.w3.org/2000/svg"
   xmlns:svg="http://www.w3.org/2000/svg"
   xmlns:rdf="http://www.w3.org/1999/02/22-rdf-syntax-ns#"
   xmlns:cc="http://creativecommons.org/ns#"
   xmlns:dc="http://purl.org/dc/elements/1.1/">
  <defs
     id="defs2">
    <marker
       style="overflow:visible"
       id="Arrow1Lstart"
       refX="0.0"
       refY="0.0"
       orient="auto"
       inkscape:stockid="Arrow1Lstart"
       inkscape:isstock="true">
      <path
         transform="scale(0.8) translate(12.5,0)"
         style="fill-rule:evenodd;fill:context-stroke;stroke:context-stroke;stroke-width:1.0pt"
         d="M 0.0,0.0 L 5.0,-5.0 L -12.5,0.0 L 5.0,5.0 L 0.0,0.0 z "
         id="path896" />
    </marker>
    <marker
       style="overflow:visible;"
       id="Arrow1Lend"
       refX="0.0"
       refY="0.0"
       orient="auto"
       inkscape:stockid="Arrow1Lend"
       inkscape:isstock="true">
      <path
         transform="scale(0.8) rotate(180) translate(12.5,0)"
         style="fill-rule:evenodd;fill:context-stroke;stroke:context-stroke;stroke-width:1.0pt;"
         d="M 0.0,0.0 L 5.0,-5.0 L -12.5,0.0 L 5.0,5.0 L 0.0,0.0 z "
         id="path899" />
    </marker>
  </defs>
  <sodipodi:namedview
     id="base"
     pagecolor="#ffffff"
     bordercolor="#666666"
     borderopacity="1.0"
     inkscape:pageopacity="0.0"
     inkscape:pageshadow="2"
     inkscape:zoom="0.88189146"
     inkscape:cx="439.96344"
     inkscape:cy="103.1873"
     inkscape:document-units="mm"
     inkscape:current-layer="layer1"
     showgrid="false"
     showborder="true"
     width="200mm"
     showguides="true"
     inkscape:guide-bbox="true"
     inkscape:window-width="1440"
     inkscape:window-height="840"
     inkscape:window-x="0"
     inkscape:window-y="0"
     inkscape:window-maximized="1"
     inkscape:pagecheckerboard="0">
    <inkscape:grid
       type="xygrid"
       id="grid815"
       units="mm"
       spacingx="10"
       spacingy="10"
       empspacing="4"
       dotted="false" />
  </sodipodi:namedview>
  <metadata
     id="metadata5">
    <rdf:RDF>
      <cc:Work
         rdf:about="">
        <dc:format>image/svg+xml</dc:format>
        <dc:type
           rdf:resource="http://purl.org/dc/dcmitype/StillImage" />
        <dc:title />
      </cc:Work>
    </rdf:RDF>
  </metadata>
  <g
     inkscape:label="Layer 1"
     inkscape:groupmode="layer"
     id="layer1"
     transform="translate(0,-177)">
    <path
       style="fill:none;stroke:#000000;stroke-width:0.323764;stroke-linecap:butt;stroke-linejoin:miter;stroke-miterlimit:4;stroke-dasharray:none;stroke-opacity:1;marker-end:url(#Arrow1Lend)"
       d="M 145.02787,203.93256 C 117.04995,174.03194 83.454573,193.1584 83.454573,230.45877"
       id="path894" />
    <path
       style="fill:none;stroke:#000000;stroke-width:0.323254px;stroke-linecap:butt;stroke-linejoin:miter;stroke-opacity:1;marker-end:url(#Arrow1Lend)"
       d="m 83.454573,230.45877 c -57.897074,34.87915 35.712527,84.14496 84.336957,43.51258"
       id="path1164" />
    <path
       style="fill:none;stroke:#000000;stroke-width:0.323254px;stroke-linecap:butt;stroke-linejoin:miter;stroke-opacity:1;marker-end:url(#Arrow1Lend)"
       d="m 167.79153,273.97135 c -57.84783,-2.76124 16.13347,-27.56004 -1.00555,-38.61738 -19.51635,-12.59109 -18.74166,-9.9852 -21.75811,-31.42141"
       id="path1170" />
    <path
       style="fill:none;stroke:#000000;stroke-width:0.323254px;stroke-linecap:butt;stroke-linejoin:miter;stroke-opacity:1;marker-end:;marker-start:url(#Arrow1Lstart)"
       d="m 105.42842,237.02939 c -4.82233,0.4808 -11.689661,-1.86962 -15.187009,2.46265 -3.675171,4.55255 -4.978702,16.3217 -1.62925,21.20287 26.755189,38.99035 49.810769,-19.70522 16.816259,-23.66552 z"
       id="path1172" />
    <path
       style="fill:#000000;fill-opacity:0.243316;stroke:none;stroke-width:0.325595;stroke-miterlimit:4;stroke-dasharray:none"
       d="m 115.19938,189.13553 c -11.51395,-0.0337 -21.645885,8.06798 -26.643235,18.04508 -3.749742,7.09127 -5.172022,15.1639 -5.272754,23.12246 -7.72577,4.80345 -15.644357,11.22376 -17.83893,20.49053 -1.887792,7.95347 2.331226,15.95515 8.038395,21.27424 11.002461,10.38001 26.086197,15.29837 40.868374,16.95958 12.25245,1.18218 24.92325,-0.17197 36.39109,-4.76811 5.95102,-2.5632 11.97257,-5.55161 16.7149,-9.97026 -1.36081,-1.10988 -3.81189,-0.52004 -5.58283,-0.9773 -4.93925,-0.67891 -10.30763,-0.79642 -14.64348,-3.5891 -1.68238,-1.14244 -2.29805,-3.53518 -0.96636,-5.1969 3.8911,-6.00852 10.2985,-9.78982 15.47739,-14.6052 3.10483,-2.99028 7.43642,-5.88782 7.78388,-10.57927 0.18139,-3.17108 -3.30017,-4.39175 -5.40135,-5.93595 -4.82342,-3.31893 -10.30111,-5.96177 -14.13987,-10.47506 -3.40391,-5.0341 -3.42157,-11.44378 -4.46906,-17.2264 0.0275,-2.71223 -2.76242,-4.10786 -4.39391,-5.91232 -7.00356,-6.00452 -15.71205,-10.80071 -25.17619,-10.65455 -0.24866,-0.006 -0.49738,-0.001 -0.74606,-0.001 z m -18.172315,48.00254 c 5.897635,0.0598 12.343265,-0.35153 17.335475,3.34164 4.55575,3.03259 7.14845,8.48192 6.99374,13.884 0.41161,7.29591 -3.24376,15.3672 -10.14426,18.50627 -5.78243,2.4106 -12.126534,-0.772 -16.159825,-4.93558 -3.055239,-3.18596 -6.565996,-6.51013 -7.681131,-10.92621 -0.847067,-5.83595 -0.462549,-12.3603 3.075597,-17.30944 1.572118,-1.97842 4.125549,-2.7516 6.580404,-2.56068 z"
       id="path4289" />
    <text
       xml:space="preserve"
       style="font-size:4.74108px;line-height:1.25;font-family:sans-serif;-inkscape-font-specification:'sans-serif, Normal';stroke-width:0.323254"
       x="111.68619"
       y="183.93344"
       id="text5836"><tspan
         sodipodi:role="line"
         id="tspan5834"
         style="stroke-width:0.323254"
         x="111.68619"
         y="183.93344">$\gamma_1$</tspan></text>
    <text
       xml:space="preserve"
       style="font-size:4.74108px;line-height:1.25;font-family:sans-serif;-inkscape-font-specification:'sans-serif, Normal';stroke-width:0.323254"
       x="78.083923"
       y="289.87482"
       id="text7975"><tspan
         sodipodi:role="line"
         id="tspan7973"
         style="stroke-width:0.323254"
         x="78.083923"
         y="289.87482">$\gamma_2$</tspan></text>
    <text
       xml:space="preserve"
       style="font-size:4.74108px;line-height:1.25;font-family:sans-serif;-inkscape-font-specification:'sans-serif, Normal';stroke-width:0.323254"
       x="174.4594"
       y="240.06439"
       id="text11301"><tspan
         sodipodi:role="line"
         id="tspan11299"
         style="stroke-width:0.323254"
         x="174.4594"
         y="240.06439">$\gamma_3$</tspan></text>
    <text
       xml:space="preserve"
       style="font-size:4.74108px;line-height:1.25;font-family:sans-serif;-inkscape-font-specification:'sans-serif, Normal';stroke-width:0.323254"
       x="123.27135"
       y="244.6293"
       id="text12964"><tspan
         sodipodi:role="line"
         id="tspan12962"
         style="stroke-width:0.323254"
         x="123.27135"
         y="244.6293">$\gamma_4$</tspan></text>
    <text
       xml:space="preserve"
       style="font-size:3.88056px;line-height:1.25;font-family:sans-serif;-inkscape-font-specification:'sans-serif, Normal';stroke-width:0.264583"
       x="114.51975"
       y="218.91786"
       id="text1074"><tspan
         sodipodi:role="line"
         id="tspan1072"
         style="stroke-width:0.264583"
         x="114.51975"
         y="218.91786">$\Omega$</tspan></text>
  </g>
</svg>
