<?xml version="1.0" encoding="UTF-8" standalone="no"?>
<!-- Created with Inkscape (http://www.inkscape.org/) -->

<svg
   width="240mm"
   height="120mm"
   viewBox="0 0 240 120"
   version="1.1"
   id="svg8"
   inkscape:version="1.2.2 (b0a8486541, 2022-12-01)"
   sodipodi:docname="eint_full_in_l2_g_eps.svg"
   xml:space="preserve"
   xmlns:inkscape="http://www.inkscape.org/namespaces/inkscape"
   xmlns:sodipodi="http://sodipodi.sourceforge.net/DTD/sodipodi-0.dtd"
   xmlns="http://www.w3.org/2000/svg"
   xmlns:svg="http://www.w3.org/2000/svg"
   xmlns:rdf="http://www.w3.org/1999/02/22-rdf-syntax-ns#"
   xmlns:cc="http://creativecommons.org/ns#"
   xmlns:dc="http://purl.org/dc/elements/1.1/"
   xmlns:ns2="http://www.iki.fi/pav/software/textext/"><defs
     id="defs2" /><sodipodi:namedview
     id="base"
     pagecolor="#ffffff"
     bordercolor="#666666"
     borderopacity="1.0"
     inkscape:pageopacity="0.0"
     inkscape:pageshadow="2"
     inkscape:zoom="7.954991"
     inkscape:cx="635.70153"
     inkscape:cy="344.43785"
     inkscape:document-units="mm"
     inkscape:current-layer="layer1"
     showgrid="false"
     showborder="true"
     width="200mm"
     showguides="true"
     inkscape:guide-bbox="true"
     inkscape:window-width="2560"
     inkscape:window-height="1417"
     inkscape:window-x="0"
     inkscape:window-y="0"
     inkscape:window-maximized="1"
     inkscape:showpageshadow="2"
     inkscape:pagecheckerboard="0"
     inkscape:deskcolor="#d1d1d1"><inkscape:grid
       type="xygrid"
       id="grid815"
       units="mm"
       spacingx="10"
       spacingy="10"
       empspacing="4"
       dotted="false" /></sodipodi:namedview><metadata
     id="metadata5"><rdf:RDF><cc:Work
         rdf:about=""><dc:format>image/svg+xml</dc:format><dc:type
           rdf:resource="http://purl.org/dc/dcmitype/StillImage" /><dc:title /></cc:Work></rdf:RDF></metadata><g
     inkscape:label="Layer 1"
     inkscape:groupmode="layer"
     id="layer1"
     transform="translate(0, -177)"><path
       id="path244"
       style="fill:none;fill-opacity:0;fill-rule:evenodd;stroke:#000000;stroke-width:0.408001;paint-order:stroke fill markers"
       d="M 164.95488 258.84036 L 229.56091 258.84036 " /><path
       id="path1405"
       style="fill:none;fill-opacity:0;fill-rule:evenodd;stroke:#000000;stroke-width:0.408001;paint-order:stroke fill markers"
       d="M 64.958167,258.84036 H 85.144983"
       sodipodi:nodetypes="cc" /><path
       id="path1468"
       style="fill:none;fill-opacity:0;fill-rule:evenodd;stroke:#000000;stroke-width:0.408001;paint-order:stroke fill markers"
       d="M 41.006082 258.84036 L 64.958167 258.84036 " /><path
       id="path1466"
       style="fill:none;fill-opacity:0;fill-rule:evenodd;stroke:#000000;stroke-width:0.408001;paint-order:stroke fill markers"
       d="M 20.092064 258.84036 L 41.006082 258.84036 " /><g
       transform="matrix(0.371149,0,0,0.371149,20.091878,262.29324)"
       ns2:version="1.8.2"
       ns2:texconverter="pdflatex"
       ns2:pdfconverter="inkscape"
       ns2:text="$$-\\pi$$"
       ns2:preamble="/home/buyolitsez/.config/inkscape/extensions/textext/default_packages.tex"
       ns2:scale="1.0520757626303252"
       ns2:alignment="middle center"
       ns2:stroke-to-path="0"
       ns2:inkscapeversion="1.2.2"
       ns2:jacobian_sqrt="0.371149"
       id="g389"><defs
         id="id-690d56b5-19b7-4d55-bd7c-0466ece58710"><g
           id="id-2e620b5e-8f09-4e6c-b02b-35768287da43"><g
             id="id-34659711-dee7-4848-8b28-b7e3f6ce0bff" /><g
             id="id-c38e46a8-732c-4ae6-a767-f6d135c5ad43"><path
               d="m 9.453125,-3.296875 c 0.25,0 0.5,0 0.5,-0.28125 0,-0.296875 -0.25,-0.296875 -0.5,-0.296875 H 1.6875 c -0.234375,0 -0.5,0 -0.5,0.296875 0,0.28125 0.265625,0.28125 0.5,0.28125 z m 0,0"
               id="id-54b20b6e-f006-4e7a-9a86-52bfebf1acb8" /></g><g
             id="id-8ba6a327-b1ff-490a-8999-97c22b6bf9ab" /><g
             id="id-329e4009-8e55-4661-8362-f651d6e8ed5f"><path
               d="m 3.71875,-5.40625 h 1.609375 c -0.375,1.609375 -0.625,2.65625 -0.625,3.796875 0,0.203125 0,1.75 0.59375,1.75 0.296875,0 0.5625,-0.265625 0.5625,-0.515625 0,-0.0625 0,-0.09375 -0.109375,-0.3125 -0.390625,-0.984375 -0.390625,-2.21875 -0.390625,-2.328125 0,-0.078125 0,-1.09375 0.3125,-2.390625 h 1.59375 c 0.1875,0 0.671875,0 0.671875,-0.453125 C 7.9375,-6.1875 7.65625,-6.1875 7.40625,-6.1875 H 2.6875 c -0.328125,0 -0.828125,0 -1.484375,0.703125 -0.375,0.421875 -0.828125,1.1875 -0.828125,1.265625 0,0.09375 0.0625,0.109375 0.15625,0.109375 0.09375,0 0.109375,-0.03125 0.1875,-0.125 0.75,-1.171875 1.484375,-1.171875 1.84375,-1.171875 H 3.390625 C 3.0625,-4.328125 2.71875,-3.078125 1.53125,-0.578125 1.421875,-0.34375 1.421875,-0.3125 1.421875,-0.234375 c 0,0.3125 0.25,0.375 0.390625,0.375 0.40625,0 0.53125,-0.375 0.703125,-0.96875 0.21875,-0.734375 0.21875,-0.765625 0.375,-1.34375 z m 0,0"
               id="id-00466bb7-19d8-4d0f-868b-3271bcdcc6a1" /></g></g></defs><g
         fill="#000000"
         fill-opacity="1"
         id="id-0a226c5e-9d0f-41b1-b51e-8d99d259fdc2"
         transform="translate(-289.004,-60.6965)"><g
           transform="translate(287.817,66.884)"
           id="g382"><path
             d="m 9.453125,-3.296875 c 0.25,0 0.5,0 0.5,-0.28125 0,-0.296875 -0.25,-0.296875 -0.5,-0.296875 H 1.6875 c -0.234375,0 -0.5,0 -0.5,0.296875 0,0.28125 0.265625,0.28125 0.5,0.28125 z m 0,0"
             id="id-725d8c33-de88-4016-81b2-7d556ce385d7" /></g></g><g
         fill="#000000"
         fill-opacity="1"
         id="id-30be3f5c-8beb-4ba5-bee9-b168035499fa"
         transform="translate(-289.004,-60.6965)"><g
           transform="translate(298.975,66.884)"
           id="g386"><path
             d="m 3.71875,-5.40625 h 1.609375 c -0.375,1.609375 -0.625,2.65625 -0.625,3.796875 0,0.203125 0,1.75 0.59375,1.75 0.296875,0 0.5625,-0.265625 0.5625,-0.515625 0,-0.0625 0,-0.09375 -0.109375,-0.3125 -0.390625,-0.984375 -0.390625,-2.21875 -0.390625,-2.328125 0,-0.078125 0,-1.09375 0.3125,-2.390625 h 1.59375 c 0.1875,0 0.671875,0 0.671875,-0.453125 C 7.9375,-6.1875 7.65625,-6.1875 7.40625,-6.1875 H 2.6875 c -0.328125,0 -0.828125,0 -1.484375,0.703125 -0.375,0.421875 -0.828125,1.1875 -0.828125,1.265625 0,0.09375 0.0625,0.109375 0.15625,0.109375 0.09375,0 0.109375,-0.03125 0.1875,-0.125 0.75,-1.171875 1.484375,-1.171875 1.84375,-1.171875 H 3.390625 C 3.0625,-4.328125 2.71875,-3.078125 1.53125,-0.578125 1.421875,-0.34375 1.421875,-0.3125 1.421875,-0.234375 c 0,0.3125 0.25,0.375 0.390625,0.375 0.40625,0 0.53125,-0.375 0.703125,-0.96875 0.21875,-0.734375 0.21875,-0.765625 0.375,-1.34375 z m 0,0"
             id="id-95370a3d-c338-4bee-a1dc-80a66e953ce9" /></g></g></g><g
       transform="matrix(0.371149,0,0,0.371149,226.7541,262.293)"
       ns2:version="1.8.2"
       ns2:texconverter="pdflatex"
       ns2:pdfconverter="inkscape"
       ns2:text="$$\\pi$$"
       ns2:preamble="/home/buyolitsez/.config/inkscape/extensions/textext/default_packages.tex"
       ns2:scale="1.0520757626303252"
       ns2:alignment="middle center"
       ns2:stroke-to-path="0"
       ns2:inkscapeversion="1.2.2"
       ns2:jacobian_sqrt="0.371149"
       id="g439"><defs
         id="id-3f539415-9906-4bea-b9d2-6464f9d518ff"><g
           id="id-0774f54b-bdf6-4a0d-8e3c-aa6753263d48"><g
             id="id-53e2cec7-a590-4e6c-ad09-8e12bb82b9bb" /><g
             id="id-f03ad6b5-4913-4f70-8f73-6a375fc47547"><path
               d="m 3.71875,-5.40625 h 1.609375 c -0.375,1.609375 -0.625,2.65625 -0.625,3.796875 0,0.203125 0,1.75 0.59375,1.75 0.296875,0 0.5625,-0.265625 0.5625,-0.515625 0,-0.0625 0,-0.09375 -0.109375,-0.3125 -0.390625,-0.984375 -0.390625,-2.21875 -0.390625,-2.328125 0,-0.078125 0,-1.09375 0.3125,-2.390625 h 1.59375 c 0.1875,0 0.671875,0 0.671875,-0.453125 C 7.9375,-6.1875 7.65625,-6.1875 7.40625,-6.1875 H 2.6875 c -0.328125,0 -0.828125,0 -1.484375,0.703125 -0.375,0.421875 -0.828125,1.1875 -0.828125,1.265625 0,0.09375 0.0625,0.109375 0.15625,0.109375 0.09375,0 0.109375,-0.03125 0.1875,-0.125 0.75,-1.171875 1.484375,-1.171875 1.84375,-1.171875 H 3.390625 C 3.0625,-4.328125 2.71875,-3.078125 1.53125,-0.578125 1.421875,-0.34375 1.421875,-0.3125 1.421875,-0.234375 c 0,0.3125 0.25,0.375 0.390625,0.375 0.40625,0 0.53125,-0.375 0.703125,-0.96875 0.21875,-0.734375 0.21875,-0.765625 0.375,-1.34375 z m 0,0"
               id="id-789875a6-b6c3-422d-ba73-15bebd87b27e" /></g></g></defs><g
         fill="#000000"
         fill-opacity="1"
         id="id-7fb09c7c-2074-478c-ae78-b7182f33d881"
         transform="translate(-293.771,-60.6965)"><g
           transform="translate(293.396,66.884)"
           id="g504"><path
             d="m 3.71875,-5.40625 h 1.609375 c -0.375,1.609375 -0.625,2.65625 -0.625,3.796875 0,0.203125 0,1.75 0.59375,1.75 0.296875,0 0.5625,-0.265625 0.5625,-0.515625 0,-0.0625 0,-0.09375 -0.109375,-0.3125 -0.390625,-0.984375 -0.390625,-2.21875 -0.390625,-2.328125 0,-0.078125 0,-1.09375 0.3125,-2.390625 h 1.59375 c 0.1875,0 0.671875,0 0.671875,-0.453125 C 7.9375,-6.1875 7.65625,-6.1875 7.40625,-6.1875 H 2.6875 c -0.328125,0 -0.828125,0 -1.484375,0.703125 -0.375,0.421875 -0.828125,1.1875 -0.828125,1.265625 0,0.09375 0.0625,0.109375 0.15625,0.109375 0.09375,0 0.109375,-0.03125 0.1875,-0.125 0.75,-1.171875 1.484375,-1.171875 1.84375,-1.171875 H 3.390625 C 3.0625,-4.328125 2.71875,-3.078125 1.53125,-0.578125 1.421875,-0.34375 1.421875,-0.3125 1.421875,-0.234375 c 0,0.3125 0.25,0.375 0.390625,0.375 0.40625,0 0.53125,-0.375 0.703125,-0.96875 0.21875,-0.734375 0.21875,-0.765625 0.375,-1.34375 z m 0,0"
             id="id-12ab97f5-184b-4390-9585-0dcf739c3dfb" /></g></g></g><path
       style="fill:none;fill-opacity:0;fill-rule:evenodd;stroke:#000000;stroke-width:0.408;paint-order:stroke fill markers;stroke-dasharray:0.40799999,0.40799999;stroke-dashoffset:0"
       d="m 94.957567,218.41954 v 40.62485"
       id="path612" /><path
       style="fill:none;fill-opacity:0;fill-rule:evenodd;stroke:#000000;stroke-width:0.408;paint-order:stroke fill markers;stroke-dasharray:0.40799999,0.40799999;stroke-dashoffset:0"
       d="m 154.958,218.41954 v 40.62485"
       id="path616" /><path
       style="fill:none;fill-opacity:0;fill-rule:evenodd;stroke:#000000;stroke-width:0.408001;stroke-dasharray:none;stroke-dashoffset:0;paint-order:stroke fill markers"
       d="M 94.983661,218.62354 H 154.9063"
       id="path1172" /><path
       style="fill:none;fill-opacity:0;fill-rule:evenodd;stroke:#000000;stroke-width:0.408001;stroke-dasharray:none;stroke-dashoffset:0;paint-order:stroke fill markers"
       d="M 94.98899,218.58051 84.917303,258.98493"
       id="path1176"
       sodipodi:nodetypes="cc" /><path
       style="fill:none;fill-opacity:0;fill-rule:evenodd;stroke:#000000;stroke-width:0.408001;stroke-dasharray:none;stroke-dashoffset:0;paint-order:stroke fill markers"
       d="m 154.91688,218.58051 10.07169,40.19736"
       id="path1178" /><g
       transform="matrix(0.371149,0,0,0.371149,163.92384,217.63686)"
       ns2:version="1.8.2"
       ns2:texconverter="pdflatex"
       ns2:pdfconverter="inkscape"
       ns2:text="$$g_{\\eps}$$"
       ns2:preamble="/home/buyolitsez/.config/inkscape/extensions/textext/default_packages.tex"
       ns2:scale="1.0520757626303252"
       ns2:alignment="middle center"
       ns2:stroke-to-path="0"
       ns2:inkscapeversion="1.2.2"
       ns2:jacobian_sqrt="0.371149"
       id="g1270"><defs
   id="id-53412d5e-0c56-43bb-a3e1-908eed243dc2">
    <g
   id="id-347e594a-6bdc-4941-9884-f1d009f58c2d">
      <g
   id="id-93b25859-9bcd-4e30-b466-5667dd5cc303" />
      <g
   id="id-da4cb718-9adc-4da5-8122-d83e26a8ee55">
        <path
   d="M 4.84375,-1.828125 C 4.796875,-1.59375 4.765625,-1.53125 4.578125,-1.3125 c -0.59375,0.75 -1.1875,1.03125 -1.640625,1.03125 -0.46875,0 -0.921875,-0.375 -0.921875,-1.375 0,-0.75 0.4375,-2.359375 0.75,-3 0.421875,-0.8125 1.0625,-1.375 1.671875,-1.375 0.9375,0 1.125,1.171875 1.125,1.25 L 5.515625,-4.578125 Z M 5.734375,-5.375 C 5.546875,-5.796875 5.15625,-6.328125 4.4375,-6.328125 c -1.5625,0 -3.34375,1.96875 -3.34375,4.109375 C 1.09375,-0.734375 2,0 2.90625,0 3.671875,0 4.34375,-0.609375 4.609375,-0.890625 L 4.28125,0.40625 C 4.09375,1.1875 4,1.546875 3.484375,2.046875 2.890625,2.640625 2.359375,2.640625 2.03125,2.640625 1.609375,2.640625 1.25,2.609375 0.890625,2.5 1.34375,2.359375 1.46875,1.96875 1.46875,1.8125 c 0,-0.234375 -0.171875,-0.46875 -0.5,-0.46875 -0.34375,0 -0.703125,0.296875 -0.703125,0.765625 0,0.59375 0.578125,0.8125 1.796875,0.8125 1.859375,0 2.8125,-1.1875 3,-1.953125 l 1.59375,-6.4375 c 0.046875,-0.171875 0.046875,-0.203125 0.046875,-0.21875 0,-0.203125 -0.15625,-0.359375 -0.375,-0.359375 -0.34375,0 -0.546875,0.28125 -0.59375,0.671875 z m 0,0"
   id="id-7fa105cf-3437-4502-8beb-e10d594cc3ca" />
      </g>
      <g
   id="id-603fdebf-28e8-40b5-9f9c-7b6e9e37836b" />
      <g
   id="id-e9fd7988-6385-4f9e-a69e-95af7efd8e6a">
        <path
   d="M 1.40625,-2.265625 C 1.734375,-2.125 2.03125,-2.125 2.265625,-2.125 c 0.25,0 0.8125,0 0.8125,-0.3125 0,-0.234375 -0.359375,-0.265625 -0.734375,-0.265625 -0.203125,0 -0.5625,0.015625 -0.921875,0.1875 C 1.1875,-2.625 1.015625,-2.828125 1.015625,-3.09375 c 0,-0.609375 0.984375,-0.96875 1.875,-0.96875 0.15625,0 0.515625,0 0.921875,0.28125 0.109375,0.078125 0.125,0.109375 0.1875,0.109375 0.140625,0 0.28125,-0.140625 0.28125,-0.28125 0,-0.1875 -0.609375,-0.5625 -1.296875,-0.5625 -1.140625,0 -2.21875,0.671875 -2.21875,1.421875 0,0.4375 0.359375,0.6875 0.40625,0.71875 -0.59375,0.328125 -0.90625,0.875 -0.90625,1.34375 0,0.640625 0.5625,1.25 1.625,1.25 1.3125,0 1.875,-0.875 1.875,-1.03125 0,-0.0625 -0.0625,-0.09375 -0.109375,-0.09375 -0.0625,0 -0.09375,0.03125 -0.109375,0.0625 -0.140625,0.234375 -0.375,0.609375 -1.578125,0.609375 -0.609375,0 -1.453125,-0.15625 -1.453125,-0.859375 0,-0.34375 0.28125,-0.875 0.890625,-1.171875 z m 0.328125,-0.125 c 0.234375,-0.078125 0.4375,-0.09375 0.609375,-0.09375 0.25,0 0.28125,0.015625 0.46875,0.0625 -0.15625,0.0625 -0.171875,0.078125 -0.546875,0.078125 -0.21875,0 -0.34375,0 -0.53125,-0.046875 z m 0,0"
   id="id-60e37257-9ac2-41e0-a456-20d1b029ab8e" />
      </g>
    </g>
  </defs>
  <g
   fill="#000000"
   fill-opacity="1"
   id="id-cb5661e2-cb54-4411-af6c-e7ac1649df75"
   transform="translate(-291.969,-60.5559)">
    <g
   transform="translate(291.703,66.884)"
   id="g1263"><path
   d="M 4.84375,-1.828125 C 4.796875,-1.59375 4.765625,-1.53125 4.578125,-1.3125 c -0.59375,0.75 -1.1875,1.03125 -1.640625,1.03125 -0.46875,0 -0.921875,-0.375 -0.921875,-1.375 0,-0.75 0.4375,-2.359375 0.75,-3 0.421875,-0.8125 1.0625,-1.375 1.671875,-1.375 0.9375,0 1.125,1.171875 1.125,1.25 L 5.515625,-4.578125 Z M 5.734375,-5.375 C 5.546875,-5.796875 5.15625,-6.328125 4.4375,-6.328125 c -1.5625,0 -3.34375,1.96875 -3.34375,4.109375 C 1.09375,-0.734375 2,0 2.90625,0 3.671875,0 4.34375,-0.609375 4.609375,-0.890625 L 4.28125,0.40625 C 4.09375,1.1875 4,1.546875 3.484375,2.046875 2.890625,2.640625 2.359375,2.640625 2.03125,2.640625 1.609375,2.640625 1.25,2.609375 0.890625,2.5 1.34375,2.359375 1.46875,1.96875 1.46875,1.8125 c 0,-0.234375 -0.171875,-0.46875 -0.5,-0.46875 -0.34375,0 -0.703125,0.296875 -0.703125,0.765625 0,0.59375 0.578125,0.8125 1.796875,0.8125 1.859375,0 2.8125,-1.1875 3,-1.953125 l 1.59375,-6.4375 c 0.046875,-0.171875 0.046875,-0.203125 0.046875,-0.21875 0,-0.203125 -0.15625,-0.359375 -0.375,-0.359375 -0.34375,0 -0.546875,0.28125 -0.59375,0.671875 z m 0,0"
   id="id-1d319ea6-e9fc-4b8b-a86f-399d4bd4cd69" />
      </g></g>
  <g
   fill="#000000"
   fill-opacity="1"
   id="id-2ac0ecfa-d23f-48b8-b31c-3151ad9142fd"
   transform="translate(-291.969,-60.5559)">
    <g
   transform="translate(298.429,69.036)"
   id="g1267"><path
   d="M 1.40625,-2.265625 C 1.734375,-2.125 2.03125,-2.125 2.265625,-2.125 c 0.25,0 0.8125,0 0.8125,-0.3125 0,-0.234375 -0.359375,-0.265625 -0.734375,-0.265625 -0.203125,0 -0.5625,0.015625 -0.921875,0.1875 C 1.1875,-2.625 1.015625,-2.828125 1.015625,-3.09375 c 0,-0.609375 0.984375,-0.96875 1.875,-0.96875 0.15625,0 0.515625,0 0.921875,0.28125 0.109375,0.078125 0.125,0.109375 0.1875,0.109375 0.140625,0 0.28125,-0.140625 0.28125,-0.28125 0,-0.1875 -0.609375,-0.5625 -1.296875,-0.5625 -1.140625,0 -2.21875,0.671875 -2.21875,1.421875 0,0.4375 0.359375,0.6875 0.40625,0.71875 -0.59375,0.328125 -0.90625,0.875 -0.90625,1.34375 0,0.640625 0.5625,1.25 1.625,1.25 1.3125,0 1.875,-0.875 1.875,-1.03125 0,-0.0625 -0.0625,-0.09375 -0.109375,-0.09375 -0.0625,0 -0.09375,0.03125 -0.109375,0.0625 -0.140625,0.234375 -0.375,0.609375 -1.578125,0.609375 -0.609375,0 -1.453125,-0.15625 -1.453125,-0.859375 0,-0.34375 0.28125,-0.875 0.890625,-1.171875 z m 0.328125,-0.125 c 0.234375,-0.078125 0.4375,-0.09375 0.609375,-0.09375 0.25,0 0.28125,0.015625 0.46875,0.0625 -0.15625,0.0625 -0.171875,0.078125 -0.546875,0.078125 -0.21875,0 -0.34375,0 -0.53125,-0.046875 z m 0,0"
   id="id-70f9f1a0-ff27-4e05-81a4-5e85406488c8" />
      </g></g>
</g><path
       id="path1523"
       style="fill:none;fill-opacity:0;fill-rule:evenodd;stroke:#000000;stroke-width:0.408001;paint-order:stroke fill markers;stroke-dasharray:0.408001,0.408001;stroke-dashoffset:0"
       d="m 154.7521,258.84036 h 10.43419" /><path
       id="path1525"
       style="fill:none;fill-opacity:0;fill-rule:evenodd;stroke:#000000;stroke-width:0.408001;stroke-dasharray:0.408001, 0.408001;stroke-dashoffset:0;paint-order:stroke fill markers"
       d="M 84.752,258.84036 H 95.18619" /><g
       transform="matrix(0.371149,0,0,0.371149,151.75414,259.72838)"
       ns2:version="1.8.2"
       ns2:texconverter="pdflatex"
       ns2:pdfconverter="inkscape"
       ns2:text="$$b$$"
       ns2:preamble="/home/buyolitsez/.config/inkscape/extensions/textext/default_packages.tex"
       ns2:scale="1.0520757626303252"
       ns2:alignment="middle center"
       ns2:stroke-to-path="0"
       ns2:inkscapeversion="1.2.2"
       ns2:jacobian_sqrt="0.371149"
       id="g2374"><defs
   id="id-26b6b744-a456-4b8b-b32e-2a6b828a6f16">
    <g
   id="id-cdf9a1f3-7003-40f7-b659-5f90ff25e168">
      <g
   id="id-41842b63-ff1a-4a23-a1f9-c6d3c1aae08f" />
      <g
   id="id-1c8d1694-e20e-433e-912d-7d67f9922664">
        <path
   d="m 3.3125,-9.59375 c 0.015625,-0.0625 0.046875,-0.140625 0.046875,-0.21875 0,-0.140625 -0.140625,-0.140625 -0.171875,-0.140625 -0.015625,0 -0.53125,0.046875 -0.796875,0.0625 -0.234375,0.015625 -0.453125,0.046875 -0.71875,0.0625 -0.34375,0.03125 -0.4375,0.046875 -0.4375,0.296875 0,0.15625 0.140625,0.15625 0.28125,0.15625 C 2.25,-9.375 2.25,-9.25 2.25,-9.109375 c 0,0.09375 -0.109375,0.515625 -0.171875,0.78125 l -0.34375,1.375 C 1.59375,-6.390625 0.78125,-3.125 0.71875,-2.875 c -0.078125,0.359375 -0.078125,0.609375 -0.078125,0.796875 0,1.46875 0.828125,2.21875 1.75,2.21875 1.671875,0 3.390625,-2.140625 3.390625,-4.21875 0,-1.3125 -0.75,-2.25 -1.828125,-2.25 -0.734375,0 -1.421875,0.625 -1.6875,0.90625 z m -0.90625,9.453125 c -0.453125,0 -0.953125,-0.34375 -0.953125,-1.46875 0,-0.46875 0.03125,-0.75 0.296875,-1.75 0.046875,-0.1875 0.265625,-1.09375 0.328125,-1.28125 0.03125,-0.125 0.875,-1.390625 1.859375,-1.390625 0.625,0 0.90625,0.625 0.90625,1.375 0,0.6875 -0.390625,2.296875 -0.75,3.046875 -0.359375,0.78125 -1.03125,1.46875 -1.6875,1.46875 z m 0,0"
   id="id-3e017fcf-ee93-4927-b404-7e1e48458bf1" />
      </g>
    </g>
  </defs>
  <g
   fill="#000000"
   fill-opacity="1"
   id="id-290daa8f-b298-4a1f-9d0d-fb9af2c987cd"
   transform="translate(-295.293,-56.9309)">
    <g
   transform="translate(294.652,66.884)"
   id="g2371"><path
   d="m 3.3125,-9.59375 c 0.015625,-0.0625 0.046875,-0.140625 0.046875,-0.21875 0,-0.140625 -0.140625,-0.140625 -0.171875,-0.140625 -0.015625,0 -0.53125,0.046875 -0.796875,0.0625 -0.234375,0.015625 -0.453125,0.046875 -0.71875,0.0625 -0.34375,0.03125 -0.4375,0.046875 -0.4375,0.296875 0,0.15625 0.140625,0.15625 0.28125,0.15625 C 2.25,-9.375 2.25,-9.25 2.25,-9.109375 c 0,0.09375 -0.109375,0.515625 -0.171875,0.78125 l -0.34375,1.375 C 1.59375,-6.390625 0.78125,-3.125 0.71875,-2.875 c -0.078125,0.359375 -0.078125,0.609375 -0.078125,0.796875 0,1.46875 0.828125,2.21875 1.75,2.21875 1.671875,0 3.390625,-2.140625 3.390625,-4.21875 0,-1.3125 -0.75,-2.25 -1.828125,-2.25 -0.734375,0 -1.421875,0.625 -1.6875,0.90625 z m -0.90625,9.453125 c -0.453125,0 -0.953125,-0.34375 -0.953125,-1.46875 0,-0.46875 0.03125,-0.75 0.296875,-1.75 0.046875,-0.1875 0.265625,-1.09375 0.328125,-1.28125 0.03125,-0.125 0.875,-1.390625 1.859375,-1.390625 0.625,0 0.90625,0.625 0.90625,1.375 0,0.6875 -0.390625,2.296875 -0.75,3.046875 -0.359375,0.78125 -1.03125,1.46875 -1.6875,1.46875 z m 0,0"
   id="id-5dc5b0af-3c8a-4580-ba8a-609434adc9a6" />
      </g></g>
</g><g
       transform="matrix(0.371149,0,0,0.371149,95.819954,260.401)"
       ns2:version="1.8.2"
       ns2:texconverter="pdflatex"
       ns2:pdfconverter="inkscape"
       ns2:text="$$a$$"
       ns2:preamble="/home/buyolitsez/.config/inkscape/extensions/textext/default_packages.tex"
       ns2:scale="1.0520757626303252"
       ns2:alignment="middle center"
       ns2:stroke-to-path="0"
       ns2:inkscapeversion="1.2.2"
       ns2:jacobian_sqrt="0.371149"
       id="g2404"><defs
   id="id-f49b7087-7af2-46ec-a874-ea0c6e405b5b">
    <g
   id="id-9ce423cd-fe96-4fbc-8294-faf27a1e314d">
      <g
   id="id-36f4929b-b7c7-45c4-b144-335ede350a62" />
      <g
   id="id-3fa9a91a-e2e6-407c-953b-fc5e586d69c2">
        <path
   d="M 4.3125,-1.703125 C 4.25,-1.46875 4.25,-1.4375 4.046875,-1.15625 c -0.3125,0.390625 -0.953125,1.015625 -1.625,1.015625 -0.578125,0 -0.921875,-0.53125 -0.921875,-1.375 0,-0.796875 0.453125,-2.40625 0.71875,-3 0.5,-1 1.171875,-1.515625 1.71875,-1.515625 0.953125,0 1.140625,1.171875 1.140625,1.28125 0,0.015625 -0.046875,0.203125 -0.0625,0.234375 z M 5.234375,-5.375 C 5.078125,-5.75 4.6875,-6.328125 3.9375,-6.328125 c -1.609375,0 -3.359375,2.09375 -3.359375,4.21875 0,1.421875 0.828125,2.25 1.796875,2.25 0.796875,0 1.46875,-0.609375 1.875,-1.09375 0.140625,0.859375 0.8125,1.09375 1.25,1.09375 0.421875,0 0.765625,-0.25 1.03125,-0.765625 C 6.75,-1.125 6.953125,-2 6.953125,-2.046875 6.953125,-2.125 6.90625,-2.1875 6.8125,-2.1875 c -0.125,0 -0.140625,0.078125 -0.203125,0.296875 -0.21875,0.84375 -0.484375,1.75 -1.078125,1.75 -0.40625,0 -0.4375,-0.375 -0.4375,-0.65625 0,-0.34375 0.046875,-0.5 0.171875,-1.046875 0.09375,-0.359375 0.171875,-0.6875 0.28125,-1.09375 0.53125,-2.15625 0.65625,-2.671875 0.65625,-2.75 0,-0.203125 -0.15625,-0.359375 -0.359375,-0.359375 -0.46875,0 -0.578125,0.5 -0.609375,0.671875 z m 0,0"
   id="id-ee7810cb-6209-44ed-a843-ea3ec6c3422b" />
      </g>
    </g>
  </defs>
  <g
   fill="#000000"
   fill-opacity="1"
   id="id-cf9c8254-f207-4039-8b87-7cfab9b8d7fa"
   transform="translate(-294.529,-60.5559)">
    <g
   transform="translate(293.951,66.884)"
   id="g2551"><path
   d="M 4.3125,-1.703125 C 4.25,-1.46875 4.25,-1.4375 4.046875,-1.15625 c -0.3125,0.390625 -0.953125,1.015625 -1.625,1.015625 -0.578125,0 -0.921875,-0.53125 -0.921875,-1.375 0,-0.796875 0.453125,-2.40625 0.71875,-3 0.5,-1 1.171875,-1.515625 1.71875,-1.515625 0.953125,0 1.140625,1.171875 1.140625,1.28125 0,0.015625 -0.046875,0.203125 -0.0625,0.234375 z M 5.234375,-5.375 C 5.078125,-5.75 4.6875,-6.328125 3.9375,-6.328125 c -1.609375,0 -3.359375,2.09375 -3.359375,4.21875 0,1.421875 0.828125,2.25 1.796875,2.25 0.796875,0 1.46875,-0.609375 1.875,-1.09375 0.140625,0.859375 0.8125,1.09375 1.25,1.09375 0.421875,0 0.765625,-0.25 1.03125,-0.765625 C 6.75,-1.125 6.953125,-2 6.953125,-2.046875 6.953125,-2.125 6.90625,-2.1875 6.8125,-2.1875 c -0.125,0 -0.140625,0.078125 -0.203125,0.296875 -0.21875,0.84375 -0.484375,1.75 -1.078125,1.75 -0.40625,0 -0.4375,-0.375 -0.4375,-0.65625 0,-0.34375 0.046875,-0.5 0.171875,-1.046875 0.09375,-0.359375 0.171875,-0.6875 0.28125,-1.09375 0.53125,-2.15625 0.65625,-2.671875 0.65625,-2.75 0,-0.203125 -0.15625,-0.359375 -0.359375,-0.359375 -0.46875,0 -0.578125,0.5 -0.609375,0.671875 z m 0,0"
   id="id-09188d8f-02c9-4bfa-b554-2898acf2741a" />
      </g></g>
</g><g
       transform="matrix(0.371149,0,0,0.371149,156.70004,262.54986)"
       ns2:version="1.8.2"
       ns2:texconverter="pdflatex"
       ns2:pdfconverter="inkscape"
       ns2:text="$$\\leqslant \\eps$$"
       ns2:preamble="/home/buyolitsez/.config/inkscape/extensions/textext/default_packages.tex"
       ns2:scale="1.0520757626303252"
       ns2:alignment="middle center"
       ns2:stroke-to-path="0"
       ns2:inkscapeversion="1.2.2"
       ns2:jacobian_sqrt="0.371149"
       id="g2810"><defs
   id="id-f9a1799c-277b-4d9d-aaf0-d38ccba85eae">
    <g
   id="id-29764ccf-63e0-4e86-ba97-1168ac560514">
      <g
   id="id-2d2660a2-cecc-45f4-80b2-406a20c6ebf1" />
      <g
   id="id-d57d95a3-319d-4c70-89e3-15f52ceb9550">
        <path
   d="m 9.6875,-8.515625 c 0.171875,-0.09375 0.265625,-0.15625 0.265625,-0.3125 C 9.953125,-9 9.828125,-9.125 9.671875,-9.125 9.59375,-9.125 9.46875,-9.0625 9.40625,-9.03125 l -7.921875,3.734375 c -0.25,0.125 -0.296875,0.21875 -0.296875,0.328125 0,0.125 0.0625,0.21875 0.296875,0.328125 l 7.921875,3.71875 C 9.59375,-0.8125 9.625,-0.8125 9.671875,-0.8125 c 0.15625,0 0.28125,-0.140625 0.28125,-0.296875 0,-0.1875 -0.125,-0.234375 -0.28125,-0.3125 L 2.15625,-4.96875 Z m -0.28125,10.375 C 9.59375,1.96875 9.625,1.96875 9.671875,1.96875 c 0.15625,0 0.28125,-0.125 0.28125,-0.296875 0,-0.1875 -0.125,-0.234375 -0.28125,-0.3125 L 1.75,-2.359375 C 1.5625,-2.46875 1.53125,-2.46875 1.484375,-2.46875 c -0.171875,0 -0.296875,0.125 -0.296875,0.28125 0,0.125 0.0625,0.21875 0.296875,0.328125 z m 0,0"
   id="id-6286d97a-0ad9-48ff-a8e2-96dbf006e845" />
      </g>
      <g
   id="id-7b46182b-3dd2-4a47-9828-efdb918b9257" />
      <g
   id="id-74eb70f8-78a2-4b72-b86f-3ad52aec5e32">
        <path
   d="m 2,-3.265625 c 0.453125,0.1875 0.9375,0.1875 1.21875,0.1875 0.359375,0 1.109375,0 1.109375,-0.421875 0,-0.265625 -0.265625,-0.359375 -1,-0.359375 -0.359375,0 -0.796875,0.046875 -1.296875,0.265625 -0.4375,-0.21875 -0.609375,-0.546875 -0.609375,-0.859375 0,-0.890625 1.40625,-1.40625 2.6875,-1.40625 0.234375,0 0.75,0 1.359375,0.4375 0.078125,0.0625 0.125,0.09375 0.21875,0.09375 0.171875,0 0.359375,-0.1875 0.359375,-0.359375 0,-0.25 -0.828125,-0.796875 -1.8125,-0.796875 -1.609375,0 -3.125,0.96875 -3.125,2.03125 0,0.515625 0.34375,0.859375 0.578125,1.03125 -0.828125,0.46875 -1.3125,1.234375 -1.3125,1.9375 0,1 0.890625,1.78125 2.265625,1.78125 1.890625,0 2.65625,-1.265625 2.65625,-1.453125 0,-0.078125 -0.0625,-0.140625 -0.140625,-0.140625 C 5.09375,-1.296875 5.0625,-1.25 5,-1.15625 4.84375,-0.890625 4.46875,-0.3125 2.765625,-0.3125 c -0.890625,0 -2.0625,-0.234375 -2.0625,-1.25 C 0.703125,-2.046875 1.0625,-2.78125 2,-3.265625 Z M 2.4375,-3.4375 c 0.390625,-0.140625 0.765625,-0.140625 0.859375,-0.140625 0.40625,0 0.46875,0.03125 0.703125,0.09375 C 3.765625,-3.375 3.734375,-3.375 3.21875,-3.375 c -0.265625,0 -0.5,0 -0.78125,-0.0625 z m 0,0"
   id="id-77b00588-8ae1-493a-8451-bbb1a713df2a" />
      </g>
    </g>
  </defs>
  <g
   fill="#000000"
   fill-opacity="1"
   id="id-51dfb01f-15e4-4771-be39-4f4be3216d68"
   transform="translate(-287.966,-57.759)">
    <g
   transform="translate(286.779,66.884)"
   id="g2803"><path
   d="m 9.6875,-8.515625 c 0.171875,-0.09375 0.265625,-0.15625 0.265625,-0.3125 C 9.953125,-9 9.828125,-9.125 9.671875,-9.125 9.59375,-9.125 9.46875,-9.0625 9.40625,-9.03125 l -7.921875,3.734375 c -0.25,0.125 -0.296875,0.21875 -0.296875,0.328125 0,0.125 0.0625,0.21875 0.296875,0.328125 l 7.921875,3.71875 C 9.59375,-0.8125 9.625,-0.8125 9.671875,-0.8125 c 0.15625,0 0.28125,-0.140625 0.28125,-0.296875 0,-0.1875 -0.125,-0.234375 -0.28125,-0.3125 L 2.15625,-4.96875 Z m -0.28125,10.375 C 9.59375,1.96875 9.625,1.96875 9.671875,1.96875 c 0.15625,0 0.28125,-0.125 0.28125,-0.296875 0,-0.1875 -0.125,-0.234375 -0.28125,-0.3125 L 1.75,-2.359375 C 1.5625,-2.46875 1.53125,-2.46875 1.484375,-2.46875 c -0.171875,0 -0.296875,0.125 -0.296875,0.28125 0,0.125 0.0625,0.21875 0.296875,0.328125 z m 0,0"
   id="id-041e2fef-baf6-4e6a-ae4e-c2be4228fcf8" />
      </g></g>
  <g
   fill="#000000"
   fill-opacity="1"
   id="id-0542c84d-84a0-47f5-8b70-b924d2d04829"
   transform="translate(-287.966,-57.759)">
    <g
   transform="translate(301.923,66.884)"
   id="g2807"><path
   d="m 2,-3.265625 c 0.453125,0.1875 0.9375,0.1875 1.21875,0.1875 0.359375,0 1.109375,0 1.109375,-0.421875 0,-0.265625 -0.265625,-0.359375 -1,-0.359375 -0.359375,0 -0.796875,0.046875 -1.296875,0.265625 -0.4375,-0.21875 -0.609375,-0.546875 -0.609375,-0.859375 0,-0.890625 1.40625,-1.40625 2.6875,-1.40625 0.234375,0 0.75,0 1.359375,0.4375 0.078125,0.0625 0.125,0.09375 0.21875,0.09375 0.171875,0 0.359375,-0.1875 0.359375,-0.359375 0,-0.25 -0.828125,-0.796875 -1.8125,-0.796875 -1.609375,0 -3.125,0.96875 -3.125,2.03125 0,0.515625 0.34375,0.859375 0.578125,1.03125 -0.828125,0.46875 -1.3125,1.234375 -1.3125,1.9375 0,1 0.890625,1.78125 2.265625,1.78125 1.890625,0 2.65625,-1.265625 2.65625,-1.453125 0,-0.078125 -0.0625,-0.140625 -0.140625,-0.140625 C 5.09375,-1.296875 5.0625,-1.25 5,-1.15625 4.84375,-0.890625 4.46875,-0.3125 2.765625,-0.3125 c -0.890625,0 -2.0625,-0.234375 -2.0625,-1.25 C 0.703125,-2.046875 1.0625,-2.78125 2,-3.265625 Z M 2.4375,-3.4375 c 0.390625,-0.140625 0.765625,-0.140625 0.859375,-0.140625 0.40625,0 0.46875,0.03125 0.703125,0.09375 C 3.765625,-3.375 3.734375,-3.375 3.21875,-3.375 c -0.265625,0 -0.5,0 -0.78125,-0.0625 z m 0,0"
   id="id-a3203154-bf30-4185-9f23-522bb0d2e14d" />
      </g></g>
</g><g
       transform="matrix(0.371149,0,0,0.371149,163.93713,266.674)"
       ns2:version="1.8.2"
       ns2:texconverter="pdflatex"
       ns2:pdfconverter="inkscape"
       ns2:text="$$\\underbrace{}$$"
       ns2:preamble="/home/buyolitsez/.config/inkscape/extensions/textext/default_packages.tex"
       ns2:scale="1.0520757626303252"
       ns2:alignment="middle center"
       ns2:stroke-to-path="0"
       ns2:inkscapeversion="1.2.2"
       ns2:jacobian_sqrt="0.371149"
       id="g3213"><defs
   id="id-b4d5eaab-4dfd-457a-8479-f25309f97e7c">
    <g
   id="id-eb2d559d-4e5d-4687-a0bd-f310b825af22">
      <g
   id="id-a09fe1b1-9116-48e9-a080-d5bbc5b60919" />
      <g
   id="id-f53c6899-1935-4d46-afd8-b3d628a5bc6d">
        <path
   d="m 6.59375,-1.3125 c 0,-0.34375 0,-0.40625 -0.203125,-0.40625 -0.875,-0.015625 -2.28125,-0.125 -3.578125,-0.765625 C 1.265625,-3.25 0.671875,-4.15625 0.3125,-4.71875 0.265625,-4.796875 0.1875,-4.796875 0,-4.796875 c -0.328125,0 -0.34375,0.015625 -0.34375,0.375 V -4.1875 C 1.609375,-0.671875 4.828125,0 6.296875,0 6.59375,0 6.59375,-0.015625 6.59375,-0.40625 Z m 0,0"
   id="id-562a8254-fe7f-4b54-9bfc-b1468fc20524" />
      </g>
      <g
   id="id-2fd35003-96f3-4dea-b3e4-35471ee7966c">
        <path
   d="M 6.796875,2.46875 C 4.84375,-1.046875 1.625,-1.71875 0.15625,-1.71875 c -0.296875,0 -0.296875,0.015625 -0.296875,0.40625 v 0.90625 c 0,0.328125 0,0.40625 0.203125,0.40625 0.875,0.015625 2.296875,0.125 3.578125,0.765625 C 5.1875,1.53125 5.78125,2.4375 6.140625,3 c 0.046875,0.0625 0.125,0.0625 0.3125,0.0625 0.328125,0 0.34375,0 0.34375,-0.359375 z m 0,0"
   id="id-2bd52e41-7ba0-4b38-aeac-f3cfbf7aac4b" />
      </g>
      <g
   id="id-0d2cbc99-62d2-4b6a-878d-f20affbd3e5d">
        <path
   d="m 6.59375,-1.3125 c 0,-0.390625 0,-0.40625 -0.296875,-0.40625 -1.46875,0 -4.6875,0.6875 -6.640625,4.1875 V 2.703125 C -0.34375,3.0625 -0.328125,3.0625 0,3.0625 c 0.265625,0 0.28125,0 0.359375,-0.109375 C 1.53125,1.078125 3.515625,0.0625 6.421875,0 6.59375,0 6.59375,-0.09375 6.59375,-0.40625 Z m 0,0"
   id="id-0747586d-eefe-4f74-87d2-9df821f807ac" />
      </g>
      <g
   id="id-49c3db0e-dc21-480e-8f93-206f770b6a51">
        <path
   d="m 6.796875,-4.421875 c 0,-0.359375 -0.015625,-0.375 -0.34375,-0.375 -0.265625,0 -0.28125,0.015625 -0.359375,0.125 -1.171875,1.875 -3.15625,2.890625 -6.0625,2.953125 -0.171875,0 -0.171875,0.09375 -0.171875,0.40625 v 0.90625 c 0,0.390625 0,0.40625 0.296875,0.40625 1.46875,0 4.6875,-0.6875 6.640625,-4.1875 z m 0,0"
   id="id-ef2ce728-1ca4-43fe-8cd5-59ae45283db5" />
      </g>
    </g>
  </defs>
  <g
   fill="#000000"
   fill-opacity="1"
   id="id-d49df991-5cce-46b8-bdd7-44994fe0dd0f"
   transform="translate(-308.51014,-88.112408)">
    <g
   transform="translate(284.726,72.93)"
   id="g3201"><path
   d="m 6.59375,-1.3125 c 0,-0.34375 0,-0.40625 -0.203125,-0.40625 -0.875,-0.015625 -2.28125,-0.125 -3.578125,-0.765625 C 1.265625,-3.25 0.671875,-4.15625 0.3125,-4.71875 0.265625,-4.796875 0.1875,-4.796875 0,-4.796875 c -0.328125,0 -0.34375,0.015625 -0.34375,0.375 V -4.1875 C 1.609375,-0.671875 4.828125,0 6.296875,0 6.59375,0 6.59375,-0.015625 6.59375,-0.40625 Z m 0,0"
   id="id-ff465011-38ea-42fa-9f7f-ea63db7b1473" />
      </g><g
   transform="translate(291.182,72.93)"
   id="g3204"><path
   d="M 6.796875,2.46875 C 4.84375,-1.046875 1.625,-1.71875 0.15625,-1.71875 c -0.296875,0 -0.296875,0.015625 -0.296875,0.40625 v 0.90625 c 0,0.328125 0,0.40625 0.203125,0.40625 0.875,0.015625 2.296875,0.125 3.578125,0.765625 C 5.1875,1.53125 5.78125,2.4375 6.140625,3 c 0.046875,0.0625 0.125,0.0625 0.3125,0.0625 0.328125,0 0.34375,0 0.34375,-0.359375 z m 0,0"
   id="id-84f0ac2b-3d42-4280-a072-812512ad719b" />
      </g><g
   transform="translate(297.638,72.93)"
   id="g3207"><path
   d="m 6.59375,-1.3125 c 0,-0.390625 0,-0.40625 -0.296875,-0.40625 -1.46875,0 -4.6875,0.6875 -6.640625,4.1875 V 2.703125 C -0.34375,3.0625 -0.328125,3.0625 0,3.0625 c 0.265625,0 0.28125,0 0.359375,-0.109375 C 1.53125,1.078125 3.515625,0.0625 6.421875,0 6.59375,0 6.59375,-0.09375 6.59375,-0.40625 Z m 0,0"
   id="id-e9ecdebd-bc0e-4958-b31f-9de7d6c90ce8" />
      </g><g
   transform="translate(304.093,72.93)"
   id="g3210"><path
   d="m 6.796875,-4.421875 c 0,-0.359375 -0.015625,-0.375 -0.34375,-0.375 -0.265625,0 -0.28125,0.015625 -0.359375,0.125 -1.171875,1.875 -3.15625,2.890625 -6.0625,2.953125 -0.171875,0 -0.171875,0.09375 -0.171875,0.40625 v 0.90625 c 0,0.390625 0,0.40625 0.296875,0.40625 1.46875,0 4.6875,-0.6875 6.640625,-4.1875 z m 0,0"
   id="id-f1f9ba59-ca33-4bfb-8133-1890770fa664" />
      </g></g>
</g></g></svg>
