<?xml version="1.0" encoding="UTF-8" standalone="no"?>
<!-- Created with Inkscape (http://www.inkscape.org/) -->

<svg
   width="240mm"
   height="120mm"
   viewBox="0 0 240 120"
   version="1.1"
   id="svg8"
   inkscape:version="1.2.2 (b0a8486541, 2022-12-01)"
   sodipodi:docname="example_analytic_square_path.svg"
   xmlns:inkscape="http://www.inkscape.org/namespaces/inkscape"
   xmlns:sodipodi="http://sodipodi.sourceforge.net/DTD/sodipodi-0.dtd"
   xmlns="http://www.w3.org/2000/svg"
   xmlns:svg="http://www.w3.org/2000/svg"
   xmlns:rdf="http://www.w3.org/1999/02/22-rdf-syntax-ns#"
   xmlns:cc="http://creativecommons.org/ns#"
   xmlns:dc="http://purl.org/dc/elements/1.1/"
   xmlns:ns2="http://www.iki.fi/pav/software/textext/">
  <defs
     id="defs2">
    <marker
       style="overflow:visible"
       id="Arrow3"
       refX="83"
       refY="0"
       orient="auto-start-reverse"
       inkscape:stockid="Arrow3"
       markerWidth="4.2071066"
       markerHeight="7"
       viewBox="0 0 4.2071068 7"
       inkscape:isstock="true"
       inkscape:collect="always"
       preserveAspectRatio="xMidYMid">
      <path
         style="fill:none;stroke:context-stroke;stroke-width:1;stroke-linecap:round"
         d="M 0.45710678,3 -2.5428932,0 0.45710678,-3"
         id="arrow3"
         sodipodi:nodetypes="ccc" />
    </marker>
    <marker
       style="overflow:visible"
       id="Arrow1"
       refX="138"
       refY="0"
       orient="auto-start-reverse"
       inkscape:stockid="Arrow1"
       markerWidth="4.0606599"
       markerHeight="6.7071061"
       viewBox="0 0 4.0606602 6.7071068"
       inkscape:isstock="true"
       inkscape:collect="always"
       preserveAspectRatio="xMidYMid">
      <path
         style="fill:none;stroke:context-stroke;stroke-width:1;stroke-linecap:butt"
         d="M 3,-3 0,0 3,3"
         id="path5057"
         transform="rotate(180,0.125,0)"
         sodipodi:nodetypes="ccc" />
    </marker>
  </defs>
  <sodipodi:namedview
     id="base"
     pagecolor="#ffffff"
     bordercolor="#666666"
     borderopacity="1.0"
     inkscape:pageopacity="0.0"
     inkscape:pageshadow="2"
     inkscape:zoom="1.406257"
     inkscape:cx="306.48736"
     inkscape:cy="341.68718"
     inkscape:document-units="mm"
     inkscape:current-layer="layer1"
     showgrid="false"
     showborder="true"
     width="200mm"
     showguides="true"
     inkscape:guide-bbox="true"
     inkscape:window-width="1920"
     inkscape:window-height="2036"
     inkscape:window-x="0"
     inkscape:window-y="0"
     inkscape:window-maximized="1"
     inkscape:showpageshadow="2"
     inkscape:pagecheckerboard="0"
     inkscape:deskcolor="#d1d1d1">
    <inkscape:grid
       type="xygrid"
       id="grid815"
       units="mm"
       spacingx="10"
       spacingy="10"
       empspacing="4"
       dotted="false" />
  </sodipodi:namedview>
  <metadata
     id="metadata5">
    <rdf:RDF>
      <cc:Work
         rdf:about="">
        <dc:format>image/svg+xml</dc:format>
        <dc:type
           rdf:resource="http://purl.org/dc/dcmitype/StillImage" />
        <dc:title />
      </cc:Work>
    </rdf:RDF>
  </metadata>
  <g
     inkscape:label="Layer 1"
     inkscape:groupmode="layer"
     id="layer1"
     transform="translate(0, -177)">
    <path
       style="fill:#000000;fill-opacity:0;fill-rule:evenodd;stroke:#000000;stroke-width:0.627999;stroke-dasharray:none;paint-order:markers stroke fill"
       d="M 27.024153,237 H 212.97585"
       id="path656" />
    <path
       style="fill:#000000;fill-opacity:0;fill-rule:evenodd;stroke:#000000;stroke-width:0.627999;stroke-dasharray:none;paint-order:markers stroke fill"
       d="m 27.179953,234.69455 v 4.61089"
       id="path1938" />
    <path
       style="fill:#000000;fill-opacity:0;fill-rule:evenodd;stroke:#000000;stroke-width:0.627999;stroke-dasharray:none;paint-order:markers stroke fill"
       d="m 80.38755,234.69455 v 4.61089"
       id="path1940" />
    <g
       transform="matrix(0.458611,0,0,0.458611,23.427426,242.31042)"
       ns2:version="1.8.2"
       ns2:texconverter="pdflatex"
       ns2:pdfconverter="inkscape"
       ns2:text="$$-1$$"
       ns2:preamble="/home/buyolitsez/.config/inkscape/extensions/textext/default_packages.tex"
       ns2:scale="1.3"
       ns2:alignment="middle center"
       ns2:stroke-to-path="0"
       ns2:inkscapeversion="1.2.2"
       ns2:jacobian_sqrt="0.458611"
       id="g1974">
      <defs
         id="id-d80bc4bb-b420-42f7-98e3-b2b6e2324c0e">
        <g
           id="id-25188f35-646a-4e8c-b4b1-b5d529ad1418">
          <g
             id="id-b74e2a2b-a5d8-488c-a9fb-e3198a04e155" />
          <g
             id="id-14238eb6-6ff6-4195-b0bd-307a80222190">
            <path
               d="m 9.453125,-3.296875 c 0.25,0 0.5,0 0.5,-0.28125 0,-0.296875 -0.25,-0.296875 -0.5,-0.296875 H 1.6875 c -0.234375,0 -0.5,0 -0.5,0.296875 0,0.28125 0.265625,0.28125 0.5,0.28125 z m 0,0"
               id="id-f7cb29ff-c282-4823-b98d-24326f0383db" />
          </g>
          <g
             id="id-3d6c2309-1866-42b2-a675-4018b5ab3e54" />
          <g
             id="id-36f86f0f-6f04-428d-a661-816e3a86d8c9">
            <path
               d="m 4.125,-9.1875 c 0,-0.34375 0,-0.34375 -0.28125,-0.34375 C 3.5,-9.15625 2.78125,-8.625 1.3125,-8.625 v 0.421875 c 0.328125,0 1.046875,0 1.828125,-0.375 v 7.46875 c 0,0.515625 -0.046875,0.6875 -1.296875,0.6875 H 1.390625 V 0 c 0.390625,-0.03125 1.78125,-0.03125 2.25,-0.03125 0.46875,0 1.859375,0 2.234375,0.03125 V -0.421875 H 5.4375 c -1.265625,0 -1.3125,-0.171875 -1.3125,-0.6875 z m 0,0"
               id="id-d0500b8a-3750-4fcf-9e23-c5e1a02b2932" />
          </g>
        </g>
      </defs>
      <g
         fill="#000000"
         fill-opacity="1"
         id="id-b32fc6fa-d3bd-447e-acf5-4e2765f1990b"
         transform="translate(-289.735,-57.3528)">
        <g
           transform="translate(288.547,66.884)"
           id="g1967">
          <path
             d="m 9.453125,-3.296875 c 0.25,0 0.5,0 0.5,-0.28125 0,-0.296875 -0.25,-0.296875 -0.5,-0.296875 H 1.6875 c -0.234375,0 -0.5,0 -0.5,0.296875 0,0.28125 0.265625,0.28125 0.5,0.28125 z m 0,0"
             id="id-f21b9a5b-7b6a-4a03-b970-38f415f385ff" />
        </g>
      </g>
      <g
         fill="#000000"
         fill-opacity="1"
         id="id-086a72c0-1769-4615-96ea-9c07ac64f615"
         transform="translate(-289.735,-57.3528)">
        <g
           transform="translate(299.705,66.884)"
           id="g1971">
          <path
             d="m 4.125,-9.1875 c 0,-0.34375 0,-0.34375 -0.28125,-0.34375 C 3.5,-9.15625 2.78125,-8.625 1.3125,-8.625 v 0.421875 c 0.328125,0 1.046875,0 1.828125,-0.375 v 7.46875 c 0,0.515625 -0.046875,0.6875 -1.296875,0.6875 H 1.390625 V 0 c 0.390625,-0.03125 1.78125,-0.03125 2.25,-0.03125 0.46875,0 1.859375,0 2.234375,0.03125 V -0.421875 H 5.4375 c -1.265625,0 -1.3125,-0.171875 -1.3125,-0.6875 z m 0,0"
             id="id-09903619-91e6-4ff1-a6f5-03b4939e3d89" />
        </g>
      </g>
    </g>
    <g
       transform="matrix(0.458611,0,0,0.458611,79.936199,242.31)"
       ns2:version="1.8.2"
       ns2:texconverter="pdflatex"
       ns2:pdfconverter="inkscape"
       ns2:text="$$1$$"
       ns2:preamble="/home/buyolitsez/.config/inkscape/extensions/textext/default_packages.tex"
       ns2:scale="1.3"
       ns2:alignment="middle center"
       ns2:stroke-to-path="0"
       ns2:inkscapeversion="1.2.2"
       ns2:jacobian_sqrt="0.458611"
       id="g2026">
      <defs
         id="id-9eba2a85-08e8-43a5-a0c6-096120c9b3d9">
        <g
           id="id-0aa06c8c-352b-4b6e-bcea-e612ffb6dc7d">
          <g
             id="id-a56f83a4-7602-4641-9a68-02463221bc70" />
          <g
             id="id-45cc94d4-1d6b-4702-aa06-dbc3cf1c720c">
            <path
               d="m 4.125,-9.1875 c 0,-0.34375 0,-0.34375 -0.28125,-0.34375 C 3.5,-9.15625 2.78125,-8.625 1.3125,-8.625 v 0.421875 c 0.328125,0 1.046875,0 1.828125,-0.375 v 7.46875 c 0,0.515625 -0.046875,0.6875 -1.296875,0.6875 H 1.390625 V 0 c 0.390625,-0.03125 1.78125,-0.03125 2.25,-0.03125 0.46875,0 1.859375,0 2.234375,0.03125 V -0.421875 H 5.4375 c -1.265625,0 -1.3125,-0.171875 -1.3125,-0.6875 z m 0,0"
               id="id-caa7e809-f9ad-4cda-b57d-a2427e8bb5aa" />
          </g>
        </g>
      </defs>
      <g
         fill="#000000"
         fill-opacity="1"
         id="id-9cecbe7c-4402-410f-85f7-e8a2ca497e21"
         transform="translate(-295.439,-57.3528)">
        <g
           transform="translate(294.126,66.884)"
           id="g2095">
          <path
             d="m 4.125,-9.1875 c 0,-0.34375 0,-0.34375 -0.28125,-0.34375 C 3.5,-9.15625 2.78125,-8.625 1.3125,-8.625 v 0.421875 c 0.328125,0 1.046875,0 1.828125,-0.375 v 7.46875 c 0,0.515625 -0.046875,0.6875 -1.296875,0.6875 H 1.390625 V 0 c 0.390625,-0.03125 1.78125,-0.03125 2.25,-0.03125 0.46875,0 1.859375,0 2.234375,0.03125 V -0.421875 H 5.4375 c -1.265625,0 -1.3125,-0.171875 -1.3125,-0.6875 z m 0,0"
             id="id-101ba9fe-50ee-4458-b459-345fc902b8c4" />
        </g>
      </g>
    </g>
    <g
       transform="matrix(0.458611,0,0,0.458611,79.936199,242.31)"
       ns2:version="1.8.2"
       ns2:texconverter="pdflatex"
       ns2:pdfconverter="inkscape"
       ns2:text="$$1$$"
       ns2:preamble="/home/buyolitsez/.config/inkscape/extensions/textext/default_packages.tex"
       ns2:scale="1.3"
       ns2:alignment="middle center"
       ns2:stroke-to-path="0"
       ns2:inkscapeversion="1.2.2"
       ns2:jacobian_sqrt="0.458611"
       id="g2160">
      <defs
         id="defs2152">
        <g
           id="g2150">
          <g
             id="g2144" />
          <g
             id="g2148">
            <path
               d="m 4.125,-9.1875 c 0,-0.34375 0,-0.34375 -0.28125,-0.34375 C 3.5,-9.15625 2.78125,-8.625 1.3125,-8.625 v 0.421875 c 0.328125,0 1.046875,0 1.828125,-0.375 v 7.46875 c 0,0.515625 -0.046875,0.6875 -1.296875,0.6875 H 1.390625 V 0 c 0.390625,-0.03125 1.78125,-0.03125 2.25,-0.03125 0.46875,0 1.859375,0 2.234375,0.03125 V -0.421875 H 5.4375 c -1.265625,0 -1.3125,-0.171875 -1.3125,-0.6875 z m 0,0"
               id="path2146" />
          </g>
        </g>
      </defs>
      <g
         fill="#000000"
         fill-opacity="1"
         id="g2158"
         transform="translate(-295.439,-57.3528)">
        <g
           transform="translate(294.126,66.884)"
           id="g2156">
          <path
             d="m 4.125,-9.1875 c 0,-0.34375 0,-0.34375 -0.28125,-0.34375 C 3.5,-9.15625 2.78125,-8.625 1.3125,-8.625 v 0.421875 c 0.328125,0 1.046875,0 1.828125,-0.375 v 7.46875 c 0,0.515625 -0.046875,0.6875 -1.296875,0.6875 H 1.390625 V 0 c 0.390625,-0.03125 1.78125,-0.03125 2.25,-0.03125 0.46875,0 1.859375,0 2.234375,0.03125 V -0.421875 H 5.4375 c -1.265625,0 -1.3125,-0.171875 -1.3125,-0.6875 z m 0,0"
             id="path2154" />
        </g>
      </g>
    </g>
    <g
       transform="matrix(0.458611 0 0 0.458611 145.104 242.501)"
       ns2:version="1.8.2"
       ns2:texconverter="pdflatex"
       ns2:pdfconverter="inkscape"
       ns2:text="$$x_0$$"
       ns2:preamble="/home/buyolitsez/.config/inkscape/extensions/textext/default_packages.tex"
       ns2:scale="1.3"
       ns2:alignment="middle center"
       ns2:stroke-to-path="0"
       ns2:inkscapeversion="1.2.2"
       ns2:jacobian_sqrt="0.458611"
       id="g2180">
      <defs
         id="id-c3d3cddd-4aee-4453-b77e-b9dea18ecc0b">
        <g
           id="id-a2037969-0458-467a-a9ee-28cfcd29d97f">
          <g
             id="id-a8760aa2-f2fd-4fa1-bd75-9f8c57e8158b" />
          <g
             id="id-246da559-5b60-429d-907d-f24dd154bab7">
            <path
               d="m 6.796875,-5.859375 c -0.453125,0.09375 -0.625,0.4375 -0.625,0.703125 0,0.34375 0.265625,0.46875 0.46875,0.46875 0.4375,0 0.734375,-0.375 0.734375,-0.765625 0,-0.59375 -0.6875,-0.875 -1.296875,-0.875 -0.875,0 -1.359375,0.859375 -1.484375,1.140625 C 4.265625,-6.265625 3.375,-6.328125 3.109375,-6.328125 1.65625,-6.328125 0.875,-4.453125 0.875,-4.125 0.875,-4.078125 0.9375,-4 1.03125,-4 1.140625,-4 1.171875,-4.09375 1.203125,-4.140625 1.6875,-5.734375 2.65625,-6.03125 3.0625,-6.03125 c 0.65625,0 0.78125,0.59375 0.78125,0.9375 0,0.3125 -0.078125,0.640625 -0.265625,1.328125 l -0.484375,1.96875 c -0.203125,0.859375 -0.625,1.65625 -1.390625,1.65625 -0.0625,0 -0.421875,0 -0.734375,-0.1875 0.515625,-0.109375 0.640625,-0.53125 0.640625,-0.703125 0,-0.28125 -0.21875,-0.453125 -0.484375,-0.453125 -0.34375,0 -0.71875,0.296875 -0.71875,0.75 0,0.609375 0.671875,0.875 1.28125,0.875 0.6875,0 1.1875,-0.546875 1.484375,-1.125 0.234375,0.84375 0.9375,1.125 1.46875,1.125 1.46875,0 2.25,-1.875 2.25,-2.1875 0,-0.078125 -0.0625,-0.140625 -0.15625,-0.140625 -0.125,0 -0.140625,0.078125 -0.171875,0.1875 -0.390625,1.265625 -1.234375,1.859375 -1.875,1.859375 -0.5,0 -0.765625,-0.375 -0.765625,-0.96875 0,-0.3125 0.046875,-0.546875 0.28125,-1.484375 l 0.5,-1.953125 C 4.921875,-5.40625 5.40625,-6.03125 6.0625,-6.03125 c 0.03125,0 0.4375,0 0.734375,0.171875 z m 0,0"
               id="id-dd69353e-ada2-4ea2-9ed0-b684a498c123" />
          </g>
          <g
             id="id-0e9cdb7d-3502-40c8-990c-0dbb474e686f" />
          <g
             id="id-40b53f40-c606-4c6e-92d0-7f20f797cff9">
            <path
               d="m 4.578125,-3.1875 c 0,-0.796875 -0.046875,-1.59375 -0.390625,-2.328125 -0.453125,-0.96875 -1.28125,-1.125 -1.6875,-1.125 -0.609375,0 -1.328125,0.265625 -1.75,1.1875 -0.3125,0.6875 -0.359375,1.46875 -0.359375,2.265625 0,0.75 0.03125,1.640625 0.453125,2.40625 0.421875,0.796875 1.15625,1 1.640625,1 0.53125,0 1.296875,-0.203125 1.734375,-1.15625 0.3125,-0.6875 0.359375,-1.46875 0.359375,-2.25 z M 2.484375,0 C 2.09375,0 1.5,-0.25 1.328125,-1.203125 1.21875,-1.796875 1.21875,-2.71875 1.21875,-3.3125 c 0,-0.640625 0,-1.296875 0.078125,-1.828125 0.1875,-1.1875 0.9375,-1.28125 1.1875,-1.28125 0.328125,0 0.984375,0.1875 1.171875,1.171875 0.109375,0.5625 0.109375,1.3125 0.109375,1.9375 0,0.75 0,1.421875 -0.109375,2.0625 C 3.5,-0.296875 2.9375,0 2.484375,0 Z m 0,0"
               id="id-cba869a1-c842-44a6-a0ad-31ec85a04c2d" />
          </g>
        </g>
      </defs>
      <g
         fill="#000000"
         fill-opacity="1"
         id="id-d939a2c2-1ba5-40f0-abb7-98730f78a260"
         transform="translate(-291.313, -60.5559)">
        <g
           transform="translate(290.907, 66.884)"
           id="g2284">
          <path
             d="m 6.796875,-5.859375 c -0.453125,0.09375 -0.625,0.4375 -0.625,0.703125 0,0.34375 0.265625,0.46875 0.46875,0.46875 0.4375,0 0.734375,-0.375 0.734375,-0.765625 0,-0.59375 -0.6875,-0.875 -1.296875,-0.875 -0.875,0 -1.359375,0.859375 -1.484375,1.140625 C 4.265625,-6.265625 3.375,-6.328125 3.109375,-6.328125 1.65625,-6.328125 0.875,-4.453125 0.875,-4.125 0.875,-4.078125 0.9375,-4 1.03125,-4 1.140625,-4 1.171875,-4.09375 1.203125,-4.140625 1.6875,-5.734375 2.65625,-6.03125 3.0625,-6.03125 c 0.65625,0 0.78125,0.59375 0.78125,0.9375 0,0.3125 -0.078125,0.640625 -0.265625,1.328125 l -0.484375,1.96875 c -0.203125,0.859375 -0.625,1.65625 -1.390625,1.65625 -0.0625,0 -0.421875,0 -0.734375,-0.1875 0.515625,-0.109375 0.640625,-0.53125 0.640625,-0.703125 0,-0.28125 -0.21875,-0.453125 -0.484375,-0.453125 -0.34375,0 -0.71875,0.296875 -0.71875,0.75 0,0.609375 0.671875,0.875 1.28125,0.875 0.6875,0 1.1875,-0.546875 1.484375,-1.125 0.234375,0.84375 0.9375,1.125 1.46875,1.125 1.46875,0 2.25,-1.875 2.25,-2.1875 0,-0.078125 -0.0625,-0.140625 -0.15625,-0.140625 -0.125,0 -0.140625,0.078125 -0.171875,0.1875 -0.390625,1.265625 -1.234375,1.859375 -1.875,1.859375 -0.5,0 -0.765625,-0.375 -0.765625,-0.96875 0,-0.3125 0.046875,-0.546875 0.28125,-1.484375 l 0.5,-1.953125 C 4.921875,-5.40625 5.40625,-6.03125 6.0625,-6.03125 c 0.03125,0 0.4375,0 0.734375,0.171875 z m 0,0"
             id="id-0e5293bb-2bb6-4e81-845c-41b970a9b6dc" />
        </g>
      </g>
      <g
         fill="#000000"
         fill-opacity="1"
         id="id-dccfe45b-60c4-4879-bafd-4a05c19cbbfb"
         transform="translate(-291.313, -60.5559)">
        <g
           transform="translate(298.889, 69.036)"
           id="g2288">
          <path
             d="m 4.578125,-3.1875 c 0,-0.796875 -0.046875,-1.59375 -0.390625,-2.328125 -0.453125,-0.96875 -1.28125,-1.125 -1.6875,-1.125 -0.609375,0 -1.328125,0.265625 -1.75,1.1875 -0.3125,0.6875 -0.359375,1.46875 -0.359375,2.265625 0,0.75 0.03125,1.640625 0.453125,2.40625 0.421875,0.796875 1.15625,1 1.640625,1 0.53125,0 1.296875,-0.203125 1.734375,-1.15625 0.3125,-0.6875 0.359375,-1.46875 0.359375,-2.25 z M 2.484375,0 C 2.09375,0 1.5,-0.25 1.328125,-1.203125 1.21875,-1.796875 1.21875,-2.71875 1.21875,-3.3125 c 0,-0.640625 0,-1.296875 0.078125,-1.828125 0.1875,-1.1875 0.9375,-1.28125 1.1875,-1.28125 0.328125,0 0.984375,0.1875 1.171875,1.171875 0.109375,0.5625 0.109375,1.3125 0.109375,1.9375 0,0.75 0,1.421875 -0.109375,2.0625 C 3.5,-0.296875 2.9375,0 2.484375,0 Z m 0,0"
             id="id-5a130b29-0503-4dbd-81f8-7718c39adc40" />
        </g>
      </g>
    </g>
    <rect
       style="fill:#000000;fill-opacity:0;fill-rule:evenodd;stroke:#000000;stroke-width:0.627999;stroke-dasharray:none;paint-order:markers stroke fill;marker-start:url(#Arrow1);marker-end:url(#Arrow3);marker-mid:"
       id="rect2370"
       width="139.92494"
       height="69.688698"
       x="4.0510445"
       y="204.24754" />
    <rect
       style="fill:#808080;fill-opacity:0;fill-rule:evenodd;stroke:#999999;stroke-width:0.62800005;stroke-dasharray:none;paint-order:markers stroke fill;marker-start:url(#Arrow1);marker-end:url(#Arrow3);stroke-opacity:1"
       id="rect10623"
       width="139.92494"
       height="69.688698"
       x="4.0510445"
       y="204.24754" />
    <g
       transform="matrix(0.458611,0,0,0.458611,66.909015,195.9871)"
       ns2:version="1.8.2"
       ns2:texconverter="pdflatex"
       ns2:pdfconverter="inkscape"
       ns2:text="$$\\gamma$$"
       ns2:preamble="/home/buyolitsez/.config/inkscape/extensions/textext/default_packages.tex"
       ns2:scale="1.3"
       ns2:alignment="middle center"
       ns2:stroke-to-path="0"
       ns2:inkscapeversion="1.2.2"
       ns2:jacobian_sqrt="0.458611"
       id="g11980">
      <defs
         id="id-5b4e9459-f7c8-453d-b636-1604982174da">
        <g
           id="id-5b3296c9-dd3b-46f8-8ec7-ff5bdf52852b">
          <g
             id="id-43469ab1-8914-4e5a-974c-5277f02072d3" />
          <g
             id="id-654cc72e-4c5c-4636-9298-163d3e5ac4c3">
            <path
               d="M 5.421875,-1.75 C 5.390625,-2.453125 5.359375,-3.5625 4.8125,-4.84375 4.53125,-5.5625 4.046875,-6.328125 3,-6.328125 c -1.765625,0 -2.734375,2.25 -2.734375,2.625 0,0.125 0.109375,0.125 0.15625,0.125 0.125,0 0.125,-0.015625 0.1875,-0.203125 0.3125,-0.890625 1.234375,-1.59375 2.21875,-1.59375 1.984375,0 2.28125,2.21875 2.28125,3.640625 0,0.90625 -0.109375,1.203125 -0.1875,1.484375 -0.28125,0.890625 -0.75,2.671875 -0.75,3.078125 0,0.109375 0.046875,0.234375 0.15625,0.234375 0.21875,0 0.34375,-0.46875 0.5,-1.046875 0.34375,-1.25 0.4375,-1.890625 0.5,-2.453125 0.046875,-0.34375 0.875,-2.71875 2,-4.96875 C 7.4375,-5.640625 7.625,-6.03125 7.625,-6.0625 c 0,-0.015625 -0.015625,-0.125 -0.140625,-0.125 -0.03125,0 -0.09375,0 -0.125,0.0625 -0.03125,0.03125 -0.53125,1 -0.96875,1.984375 -0.203125,0.484375 -0.5,1.125 -0.96875,2.390625 z m 0,0"
               id="id-b9b2e54f-916e-46dc-98cf-ffc2a6d59ff2" />
          </g>
        </g>
      </defs>
      <g
         fill="#000000"
         fill-opacity="1"
         id="id-346ba471-2d1d-40b0-85c5-c680be6878fc"
         transform="translate(-293.87,-60.5559)">
        <g
           transform="translate(293.604,66.884)"
           id="g11977">
          <path
             d="M 5.421875,-1.75 C 5.390625,-2.453125 5.359375,-3.5625 4.8125,-4.84375 4.53125,-5.5625 4.046875,-6.328125 3,-6.328125 c -1.765625,0 -2.734375,2.25 -2.734375,2.625 0,0.125 0.109375,0.125 0.15625,0.125 0.125,0 0.125,-0.015625 0.1875,-0.203125 0.3125,-0.890625 1.234375,-1.59375 2.21875,-1.59375 1.984375,0 2.28125,2.21875 2.28125,3.640625 0,0.90625 -0.109375,1.203125 -0.1875,1.484375 -0.28125,0.890625 -0.75,2.671875 -0.75,3.078125 0,0.109375 0.046875,0.234375 0.15625,0.234375 0.21875,0 0.34375,-0.46875 0.5,-1.046875 0.34375,-1.25 0.4375,-1.890625 0.5,-2.453125 0.046875,-0.34375 0.875,-2.71875 2,-4.96875 C 7.4375,-5.640625 7.625,-6.03125 7.625,-6.0625 c 0,-0.015625 -0.015625,-0.125 -0.140625,-0.125 -0.03125,0 -0.09375,0 -0.125,0.0625 -0.03125,0.03125 -0.53125,1 -0.96875,1.984375 -0.203125,0.484375 -0.5,1.125 -0.96875,2.390625 z m 0,0"
             id="id-b4e24575-d9fb-4db9-9c58-42e6372c9538" />
        </g>
      </g>
    </g>
  </g>
</svg>
