<?xml version="1.0" encoding="UTF-8" standalone="no"?>
<!-- Created with Inkscape (http://www.inkscape.org/) -->

<svg
   sodipodi:docname="feyer_kernel_plot.svg"
   inkscape:version="1.2.2 (b0a8486541, 2022-12-01)"
   id="svg8"
   version="1.1"
   viewBox="0 0 240 120"
   height="120mm"
   width="240mm"
   xmlns:inkscape="http://www.inkscape.org/namespaces/inkscape"
   xmlns:sodipodi="http://sodipodi.sourceforge.net/DTD/sodipodi-0.dtd"
   xmlns="http://www.w3.org/2000/svg"
   xmlns:svg="http://www.w3.org/2000/svg"
   xmlns:rdf="http://www.w3.org/1999/02/22-rdf-syntax-ns#"
   xmlns:cc="http://creativecommons.org/ns#"
   xmlns:dc="http://purl.org/dc/elements/1.1/">
  <defs
     id="defs2" />
  <sodipodi:namedview
     id="base"
     pagecolor="#ffffff"
     bordercolor="#666666"
     borderopacity="1.0"
     inkscape:pageopacity="0.0"
     inkscape:pageshadow="2"
     inkscape:zoom="0.70312851"
     inkscape:cx="-58.31082"
     inkscape:cy="75.377401"
     inkscape:document-units="mm"
     inkscape:current-layer="layer1"
     showgrid="false"
     showborder="true"
     width="200mm"
     showguides="true"
     inkscape:guide-bbox="true"
     inkscape:window-width="2560"
     inkscape:window-height="1417"
     inkscape:window-x="0"
     inkscape:window-y="0"
     inkscape:window-maximized="1"
     inkscape:showpageshadow="2"
     inkscape:pagecheckerboard="0"
     inkscape:deskcolor="#d1d1d1">
    <inkscape:grid
       type="xygrid"
       id="grid815"
       units="mm"
       spacingx="10"
       spacingy="10"
       empspacing="4"
       dotted="false" />
  </sodipodi:namedview>
  <metadata
     id="metadata5">
    <rdf:RDF>
      <cc:Work
         rdf:about="">
        <dc:format>image/svg+xml</dc:format>
        <dc:type
           rdf:resource="http://purl.org/dc/dcmitype/StillImage" />
        <dc:title />
      </cc:Work>
    </rdf:RDF>
  </metadata>
  <g
     inkscape:label="Layer 1"
     inkscape:groupmode="layer"
     id="layer1"
     transform="translate(0,-177)">
    <path
       style="fill:none;fill-opacity:0;fill-rule:evenodd;stroke:#000000;stroke-width:0.408001;stroke-dasharray:none;paint-order:stroke fill markers"
       d="M 119.824 295.517 l 0 -117.844 M 0.476983 294.357 C 0.636431 294.427 0.79588 294.269 0.955329 294.338 C 1.11478 294.407 1.27423 294.256 1.43368 294.323 C 1.59312 294.391 1.75257 294.247 1.91202 294.314 C 2.07147 294.38 2.23092 294.243 2.39037 294.309 C 2.54982 294.374 2.70927 294.244 2.86871 294.308 C 3.02816 294.372 3.18761 294.25 3.34706 294.313 C 3.50651 294.376 3.66596 294.26 3.82541 294.322 C 3.98486 294.384 4.1443 294.275 4.30375 294.336 C 4.4632 294.397 4.62265 294.295 4.7821 294.355 C 4.94155 294.414 5.101 294.32 5.26045 294.378 C 5.4199 294.436 5.57934 294.348 5.73879 294.405 C 5.89824 294.462 6.05769 294.381 6.21714 294.437 C 6.37659 294.493 6.53604 294.418 6.69549 294.472 C 6.85493 294.527 7.01438 294.458 7.17383 294.512 C 7.33328 294.565 7.49273 294.502 7.65218 294.554 C 7.81163 294.606 7.97108 294.549 8.13052 294.6 C 8.28997 294.651 8.44942 294.599 8.60887 294.648 C 8.76832 294.698 8.92777 294.651 9.08722 294.699 C 9.24667 294.747 9.40612 294.704 9.56556 294.752 C 9.72501 294.799 9.88446 294.76 10.0439 294.806 C 10.2034 294.852 10.3628 294.816 10.5223 294.861 C 10.6817 294.905 10.8412 294.873 11.0006 294.916 C 11.1601 294.96 11.3195 294.93 11.4789 294.972 C 11.6384 295.014 11.7978 294.987 11.9573 295.028 C 12.1167 295.069 12.2762 295.043 12.4356 295.082 C 12.5951 295.122 12.7545 295.097 12.914 295.136 C 13.0734 295.174 13.2329 295.15 13.3923 295.187 C 13.5518 295.224 13.7112 295.2 13.8707 295.236 C 14.0301 295.272 14.1896 295.248 14.349 295.283 C 14.5085 295.318 14.6679 295.293 14.8274 295.326 C 14.9868 295.36 15.1463 295.334 15.3057 295.366 C 15.4652 295.399 15.6246 295.371 15.7841 295.402 C 15.9435 295.433 16.103 295.404 16.2624 295.434 C 16.4219 295.464 16.5813 295.433 16.7408 295.461 C 16.9002 295.489 17.0597 295.456 17.2191 295.483 C 17.3786 295.51 17.538 295.474 17.6975 295.499 C 17.8569 295.525 18.0164 295.486 18.1758 295.511 C 18.3352 295.535 18.4947 295.493 18.6541 295.516 C 18.8136 295.539 18.973 295.494 19.1325 295.516 C 19.2919 295.538 19.4514 295.488 19.6108 295.509 C 19.7703 295.53 19.9297 295.477 20.0892 295.497 C 20.2486 295.516 20.4081 295.46 20.5675 295.478 C 20.727 295.496 20.8864 295.436 21.0459 295.453 C 21.2053 295.47 21.3648 295.407 21.5242 295.422 C 21.6837 295.438 21.8431 295.371 22.0026 295.385 C 22.162 295.4 22.3215 295.33 22.4809 295.343 C 22.6404 295.356 22.7998 295.283 22.9593 295.295 C 23.1187 295.306 23.2782 295.231 23.4376 295.241 C 23.5971 295.252 23.7565 295.174 23.916 295.183 C 24.0754 295.192 24.2349 295.112 24.3943 295.119 C 24.5538 295.127 24.7132 295.045 24.8726 295.052 C 25.0321 295.058 25.1915 294.975 25.351 294.98 C 25.5104 294.986 25.6699 294.902 25.8293 294.906 C 25.9888 294.909 26.1482 294.825 26.3077 294.828 C 26.4671 294.83 26.6266 294.746 26.786 294.747 C 26.9455 294.749 27.1049 294.665 27.2644 294.665 C 27.4238 294.665 27.5833 294.583 27.7427 294.581 C 27.9022 294.58 28.0616 294.5 28.2211 294.497 C 28.3805 294.494 28.54 294.416 28.6994 294.412 C 28.8589 294.409 29.0183 294.333 29.1778 294.328 C 29.3372 294.323 29.4967 294.252 29.6561 294.245 C 29.8156 294.239 29.975 294.172 30.1345 294.164 C 30.2939 294.156 30.4534 294.094 30.6128 294.085 C 30.7723 294.076 30.9317 294.019 31.0912 294.008 C 31.2506 293.998 31.41 293.947 31.5695 293.936 C 31.7289 293.924 31.8884 293.88 32.0478 293.867 C 32.2073 293.854 32.3667 293.817 32.5262 293.803 C 32.6856 293.789 32.8451 293.759 33.0045 293.744 C 33.164 293.728 33.3234 293.707 33.4829 293.69 C 33.6423 293.674 33.8018 293.661 33.9612 293.643 C 34.1207 293.625 34.2801 293.621 34.4396 293.602 C 34.599 293.583 34.7585 293.589 34.9179 293.568 C 35.0774 293.547 35.2368 293.563 35.3963 293.541 C 35.5557 293.519 35.7152 293.545 35.8746 293.522 C 36.0341 293.499 36.1935 293.535 36.353 293.51 C 36.5124 293.486 36.6719 293.532 36.8313 293.506 C 36.9908 293.48 37.1502 293.537 37.3097 293.51 C 37.4691 293.483 37.6286 293.551 37.788 293.522 C 37.9475 293.494 38.1069 293.572 38.2663 293.542 C 38.4258 293.513 38.5852 293.601 38.7447 293.57 C 38.9041 293.539 39.0636 293.638 39.223 293.606 C 39.3825 293.574 39.5419 293.683 39.7014 293.649 C 39.8608 293.616 40.0203 293.734 40.1797 293.7 C 40.3392 293.665 40.4986 293.793 40.6581 293.757 C 40.8175 293.721 40.977 293.858 41.1364 293.821 C 41.2959 293.784 41.4553 293.929 41.6148 293.891 C 41.7742 293.853 41.9337 294.006 42.0931 293.967 C 42.2526 293.927 42.412 294.088 42.5715 294.047 C 42.7309 294.006 42.8904 294.174 43.0498 294.132 C 43.2093 294.09 43.3687 294.264 43.5282 294.22 C 43.6876 294.177 43.8471 294.357 44.0065 294.312 C 44.166 294.267 44.3254 294.452 44.4849 294.406 C 44.6443 294.36 44.8037 294.548 44.9632 294.501 C 45.1226 294.454 45.2821 294.645 45.4415 294.596 C 45.601 294.548 45.7604 294.741 45.9199 294.692 C 46.0793 294.642 46.2388 294.837 46.3982 294.786 C 46.5577 294.735 46.7171 294.93 46.8766 294.878 C 47.036 294.826 47.1955 295.021 47.3549 294.968 C 47.5144 294.914 47.6738 295.108 47.8333 295.053 C 47.9927 294.998 48.1522 295.19 48.3116 295.134 C 48.4711 295.078 48.6305 295.266 48.79 295.209 C 48.9494 295.152 49.1089 295.336 49.2683 295.278 C 49.4278 295.22 49.5872 295.399 49.7467 295.34 C 49.9061 295.28 50.0656 295.454 50.225 295.393 C 50.3845 295.333 50.5439 295.5 50.7034 295.438 C 50.8628 295.376 51.0223 295.536 51.1817 295.473 C 51.3411 295.41 51.5006 295.563 51.66 295.499 C 51.8195 295.434 51.9789 295.578 52.1384 295.513 C 52.2978 295.448 52.4573 295.583 52.6167 295.516 C 52.7762 295.45 52.9356 295.575 53.0951 295.508 C 53.2545 295.44 53.414 295.556 53.5734 295.487 C 53.7329 295.418 53.8923 295.524 54.0518 295.454 C 54.2112 295.384 54.3707 295.48 54.5301 295.409 C 54.6896 295.337 54.849 295.423 55.0085 295.35 C 55.1679 295.278 55.3274 295.352 55.4868 295.279 C 55.6463 295.205 55.8057 295.27 55.9652 295.195 C 56.1246 295.12 56.2841 295.174 56.4435 295.098 C 56.603 295.023 56.7624 295.066 56.9219 294.989 C 57.0813 294.912 57.2408 294.946 57.4002 294.868 C 57.5597 294.79 57.7191 294.815 57.8785 294.736 C 58.038 294.657 58.1974 294.672 58.3569 294.592 C 58.5163 294.512 58.6758 294.519 58.8352 294.438 C 58.9947 294.356 59.1541 294.356 59.3136 294.274 C 59.473 294.191 59.6325 294.185 59.7919 294.101 C 59.9514 294.017 60.1108 294.005 60.2703 293.92 C 60.4297 293.835 60.5892 293.818 60.7486 293.732 C 60.9081 293.646 61.0675 293.625 61.227 293.538 C 61.3864 293.451 61.5459 293.427 61.7053 293.339 C 61.8648 293.251 62.0242 293.226 62.1837 293.137 C 62.3431 293.048 62.5026 293.022 62.662 292.932 C 62.8215 292.841 62.9809 292.817 63.1404 292.725 C 63.2998 292.634 63.4593 292.612 63.6187 292.52 C 63.7782 292.427 63.9376 292.408 64.0971 292.315 C 64.2565 292.222 64.416 292.208 64.5754 292.114 C 64.7348 292.019 64.8943 292.012 65.0537 291.917 C 65.2132 291.822 65.3726 291.822 65.5321 291.726 C 65.6915 291.629 65.851 291.639 66.0104 291.542 C 66.1699 291.445 66.3293 291.465 66.4888 291.367 C 66.6482 291.268 66.8077 291.301 66.9671 291.202 C 67.1266 291.102 67.286 291.149 67.4455 291.048 C 67.6049 290.948 67.7644 291.009 67.9238 290.907 C 68.0833 290.806 68.2427 290.883 68.4022 290.78 C 68.5616 290.678 68.7211 290.772 68.8805 290.669 C 69.04 290.565 69.1994 290.677 69.3589 290.573 C 69.5183 290.469 69.6778 290.6 69.8372 290.495 C 69.9967 290.389 70.1561 290.541 70.3156 290.434 C 70.475 290.328 70.6345 290.5 70.7939 290.393 C 70.9534 290.286 71.1128 290.48 71.2722 290.371 C 71.4317 290.263 71.5911 290.479 71.7506 290.37 C 71.91 290.26 72.0695 290.499 72.2289 290.388 C 72.3884 290.278 72.5478 290.539 72.7073 290.428 C 72.8667 290.317 73.0262 290.6 73.1856 290.488 C 73.3451 290.376 73.5045 290.682 73.664 290.569 C 73.8234 290.456 73.9829 290.785 74.1423 290.671 C 74.3018 290.557 74.4612 290.908 74.6207 290.793 C 74.7801 290.678 74.9396 291.05 75.099 290.934 C 75.2585 290.818 75.4179 291.21 75.5774 291.094 C 75.7368 290.977 75.8963 291.389 76.0557 291.271 C 76.2152 291.154 76.3746 291.584 76.5341 291.466 C 76.6935 291.347 76.853 291.794 77.0124 291.675 C 77.1719 291.556 77.3313 292.018 77.4908 291.898 C 77.6502 291.778 77.8096 292.254 77.9691 292.133 C 78.1285 292.012 78.288 292.5 78.4474 292.378 C 78.6069 292.257 78.7663 292.754 78.9258 292.632 C 79.0852 292.509 79.2447 293.014 79.4041 292.89 C 79.5636 292.767 79.723 293.277 79.8825 293.153 C 80.0419 293.029 80.2014 293.541 80.3608 293.416 C 80.5203 293.291 80.6797 293.803 80.8392 293.677 C 80.9986 293.551 81.1581 294.06 81.3175 293.933 C 81.477 293.806 81.6364 294.309 81.7959 294.181 C 81.9553 294.054 82.1148 294.547 82.2742 294.419 C 82.4337 294.29 82.5931 294.771 82.7526 294.642 C 82.912 294.513 83.0715 294.977 83.2309 294.847 C 83.3904 294.718 83.5498 295.162 83.7093 295.032 C 83.8687 294.901 84.0282 295.323 84.1876 295.192 C 84.3471 295.061 84.5065 295.456 84.6659 295.324 C 84.8254 295.192 84.9848 295.557 85.1443 295.424 C 85.3037 295.292 85.4632 295.623 85.6226 295.49 C 85.7821 295.356 85.9415 295.65 86.101 295.516 C 86.2604 295.382 86.4199 295.635 86.5793 295.5 C 86.7388 295.366 86.8982 295.574 87.0577 295.439 C 87.2171 295.303 87.3766 295.464 87.536 295.328 C 87.6955 295.192 87.8549 295.301 88.0144 295.164 C 88.1738 295.027 88.3333 295.082 88.4927 294.944 C 88.6522 294.807 88.8116 294.803 88.9711 294.665 C 89.1305 294.527 89.29 294.463 89.4494 294.324 C 89.6089 294.185 89.7683 294.057 89.9278 293.917 C 90.0872 293.778 90.2467 293.582 90.4061 293.443 C 90.5656 293.303 90.725 293.038 90.8845 292.897 C 91.0439 292.757 91.2033 292.42 91.3628 292.279 C 91.5222 292.138 91.6817 291.727 91.8411 291.586 C 92.0006 291.444 92.16 290.957 92.3195 290.815 C 92.4789 290.673 92.6384 290.109 92.7978 289.966 C 92.9573 289.823 93.1167 289.18 93.2762 289.036 C 93.4356 288.893 93.5951 288.17 93.7545 288.026 C 93.914 287.882 94.0734 287.078 94.2329 286.933 C 94.3923 286.788 94.5518 285.903 94.7112 285.758 C 94.8707 285.612 95.0301 284.645 95.1896 284.499 C 95.349 284.354 95.5085 283.304 95.6679 283.158 C 95.8274 283.012 95.9868 281.881 96.1463 281.735 C 96.3057 281.588 96.4652 280.377 96.6246 280.229 C 96.7841 280.082 96.9435 278.791 97.103 278.644 C 97.2624 278.496 97.4219 277.127 97.5813 276.979 C 97.7407 276.83 97.9002 275.385 98.0596 275.236 C 98.2191 275.087 98.3785 273.568 98.538 273.419 C 98.6974 273.269 98.8569 271.678 99.0163 271.528 C 99.1758 271.378 99.3352 269.718 99.4947 269.567 C 99.6541 269.417 99.8136 267.69 99.973 267.54 C 100.132 267.389 100.292 265.6 100.451 265.449 C 100.611 265.298 100.77 263.449 100.93 263.298 C 101.089 263.147 101.249 261.243 101.408 261.092 C 101.568 260.94 101.727 258.986 101.886 258.834 C 102.046 258.682 102.205 256.682 102.365 256.53 C 102.524 256.377 102.684 254.336 102.843 254.183 C 103.003 254.031 103.162 251.954 103.321 251.801 C 103.481 251.648 103.64 249.541 103.8 249.387 C 103.959 249.233 104.119 247.102 104.278 246.948 C 104.438 246.794 104.597 244.643 104.756 244.489 C 104.916 244.335 105.075 242.171 105.235 242.016 C 105.394 241.862 105.554 239.692 105.713 239.537 C 105.873 239.382 106.032 237.211 106.192 237.056 C 106.351 236.901 106.51 234.736 106.67 234.58 C 106.829 234.425 106.989 232.273 107.148 232.117 C 107.308 231.961 107.467 229.828 107.627 229.672 C 107.786 229.516 107.945 227.408 108.105 227.252 C 108.264 227.096 108.424 225.021 108.583 224.864 C 108.743 224.708 108.902 222.672 109.062 222.515 C 109.221 222.358 109.381 220.368 109.54 220.211 C 109.699 220.054 109.859 218.116 110.018 217.959 C 110.178 217.802 110.337 215.923 110.497 215.765 C 110.656 215.608 110.816 213.794 110.975 213.636 C 111.134 213.479 111.294 211.736 111.453 211.578 C 111.613 211.42 111.772 209.755 111.932 209.597 C 112.091 209.439 112.251 207.857 112.41 207.699 C 112.569 207.541 112.729 206.048 112.888 205.889 C 113.048 205.731 113.207 204.332 113.367 204.174 C 113.526 204.016 113.686 202.717 113.845 202.558 C 114.005 202.399 114.164 201.205 114.323 201.046 C 114.483 200.887 114.642 199.802 114.802 199.643 C 114.961 199.484 115.121 198.513 115.28 198.354 C 115.44 198.195 115.599 197.34 115.758 197.181 C 115.918 197.022 116.077 196.289 116.237 196.13 C 116.396 195.971 116.556 195.361 116.715 195.202 C 116.875 195.043 117.034 194.561 117.194 194.402 C 117.353 194.243 117.512 193.89 117.672 193.731 C 117.831 193.572 117.991 193.351 118.15 193.192 C 118.31 193.032 118.469 192.945 118.629 192.786 C 118.788 192.626 118.947 192.674 119.107 192.514 C 119.266 192.355 119.426 192.538 119.585 192.378 C 119.745 192.219 119.904 192.538 120.064 192.378 C 120.223 192.219 120.382 192.674 120.542 192.514 C 120.701 192.355 120.861 192.945 121.02 192.786 C 121.18 192.626 121.339 193.351 121.499 193.192 C 121.658 193.032 121.818 193.89 121.977 193.731 C 122.136 193.572 122.296 194.561 122.455 194.402 C 122.615 194.243 122.774 195.361 122.934 195.202 C 123.093 195.043 123.253 196.289 123.412 196.13 C 123.571 195.971 123.731 197.34 123.89 197.181 C 124.05 197.022 124.209 198.513 124.369 198.354 C 124.528 198.195 124.688 199.802 124.847 199.643 C 125.006 199.484 125.166 201.205 125.325 201.046 C 125.485 200.887 125.644 202.717 125.804 202.558 C 125.963 202.399 126.123 204.332 126.282 204.174 C 126.442 204.016 126.601 206.048 126.76 205.889 C 126.92 205.731 127.079 207.857 127.239 207.699 C 127.398 207.541 127.558 209.755 127.717 209.597 C 127.877 209.439 128.036 211.736 128.195 211.578 C 128.355 211.42 128.514 213.794 128.674 213.636 C 128.833 213.479 128.993 215.923 129.152 215.765 C 129.312 215.608 129.471 218.116 129.631 217.959 C 129.79 217.802 129.949 220.368 130.109 220.211 C 130.268 220.054 130.428 222.672 130.587 222.515 C 130.747 222.358 130.906 225.021 131.066 224.864 C 131.225 224.708 131.384 227.408 131.544 227.252 C 131.703 227.096 131.863 229.828 132.022 229.672 C 132.182 229.516 132.341 232.273 132.501 232.117 C 132.66 231.961 132.819 234.736 132.979 234.58 C 133.138 234.425 133.298 237.211 133.457 237.056 C 133.617 236.901 133.776 239.692 133.936 239.537 C 134.095 239.382 134.255 242.171 134.414 242.016 C 134.573 241.862 134.733 244.643 134.892 244.489 C 135.052 244.335 135.211 247.102 135.371 246.948 C 135.53 246.794 135.69 249.541 135.849 249.387 C 136.008 249.233 136.168 251.954 136.327 251.801 C 136.487 251.648 136.646 254.336 136.806 254.183 C 136.965 254.031 137.125 256.682 137.284 256.53 C 137.443 256.377 137.603 258.986 137.762 258.834 C 137.922 258.682 138.081 261.243 138.241 261.092 C 138.4 260.94 138.56 263.449 138.719 263.298 C 138.879 263.147 139.038 265.6 139.197 265.449 C 139.357 265.298 139.516 267.69 139.676 267.54 C 139.835 267.389 139.995 269.718 140.154 269.567 C 140.314 269.417 140.473 271.678 140.632 271.528 C 140.792 271.378 140.951 273.568 141.111 273.419 C 141.27 273.269 141.43 275.385 141.589 275.236 C 141.749 275.087 141.908 277.127 142.068 276.979 C 142.227 276.83 142.386 278.791 142.546 278.644 C 142.705 278.496 142.865 280.377 143.024 280.229 C 143.184 280.082 143.343 281.881 143.503 281.735 C 143.662 281.588 143.821 283.304 143.981 283.158 C 144.14 283.012 144.3 284.645 144.459 284.499 C 144.619 284.354 144.778 285.903 144.938 285.758 C 145.097 285.612 145.256 287.078 145.416 286.933 C 145.575 286.788 145.735 288.17 145.894 288.026 C 146.054 287.882 146.213 289.18 146.373 289.036 C 146.532 288.893 146.692 290.109 146.851 289.966 C 147.01 289.823 147.17 290.957 147.329 290.815 C 147.489 290.673 147.648 291.727 147.808 291.586 C 147.967 291.444 148.127 292.42 148.286 292.279 C 148.445 292.138 148.605 293.038 148.764 292.897 C 148.924 292.757 149.083 293.582 149.243 293.443 C 149.402 293.303 149.562 294.057 149.721 293.917 C 149.881 293.778 150.04 294.463 150.199 294.324 C 150.359 294.185 150.518 294.803 150.678 294.665 C 150.837 294.527 150.997 295.082 151.156 294.944 C 151.316 294.807 151.475 295.301 151.634 295.164 C 151.794 295.027 151.953 295.464 152.113 295.328 C 152.272 295.192 152.432 295.574 152.591 295.439 C 152.751 295.303 152.91 295.635 153.069 295.5 C 153.229 295.366 153.388 295.65 153.548 295.516 C 153.707 295.382 153.867 295.623 154.026 295.49 C 154.186 295.356 154.345 295.557 154.505 295.424 C 154.664 295.292 154.823 295.456 154.983 295.324 C 155.142 295.192 155.302 295.323 155.461 295.192 C 155.621 295.061 155.78 295.162 155.94 295.032 C 156.099 294.901 156.258 294.977 156.418 294.847 C 156.577 294.718 156.737 294.771 156.896 294.642 C 157.056 294.513 157.215 294.547 157.375 294.419 C 157.534 294.29 157.693 294.309 157.853 294.181 C 158.012 294.054 158.172 294.06 158.331 293.933 C 158.491 293.806 158.65 293.803 158.81 293.677 C 158.969 293.551 159.129 293.541 159.288 293.416 C 159.447 293.291 159.607 293.277 159.766 293.153 C 159.926 293.029 160.085 293.014 160.245 292.89 C 160.404 292.767 160.564 292.754 160.723 292.632 C 160.882 292.509 161.042 292.5 161.201 292.378 C 161.361 292.257 161.52 292.254 161.68 292.133 C 161.839 292.012 161.999 292.018 162.158 291.898 C 162.318 291.778 162.477 291.794 162.636 291.675 C 162.796 291.556 162.955 291.584 163.115 291.466 C 163.274 291.347 163.434 291.389 163.593 291.271 C 163.753 291.154 163.912 291.21 164.071 291.094 C 164.231 290.977 164.39 291.05 164.55 290.934 C 164.709 290.818 164.869 290.908 165.028 290.793 C 165.188 290.678 165.347 290.785 165.506 290.671 C 165.666 290.557 165.825 290.682 165.985 290.569 C 166.144 290.456 166.304 290.6 166.463 290.488 C 166.623 290.376 166.782 290.539 166.942 290.428 C 167.101 290.317 167.26 290.499 167.42 290.388 C 167.579 290.278 167.739 290.479 167.898 290.37 C 168.058 290.26 168.217 290.48 168.377 290.371 C 168.536 290.263 168.695 290.5 168.855 290.393 C 169.014 290.286 169.174 290.541 169.333 290.434 C 169.493 290.328 169.652 290.6 169.812 290.495 C 169.971 290.389 170.131 290.677 170.29 290.573 C 170.449 290.469 170.609 290.772 170.768 290.669 C 170.928 290.565 171.087 290.883 171.247 290.78 C 171.406 290.678 171.566 291.009 171.725 290.907 C 171.884 290.806 172.044 291.149 172.203 291.048 C 172.363 290.948 172.522 291.301 172.682 291.202 C 172.841 291.102 173.001 291.465 173.16 291.367 C 173.319 291.268 173.479 291.639 173.638 291.542 C 173.798 291.445 173.957 291.822 174.117 291.726 C 174.276 291.629 174.436 292.012 174.595 291.917 C 174.755 291.822 174.914 292.208 175.073 292.114 C 175.233 292.019 175.392 292.408 175.552 292.315 C 175.711 292.222 175.871 292.612 176.03 292.52 C 176.19 292.427 176.349 292.817 176.508 292.725 C 176.668 292.634 176.827 293.022 176.987 292.932 C 177.146 292.841 177.306 293.226 177.465 293.137 C 177.625 293.048 177.784 293.427 177.943 293.339 C 178.103 293.251 178.262 293.625 178.422 293.538 C 178.581 293.451 178.741 293.818 178.9 293.732 C 179.06 293.646 179.219 294.005 179.379 293.92 C 179.538 293.835 179.697 294.185 179.857 294.101 C 180.016 294.017 180.176 294.356 180.335 294.274 C 180.495 294.191 180.654 294.519 180.814 294.438 C 180.973 294.356 181.132 294.672 181.292 294.592 C 181.451 294.512 181.611 294.815 181.77 294.736 C 181.93 294.657 182.089 294.946 182.249 294.868 C 182.408 294.79 182.568 295.066 182.727 294.989 C 182.886 294.912 183.046 295.174 183.205 295.098 C 183.365 295.023 183.524 295.27 183.684 295.195 C 183.843 295.12 184.003 295.352 184.162 295.279 C 184.321 295.205 184.481 295.423 184.64 295.35 C 184.8 295.278 184.959 295.48 185.119 295.409 C 185.278 295.337 185.438 295.524 185.597 295.454 C 185.756 295.384 185.916 295.556 186.075 295.487 C 186.235 295.418 186.394 295.575 186.554 295.508 C 186.713 295.44 186.873 295.583 187.032 295.516 C 187.192 295.45 187.351 295.578 187.51 295.513 C 187.67 295.448 187.829 295.563 187.989 295.499 C 188.148 295.434 188.308 295.536 188.467 295.473 C 188.627 295.41 188.786 295.5 188.945 295.438 C 189.105 295.376 189.264 295.454 189.424 295.393 C 189.583 295.333 189.743 295.399 189.902 295.34 C 190.062 295.28 190.221 295.336 190.381 295.278 C 190.54 295.22 190.699 295.266 190.859 295.209 C 191.018 295.152 191.178 295.19 191.337 295.134 C 191.497 295.078 191.656 295.108 191.816 295.053 C 191.975 294.998 192.134 295.021 192.294 294.968 C 192.453 294.914 192.613 294.93 192.772 294.878 C 192.932 294.826 193.091 294.837 193.251 294.786 C 193.41 294.735 193.569 294.741 193.729 294.692 C 193.888 294.642 194.048 294.645 194.207 294.596 C 194.367 294.548 194.526 294.548 194.686 294.501 C 194.845 294.454 195.005 294.452 195.164 294.406 C 195.323 294.36 195.483 294.357 195.642 294.312 C 195.802 294.267 195.961 294.264 196.121 294.22 C 196.28 294.177 196.44 294.174 196.599 294.132 C 196.758 294.09 196.918 294.088 197.077 294.047 C 197.237 294.006 197.396 294.006 197.556 293.967 C 197.715 293.927 197.875 293.929 198.034 293.891 C 198.193 293.853 198.353 293.858 198.512 293.821 C 198.672 293.784 198.831 293.793 198.991 293.757 C 199.15 293.721 199.31 293.734 199.469 293.7 C 199.629 293.665 199.788 293.683 199.947 293.649 C 200.107 293.616 200.266 293.638 200.426 293.606 C 200.585 293.574 200.745 293.601 200.904 293.57 C 201.064 293.539 201.223 293.572 201.382 293.542 C 201.542 293.513 201.701 293.551 201.861 293.522 C 202.02 293.494 202.18 293.537 202.339 293.51 C 202.499 293.483 202.658 293.532 202.818 293.506 C 202.977 293.48 203.136 293.535 203.296 293.51 C 203.455 293.486 203.615 293.545 203.774 293.522 C 203.934 293.499 204.093 293.563 204.253 293.541 C 204.412 293.519 204.571 293.589 204.731 293.568 C 204.89 293.547 205.05 293.621 205.209 293.602 C 205.369 293.583 205.528 293.661 205.688 293.643 C 205.847 293.625 206.006 293.707 206.166 293.69 C 206.325 293.674 206.485 293.759 206.644 293.744 C 206.804 293.728 206.963 293.817 207.123 293.803 C 207.282 293.789 207.442 293.88 207.601 293.867 C 207.76 293.854 207.92 293.947 208.079 293.936 C 208.239 293.924 208.398 294.019 208.558 294.008 C 208.717 293.998 208.877 294.094 209.036 294.085 C 209.195 294.076 209.355 294.172 209.514 294.164 C 209.674 294.156 209.833 294.252 209.993 294.245 C 210.152 294.239 210.312 294.333 210.471 294.328 C 210.63 294.323 210.79 294.416 210.949 294.412 C 211.109 294.409 211.268 294.5 211.428 294.497 C 211.587 294.494 211.747 294.583 211.906 294.581 C 212.066 294.58 212.225 294.665 212.384 294.665 C 212.544 294.665 212.703 294.746 212.863 294.747 C 213.022 294.749 213.182 294.825 213.341 294.828 C 213.501 294.83 213.66 294.902 213.819 294.906 C 213.979 294.909 214.138 294.975 214.298 294.98 C 214.457 294.986 214.617 295.045 214.776 295.052 C 214.936 295.058 215.095 295.112 215.255 295.119 C 215.414 295.127 215.573 295.174 215.733 295.183 C 215.892 295.192 216.052 295.231 216.211 295.241 C 216.371 295.252 216.53 295.283 216.69 295.295 C 216.849 295.306 217.008 295.33 217.168 295.343 C 217.327 295.356 217.487 295.371 217.646 295.385 C 217.806 295.4 217.965 295.407 218.125 295.422 C 218.284 295.438 218.443 295.436 218.603 295.453 C 218.762 295.47 218.922 295.46 219.081 295.478 C 219.241 295.496 219.4 295.477 219.56 295.497 C 219.719 295.516 219.879 295.488 220.038 295.509 C 220.197 295.53 220.357 295.494 220.516 295.516 C 220.676 295.538 220.835 295.493 220.995 295.516 C 221.154 295.539 221.314 295.486 221.473 295.511 C 221.632 295.535 221.792 295.474 221.951 295.499 C 222.111 295.525 222.27 295.456 222.43 295.483 C 222.589 295.51 222.749 295.433 222.908 295.461 C 223.068 295.489 223.227 295.404 223.386 295.434 C 223.546 295.464 223.705 295.371 223.865 295.402 C 224.024 295.433 224.184 295.334 224.343 295.366 C 224.503 295.399 224.662 295.293 224.821 295.326 C 224.981 295.36 225.14 295.248 225.3 295.283 C 225.459 295.318 225.619 295.2 225.778 295.236 C 225.938 295.272 226.097 295.15 226.256 295.187 C 226.416 295.224 226.575 295.097 226.735 295.136 C 226.894 295.174 227.054 295.043 227.213 295.082 C 227.373 295.122 227.532 294.987 227.692 295.028 C 227.851 295.069 228.01 294.93 228.17 294.972 C 228.329 295.014 228.489 294.873 228.648 294.916 C 228.808 294.96 228.967 294.816 229.127 294.861 C 229.286 294.905 229.445 294.76 229.605 294.806 C 229.764 294.852 229.924 294.704 230.083 294.752 C 230.243 294.799 230.402 294.651 230.562 294.699 C 230.721 294.747 230.88 294.599 231.04 294.648 C 231.199 294.698 231.359 294.549 231.518 294.6 C 231.678 294.651 231.837 294.502 231.997 294.554 C 232.156 294.606 232.316 294.458 232.475 294.512 C 232.634 294.565 232.794 294.418 232.953 294.472 C 233.113 294.527 233.272 294.381 233.432 294.437 C 233.591 294.493 233.751 294.348 233.91 294.405 C 234.069 294.462 234.229 294.32 234.388 294.378 C 234.548 294.436 234.707 294.295 234.867 294.355 C 235.026 294.414 235.186 294.275 235.345 294.336 C 235.505 294.397 235.664 294.26 235.823 294.322 C 235.983 294.384 236.142 294.25 236.302 294.313 C 236.461 294.376 236.621 294.244 236.78 294.308 C 236.94 294.372 237.099 294.243 237.258 294.309 C 237.418 294.374 237.577 294.247 237.737 294.314 C 237.896 294.38 238.056 294.256 238.215 294.323 C 238.375 294.391 238.534 294.269 238.693 294.338 C 238.853 294.407 239.012 294.286 239.172 294.357"
       title="1 / (2 * pi * 11) * (sin(5.5 * x)**2) / (sin(0.5 * x)**2)"
       id="path44919" />
  </g>
</svg>
