<?xml version="1.0" encoding="UTF-8" standalone="no"?>
<!-- Created with Inkscape (http://www.inkscape.org/) -->

<svg
   width="240mm"
   height="120mm"
   viewBox="0 0 240 120"
   version="1.1"
   id="svg8"
   inkscape:version="1.2.2 (b0a8486541, 2022-12-01)"
   sodipodi:docname="gamma_with_tilde.svg"
   xmlns:inkscape="http://www.inkscape.org/namespaces/inkscape"
   xmlns:sodipodi="http://sodipodi.sourceforge.net/DTD/sodipodi-0.dtd"
   xmlns="http://www.w3.org/2000/svg"
   xmlns:svg="http://www.w3.org/2000/svg"
   xmlns:rdf="http://www.w3.org/1999/02/22-rdf-syntax-ns#"
   xmlns:cc="http://creativecommons.org/ns#"
   xmlns:dc="http://purl.org/dc/elements/1.1/"
   xmlns:ns1="http://www.iki.fi/pav/software/textext/">
  <defs
     id="defs2" />
  <sodipodi:namedview
     id="base"
     pagecolor="#ffffff"
     bordercolor="#666666"
     borderopacity="1.0"
     inkscape:pageopacity="0.0"
     inkscape:pageshadow="2"
     inkscape:zoom="29.470459"
     inkscape:cx="613.29211"
     inkscape:cy="105.93659"
     inkscape:document-units="mm"
     inkscape:current-layer="layer1"
     showgrid="false"
     showborder="true"
     width="200mm"
     showguides="true"
     inkscape:guide-bbox="true"
     inkscape:window-width="2560"
     inkscape:window-height="1417"
     inkscape:window-x="0"
     inkscape:window-y="0"
     inkscape:window-maximized="1"
     inkscape:showpageshadow="2"
     inkscape:pagecheckerboard="0"
     inkscape:deskcolor="#d1d1d1">
    <inkscape:grid
       type="xygrid"
       id="grid815"
       units="mm"
       spacingx="10"
       spacingy="10"
       empspacing="4"
       dotted="false" />
  </sodipodi:namedview>
  <metadata
     id="metadata5">
    <rdf:RDF>
      <cc:Work
         rdf:about="">
        <dc:format>image/svg+xml</dc:format>
        <dc:type
           rdf:resource="http://purl.org/dc/dcmitype/StillImage" />
        <dc:title />
      </cc:Work>
    </rdf:RDF>
  </metadata>
  <g
     inkscape:label="Layer 1"
     inkscape:groupmode="layer"
     id="layer1"
     transform="translate(0, -177)">
    <text
       xml:space="preserve"
       style="font-style:normal;font-variant:normal;font-weight:normal;font-stretch:normal;font-size:3.88056px;font-family:sans-serif;-inkscape-font-specification:'sans-serif, Normal';font-variant-ligatures:normal;font-variant-caps:normal;font-variant-numeric:normal;font-variant-east-asian:normal;fill:#ffffff;fill-opacity:0;fill-rule:evenodd;stroke:#000000;stroke-width:0.408001;paint-order:stroke fill markers"
       x="189.76302"
       y="289.41388"
       id="text383"><tspan
         sodipodi:role="line"
         id="tspan381"
         style="stroke-width:0.408"
         x="189.76302"
         y="289.41388" /></text>
    <g
       transform="matrix(0.386514,0,0,0.386514,78.671447,200.72396)"
       ns1:version="1.8.2"
       ns1:texconverter="pdflatex"
       ns1:pdfconverter="inkscape"
       ns1:text="$$\\gamma$$"
       ns1:preamble="/home/buyolitsez/.config/inkscape/extensions/textext/default_packages.tex"
       ns1:scale="1.09563089851748"
       ns1:alignment="middle center"
       ns1:stroke-to-path="0"
       ns1:inkscapeversion="1.2.2"
       ns1:jacobian_sqrt="0.386514"
       id="g482">
      <defs
         id="id-8100a23f-799f-41b4-b702-b3d6bd6a3552">
        <g
           id="id-a3573899-fba1-4ceb-ac20-a15e5916589b">
          <g
             id="id-f901715b-d073-4183-9224-63c35a65eb57" />
          <g
             id="id-bad5f3de-9c9b-446e-b3e7-e0fb141f0cdb">
            <path
               d="M 5.421875,-1.75 C 5.390625,-2.453125 5.359375,-3.5625 4.8125,-4.84375 4.53125,-5.5625 4.046875,-6.328125 3,-6.328125 c -1.765625,0 -2.734375,2.25 -2.734375,2.625 0,0.125 0.109375,0.125 0.15625,0.125 0.125,0 0.125,-0.015625 0.1875,-0.203125 0.3125,-0.890625 1.234375,-1.59375 2.21875,-1.59375 1.984375,0 2.28125,2.21875 2.28125,3.640625 0,0.90625 -0.109375,1.203125 -0.1875,1.484375 -0.28125,0.890625 -0.75,2.671875 -0.75,3.078125 0,0.109375 0.046875,0.234375 0.15625,0.234375 0.21875,0 0.34375,-0.46875 0.5,-1.046875 0.34375,-1.25 0.4375,-1.890625 0.5,-2.453125 0.046875,-0.34375 0.875,-2.71875 2,-4.96875 C 7.4375,-5.640625 7.625,-6.03125 7.625,-6.0625 c 0,-0.015625 -0.015625,-0.125 -0.140625,-0.125 -0.03125,0 -0.09375,0 -0.125,0.0625 -0.03125,0.03125 -0.53125,1 -0.96875,1.984375 -0.203125,0.484375 -0.5,1.125 -0.96875,2.390625 z m 0,0"
               id="id-db429986-0052-4af0-822d-7e2673ff2d52" />
          </g>
        </g>
      </defs>
      <g
         fill="#000000"
         fill-opacity="1"
         id="id-731a88f0-a551-4f95-96d2-67a8952e80b4"
         transform="translate(-293.87,-60.5559)">
        <g
           transform="translate(293.604,66.884)"
           id="g479">
          <path
             d="M 5.421875,-1.75 C 5.390625,-2.453125 5.359375,-3.5625 4.8125,-4.84375 4.53125,-5.5625 4.046875,-6.328125 3,-6.328125 c -1.765625,0 -2.734375,2.25 -2.734375,2.625 0,0.125 0.109375,0.125 0.15625,0.125 0.125,0 0.125,-0.015625 0.1875,-0.203125 0.3125,-0.890625 1.234375,-1.59375 2.21875,-1.59375 1.984375,0 2.28125,2.21875 2.28125,3.640625 0,0.90625 -0.109375,1.203125 -0.1875,1.484375 -0.28125,0.890625 -0.75,2.671875 -0.75,3.078125 0,0.109375 0.046875,0.234375 0.15625,0.234375 0.21875,0 0.34375,-0.46875 0.5,-1.046875 0.34375,-1.25 0.4375,-1.890625 0.5,-2.453125 0.046875,-0.34375 0.875,-2.71875 2,-4.96875 C 7.4375,-5.640625 7.625,-6.03125 7.625,-6.0625 c 0,-0.015625 -0.015625,-0.125 -0.140625,-0.125 -0.03125,0 -0.09375,0 -0.125,0.0625 -0.03125,0.03125 -0.53125,1 -0.96875,1.984375 -0.203125,0.484375 -0.5,1.125 -0.96875,2.390625 z m 0,0"
             id="id-095963fe-ffa3-4e11-8148-f4ee5db9c6a7" />
        </g>
      </g>
    </g>
    <path
       style="fill:#000000;fill-opacity:1;fill-rule:evenodd;stroke:#000000;stroke-width:0.408001;stroke-dasharray:none;stroke-dashoffset:0;paint-order:stroke fill markers"
       d="M 46.718127,275.30213 Z"
       id="path3488" />
    <path
       style="fill:#000000;fill-opacity:0;fill-rule:evenodd;stroke:#000000;stroke-width:0.408001;stroke-dasharray:none;stroke-dashoffset:0;paint-order:stroke fill markers"
       d="m 103.31222,278.79958 1.55695,-0.3408 -0.29357,-1.57597"
       id="path3709" />
    <circle
       style="fill:#000000;fill-opacity:1;fill-rule:evenodd;stroke:#000000;stroke-width:0.408001;paint-order:stroke fill markers"
       id="path590"
       cx="137.58003"
       cy="218.60335"
       r="1.3" />
    <g
       transform="matrix(0.386514,0,0,0.386514,139.41584,213.86807)"
       ns1:version="1.8.2"
       ns1:texconverter="pdflatex"
       ns1:pdfconverter="inkscape"
       ns1:text="$$a$$"
       ns1:preamble="/home/buyolitsez/.config/inkscape/extensions/textext/default_packages.tex"
       ns1:scale="1.09563089851748"
       ns1:alignment="middle center"
       ns1:stroke-to-path="0"
       ns1:inkscapeversion="1.2.2"
       ns1:jacobian_sqrt="0.386514"
       id="g1730">
      <defs
         id="id-82e2c8d4-681c-4d59-9ca3-b5251ad823a9">
        <g
           id="id-e19ef2a5-4cc6-45b5-8d58-87114ad20685">
          <g
             id="id-ea0ce35d-e225-47b9-a55f-5d71a9c27e73" />
          <g
             id="id-037bf684-b45f-4b62-b2c4-0264a45e506d">
            <path
               d="M 4.3125,-1.703125 C 4.25,-1.46875 4.25,-1.4375 4.046875,-1.15625 c -0.3125,0.390625 -0.953125,1.015625 -1.625,1.015625 -0.578125,0 -0.921875,-0.53125 -0.921875,-1.375 0,-0.796875 0.453125,-2.40625 0.71875,-3 0.5,-1 1.171875,-1.515625 1.71875,-1.515625 0.953125,0 1.140625,1.171875 1.140625,1.28125 0,0.015625 -0.046875,0.203125 -0.0625,0.234375 z M 5.234375,-5.375 C 5.078125,-5.75 4.6875,-6.328125 3.9375,-6.328125 c -1.609375,0 -3.359375,2.09375 -3.359375,4.21875 0,1.421875 0.828125,2.25 1.796875,2.25 0.796875,0 1.46875,-0.609375 1.875,-1.09375 0.140625,0.859375 0.8125,1.09375 1.25,1.09375 0.421875,0 0.765625,-0.25 1.03125,-0.765625 C 6.75,-1.125 6.953125,-2 6.953125,-2.046875 6.953125,-2.125 6.90625,-2.1875 6.8125,-2.1875 c -0.125,0 -0.140625,0.078125 -0.203125,0.296875 -0.21875,0.84375 -0.484375,1.75 -1.078125,1.75 -0.40625,0 -0.4375,-0.375 -0.4375,-0.65625 0,-0.34375 0.046875,-0.5 0.171875,-1.046875 0.09375,-0.359375 0.171875,-0.6875 0.28125,-1.09375 0.53125,-2.15625 0.65625,-2.671875 0.65625,-2.75 0,-0.203125 -0.15625,-0.359375 -0.359375,-0.359375 -0.46875,0 -0.578125,0.5 -0.609375,0.671875 z m 0,0"
               id="id-c4a335bd-95c4-4a27-94d5-9a1fc43ce83d" />
          </g>
        </g>
      </defs>
      <g
         fill="#000000"
         fill-opacity="1"
         id="id-1d09e290-6bf1-4101-b5fd-15db1c58e76d"
         transform="translate(-294.529,-60.5559)">
        <g
           transform="translate(293.951,66.884)"
           id="g1727">
          <path
             d="M 4.3125,-1.703125 C 4.25,-1.46875 4.25,-1.4375 4.046875,-1.15625 c -0.3125,0.390625 -0.953125,1.015625 -1.625,1.015625 -0.578125,0 -0.921875,-0.53125 -0.921875,-1.375 0,-0.796875 0.453125,-2.40625 0.71875,-3 0.5,-1 1.171875,-1.515625 1.71875,-1.515625 0.953125,0 1.140625,1.171875 1.140625,1.28125 0,0.015625 -0.046875,0.203125 -0.0625,0.234375 z M 5.234375,-5.375 C 5.078125,-5.75 4.6875,-6.328125 3.9375,-6.328125 c -1.609375,0 -3.359375,2.09375 -3.359375,4.21875 0,1.421875 0.828125,2.25 1.796875,2.25 0.796875,0 1.46875,-0.609375 1.875,-1.09375 0.140625,0.859375 0.8125,1.09375 1.25,1.09375 0.421875,0 0.765625,-0.25 1.03125,-0.765625 C 6.75,-1.125 6.953125,-2 6.953125,-2.046875 6.953125,-2.125 6.90625,-2.1875 6.8125,-2.1875 c -0.125,0 -0.140625,0.078125 -0.203125,0.296875 -0.21875,0.84375 -0.484375,1.75 -1.078125,1.75 -0.40625,0 -0.4375,-0.375 -0.4375,-0.65625 0,-0.34375 0.046875,-0.5 0.171875,-1.046875 0.09375,-0.359375 0.171875,-0.6875 0.28125,-1.09375 0.53125,-2.15625 0.65625,-2.671875 0.65625,-2.75 0,-0.203125 -0.15625,-0.359375 -0.359375,-0.359375 -0.46875,0 -0.578125,0.5 -0.609375,0.671875 z m 0,0"
             id="id-219fbe6e-1eb3-4689-a261-f530b2ea94e6" />
        </g>
      </g>
    </g>
    <path
       style="fill:#000000;fill-opacity:0;fill-rule:evenodd;stroke:#000000;stroke-width:0.408;stroke-dasharray:0.408, 0.408;stroke-dashoffset:0;paint-order:stroke fill markers"
       id="circle4644"
       sodipodi:type="arc"
       sodipodi:cx="-36.892872"
       sodipodi:cy="-255.64587"
       sodipodi:rx="8.8676987"
       sodipodi:ry="8.8676987"
       sodipodi:start="0"
       sodipodi:end="5.6078928"
       sodipodi:arc-type="arc"
       d="m -28.025173,-255.64587 a 8.8676987,8.8676987 0 0 1 -7.377728,8.74162 8.8676987,8.8676987 0 0 1 -9.856973,-5.80405 8.8676987,8.8676987 0 0 1 4.065345,-10.69205 8.8676987,8.8676987 0 0 1 11.22311,2.21105"
       transform="rotate(156.0274)"
       sodipodi:open="true" />
    <path
       style="fill:#000000;fill-opacity:0;fill-rule:evenodd;stroke:#000000;stroke-width:0.408;stroke-dasharray:0.408, 0.408;stroke-dashoffset:0;paint-order:stroke fill markers"
       d="M 91.482023,269.97612 133.44541,226.52439"
       id="path4700"
       sodipodi:nodetypes="cc" />
    <path
       style="fill:#000000;fill-opacity:0;fill-rule:evenodd;stroke:#000000;stroke-width:0.408;stroke-dasharray:0.408, 0.408;stroke-dashoffset:0;paint-order:stroke fill markers"
       d="M 88.216293,266.49702 129.48402,222.10437"
       id="path4702"
       sodipodi:nodetypes="cc" />
    <path
       style="fill:#000000;fill-opacity:0;fill-rule:evenodd;stroke:#000000;stroke-width:0.408001;stroke-dasharray:0.408001, 0.408001;stroke-dashoffset:0;paint-order:stroke fill markers"
       d="m 107.77845,247.31073 -0.19832,-0.47397 -0.17876,-0.42718 -0.23815,-0.56914 -1.49748,0.5722"
       id="path4704"
       sodipodi:nodetypes="ccccc" />
    <path
       style="fill:#000000;fill-opacity:0;fill-rule:evenodd;stroke:#000000;stroke-width:0.408001;stroke-dasharray:0.408001, 0.408001;stroke-dashoffset:0;paint-order:stroke fill markers"
       d="m 115.67009,239.0521 -0.46653,-1.52401 -1.54681,0.42101"
       id="path4706" />
    <path
       style="fill:#000000;fill-opacity:0;fill-rule:evenodd;stroke:#000000;stroke-width:0.408001;stroke-dasharray:0.408001, 0.408001;stroke-dashoffset:0;paint-order:stroke fill markers"
       d="m 131.88203,213.39087 -0.46653,-1.52401 -1.5468,0.42101"
       id="path5472" />
    <path
       style="fill:#000000;fill-opacity:0;fill-rule:evenodd;stroke:#000000;stroke-width:0.408001;stroke-dasharray:0.408001, 0.408001;stroke-dashoffset:0;paint-order:stroke fill markers"
       d="m 145.18742,219.94523 1.01099,1.23214 1.27052,-0.97755"
       id="path5474" />
    <path
       style="fill:#000000;fill-opacity:0;fill-rule:evenodd;stroke:#000000;stroke-width:0.408001;stroke-dasharray:0.408001, 0.408001;stroke-dashoffset:0;paint-order:stroke fill markers"
       d="m 125.98854,232.6999 0.0733,1.59214 1.6029,-0.0236"
       id="path5516" />
    <g
       transform="matrix(0.386514,0,0,0.386514,108.74549,240.03887)"
       ns1:version="1.8.2"
       ns1:texconverter="pdflatex"
       ns1:pdfconverter="inkscape"
       ns1:text="$$I$$"
       ns1:preamble="/home/buyolitsez/.config/inkscape/extensions/textext/default_packages.tex"
       ns1:scale="1.09563089851748"
       ns1:alignment="middle center"
       ns1:stroke-to-path="0"
       ns1:inkscapeversion="1.2.2"
       ns1:jacobian_sqrt="0.386514"
       id="g7100">
      <defs
         id="id-771f9416-8a07-43c9-9be9-c8320347c354">
        <g
           id="id-46543e09-b32e-4f14-95ad-438f0e5ad3fb">
          <g
             id="id-25edbf64-0b26-432d-9a09-a0af935b9271" />
          <g
             id="id-81fd306d-2736-4e0b-8aa0-120d1db552e5">
            <path
               d="m 5.28125,-8.734375 c 0.125,-0.5 0.15625,-0.640625 1.203125,-0.640625 0.3125,0 0.421875,0 0.421875,-0.28125 0,-0.140625 -0.15625,-0.140625 -0.1875,-0.140625 -0.265625,0 -0.578125,0.03125 -0.84375,0.03125 H 4.109375 c -0.28125,0 -0.609375,-0.03125 -0.890625,-0.03125 -0.125,0 -0.28125,0 -0.28125,0.265625 0,0.15625 0.125,0.15625 0.40625,0.15625 0.890625,0 0.890625,0.109375 0.890625,0.265625 0,0.09375 -0.03125,0.1875 -0.0625,0.3125 l -1.9375,7.734375 c -0.125,0.5 -0.15625,0.640625 -1.203125,0.640625 -0.3125,0 -0.4375,0 -0.4375,0.28125 C 0.59375,0 0.734375,0 0.796875,0 1.0625,0 1.375,-0.03125 1.640625,-0.03125 H 3.40625 C 3.6875,-0.03125 4,0 4.28125,0 c 0.125,0 0.296875,0 0.296875,-0.265625 0,-0.15625 -0.09375,-0.15625 -0.40625,-0.15625 -0.890625,0 -0.890625,-0.109375 -0.890625,-0.28125 0,-0.03125 0,-0.09375 0.0625,-0.328125 z m 0,0"
               id="id-0e42eef7-d9c3-4af8-a3ec-8bfff6bd6c16" />
          </g>
        </g>
      </defs>
      <g
         fill="#000000"
         fill-opacity="1"
         id="id-237e5b43-5f48-4c41-81f4-c4c4e35bf293"
         transform="translate(-294.27647,-63.447011)">
        <g
           transform="translate(293.976,66.884)"
           id="g7097">
          <path
             d="m 5.28125,-8.734375 c 0.125,-0.5 0.15625,-0.640625 1.203125,-0.640625 0.3125,0 0.421875,0 0.421875,-0.28125 0,-0.140625 -0.15625,-0.140625 -0.1875,-0.140625 -0.265625,0 -0.578125,0.03125 -0.84375,0.03125 H 4.109375 c -0.28125,0 -0.609375,-0.03125 -0.890625,-0.03125 -0.125,0 -0.28125,0 -0.28125,0.265625 0,0.15625 0.125,0.15625 0.40625,0.15625 0.890625,0 0.890625,0.109375 0.890625,0.265625 0,0.09375 -0.03125,0.1875 -0.0625,0.3125 l -1.9375,7.734375 c -0.125,0.5 -0.15625,0.640625 -1.203125,0.640625 -0.3125,0 -0.4375,0 -0.4375,0.28125 C 0.59375,0 0.734375,0 0.796875,0 1.0625,0 1.375,-0.03125 1.640625,-0.03125 H 3.40625 C 3.6875,-0.03125 4,0 4.28125,0 c 0.125,0 0.296875,0 0.296875,-0.265625 0,-0.15625 -0.09375,-0.15625 -0.40625,-0.15625 -0.890625,0 -0.890625,-0.109375 -0.890625,-0.28125 0,-0.03125 0,-0.09375 0.0625,-0.328125 z m 0,0"
             id="id-98a5270a-d3ad-4b32-849a-fb366fb1e84b" />
        </g>
      </g>
      <g
         transform="translate(17.205627,8.9966206)"
         ns1:version="1.8.2"
         ns1:texconverter="pdflatex"
         ns1:pdfconverter="inkscape"
         ns1:text="$$-I$$"
         ns1:preamble="/home/buyolitsez/.config/inkscape/extensions/textext/default_packages.tex"
         ns1:scale="1.09563089851748"
         ns1:alignment="middle center"
         ns1:stroke-to-path="0"
         ns1:inkscapeversion="1.2.2"
         ns1:jacobian_sqrt="1.0"
         id="g7227">
        <defs
           id="id-db6b4c0d-bb5a-4df5-af6e-7a6b65d31198">
          <g
             id="id-90e0f2a6-c4aa-4978-9a11-98402e5f516d">
            <g
               id="id-d22e902f-848c-41e1-8ad3-1984087e6416" />
            <g
               id="id-cc70bef3-8d42-4837-89c4-69723fff76f7">
              <path
                 d="m 9.453125,-3.296875 c 0.25,0 0.5,0 0.5,-0.28125 0,-0.296875 -0.25,-0.296875 -0.5,-0.296875 H 1.6875 c -0.234375,0 -0.5,0 -0.5,0.296875 0,0.28125 0.265625,0.28125 0.5,0.28125 z m 0,0"
                 id="id-17bb1260-6649-4f10-9a51-ad0cad694dce" />
            </g>
            <g
               id="id-29ee4429-3584-45cb-8aac-9935ba8fc2be" />
            <g
               id="id-98d27b1e-4245-478e-91e5-5f4219632da5">
              <path
                 d="m 5.28125,-8.734375 c 0.125,-0.5 0.15625,-0.640625 1.203125,-0.640625 0.3125,0 0.421875,0 0.421875,-0.28125 0,-0.140625 -0.15625,-0.140625 -0.1875,-0.140625 -0.265625,0 -0.578125,0.03125 -0.84375,0.03125 H 4.109375 c -0.28125,0 -0.609375,-0.03125 -0.890625,-0.03125 -0.125,0 -0.28125,0 -0.28125,0.265625 0,0.15625 0.125,0.15625 0.40625,0.15625 0.890625,0 0.890625,0.109375 0.890625,0.265625 0,0.09375 -0.03125,0.1875 -0.0625,0.3125 l -1.9375,7.734375 c -0.125,0.5 -0.15625,0.640625 -1.203125,0.640625 -0.3125,0 -0.4375,0 -0.4375,0.28125 C 0.59375,0 0.734375,0 0.796875,0 1.0625,0 1.375,-0.03125 1.640625,-0.03125 H 3.40625 C 3.6875,-0.03125 4,0 4.28125,0 c 0.125,0 0.296875,0 0.296875,-0.265625 0,-0.15625 -0.09375,-0.15625 -0.40625,-0.15625 -0.890625,0 -0.890625,-0.109375 -0.890625,-0.28125 0,-0.03125 0,-0.09375 0.0625,-0.328125 z m 0,0"
                 id="id-ac868a8c-5cf8-41d2-b5d2-406c33513d6c" />
            </g>
          </g>
        </defs>
        <g
           fill="#000000"
           fill-opacity="1"
           id="id-7eb3f320-b496-4d43-96d7-cbb40cc8cae7"
           transform="translate(-289.584,-57.0871)">
          <g
             transform="translate(288.397,66.884)"
             id="g7220">
            <path
               d="m 9.453125,-3.296875 c 0.25,0 0.5,0 0.5,-0.28125 0,-0.296875 -0.25,-0.296875 -0.5,-0.296875 H 1.6875 c -0.234375,0 -0.5,0 -0.5,0.296875 0,0.28125 0.265625,0.28125 0.5,0.28125 z m 0,0"
               id="id-b861bb05-09cc-4eef-af27-de7c371ea1b3" />
          </g>
        </g>
        <g
           fill="#000000"
           fill-opacity="1"
           id="id-6b8886f8-a558-495b-a2f3-30075e7ac1c9"
           transform="translate(-289.584,-57.0871)">
          <g
             transform="translate(299.555,66.884)"
             id="g7224">
            <path
               d="m 5.28125,-8.734375 c 0.125,-0.5 0.15625,-0.640625 1.203125,-0.640625 0.3125,0 0.421875,0 0.421875,-0.28125 0,-0.140625 -0.15625,-0.140625 -0.1875,-0.140625 -0.265625,0 -0.578125,0.03125 -0.84375,0.03125 H 4.109375 c -0.28125,0 -0.609375,-0.03125 -0.890625,-0.03125 -0.125,0 -0.28125,0 -0.28125,0.265625 0,0.15625 0.125,0.15625 0.40625,0.15625 0.890625,0 0.890625,0.109375 0.890625,0.265625 0,0.09375 -0.03125,0.1875 -0.0625,0.3125 l -1.9375,7.734375 c -0.125,0.5 -0.15625,0.640625 -1.203125,0.640625 -0.3125,0 -0.4375,0 -0.4375,0.28125 C 0.59375,0 0.734375,0 0.796875,0 1.0625,0 1.375,-0.03125 1.640625,-0.03125 H 3.40625 C 3.6875,-0.03125 4,0 4.28125,0 c 0.125,0 0.296875,0 0.296875,-0.265625 0,-0.15625 -0.09375,-0.15625 -0.40625,-0.15625 -0.890625,0 -0.890625,-0.109375 -0.890625,-0.28125 0,-0.03125 0,-0.09375 0.0625,-0.328125 z m 0,0"
               id="id-2cf4a628-59c7-4742-ac9f-0e644ae789cd" />
          </g>
        </g>
      </g>
      <g
         transform="translate(91.417258,-80.173147)"
         ns1:version="1.8.2"
         ns1:texconverter="pdflatex"
         ns1:pdfconverter="inkscape"
         ns1:text="$$\\gamma_r$$"
         ns1:preamble="/home/buyolitsez/.config/inkscape/extensions/textext/default_packages.tex"
         ns1:scale="1.09563089851748"
         ns1:alignment="middle center"
         ns1:stroke-to-path="0"
         ns1:inkscapeversion="1.2.2"
         ns1:jacobian_sqrt="1.0"
         id="g8117">
        <defs
           id="id-073330ae-25bf-4981-8b7a-da7ed414193a">
          <g
             id="id-2c4bec38-c0f5-4ab3-92ab-72ab2b0f41c1">
            <g
               id="id-2f155ab3-9c95-4767-b8f7-6b9765535b99" />
            <g
               id="id-df4800d2-45d4-4044-89fc-39ee642c5bb7">
              <path
                 d="M 5.421875,-1.75 C 5.390625,-2.453125 5.359375,-3.5625 4.8125,-4.84375 4.53125,-5.5625 4.046875,-6.328125 3,-6.328125 c -1.765625,0 -2.734375,2.25 -2.734375,2.625 0,0.125 0.109375,0.125 0.15625,0.125 0.125,0 0.125,-0.015625 0.1875,-0.203125 0.3125,-0.890625 1.234375,-1.59375 2.21875,-1.59375 1.984375,0 2.28125,2.21875 2.28125,3.640625 0,0.90625 -0.109375,1.203125 -0.1875,1.484375 -0.28125,0.890625 -0.75,2.671875 -0.75,3.078125 0,0.109375 0.046875,0.234375 0.15625,0.234375 0.21875,0 0.34375,-0.46875 0.5,-1.046875 0.34375,-1.25 0.4375,-1.890625 0.5,-2.453125 0.046875,-0.34375 0.875,-2.71875 2,-4.96875 C 7.4375,-5.640625 7.625,-6.03125 7.625,-6.0625 c 0,-0.015625 -0.015625,-0.125 -0.140625,-0.125 -0.03125,0 -0.09375,0 -0.125,0.0625 -0.03125,0.03125 -0.53125,1 -0.96875,1.984375 -0.203125,0.484375 -0.5,1.125 -0.96875,2.390625 z m 0,0"
                 id="id-e5c6c578-4200-4173-95d2-5c2ad6f778f8" />
            </g>
            <g
               id="id-f8323f02-0a9a-42b3-ace3-f1bfe21699a3" />
            <g
               id="id-63aabff7-183b-4c78-aab2-c9c137d75a3f">
              <path
                 d="m 0.875,-0.59375 c -0.03125,0.15625 -0.09375,0.390625 -0.09375,0.4375 0,0.171875 0.140625,0.265625 0.296875,0.265625 0.125,0 0.296875,-0.078125 0.375,-0.28125 C 1.46875,-0.203125 1.796875,-1.5625 1.84375,-1.75 c 0.078125,-0.328125 0.265625,-1.015625 0.3125,-1.296875 0.046875,-0.125 0.328125,-0.59375 0.5625,-0.8125 0.078125,-0.0625 0.375,-0.328125 0.796875,-0.328125 0.265625,0 0.40625,0.125 0.421875,0.125 -0.296875,0.046875 -0.515625,0.28125 -0.515625,0.546875 0,0.15625 0.109375,0.34375 0.375,0.34375 0.265625,0 0.546875,-0.234375 0.546875,-0.59375 0,-0.34375 -0.3125,-0.640625 -0.828125,-0.640625 C 2.875,-4.40625 2.4375,-3.921875 2.25,-3.640625 2.15625,-4.09375 1.796875,-4.40625 1.328125,-4.40625 0.875,-4.40625 0.6875,-4.015625 0.59375,-3.84375 0.421875,-3.5 0.296875,-2.90625 0.296875,-2.875 c 0,0.109375 0.09375,0.109375 0.109375,0.109375 0.109375,0 0.109375,-0.015625 0.171875,-0.234375 0.171875,-0.703125 0.375,-1.1875 0.734375,-1.1875 0.15625,0 0.296875,0.078125 0.296875,0.453125 0,0.21875 -0.03125,0.328125 -0.15625,0.84375 z m 0,0"
                 id="id-a9c7ff0d-2b1f-4ff6-9069-d47e02adeb24" />
            </g>
          </g>
        </defs>
        <g
           fill="#000000"
           fill-opacity="1"
           id="id-23c96edf-20bb-4e0a-aeea-e0ef014ac1c8"
           transform="translate(-291.626,-60.5559)">
          <g
             transform="translate(291.36,66.884)"
             id="g8110">
            <path
               d="M 5.421875,-1.75 C 5.390625,-2.453125 5.359375,-3.5625 4.8125,-4.84375 4.53125,-5.5625 4.046875,-6.328125 3,-6.328125 c -1.765625,0 -2.734375,2.25 -2.734375,2.625 0,0.125 0.109375,0.125 0.15625,0.125 0.125,0 0.125,-0.015625 0.1875,-0.203125 0.3125,-0.890625 1.234375,-1.59375 2.21875,-1.59375 1.984375,0 2.28125,2.21875 2.28125,3.640625 0,0.90625 -0.109375,1.203125 -0.1875,1.484375 -0.28125,0.890625 -0.75,2.671875 -0.75,3.078125 0,0.109375 0.046875,0.234375 0.15625,0.234375 0.21875,0 0.34375,-0.46875 0.5,-1.046875 0.34375,-1.25 0.4375,-1.890625 0.5,-2.453125 0.046875,-0.34375 0.875,-2.71875 2,-4.96875 C 7.4375,-5.640625 7.625,-6.03125 7.625,-6.0625 c 0,-0.015625 -0.015625,-0.125 -0.140625,-0.125 -0.03125,0 -0.09375,0 -0.125,0.0625 -0.03125,0.03125 -0.53125,1 -0.96875,1.984375 -0.203125,0.484375 -0.5,1.125 -0.96875,2.390625 z m 0,0"
               id="id-f83bc007-a4be-4348-a651-74e6301d08ea" />
          </g>
        </g>
        <g
           fill="#000000"
           fill-opacity="1"
           id="id-2ca0ba53-7d78-4654-80b8-4282cc7d85cc"
           transform="translate(-291.626,-60.5559)">
          <g
             transform="translate(298.646,69.036)"
             id="g8114">
            <path
               d="m 0.875,-0.59375 c -0.03125,0.15625 -0.09375,0.390625 -0.09375,0.4375 0,0.171875 0.140625,0.265625 0.296875,0.265625 0.125,0 0.296875,-0.078125 0.375,-0.28125 C 1.46875,-0.203125 1.796875,-1.5625 1.84375,-1.75 c 0.078125,-0.328125 0.265625,-1.015625 0.3125,-1.296875 0.046875,-0.125 0.328125,-0.59375 0.5625,-0.8125 0.078125,-0.0625 0.375,-0.328125 0.796875,-0.328125 0.265625,0 0.40625,0.125 0.421875,0.125 -0.296875,0.046875 -0.515625,0.28125 -0.515625,0.546875 0,0.15625 0.109375,0.34375 0.375,0.34375 0.265625,0 0.546875,-0.234375 0.546875,-0.59375 0,-0.34375 -0.3125,-0.640625 -0.828125,-0.640625 C 2.875,-4.40625 2.4375,-3.921875 2.25,-3.640625 2.15625,-4.09375 1.796875,-4.40625 1.328125,-4.40625 0.875,-4.40625 0.6875,-4.015625 0.59375,-3.84375 0.421875,-3.5 0.296875,-2.90625 0.296875,-2.875 c 0,0.109375 0.09375,0.109375 0.109375,0.109375 0.109375,0 0.109375,-0.015625 0.171875,-0.234375 0.171875,-0.703125 0.375,-1.1875 0.734375,-1.1875 0.15625,0 0.296875,0.078125 0.296875,0.453125 0,0.21875 -0.03125,0.328125 -0.15625,0.84375 z m 0,0"
               id="id-3de59e87-754e-4fed-a83a-e000d1a22a2f" />
          </g>
        </g>
      </g>
    </g>
    <circle
       style="fill:#000000;fill-opacity:0;fill-rule:evenodd;stroke:#000000;stroke-width:0.408001;paint-order:stroke fill markers"
       id="circle11966"
       cx="122.85272"
       cy="233.47501"
       r="48.409275" />
    <path
       style="fill:#000000;fill-opacity:0;fill-rule:evenodd;stroke:#000000;stroke-width:0.408001;stroke-dasharray:none;stroke-dashoffset:0;paint-order:stroke fill markers"
       d="m 163.63072,205.74899 -1.4416,-0.67973 -0.72875,1.42786"
       id="path12045" />
  </g>
</svg>
