<?xml version="1.0" encoding="UTF-8" standalone="no"?>
<!-- Created with Inkscape (http://www.inkscape.org/) -->

<svg
   width="240mm"
   height="180mm"
   viewBox="0 0 240 180"
   version="1.1"
   id="svg8"
   inkscape:version="1.1.2 (0a00cf5339, 2022-02-04)"
   sodipodi:docname="laurent-series-point-surgery.svg"
   xmlns:inkscape="http://www.inkscape.org/namespaces/inkscape"
   xmlns:sodipodi="http://sodipodi.sourceforge.net/DTD/sodipodi-0.dtd"
   xmlns="http://www.w3.org/2000/svg"
   xmlns:svg="http://www.w3.org/2000/svg"
   xmlns:rdf="http://www.w3.org/1999/02/22-rdf-syntax-ns#"
   xmlns:cc="http://creativecommons.org/ns#"
   xmlns:dc="http://purl.org/dc/elements/1.1/">
  <defs
     id="defs2">
    <marker
       style="overflow:visible"
       id="Arrow1Mstart"
       refX="0.0"
       refY="0.0"
       orient="auto"
       inkscape:stockid="Arrow1Mstart"
       inkscape:isstock="true">
      <path
         transform="scale(0.4) translate(10,0)"
         style="fill-rule:evenodd;fill:context-stroke;stroke:context-stroke;stroke-width:1.0pt"
         d="M 0.0,0.0 L 5.0,-5.0 L -12.5,0.0 L 5.0,5.0 L 0.0,0.0 z "
         id="path6301" />
    </marker>
    <marker
       style="overflow:visible;"
       id="Arrow1Mend"
       refX="0.0"
       refY="0.0"
       orient="auto"
       inkscape:stockid="Arrow1Mend"
       inkscape:isstock="true">
      <path
         transform="scale(0.4) rotate(180) translate(10,0)"
         style="fill-rule:evenodd;fill:context-stroke;stroke:context-stroke;stroke-width:1.0pt;"
         d="M 0.0,0.0 L 5.0,-5.0 L -12.5,0.0 L 5.0,5.0 L 0.0,0.0 z "
         id="path6304" />
    </marker>
    <clipPath
       clipPathUnits="userSpaceOnUse"
       id="clipPath20245">
      <path
         id="path20247"
         style="fill:#ff0000;fill-opacity:1;fill-rule:nonzero;stroke:none;stroke-width:0.264583"
         d="m 97.343928,260.18407 -13.50977,0.002 v 3.31194 h 13.50977 v -0.36949 c -0.01908,0.009 -0.03804,0.0188 -0.05684,0.0284 -0.126227,0.0648 -0.215675,0.012 -0.219109,-0.063 -0.04469,-8e-4 -0.08969,-0.002 -0.134358,-0.003 -0.02233,-7.9e-4 -0.04434,-10e-4 -0.06666,-0.002 -0.01863,-7.9e-4 -0.04871,0.0136 -0.05581,-0.004 -0.0013,-0.003 -0.0024,-0.005 -0.0036,-0.008 -0.01336,-0.004 -0.01852,-0.0156 -0.01603,-0.0403 v -5.3e-4 c -0.01286,-0.0329 -0.02257,-0.06 -0.02946,-0.0827 -0.113257,-0.029 -0.276394,-0.0783 -0.312123,-0.16588 -0.01786,-0.0439 -0.0068,-0.0962 0.0047,-0.14211 0.0055,-0.0218 0.02897,-0.0344 0.04341,-0.0517 0.0109,-0.008 0.02183,-0.0164 0.03255,-0.0248 -0.03506,-0.003 -0.06995,-0.006 -0.104902,-0.01 -0.02318,-0.002 -0.05757,0.0111 -0.06976,-0.009 -0.125944,-0.20559 -0.118477,-0.18652 -0.01241,-0.2434 0.121397,-0.0284 0.245748,-0.0414 0.37052,-0.0491 0.0016,-0.0108 0.0035,-0.0215 0.0036,-0.032 0.02913,-0.005 0.0584,-0.007 0.08785,-0.009 0.0011,-0.0116 0.0032,-0.0234 0.0052,-0.0346 7.94e-4,-0.005 0.0093,-0.002 0.01394,-0.003 0.01958,-0.002 0.05323,-0.004 0.07028,-0.005 0.04857,-0.002 0.09715,-0.003 0.145727,-0.004 0.0021,-1.3e-4 0.0041,-2.4e-4 0.0062,-5.3e-4 0.09894,-0.006 0.198049,-0.007 0.297138,-0.006 z m 0,2.43241 c -0.08868,0.004 -0.175963,0.0131 -0.264067,0.0248 -0.099,0.015 -0.198102,0.0341 -0.293521,0.0651 -0.0051,0.002 -0.01021,0.003 -0.0155,0.005 0.03807,0.0124 0.04687,0.0135 0.116787,0.031 0.02384,0.007 0.048,0.0127 0.07235,0.0176 0.09692,-7.9e-4 0.194014,-5.3e-4 0.290939,-5.3e-4 0.03105,4e-5 0.06203,-5.3e-4 0.09302,-5.3e-4 z" />
    </clipPath>
    <clipPath
       clipPathUnits="userSpaceOnUse"
       id="clipPath22935">
      <path
         id="path22937"
         style="fill:#ff0000;fill-opacity:1;fill-rule:nonzero;stroke:none;stroke-width:0.264583"
         d="m 58.756103,260.23161 -12.768728,5.3e-4 v 1.87172 c 0.0039,-5.3e-4 0.008,-7.9e-4 0.01188,-10e-4 0.0011,-4e-5 0.0019,-2e-5 0.0031,0 h 0.02326 0.02635 0.02635 0.02997 0.03307 0.02739 0.02479 0.02482 0.02532 0.02532 0.02687 0.02635 0.02479 0.02429 0.02273 0.01344 0.0093 0.04599 0.0052 0.02635 0.02532 c 0.03208,0 0.05127,0.013 0.05839,0.0284 0.0081,0.002 0.01466,0.005 0.02016,0.009 h 0.0047 c 0.06309,0 0.07807,0.049 0.04444,0.0718 0.0064,0.0121 -0.0032,0.0284 -0.02894,0.0284 -0.0094,-10e-6 -0.0044,0 -0.01394,0 h -0.01035 c 2.64e-4,0.002 2.43e-4,0.003 5.29e-4,0.005 0.06865,1.2e-4 0.137536,5.3e-4 0.20619,5.3e-4 h 5.29e-4 c 0.01442,0 0.03867,-5e-5 0.06149,0 0.0117,-4e-5 0.02924,-0.0101 0.03514,0 h 5.29e-4 c 0.0046,0 0.01347,-0.005 0.01344,0 -5.3e-5,0.0132 -6.1e-5,0.0269 -0.0016,0.0403 5.8e-5,5.2e-4 -5.5e-5,10e-4 0,0.002 -3.9e-5,2.7e-4 4.3e-5,8e-4 0,10e-4 0.0013,0.0134 0.0016,0.0271 0.0016,0.0403 1.6e-5,0.005 -0.0089,1e-5 -0.01344,0 h -5.29e-4 c -0.006,0.0101 -0.02342,-10e-6 -0.03514,0 -0.0099,-2e-5 -0.0173,-10e-6 -0.02687,0 0.113112,0.0399 0.220459,0.0914 0.301789,0.17311 h 0.02326 0.619083 c 0.782857,0 0.907465,0.66447 0.374137,0.87643 0.0065,0.0251 0.01185,0.0488 0.01603,0.0713 h 9.568924 c 0.01897,-0.0326 0.0526,-0.0611 0.09405,-0.0925 0.0082,-0.0376 0.0167,-0.0752 0.02532,-0.11266 -0.04452,-0.018 -0.08667,-0.041 -0.111104,-0.0744 -0.02352,-0.0322 -0.04083,-0.0618 -0.05064,-0.091 -0.07456,-0.009 -0.167376,-0.0238 -0.180869,-0.0408 -0.217475,-0.27409 -0.07551,-0.34611 0.133326,-0.39015 0.0028,-0.0205 0.0055,-0.0426 0.0093,-0.0677 0.0047,-0.0309 0.05165,-0.0357 0.0801,-0.0486 0.08886,-0.0402 0.196228,-0.0329 0.288872,-0.0558 0.02524,-0.002 0.05022,-0.005 0.07545,-0.007 5.29e-4,-5.3e-4 5.29e-4,-5.3e-4 0.0011,-0.002 0.01058,-0.0163 0.02172,-0.0329 0.03256,-0.0491 -0.02395,-0.054 -0.0097,-0.11425 0.03927,-0.15658 -0.01469,-0.003 -0.02945,-0.005 -0.04392,-0.009 -0.01458,-0.003 -0.02893,-0.008 -0.04341,-0.0108 -0.0057,-0.0191 -0.01834,-0.038 -0.01707,-0.0579 5.3e-4,-0.008 0.01442,-0.008 0.02222,-0.009 0.01132,-0.002 0.0231,-10e-4 0.03462,-10e-4 0.06488,-4e-5 0.129571,0.005 0.194302,0.009 0.0029,-0.002 0.0059,-0.004 0.0088,-0.007 -0.01503,-0.008 -0.01976,-0.0218 -0.01344,-0.0434 0.0039,-0.0133 0.02397,-0.0183 0.03514,-0.0217 0.01437,-0.003 0.0292,-0.005 0.04393,-0.006 7.93e-4,-0.005 0.0019,-0.0107 0.0031,-0.016 1.51e-4,-5.3e-4 5.29e-4,-2.6e-4 0.0011,-5.3e-4 0.0016,-5.3e-4 0.0048,5.3e-4 0.0067,5.3e-4 0.01204,-2.5e-4 0.02413,5.3e-4 0.03618,5.3e-4 0.02326,1.2e-4 0.04651,-5e-5 0.06976,0 0.0026,-2e-4 0.03006,0.002 0.03049,0.004 1.96e-4,0.001 1.4e-4,0.002 5.29e-4,0.003 h 5.29e-4 c 0.02032,0 0.04065,-7e-5 0.06098,0 0.01696,1.3e-4 0.03422,-5.3e-4 0.05116,5.3e-4 0.0016,1.8e-4 0.01323,0.001 0.01654,0.003 l 5.29e-4,5.3e-4 c 0.0016,0.004 0.0035,0.008 0.0052,0.0119 7.93e-4,5e-5 0.0024,-6e-5 0.0031,0 0.0059,2.5e-4 0.01164,7.9e-4 0.01757,0.001 5.29e-4,-0.007 0.0011,-0.0107 0.0036,-0.0129 v -5.2e-4 c -0.0013,-0.005 -7.9e-5,-0.006 0.0057,-0.006 v -5.3e-4 c 1.06e-4,-0.002 0.0045,-6e-5 0.0062,0 0.0067,2.2e-4 0.0087,3e-5 0.01344,0.002 0.0093,2.6e-4 0.0186,-3e-5 0.02791,5.3e-4 z m -0.660424,2.00505 c 0.0016,5.3e-4 0.0073,0.002 0.0088,0 -0.0029,1.4e-4 -0.0058,-7e-5 -0.0088,0 z m -11.44633,0.21394 v 5.3e-4 c -0.02773,0.004 -0.04655,0.008 -0.0615,0.0124 0.0045,-5.3e-4 0.0089,-10e-4 0.01344,-0.002 0.01617,-0.002 0.06423,-0.013 0.04806,-0.0108 z m 11.033435,0.53123 c -0.0091,0.002 -0.01847,0.004 -0.02739,0.006 -0.06511,0.0183 0.0013,0.0279 0.02739,-0.006 z" />
    </clipPath>
    <clipPath
       clipPathUnits="userSpaceOnUse"
       id="clipPath880">
      <path
         id="path882"
         style="fill:#ff0000;fill-opacity:1;fill-rule:nonzero;stroke:none;stroke-width:0.264583"
         d="m 97.436429,268.63627 -13.403831,0.002 v 3.31195 h 13.403831 v -1.9234 h -0.0011 -0.03152 -0.03049 -0.02997 -0.03049 -0.02739 -0.02635 -0.03152 -0.02894 -0.02429 c -0.008,-10e-6 -0.0163,3e-5 -0.02429,0 -0.0086,-4e-5 -0.01672,-2.4e-4 -0.02532,-5.3e-4 -0.01064,-2.5e-4 -0.02143,-5.3e-4 -0.03204,-0.001 -0.01326,-7.9e-4 -0.02654,-0.002 -0.03979,-0.003 v -5.3e-4 c -0.03849,-0.003 -0.04103,-0.0387 -0.0072,-0.0413 0.0021,-1.8e-4 0.0047,-1.6e-4 0.0072,0 0.01408,7.9e-4 0.02828,0.002 0.04238,0.003 0.01008,5.3e-4 0.01987,0.001 0.02997,0.002 0.0084,1.5e-4 0.01693,-3e-5 0.02532,0 0.008,3e-5 0.01569,0 0.02379,0 0.0082,1e-5 0.01619,0 0.02429,0 h 0.02894 0.03152 0.02635 0.02739 0.03049 0.02997 0.03049 0.03152 0.0011 v -0.26355 c -0.0387,5.3e-4 -0.07758,0.001 -0.116272,0.003 -5.29e-4,0.002 -0.0011,0.005 -0.0021,0.008 -0.0031,0.008 -0.01648,0.007 -0.02479,0.009 -0.0048,10e-4 -0.05079,0.006 -0.05219,0.006 -0.07658,0.009 -0.15289,0.0206 -0.22841,0.0362 -0.02265,0.005 -0.04558,0.0108 -0.0677,0.0181 0.0019,2.6e-4 0.0029,5.3e-4 0.0057,10e-4 0.03846,0.006 0.07784,0.008 0.116273,0.0145 0.0081,0.002 0.02408,0.004 0.02997,0.0114 0.0117,0.0145 0.01127,0.0187 0.0026,0.0351 -0.0016,0.003 -0.0044,0.004 -0.0067,0.006 -0.01254,0.008 -0.02676,0.0138 -0.04082,0.0191 -0.0024,10e-4 -0.008,0.003 -0.01188,0.005 2.62e-4,9e-5 2.25e-4,5.3e-4 -5.29e-4,-0.002 -0.01294,-0.0391 -0.0079,0.06 -0.03204,0.0264 -0.0085,-0.0117 -0.01095,-0.0217 -0.0083,-0.0362 0.0013,-0.003 0.0024,-0.007 0.0041,-0.0103 0.0056,-0.009 0.01471,-0.0142 0.02429,-0.0186 -0.02829,-0.003 -0.05665,-0.005 -0.08475,-0.0103 -0.01466,-0.003 -0.03366,-0.005 -0.04703,-0.0124 -0.0047,-0.003 -0.01093,-0.005 -0.01344,-0.0104 -0.004,-0.008 -0.0065,-0.0167 -0.0057,-0.0253 5.3e-4,-0.005 0.0064,-0.009 0.0093,-0.0129 0.0034,-0.002 0.0067,-0.005 0.01035,-0.007 0.0068,-0.004 0.02296,-0.0102 0.02946,-0.0124 0.02545,-0.009 0.05184,-0.0147 0.07803,-0.0207 0.0096,-0.002 0.01931,-0.003 0.02894,-0.005 -0.09158,0.003 -0.183285,0.006 -0.274918,0.009 -0.05802,0.002 -0.11612,0.004 -0.174149,0.005 -0.04112,10e-4 -0.04217,-0.0402 -0.0011,-0.0413 0.05793,-0.002 0.115713,-0.003 0.173633,-0.005 0.0435,-0.002 0.08721,-0.003 0.130741,-0.005 -0.0043,-0.008 -0.004,-0.017 -0.0036,-0.0264 -0.02963,-7e-5 -0.05926,5e-5 -0.08888,0 -0.09168,-1.4e-4 -0.183753,5e-5 -0.275436,0 -0.03987,-2e-5 -0.04102,-0.0394 -0.0036,-0.0419 0.0013,-8e-5 0.0029,0 0.0041,0 0.09169,7e-5 0.18323,2.5e-4 0.274918,5.3e-4 0.02291,4e-5 0.04582,-3e-5 0.06873,0 3e-6,-7.9e-4 -3.4e-5,-10e-4 0,-0.002 9e-5,-0.002 0.0041,-10e-4 0.0067,-0.002 -6e-5,-10e-4 7.5e-5,-0.002 0,-0.003 -9.7e-5,-10e-4 0.0038,0 0.0052,0 h 5.29e-4 c 0.0029,-7.9e-4 0.0081,-10e-4 0.01654,-10e-4 h 0.02016 c 0.01532,-0.001 0.03065,-0.003 0.04599,-0.004 0.02612,-0.002 0.05234,-0.003 0.07855,-0.004 0.0044,-0.003 0.01093,-0.006 0.01913,-0.006 0.0013,-7e-5 0.0029,0 0.0041,0 0.04292,4e-5 0.08575,-7e-5 0.128674,0 0.07959,1.5e-4 0.159155,5.3e-4 0.238745,10e-4 0.0029,1e-5 0.0058,-3e-5 0.0088,0 z m -0.02946,1.03921 c -2.01e-4,5.3e-4 -2.51e-4,0.001 -5.29e-4,0.002 2.06e-4,10e-4 2.49e-4,0.002 5.29e-4,0.003 0.0098,-2.2e-4 0.01966,-2.6e-4 0.02946,-5.3e-4 v -0.004 c -0.0098,-1.3e-4 -0.01963,-5.3e-4 -0.02946,-5.3e-4 z m -0.334346,0.18552 c 1.03e-4,2.5e-4 2.65e-4,5.3e-4 5.29e-4,0.002 2.46e-4,2.6e-4 0.0013,-2.1e-4 0.0011,-5.3e-4 -5.29e-4,-2.1e-4 -7.94e-4,-8e-4 -0.0016,-10e-4 z" />
    </clipPath>
    <clipPath
       clipPathUnits="userSpaceOnUse"
       id="clipPath1348">
      <path
         id="path1350"
         style="fill:#ff0000;fill-opacity:1;fill-rule:nonzero;stroke:none;stroke-width:0.264583"
         d="m -146.75642,293.06184 50.04501,-0.001 v -30.11961 c -0.01752,0.005 -0.03461,0.009 -0.05064,0.0134 -0.0069,0.0227 -0.01659,0.0498 -0.02946,0.0827 v 5.3e-4 c 0.0024,0.0247 -0.0027,0.0363 -0.01603,0.0403 -0.0013,0.003 -0.0024,0.005 -0.0036,0.008 -0.0071,0.0176 -0.03718,0.003 -0.05581,0.004 -0.02233,10e-4 -0.04433,10e-4 -0.06666,0.002 -0.04467,0.001 -0.08967,0.002 -0.134358,0.003 -0.0034,0.075 -0.09288,0.128 -0.219109,0.063 -0.03924,-0.0201 -0.07875,-0.0397 -0.119888,-0.0558 -0.04566,-0.0186 -0.09176,-0.0362 -0.137462,-0.0548 -0.01897,-0.008 -0.09802,-0.0371 -0.105418,-0.0538 -0.02246,-0.0503 -0.01955,-0.10858 -0.02946,-0.16278 0.02793,-0.0197 0.05332,-0.0432 0.08372,-0.0589 0.01294,-0.007 0.08797,-0.0103 0.09767,-0.0103 0.08243,-0.004 0.164552,-0.002 0.247012,-0.002 0.09692,0 0.194019,-2.7e-4 0.290939,5.3e-4 0.02434,-0.005 0.04851,-0.011 0.07235,-0.0181 0.06992,-0.0175 0.07872,-0.0186 0.116787,-0.031 -0.0053,-0.002 -0.0104,-0.003 -0.01551,-0.005 -0.09542,-0.0309 -0.194532,-0.0501 -0.293521,-0.0651 -0.09306,-0.0123 -0.185213,-0.0213 -0.279053,-0.0253 -0.0195,-8e-4 -0.0513,0.0165 -0.0584,-0.001 -0.0021,0 -0.0031,1.9e-4 -0.0031,-0.002 2.9e-5,-0.002 -2.9e-5,-0.004 0,-0.006 -0.01624,-0.046 -0.02944,-0.0812 -0.03979,-0.11008 h -0.204121 c -0.06594,2.2e-4 -0.13199,5.3e-4 -0.197922,0 h -0.07596 c -0.01455,0 -0.02809,-5.3e-4 -0.04082,-0.003 -0.0013,-2.6e-4 -0.0028,-2.2e-4 -0.0041,-5.3e-4 -0.08908,-0.005 -0.126172,-0.002 -0.122473,-0.0791 -0.01286,-0.0308 -0.0084,-0.0652 0.01344,-0.0935 l 5.29e-4,-5.3e-4 c 0.004,-0.0204 0.0089,-0.0425 0.01447,-0.0682 0.0037,-0.0169 0.03427,-0.005 0.05168,-0.006 0.02101,-0.002 0.04196,-0.002 0.06305,-0.002 0.04658,-0.001 0.09293,-0.001 0.139525,-0.002 -0.0011,-0.0115 -0.0013,-0.0233 -0.0021,-0.0346 -2.41e-4,-0.003 0.0056,-10e-4 0.01241,0.002 2.65e-4,-10e-4 7.94e-4,-10e-4 0.0011,-0.002 0.0051,-0.009 0.02143,0 0.03204,0 0.02773,1e-5 0.05547,0 0.0832,0 -0.01098,-0.0259 -0.0041,-0.0253 0.01601,-0.0253 h -0.113688 c -0.04116,0 -0.04116,-0.0408 0,-0.0408 h 0.122991 c -7.94e-4,-1.7e-4 -0.0013,-2.5e-4 -0.0021,-5.3e-4 h -5.29e-4 c -0.0062,-0.002 -0.01209,-0.004 -0.0181,-0.006 -0.0047,-0.005 -0.01135,-0.009 -0.01394,-0.016 -7.93e-4,-0.002 -0.0016,-0.004 -0.0016,-0.007 -0.0035,-5.3e-4 -0.0074,-0.001 -0.01085,-0.002 -0.0061,-0.001 -0.02708,-0.004 -0.02998,-0.0108 v -5.2e-4 c -0.01154,-5.3e-4 -0.02307,-10e-4 -0.03462,-0.002 -0.0094,-2.6e-4 -0.02151,0.006 -0.0279,-10e-4 -2.65e-4,-2.6e-4 -7.94e-4,-7.9e-4 -0.0011,-0.001 -0.0032,7e-5 -0.01003,0.004 -0.0098,5.3e-4 2.47e-4,-0.005 7.94e-4,-0.0116 0.0016,-0.017 -0.0019,-0.007 -0.0024,-0.0141 -0.0026,-0.0212 -0.0109,-7.9e-4 -0.0217,-0.002 -0.03255,-0.004 -0.0062,-0.004 -0.01659,-0.004 -0.0186,-0.0119 -0.0077,-0.0276 0.0086,-0.0332 0.02635,-0.0357 0.01265,-0.002 0.01749,-0.002 0.031,-0.003 0.02066,-8e-4 0.04135,-10e-4 0.06201,-10e-4 -7.94e-4,-5.3e-4 -0.0013,-0.001 -0.0021,-0.002 l -5.29e-4,-5.3e-4 c -0.0028,-2.6e-4 -0.0046,-10e-4 -0.0052,-0.004 h -5.29e-4 c -0.005,-0.003 -0.0088,-0.002 -0.0181,-0.002 -0.0213,0.002 -0.04254,0.005 -0.06356,0.009 -0.0028,5.3e-4 -0.0055,0.002 -0.0083,0.002 -0.0044,0.001 -0.009,0.002 -0.01344,0.003 -0.0047,10e-4 -0.0085,0.002 -0.01188,0.003 -0.01416,0.004 -0.01799,0.003 -0.01913,-0.031 -7.94e-4,-0.002 -7.94e-4,-0.004 0,-0.006 -1.4e-5,-5.3e-4 1.3e-5,-5.3e-4 0,-0.002 -8.8e-5,-0.003 0.0049,-0.002 0.0083,-0.003 5.29e-4,-6e-5 5.29e-4,-5.3e-4 0.0011,-5.3e-4 0.0021,-5.3e-4 0.0042,-5.3e-4 0.0062,-0.001 0.0021,-5.3e-4 0.0042,-10e-4 0.0062,-0.002 0.0036,-7.9e-4 0.0072,-0.001 0.01085,-0.002 0.01569,-0.004 0.0312,-0.008 0.04703,-0.0109 -0.0019,-0.002 -0.0026,-0.006 -0.0031,-0.0139 -0.0016,0 -0.0035,1e-5 -0.0052,0 -0.0011,0 -0.0034,0.001 -0.0031,0 0.0031,-0.008 0.0055,-0.0147 0.0072,-0.0202 v -5.3e-4 -5.3e-4 c -0.0016,-0.005 -0.0036,-0.0118 -0.0062,-0.0202 -1.99e-4,-7.9e-4 0.0021,0 0.0031,0 0.0052,2e-5 0.01032,0 0.0155,0 h 0.0031 5.29e-4 0.0031 c 0.0117,2e-5 0.02344,-1e-5 0.03514,0 h 0.01654 c 0.0011,-0.002 0.0024,-0.004 0.0041,-0.006 -0.01019,-0.0134 -0.0072,-0.018 0,-0.0196 -0.0057,-0.004 -0.01225,-0.007 -0.01344,-0.0134 -2.49e-4,-0.001 -2.38e-4,-0.002 -5.29e-4,-0.004 h -0.02066 c -0.02016,0 -0.03059,-0.0101 -0.03101,-0.0202 -0.03144,-0.006 -0.03008,-0.0393 0.0078,-0.0393 h 0.05168 0.01291 c -5.29e-4,-0.003 -7.94e-4,-0.005 -0.0011,-0.008 -2.04e-4,-0.002 0.0042,-8e-4 0.0062,-0.001 0.0026,-2.6e-4 0.0051,-2.3e-4 0.0078,-5.3e-4 0.02069,-0.001 0.0413,-0.001 0.06201,-0.002 0.06111,-5e-5 0.122336,-2.3e-4 0.183452,-5.3e-4 5.29e-4,-10e-4 0.0011,-0.002 0.0016,-0.003 -1.96e-4,-0.002 -2.43e-4,-0.004 -5.29e-4,-0.006 -1.51e-4,-0.001 0.0019,-2.1e-4 0.0036,5.3e-4 2.62e-4,-5.3e-4 5.29e-4,-10e-4 0.0011,-0.002 0.0039,-0.005 0.01312,-5.3e-4 0.01963,-5.3e-4 0.02832,0 0.05646,10e-4 0.08475,0.002 0.02439,10e-4 0.04903,0.003 0.07338,0.004 0.0049,2.5e-4 0.01008,5.2e-4 0.01498,0.001 0.0027,2.4e-4 0.0052,-5.3e-4 0.0078,5.3e-4 0.0011,5.3e-4 0.0021,0.001 0.0031,0.002 h 0.0093 0.03462 c 0.01259,-2e-4 0.02524,-10e-4 0.03772,-0.003 0.01093,-0.002 0.02204,-0.003 0.03307,-0.004 0.01363,-10e-4 0.02716,-0.003 0.04082,-0.004 0.01667,-5.3e-4 0.03351,-0.001 0.05012,-0.003 0.01744,-10e-4 0.03469,-0.003 0.05219,-0.003 0.01585,5.3e-4 0.03169,0.002 0.04754,0.003 0.04114,0.002 0.03972,0.0429 -0.0016,0.0413 -0.01553,-7.9e-4 -0.03099,-0.001 -0.04651,-0.002 -0.01611,-2.6e-4 -0.03201,10e-4 -0.04806,0.002 -0.0019,1.1e-4 -0.0034,5.3e-4 -0.0052,5.3e-4 -0.0011,0.002 -0.0021,0.005 -0.0041,0.007 0.004,1e-4 0.008,2.7e-4 0.01188,5.3e-4 0.0013,3e-5 0.0028,-4e-5 0.0041,0 7.94e-4,2e-5 0.0013,-2e-5 0.0021,0 0.0033,9e-5 0.0094,-0.003 0.0098,5.3e-4 2.64e-4,0.002 5.29e-4,0.005 5.29e-4,0.007 0.0019,5e-5 0.0038,-7e-5 0.0057,0 0.006,2e-4 0.01156,2.7e-4 0.01757,0.001 0.0033,5.3e-4 0.0097,-0.001 0.0098,0.002 1.06e-4,0.004 1.35e-4,0.008 -5.29e-4,0.0114 7.93e-4,-3e-5 0.0013,10e-6 0.0021,0 0.0026,-1.1e-4 0.008,-0.003 0.0078,-5.3e-4 -5.3e-4,0.003 -0.0019,0.007 -0.0031,0.0103 0.01551,-2.2e-4 0.02796,0.004 0.03462,0.0305 1.62e-4,5.3e-4 8e-5,0.001 0,0.002 0.0117,0 0.02344,-4e-5 0.03514,0 0.0057,-0.002 0.01199,-0.003 0.0155,0 0.0036,2e-5 0.0072,-3e-5 0.01085,0 -0.0011,0.004 -0.0021,0.009 -0.0026,0.0139 0.02442,-0.002 0.04852,-0.004 0.07287,-0.007 0.02469,-0.001 0.02585,5e-5 0.01654,0.0424 -7.94e-4,0.004 -0.0072,0.003 -0.01085,0.005 -0.0058,0.003 -0.0222,0.009 -0.02791,0.0109 -0.0074,0.003 -0.01474,0.006 -0.02223,0.009 0.0078,2.7e-4 0.01556,2.7e-4 0.02326,0.002 0.0021,2.7e-4 0.0061,-0.001 0.0067,10e-4 0.0038,0.0127 0.0038,0.0262 0.0057,0.0393 -0.0046,0.002 -0.0088,0.003 -0.01344,0.004 -0.0035,7.9e-4 -0.02336,0.005 -0.02582,0.005 -0.0079,0.002 -0.0159,0.003 -0.02379,0.005 -2.64e-4,0.003 -7.94e-4,0.005 -0.0011,0.008 0.0024,1.1e-4 0.0045,5.3e-4 0.0067,5.3e-4 0.009,5.3e-4 0.01918,-0.003 0.02687,0.002 7.94e-4,5.3e-4 0.0019,0.001 0.0026,0.002 0.0086,5.3e-4 0.02413,0.002 0.02532,0.005 0.01191,0.0296 0.0099,0.0365 -0.01188,0.0413 -0.0088,0.001 -0.01752,0.002 -0.02635,0.002 -2.64e-4,6e-5 -7.93e-4,-5e-5 -0.0011,0 -0.0077,0.001 -0.01508,0.003 -0.02273,0.004 0.0083,0.009 0.01474,0.0195 0.01913,0.0305 0.0011,0.003 -0.0016,0.004 -0.0057,0.004 0.01257,5.3e-4 0.02519,0.001 0.03772,0.002 0.02177,7.9e-4 0.05207,0.002 0.07493,0.004 0.0054,2.6e-4 0.0159,-0.004 0.01601,10e-4 5.6e-5,0.003 2.65e-4,0.006 0,0.009 0.0011,5e-5 0.0034,-10e-4 0.0031,0 -0.0019,0.006 -0.0048,0.0124 -0.0072,0.0186 0.0011,0.003 0.0021,0.005 0.0031,0.008 l 0.05891,0.001 V 241.317 l -50.045016,5.2e-4 z m 50.04501,-30.80483 v -0.0605 c -0.03253,-5.3e-4 -0.06514,-10e-4 -0.09767,-0.002 0.0013,0.008 0.0028,0.0165 0.0036,0.0248 0.02945,0.002 0.05872,0.004 0.08785,0.009 1e-4,0.01 0.0016,0.019 0.0031,0.0289 0.0011,8e-5 0.0021,-6e-5 0.0031,0 z m -0.247013,-0.27234 c -0.0034,-0.003 -0.0063,-0.007 -0.0078,-0.0109 -0.0043,-0.0129 0.0042,-0.0195 0.01138,-0.0263 -0.0076,0.002 -0.01561,0.004 -0.02016,0.005 -0.0028,5.3e-4 -0.0054,0.002 -0.0083,0.002 0.004,0.008 0.0062,0.0182 0.0062,0.0274 0,10e-4 -0.0011,0.002 -0.0021,0.003 0.0052,8e-5 0.0104,-1.3e-4 0.01654,0 5.29e-4,10e-6 0.0027,-10e-6 0.0041,0 z" />
    </clipPath>
    <clipPath
       clipPathUnits="userSpaceOnUse"
       id="clipPath3015">
      <path
         id="path3017"
         style="fill:#ff0000;fill-opacity:1;fill-rule:nonzero;stroke:none;stroke-width:0.264583"
         d="m 42.748295,189.74858 v 74.28848 c 0.0476,-10e-4 0.095,-0.002 0.142627,-0.003 0.01709,-0.17467 0.08915,-0.35399 0.144695,-0.51934 0.0098,-0.0292 0.03998,-0.0393 0.0739,-0.0455 -0.0041,-0.0143 -0.0075,-0.0289 -0.0093,-0.0439 -0.05414,-0.45006 0.368564,-0.66475 0.708485,-0.78962 0.04681,-0.0123 0.09358,-0.0234 0.14056,-0.0336 0.0052,-0.0246 0.0046,-0.0598 0.01757,-0.0729 1.4e-4,-0.009 5.29e-4,-0.0176 5.29e-4,-0.0269 1.67e-4,-0.0138 0.02756,0 0.04134,0 h 0.01344 c 0.06417,-0.0134 0.170865,-0.002 0.34468,0 h 0.182936 c -0.0038,-0.12715 0.06584,-0.23394 0.260451,-0.28732 0.0439,-0.012 0.08788,-0.0241 0.131773,-0.0362 0.113927,-0.0174 0.22774,-0.0242 0.342098,-0.0253 0.06861,-8e-4 0.137686,2.6e-4 0.206706,0.003 0.0011,2e-5 0.0021,-2e-5 0.0031,0 7.94e-4,-5.3e-4 -2.64e-4,-0.002 0.0011,-0.002 0.0011,-0.003 -0.0011,-0.007 0.0021,-0.009 -0.03033,-0.006 -0.03196,-0.0377 0.0057,-0.0377 h 0.0052 0.03979 0.04186 0.04393 0.03049 0.02429 0.02532 0.03462 0.04341 0.03876 0.02585 0.02687 c 0.01072,-10e-6 0.0213,4e-5 0.03204,0 0.01117,-5e-5 0.02244,7e-5 0.03359,-5.3e-4 0.0091,-1.9e-4 0.01839,-2.6e-4 0.02739,-0.001 0.0078,-8e-4 0.01543,-0.002 0.02326,-0.003 v -5.3e-4 c 0.0011,-4e-5 0.0019,-2e-5 0.0031,0 h 0.02326 0.02635 0.02635 0.02997 0.03307 0.02739 0.02482 0.02482 0.02532 0.02532 0.02687 0.02635 0.02482 0.02429 0.02273 0.01344 0.0093 0.04599 0.0052 0.02635 0.02532 c 0.03169,0 0.04697,0.0127 0.05426,0.0279 0.0074,0.002 0.008,0.007 0.01344,0.01 h 0.0155 c 0.06598,0 0.07907,0.0532 0.03927,0.0744 0.0061,0.0121 0.0016,0.0259 -0.02376,0.0258 h -0.01344 -0.01085 c 2.64e-4,0.002 0.0029,0.003 0.0031,0.005 0.06865,1.2e-4 0.137533,5.3e-4 0.206187,5.3e-4 h 0.0021 c 0.01442,2e-5 0.03866,-4e-5 0.0615,0 0.01169,-1e-5 0.02924,-0.01 0.03514,0 h 5.29e-4 c 0.0046,10e-6 0.01347,-0.005 0.01344,0 -5.3e-5,0.0132 -5.29e-4,0.0269 -0.0026,0.0403 5.8e-5,5.3e-4 -5.3e-5,10e-4 0,0.002 -3.7e-5,2.6e-4 4.5e-5,8e-4 0,10e-4 0.0013,0.0134 0.0026,0.0271 0.0026,0.0403 1.9e-5,0.005 -0.0089,1e-5 -0.01344,0 h -5.29e-4 c -0.006,0.0101 -0.02342,-10e-6 -0.03514,0 -0.0093,-10e-6 -0.01622,0 -0.02532,0 0.112543,0.0398 0.219276,0.0912 0.300241,0.1726 h 0.02326 0.619083 c 0.779372,0 0.897199,0.65316 0.37207,0.86817 0.01939,0.0725 0.02916,0.13424 0.02946,0.18655 0.0035,0.003 0.0064,0.007 0.0088,0.0109 0.215482,0.004 0.244504,0.0642 0.142627,0.45992 0.115943,0.4155 0.07399,0.48865 -0.136941,0.49351 -0.01852,0.042 -0.103045,0.002 -0.152963,0.005 -0.09042,0.005 -0.180862,0.01 -0.271302,0.015 -0.242316,0.0143 -0.484751,0.029 -0.727088,0.0439 0.256376,0.006 0.513038,0.0125 0.768946,0.014 0.22053,0.007 1.480163,-0.0218 1.544608,0.28939 0.05281,0.25502 -0.128987,0.51066 -0.254246,0.73898 -0.02896,0.0528 -0.116824,0.0296 -0.175183,0.0444 -0.02302,0.004 -0.04624,0.007 -0.06925,0.0103 0.06504,0.2501 0.01259,0.25951 -0.19327,0.25425 -2.62e-4,10e-4 -0.0021,0.002 -0.0026,0.003 -1.6e-5,5e-5 -0.08228,-0.004 -0.102319,-0.005 -2.65e-4,0 -0.0024,10e-6 -0.0026,0 -0.117994,-0.002 -0.235993,-0.003 -0.353984,-0.005 2.46e-4,7.9e-4 1.35e-4,0.002 5.29e-4,0.003 0.176983,0.005 0.220023,0.0498 0.173115,0.28887 0.161462,0.002 0.322762,0.005 0.484208,0.008 0.08852,0.003 0.177205,0.003 0.265618,0.008 0.07963,0.005 0.211262,-0.0537 0.238744,0.0212 0.04648,0.12666 0.08128,0.22823 0.104905,0.31161 0.108897,0.018 0.216921,0.0404 0.322977,0.0682 0.09059,0.0238 0.220702,0.005 0.267684,0.0863 0.03133,0.054 0.05554,0.11277 0.07338,0.17415 0.05244,-0.0163 0.108862,-0.0377 0.104386,5.3e-4 -0.0058,0.0499 -0.01119,0.0963 -0.01654,0.13901 0.03373,0.10167 0.05046,0.26426 0.06511,0.52503 0.0024,0.0414 -0.0531,0.0315 -0.109038,0.0217 0.08307,0.18041 0.02807,0.2334 -0.08888,0.25115 -0.01876,0.0571 -0.04022,0.1135 -0.06098,0.16691 -0.01995,0.0514 -0.108204,0.0204 -0.162263,0.031 -0.09748,0.01 -0.194853,0.0171 -0.292486,0.0243 -0.0074,0.034 -0.01447,0.0693 -0.02119,0.10387 0.0093,5.3e-4 0.0186,2.2e-4 0.02791,0.002 0.443439,0.0479 0.505034,-0.0375 0.622702,0.65681 0.01111,0.0656 -0.116785,0.0657 -0.180351,0.0853 -0.06083,0.0187 -0.125801,0.0217 -0.189137,0.0279 -0.135107,0.0131 -0.570341,0.0322 -0.674894,0.0372 -0.261578,0.009 -0.522798,0.014 -0.784447,0.0181 0.0089,0.0651 0.01934,0.14073 0.03152,0.22841 0.0011,0.008 -7.94e-4,0.0147 -0.0052,0.0196 0.224123,0.36344 0.07612,0.45467 -0.324014,0.45009 -0.391157,-0.0184 -0.781928,-0.0418 -1.172538,-0.0692 0.0049,0.0944 -0.05055,0.12058 -0.125055,0.13124 -0.01646,0.0221 -0.0354,0.044 -0.04651,0.0667 -0.0092,0.003 -0.01886,0.005 -0.02791,0.007 -0.02402,0.0382 -0.07661,0.0677 -0.159162,0.0677 h -0.0186 c 7.94e-4,0.007 0.0024,0.0131 0.0021,0.0196 v 5.2e-4 c 2.65e-4,0.007 -5.29e-4,0.0144 -0.0021,0.0212 -1.64e-4,0.001 -0.0013,5.3e-4 -0.0031,5.3e-4 -0.0019,10e-4 -0.0061,1.8e-4 -0.0093,-5.3e-4 h -0.02429 -0.01085 c 7.94e-4,0.004 -5.29e-4,0.007 -0.0021,0.0103 v 5.3e-4 c 0.0013,1.2e-4 0.0038,-2.5e-4 0.0052,0 7.94e-4,1.5e-4 0.0019,1.1e-4 0.0026,5.3e-4 h 5.29e-4 c 0.0013,-2.6e-4 0.0029,-2.7e-4 0.0031,5.3e-4 l 5.29e-4,0.001 c 0.0054,0.002 0.01117,0.003 0.01654,0.005 -0.004,0.0119 -0.0048,0.026 -0.01138,0.0367 -0.0019,0.003 -0.0072,7.9e-4 -0.01085,10e-4 -0.03164,0.003 -0.06338,0.004 -0.09508,0.006 l -5.29e-4,5.3e-4 c -2.62e-4,1.8e-4 -0.0019,-4e-5 -0.0021,5.3e-4 0.03667,0.009 0.03036,0.0453 -0.0093,0.0393 -0.01,-0.002 -0.0199,-0.002 -0.02997,-0.003 -0.01421,-5.3e-4 -0.02866,-2e-5 -0.04289,-5.3e-4 -0.004,7e-5 -0.0079,-2.7e-4 -0.01188,-5.3e-4 -0.0038,0.0101 -0.01791,0.0185 -0.03721,0.007 -0.0019,-7.9e-4 -0.0039,-0.002 -0.0057,-0.003 h -0.0186 -0.03049 -0.03307 -0.04031 -0.03979 -0.03152 -0.03411 -0.03617 -0.03204 -0.03152 -0.03772 c -0.01148,0 -0.0232,2.7e-4 -0.03462,10e-4 -0.0097,0.001 -0.01913,0.002 -0.02894,0.003 -0.0097,5.3e-4 -0.01976,1.5e-4 -0.02946,5.3e-4 -0.0096,10e-5 -0.01881,-2e-5 -0.02842,0 -0.01122,10e-6 -0.02289,0 -0.03411,0 -0.01397,5.3e-4 -0.02745,5.3e-4 -0.04134,-0.002 -0.01307,-10e-4 -0.02619,-2.6e-4 -0.03927,-0.002 -0.01177,-2.5e-4 -0.02387,-10e-4 -0.03566,-10e-4 -0.0011,6e-5 -0.0021,-4e-5 -0.0031,0 -0.0091,5.3e-4 -0.01823,5.3e-4 -0.02739,0.002 -0.02032,5.3e-4 -0.04068,-0.001 -0.06098,0.002 -0.01254,5.3e-4 -0.02532,0.002 -0.03772,0.004 h -5.29e-4 c -0.0028,5.2e-4 -0.0059,5.2e-4 -0.0093,5.2e-4 h -0.03204 -0.03979 -0.02482 c -0.01222,0 -0.02106,-0.004 -0.02585,-0.009 h -0.0026 c -0.03987,0 -0.04145,-0.0398 -0.0036,-0.0424 0.0013,-7e-5 0.0024,0 0.0036,0 h 0.0047 0.03876 0.01913 c 2.49e-4,-10e-4 0.0021,-0.002 0.0026,-0.004 -0.01082,-5.3e-4 -0.02175,-0.002 -0.03256,-0.002 -2.64e-4,0 -0.0024,10e-6 -0.0026,0 -0.0016,2.6e-4 -0.0021,7.9e-4 -0.0031,0 -0.0027,-1.4e-4 -0.0065,5e-5 -0.0093,-5.3e-4 -0.01704,-0.004 -0.0177,-0.005 0.0031,-0.0367 -0.130117,3e-5 -0.260032,-2e-5 -0.390157,0 -0.01791,1e-4 -0.03582,5.3e-4 -0.05374,5.3e-4 -0.01434,0 -0.04001,0.014 -0.04341,0 v -5.3e-4 h -0.01394 c 0.0021,-0.0348 0.0029,-0.0699 0.0031,-0.1049 -0.0011,-0.0431 -5.29e-4,-0.0868 -0.0031,-0.12971 -0.300877,0.009 -0.601983,0.002 -0.902785,-0.0103 -0.107408,-0.005 -0.282681,-0.0109 -0.393774,-0.0222 -0.04319,-0.004 -0.100238,0.0137 -0.129194,-0.0186 -0.204239,-0.22814 -0.07767,-0.25191 0.08527,-0.28473 0.02233,-0.003 0.04484,-0.003 0.06718,-0.005 -0.0026,-0.003 -0.0047,-0.006 -0.0067,-0.0103 -0.0028,-0.005 -0.0061,-0.0107 -0.0088,-0.016 -0.02611,0.009 -0.05512,0.0203 -0.05323,0.001 7.93e-4,-0.008 0.0024,-0.0156 0.0031,-0.0233 -0.150103,-0.006 -0.300249,-0.0127 -0.450101,-0.0227 -0.08079,-0.005 -0.202687,0.0503 -0.241848,-0.0207 -0.03436,-0.0622 -0.06438,-0.11655 -0.09147,-0.16692 v 75.13785 H 197.25153 V 189.74858 Z m 15.65279,72.34235 c 0.0016,-5.3e-4 0.0048,5.3e-4 0.0067,5.3e-4 0.01204,-2.6e-4 0.02413,5.3e-4 0.03617,5.3e-4 0.02326,1.1e-4 0.04651,-5e-5 0.06976,0 0.0026,-2e-4 0.03006,0.002 0.03049,0.004 1.96e-4,0.001 -2.3e-4,0.002 5.29e-4,0.003 h 5.29e-4 c 0.02032,10e-6 0.04065,-7e-5 0.06098,0 0.01696,1.3e-4 0.03422,2.7e-4 0.05116,10e-4 0.0016,1.8e-4 0.01323,-10e-4 0.01654,0.003 l 5.29e-4,5.3e-4 c 0.0016,0.004 0.003,0.008 0.0047,0.0119 7.94e-4,5e-5 0.0019,-5e-5 0.0026,0 0.0059,2.3e-4 0.01164,7.9e-4 0.01757,0.001 5.29e-4,-0.007 0.0016,-0.0107 0.0041,-0.0129 v -5.3e-4 c -0.0013,-0.005 -5.29e-4,-0.006 0.0052,-0.006 v -5.3e-4 c 1.06e-4,-0.002 0.003,-5e-5 0.0047,0 0.0067,2.4e-4 0.0092,7.9e-4 0.01394,0.002 0.01585,5.3e-4 0.03174,-10e-4 0.04754,0.002 0.0068,7.9e-4 0.01688,0.002 0.02532,0.005 0.005,2.6e-4 0.01008,5.3e-4 0.015,0.001 5.3e-4,6e-5 0.0053,7.9e-4 0.0098,0.002 7.94e-4,1.1e-4 0.0013,-1.1e-4 0.0021,0 0.0026,2.6e-4 0.0051,5.3e-4 0.0062,0.001 l 5.29e-4,5.2e-4 c 1.09e-4,0.005 5.29e-4,0.008 5.29e-4,0.0119 0.0042,7.9e-4 0.0083,0.002 0.01241,0.003 0.01445,0.003 0.02984,0.005 0.04341,0.0114 0.0038,0.002 0.0097,0.002 0.01085,0.006 7.94e-4,0.002 0.0013,0.004 0.0021,0.006 h 0.02997 c 0.0095,-5e-5 0.01892,-5.3e-4 0.02842,-5.3e-4 0.0021,0 0.0067,-0.002 0.0067,0 -10e-6,7.9e-4 0,0.002 0,0.003 0.0011,10e-4 0.0013,0.002 0.0016,0.005 0.006,2.6e-4 0.02154,10e-4 0.02946,0.002 0.0069,-2e-5 0.01373,-5.3e-4 0.02066,-5.3e-4 h 5.29e-4 c 0.0021,-5.2e-4 0.0047,-7.9e-4 0.0057,0 0.0013,0 0.0024,2e-5 0.0036,0 -2.62e-4,0.004 -5.29e-4,0.009 -5.29e-4,0.0129 0.0044,0.0172 0.0082,0.0279 0.01032,0.0346 0.0013,0.004 0.0024,0.007 0.0021,0.009 v 5.3e-4 c 0.0011,0.008 5.29e-4,0.0168 0,0.0253 0.04988,0.006 0.09968,0.0112 0.149344,0.0186 0.0051,0.002 0.01561,-10e-4 0.0155,0.005 -2.38e-4,0.0127 -0.0016,0.0265 -0.0057,0.0388 v 5.3e-4 c 0.0083,0.0211 0.0011,0.0211 -0.0098,0.0176 -5.29e-4,5.3e-4 -5.29e-4,0.002 -0.0011,0.002 -0.0071,0.008 -0.02209,5.3e-4 -0.03307,0 -0.0069,-2.6e-4 -0.01381,-0.001 -0.02066,-0.002 -0.0019,0.007 -0.0049,0.0168 -0.0098,0.0274 -2.65e-4,5.3e-4 -5.3e-4,2.7e-4 -0.0011,0.002 0.03432,0.0195 0.01151,0.0616 -0.03824,0.0486 -0.0145,-0.004 -0.02735,-0.0118 -0.04031,-0.0191 -0.0122,-0.007 -0.02529,-0.0102 -0.03824,-0.015 -0.01754,-0.006 -0.03576,-0.0113 -0.05374,-0.0165 -0.0049,0.0233 -0.0089,0.0452 -0.01188,0.0646 0.0028,2.1e-4 0.0055,7.9e-4 0.0083,10e-4 -0.0028,0.0613 -5.29e-4,0.12252 -0.0016,0.18397 0.06126,0.005 0.05889,0.033 0.0217,0.17365 0.05493,-3e-5 0.109921,1e-5 0.164848,0 0.02922,-0.0102 0.06001,-0.0224 0.07028,0 0.01482,-3e-5 0.02964,1e-5 0.04444,0 -0.0061,0.0455 -0.009,0.0914 -0.01241,0.13744 0.0037,0.0416 0.005,0.0845 0.0072,0.12661 0.0366,0.001 0.07297,0.002 0.109553,0.003 0.0066,2.5e-4 0.01281,7e-5 0.01913,5.3e-4 0.02056,-0.006 0.04131,-0.0108 0.05064,5.3e-4 0.109538,8e-4 0.142902,0.007 0.0739,0.19172 0.03805,0.11431 0.02633,0.14028 -0.02739,0.14366 0.03665,0.32428 -0.04564,0.29992 -0.217556,0.29455 -0.0013,0.002 -0.0028,0.003 -0.0041,0.005 -0.128016,0.0791 -0.272431,0.12326 -0.418063,0.15916 0.0881,0.0627 0.149426,0.15459 0.139528,0.27389 -0.003,0.0359 -0.02204,0.0686 -0.03307,0.10283 -0.01831,0.0252 -0.03448,0.0523 -0.05529,0.0754 -0.09483,0.10534 -0.228753,0.16308 -0.360185,0.21187 -0.02522,0.10725 -0.053,0.21375 -0.09147,0.31678 v 5.3e-4 c 0.03248,0.10304 0.04014,0.22346 0.04858,0.30075 0.02347,0.25399 0.02834,0.50935 0.01138,0.76378 -0.01439,0.20908 -0.07971,0.40356 -0.193786,0.57826 -0.04908,0.064 -0.107164,0.10878 -0.1695,0.11937 v 0.1447 c 0,0.0157 4e-5,0.0314 0,0.047 v 0.35864 c 0,0.0412 -0.0049,0.0771 -0.01394,0.108 v 5.3e-4 c -0.0061,0.0923 -0.01543,0.18421 -0.02842,0.27595 0.04006,0.0383 0.06388,0.0849 0.06563,0.1509 0.0013,1.2e-4 0.0028,-1.2e-4 0.0041,0 0.08144,0.007 0.163084,0.0141 0.24443,0.0217 -0.0559,-0.20245 -0.05053,-0.19169 0.118853,-0.20257 0.218395,-0.009 0.436952,-0.005 0.65526,0.005 0.03565,0.002 0.07139,0.004 0.106968,0.007 0.02771,0.002 0.0674,-0.0137 0.08268,0.0103 0.07113,0.10821 0.108545,0.18168 0.117824,0.23254 0.04797,0.006 0.09594,0.014 0.142626,0.0264 0.03597,0.01 0.100687,10e-4 0.104386,0.0382 0.01043,0.1051 -0.04683,0.20604 -0.07028,0.30902 -0.04137,0.003 -0.08209,0.004 -0.122989,0.003 -0.0035,0.0321 -0.01363,0.0641 -0.0181,0.0961 -0.0136,0.0211 -0.02508,0.0439 -0.03927,0.0646 0.356291,-0.007 0.712676,-0.007 1.069184,0.002 5.29e-4,0.002 0.0011,0.004 0.0016,0.007 0.0033,-1.4e-4 0.0065,2.3e-4 0.0098,-5.3e-4 0.0037,-1.8e-4 0.01119,-0.006 0.01085,-0.002 -0.0021,0.0217 -0.0042,0.043 -0.0067,0.0646 0.02088,0.0877 0.04498,0.17495 0.05116,0.26458 0.0011,0.0145 -0.0289,0.004 -0.04341,0.005 -0.03903,0.002 -0.07822,0.004 -0.117306,0.005 -0.128101,0.004 -0.255807,0.006 -0.383955,0.008 -0.0045,0.0209 -0.0084,0.0397 -0.01394,0.0646 -0.0016,0.007 -0.0182,0.0139 -0.04237,0.0181 0.0034,0.0526 -0.0058,0.0917 -0.02376,0.1204 0.0076,0.0108 0.01482,0.0209 0.02119,0.031 0.155321,0.004 0.310388,0.008 0.465603,0.015 0.04805,0.004 0.08498,0.005 0.113173,0.007 0.0089,-0.002 0.01654,-0.002 0.01913,0.002 0.08755,0.0116 0.05813,0.0541 0.0016,0.33693 -0.0035,0.0168 -0.03448,0 -0.05168,0 -0.06818,0 -0.136475,-1e-5 -0.204637,0 -0.01627,0.0244 -0.05371,0.0332 -0.112138,0.0393 -0.01529,0.002 -0.03169,0.003 -0.04806,0.004 -0.0088,0.0115 -0.03399,0.007 -0.05374,0.007 -0.01802,0.0193 -0.05045,0.0317 -0.09767,0.0403 -0.0353,0.006 -0.09832,0.0114 -0.158128,0.016 -0.0024,0.0381 -0.0078,0.0763 -0.0155,0.11214 -0.0075,0.0352 -0.06369,0.0334 -0.0956,0.0501 -0.256672,0.0802 -0.520324,0.1301 -0.786516,0.16226 -0.0378,0.006 -0.075,0.0128 -0.118338,0.0191 -0.09601,0.012 -0.192077,0.0225 -0.288356,0.032 0.0011,0.003 0.0029,0.006 0.0031,0.009 0.0051,0.0626 -0.06195,0.0681 -0.09922,0.0708 -0.01474,0.001 -0.02511,0.002 -0.03462,0.002 0.04843,0.009 0.05921,0.0382 0.05116,0.0656 0.02816,0.002 0.04219,0.0178 0.04237,0.0331 h 0.05581 c 0.116401,0 0.116401,0.11731 0,0.11731 h -0.04599 c 0.0021,0.0157 -0.0092,0.0315 -0.04031,0.0315 h -0.01344 -0.04341 c -0.0031,0.005 -0.01376,0.005 -0.02016,0.009 0.0021,5.3e-4 0.0042,0.001 0.0062,0.002 h 5.29e-4 c 0.02344,0.007 0.03569,0.0202 0.03824,0.0331 v 5.3e-4 c 0.01669,0.0176 0.01595,0.042 -0.02739,0.047 -0.0052,5.3e-4 -0.01029,0.002 -0.0155,0.002 h -0.01188 -0.01344 -0.0217 c -0.0097,-10e-6 -0.01924,3e-5 -0.02894,0 -0.01016,-3e-5 -0.02032,-1.6e-4 -0.03049,-5.3e-4 -0.01008,-1.4e-4 -0.01992,-2.6e-4 -0.02997,-0.001 -0.0093,-8e-4 -0.0186,-0.002 -0.02791,-0.003 -0.01021,-10e-4 -0.02058,-0.003 -0.03049,-0.006 -0.0041,-0.001 -0.0081,-0.002 -0.01241,-0.002 h -0.01241 c -0.0045,-1e-5 -0.0095,3e-5 -0.01394,0 -0.0058,-4e-5 -0.01077,1.4e-4 -0.01654,0 -0.0068,-2.3e-4 -0.01389,-7.9e-4 -0.02066,-0.002 -0.005,-5.3e-4 -0.01003,-8e-4 -0.015,-5.3e-4 h -0.02066 -0.02326 -0.02532 -0.0181 -0.0155 -0.02532 -0.04702 c -0.06086,0 -0.0613,-0.0551 -0.0093,-0.0636 h -0.0186 -0.01241 c -0.01987,0 -0.03354,-0.006 -0.04134,-0.0145 h -0.01654 -0.06718 -0.04186 c -0.03117,0 -0.04151,-0.0158 -0.03927,-0.0315 h -0.01241 -0.03514 c -0.09547,0 -0.108654,-0.0759 -0.04754,-0.10438 h -0.02997 c -0.112797,0 -0.116226,-0.11046 -0.01032,-0.11731 0.0016,-1.1e-4 0.0044,5e-5 0.0062,0 0.0019,-5e-5 0.0044,0 0.0062,0 h 0.0093 c 0.0013,-0.002 0.0063,-0.003 0.0093,-0.005 -0.04781,0.002 -0.09627,0.005 -0.144176,0.006 -0.03181,8e-4 -0.287809,0.008 -0.341583,0.007 -0.03789,-10e-4 -0.0987,0.0257 -0.11317,-0.0103 -0.0019,-0.004 -0.0044,-0.008 -0.0062,-0.0124 -0.06323,-9e-5 -0.126942,-5e-5 -0.190172,0 -0.141388,-5e-5 -0.282874,1.3e-4 -0.424262,0 -0.01699,-4e-5 -0.04655,0.0151 -0.05168,5.3e-4 -0.0066,0.002 -0.01394,0.004 -0.01394,-5.3e-4 -2.62e-4,-0.0317 -0.0029,-0.0638 -0.0031,-0.0956 -0.0049,-0.007 -0.0086,-0.0132 -0.01138,-0.0212 -0.0076,-0.0222 -0.0127,-0.0429 -0.01654,-0.062 -0.04156,0.007 -0.08629,0.0338 -0.123507,0.0155 -0.155739,-0.0767 -0.174025,-0.16569 -0.134358,-0.25013 -0.0034,-0.0133 -0.0063,-0.0268 -0.0093,-0.0403 -0.01098,-0.007 -0.02289,-0.0149 -0.03462,-0.0248 -0.141099,-0.11929 -0.01177,-0.30435 0.05839,-0.40772 0.0011,-10e-4 0.0021,-0.002 0.0031,-0.004 -0.138864,-0.001 -0.278442,-0.004 -0.417544,-0.009 -0.09651,-0.003 -0.193006,-0.005 -0.289388,-0.0119 -0.06946,-0.004 -0.144502,0.0105 -0.207741,-0.0186 -0.08524,-0.0392 -0.145264,-0.11866 -0.218074,-0.17776 0.03356,-0.0601 0.05461,-0.12834 0.100253,-0.17984 0.02408,-0.0271 0.220644,-0.0668 0.229444,-0.0687 0.220419,-0.047 0.444233,-0.0772 0.668176,-0.10128 0.278212,-0.0264 0.355677,-0.0361 0.641821,-0.0522 0.0191,-0.001 0.03825,-0.002 0.05736,-0.003 0.03707,-0.0378 0.07426,-0.0757 0.111622,-0.11317 0.158356,-0.15335 0.317241,-0.30605 0.484206,-0.4501 0.03692,-0.0319 0.07476,-0.0624 0.112657,-0.093 -0.0021,-0.009 -0.0048,-0.0185 -0.0062,-0.0284 -0.03339,-0.034 -0.05984,-0.0884 -0.07235,-0.16537 -0.02788,-0.17164 -0.02982,-0.34687 -0.03462,-0.52038 -0.01103,-0.3048 0.01095,-0.6091 0.02997,-0.91312 0.01699,-0.20867 0.0337,-0.41781 0.07235,-0.62373 0.02262,-0.0765 0.05827,-0.18717 0.163814,-0.19121 0.0034,-1.2e-4 0.0073,-9e-5 0.01085,0 0.0167,5.3e-4 0.03241,0.004 0.04806,0.01 0.0028,-0.0606 0.0042,-0.1215 0.0093,-0.1819 0.0127,-0.12718 0.02976,-0.25313 0.06098,-0.37724 0.01865,-0.0852 0.03672,-0.17099 0.05064,-0.25735 -0.02529,0.0282 -0.0483,0.0599 -0.06821,0.0951 -0.02601,0.0462 -0.03198,0.0908 -0.02997,0.14211 0.01294,0.32898 -0.355378,0.31431 -0.331248,-0.015 0.0081,-0.11083 0.02019,-0.20423 0.07855,-0.3023 0.02077,-0.0322 0.03885,-0.0656 0.06201,-0.0961 0.0933,-0.12306 0.221991,-0.21119 0.360185,-0.27751 0.01119,-0.0777 0.02492,-0.15515 0.03824,-0.23254 -0.107667,-0.16513 -0.05018,-0.223 0.05684,-0.30387 0.008,-0.0363 0.01696,-0.0723 0.02532,-0.10851 -0.04584,-0.0182 -0.08911,-0.0422 -0.114205,-0.0765 -0.02352,-0.0322 -0.04083,-0.0613 -0.05064,-0.0904 -0.07455,-0.009 -0.167376,-0.0238 -0.180867,-0.0408 -0.217471,-0.2741 -0.07551,-0.3461 0.133324,-0.39015 0.0028,-0.0205 0.0055,-0.0426 0.0093,-0.0677 0.0047,-0.0309 0.05165,-0.0357 0.0801,-0.0486 0.08886,-0.0402 0.196231,-0.0329 0.288872,-0.0558 0.02577,-0.002 0.05127,-0.005 0.077,-0.007 l 0.0011,-5.3e-4 c 0.01037,-0.016 0.02196,-0.0307 0.03256,-0.0465 -0.02463,-0.0527 -0.01249,-0.11127 0.03307,-0.15399 -0.01259,-0.002 -0.02529,-0.004 -0.03772,-0.007 -0.01458,-0.003 -0.02893,-0.008 -0.04341,-0.0119 -0.0057,-0.0191 -0.01786,-0.039 -0.01654,-0.0589 5.29e-4,-0.008 0.01442,-0.008 0.02223,-0.009 0.01132,-0.002 0.0231,-10e-4 0.03462,-10e-4 0.06351,-4e-5 0.12681,0.005 0.19017,0.009 0.0056,-0.005 0.01098,-0.009 0.01654,-0.0129 -0.01217,-0.009 -0.02257,-0.0175 -0.01704,-0.0372 0.0039,-0.0133 0.02397,-0.0183 0.03514,-0.0217 0.01437,-0.003 0.02921,-0.005 0.04393,-0.006 7.93e-4,-0.005 0.0019,-0.0102 0.0031,-0.0155 1.49e-4,-5.2e-4 0.0016,1.7e-4 0.0021,-5.2e-4 z m 39.072034,0.0739 h 5.29e-4 5.29e-4 5.3e-4 c 0.0034,-7e-5 0.0061,5.3e-4 0.0078,0.004 v 5.3e-4 c 0.0037,-10e-4 0.0063,-10e-4 0.0062,0.001 -3.2e-5,8e-4 3.7e-5,10e-4 0,0.002 0.0159,8e-5 0.03165,-1.1e-4 0.04754,5.3e-4 0.01294,9e-5 0.02582,-2.7e-4 0.03876,5.3e-4 0.0097,5.3e-4 0.02643,-0.008 0.02894,0.002 5.29e-4,0.002 0.0013,0.005 0.0016,0.007 0.0047,-10e-6 0.0093,2e-5 0.01394,0 h 0.0031 0.01704 0.0036 c 0.0092,-0.002 0.02103,-0.007 0.02479,0 h 0.01241 c 0.02013,0 0.02729,2.6e-4 0.01603,0.0258 h 0.0832 c 0.01061,0 0.02694,-0.009 0.03204,0 2.64e-4,5.2e-4 7.93e-4,0.001 0.0011,0.002 0.0068,-0.003 0.01265,-0.005 0.01241,-0.002 -7.94e-4,0.0113 -0.0011,0.023 -0.0021,0.0346 0.04659,5.3e-4 0.09294,0.001 0.139526,0.002 0.02106,5.3e-4 0.04201,2.7e-4 0.06305,0.002 0.01741,10e-4 0.04798,-0.0217 0.05168,0.006 0.0056,0.0257 0.01045,0.0478 0.01447,0.0682 l 5.29e-4,5.3e-4 c 0.02185,0.0283 0.0263,0.0627 0.01344,0.0935 0.0037,0.0766 -0.03338,0.0743 -0.122473,0.0791 -0.0013,2.1e-4 -0.0027,-2.7e-4 -0.0041,5.3e-4 -0.01273,0.002 -0.02627,0.003 -0.04082,0.003 h -0.07596 c -0.06593,5.3e-4 -0.131979,1.9e-4 -0.197921,0 h -0.204121 c -0.01035,0.0289 -0.02355,0.0641 -0.03979,0.11007 2.7e-5,0.002 -2.9e-5,0.004 0,0.006 3.5e-5,0.002 -0.0011,0.002 -0.0031,0.002 -0.0071,0.0175 -0.03889,2.7e-4 -0.0584,0.001 -0.09384,0.004 -0.185992,0.0125 -0.279053,0.0248 -0.09901,0.015 -0.198107,0.0337 -0.293521,0.0646 -0.0051,0.002 -0.01021,0.003 -0.01551,0.005 0.03807,0.0124 0.04687,0.0135 0.11679,0.031 0.02384,0.007 0.048,0.0127 0.07235,0.0176 0.09692,-8e-4 0.194014,-5.3e-4 0.290939,-5.3e-4 0.08246,1.1e-4 0.164589,-0.002 0.247012,0.002 0.0097,2.6e-4 0.08474,0.003 0.09767,0.0103 0.0304,0.0157 0.05579,0.0387 0.08372,0.0584 -0.0099,0.0542 -0.007,0.11252 -0.02945,0.16278 -0.0074,0.0167 -0.08646,0.0464 -0.10542,0.0537 -0.0457,0.0186 -0.0918,0.0366 -0.137462,0.0553 -0.04114,0.0161 -0.08065,0.0357 -0.119888,0.0558 -0.126227,0.0648 -0.21567,0.0121 -0.219109,-0.063 -0.04469,-7.9e-4 -0.08969,-0.002 -0.134358,-0.003 -0.02233,-7.9e-4 -0.04434,10e-4 -0.06666,-0.002 -0.01863,-7.9e-4 -0.04871,0.0137 -0.05581,-0.004 -0.0013,-0.003 -0.0024,-0.005 -0.0036,-0.008 -0.01336,-0.004 -0.01852,-0.0156 -0.01603,-0.0403 v -5.3e-4 c -0.01286,-0.0329 -0.02257,-0.0599 -0.02946,-0.0827 -0.113237,-0.029 -0.276394,-0.0782 -0.312124,-0.16588 -0.01786,-0.0438 -0.0055,-0.0962 0.0062,-0.14211 0.0055,-0.0218 0.02897,-0.0344 0.04341,-0.0517 0.0109,-0.008 0.02233,-0.0164 0.03307,-0.0248 -0.03506,-0.003 -0.06995,-0.006 -0.104902,-0.0103 -0.02318,-0.002 -0.05757,0.0178 -0.06976,-0.009 -0.125947,-0.20559 -0.118224,-0.18651 -0.01241,-0.24339 0.122412,-0.0286 0.247795,-0.0419 0.373621,-0.0496 0.0016,-0.01 0.0021,-0.0193 0.0021,-0.0289 0.02913,-0.005 0.0584,-0.007 0.08785,-0.009 0.0011,-0.0116 0.0042,-0.0225 0.0062,-0.0336 7.94e-4,-0.005 0.0088,-0.002 0.01344,-0.003 0.01958,-0.002 0.05323,-0.004 0.07028,-0.005 0.04857,-0.002 0.09663,-0.003 0.145211,-0.004 0.0021,-1.4e-4 0.0041,5e-5 0.0062,-5.3e-4 0.10736,-0.006 0.214932,-0.007 0.322461,-0.006 0.02318,2.6e-4 0.0631,-2.2e-4 0.08733,5.2e-4 0.004,1.1e-4 0.0085,-0.002 0.01291,-0.003 z m -39.37744,0.0718 c 0.0016,5.3e-4 0.0073,0.002 0.0088,0 -0.0029,1.4e-4 -0.0058,-7e-5 -0.0088,0 z m -11.44633,0.21394 c 0.0071,-0.001 -0.01161,0.002 -0.02119,0.005 0.0076,-0.001 0.01164,-0.003 0.02119,-0.004 z m -0.02119,0.005 c -0.01455,0.003 -0.0305,0.005 -0.04031,0.008 0.0045,-5.3e-4 0.0089,-10e-4 0.01344,-0.002 0.009,-10e-4 0.01469,-0.003 0.02687,-0.006 z m 11.054622,0.52658 c -0.0091,0.002 -0.01847,0.004 -0.02739,0.006 -0.06511,0.0183 0.0013,0.0298 0.02739,-0.006 z m 0.977202,1.04438 c -0.01469,0.002 -0.01926,0.0182 -0.02119,0.0346 0.0097,-0.0111 0.01722,-0.0224 0.02119,-0.0346 z m -0.108522,0.0408 v 5.3e-4 c 0.0065,0.0156 0.0131,0.031 0.0186,0.046 0.01537,-0.009 0.02976,-0.0181 0.04237,-0.0279 -0.008,-0.003 -0.01648,-0.006 -0.02119,-0.007 -0.0132,-0.004 -0.02649,-0.008 -0.03979,-0.0114 z m -15.803168,1.69396 v 5.3e-4 0.57981 c 0.139367,-0.0295 0.278961,-0.0596 0.418579,-0.0884 0.01545,-0.007 0.03106,-0.0142 0.04651,-0.0212 -0.03268,-0.22319 0.07315,-0.33786 0.209807,-0.41186 -0.225436,-0.0151 -0.4504,-0.0344 -0.674894,-0.0589 z m 0.749824,3.86229 c -0.0066,0.002 -0.01312,0.003 -0.01963,0.005 -0.0061,0.002 0.01791,0.005 0.01913,-0.002 1.8e-4,-7.9e-4 1.46e-4,-0.002 5.29e-4,-0.003 z m 13.581084,0.14676 c 7.93e-4,5.3e-4 0.0024,0.003 0.0026,0.002 4.5e-5,-8e-4 -4.7e-5,0.001 0,-0.002 -7.93e-4,8e-5 -0.0019,-8e-5 -0.0026,0 z m -11.393102,0.2152 v 5.3e-4 c 0.0019,-2.2e-4 0.0038,-6e-5 0.0057,-5.3e-4 -0.0019,2e-5 -0.0038,-2e-5 -0.0057,0 z" />
    </clipPath>
    <clipPath
       clipPathUnits="userSpaceOnUse"
       id="clipPath3049">
      <path
         id="path3051"
         style="fill:#ff0000;fill-opacity:1;fill-rule:nonzero;stroke:none;stroke-width:0.264583"
         d="m 84.586051,252.33772 -28.542443,0.002 v 15.95768 c 0.18806,-0.0181 0.287549,-0.0277 0.527616,-0.0413 0.0191,-10e-4 0.03824,-0.002 0.05736,-0.003 0.03707,-0.0378 0.07426,-0.0757 0.111622,-0.11317 0.158359,-0.15333 0.317241,-0.30611 0.484209,-0.4501 0.0371,-0.032 0.07508,-0.0628 0.11317,-0.0935 -0.0021,-0.009 -0.0038,-0.019 -0.0052,-0.0289 -0.03339,-0.034 -0.06035,-0.0884 -0.07286,-0.16536 -0.02788,-0.17164 -0.02982,-0.34688 -0.03462,-0.52038 -0.01103,-0.30482 0.01045,-0.60911 0.02945,-0.91313 0.01699,-0.20868 0.0337,-0.41777 0.07235,-0.62373 0.02262,-0.0765 0.05827,-0.18718 0.163814,-0.1912 0.0034,-1.3e-4 0.0068,-1e-4 0.01035,0 0.01545,5.3e-4 0.03039,0.004 0.04496,0.009 0.0028,-0.0602 0.0063,-0.1203 0.01138,-0.18035 0.0127,-0.12718 0.02976,-0.25414 0.06098,-0.37827 0.01865,-0.0852 0.03776,-0.17031 0.05168,-0.25632 -0.02519,0.0282 -0.04785,0.0596 -0.0677,0.0946 -0.02601,0.0461 -0.03196,0.0908 -0.02997,0.14211 0.01294,0.32901 -0.356409,0.31417 -0.332279,-0.0145 0.0082,-0.11083 0.02119,-0.2042 0.07958,-0.30231 0.02077,-0.0322 0.03885,-0.0661 0.06201,-0.0966 0.09293,-0.12258 0.221064,-0.21024 0.358634,-0.27647 0.01072,-0.0798 0.02246,-0.15983 0.03617,-0.23926 -0.102222,-0.15977 -0.0463,-0.21715 0.05788,-0.29611 0.0082,-0.0373 0.01627,-0.0749 0.02482,-0.11214 -0.04474,-0.018 -0.08707,-0.0409 -0.111623,-0.0744 -0.02352,-0.0322 -0.04083,-0.062 -0.05064,-0.091 -0.07455,-0.009 -0.167378,-0.0238 -0.180869,-0.0408 -0.217475,-0.27408 -0.07551,-0.34611 0.133326,-0.39015 0.0028,-0.0205 0.0055,-0.0426 0.0093,-0.0677 0.0047,-0.0309 0.05165,-0.0357 0.0801,-0.0486 0.08886,-0.0402 0.196228,-0.0329 0.288869,-0.0558 0.02543,-0.002 0.05058,-0.005 0.07596,-0.007 2.14e-4,-2.6e-4 1.35e-4,-7.9e-4 5.29e-4,-0.001 0.01058,-0.0163 0.02225,-0.0319 0.03307,-0.0481 -0.02418,-0.0528 -0.01151,-0.11201 0.03462,-0.15451 -0.01325,-0.002 -0.0267,-0.004 -0.03979,-0.007 -0.01458,-0.003 -0.02893,-0.008 -0.04341,-0.0119 -0.0057,-0.0191 -0.01831,-0.0385 -0.01704,-0.0584 5.29e-4,-0.008 0.01442,-0.008 0.02223,-0.009 0.01132,-0.002 0.0231,-10e-4 0.03462,-10e-4 0.0635,0 0.126804,0.005 0.190169,0.009 0.0037,-0.003 0.0072,-0.006 0.01085,-0.009 -0.01307,-0.009 -0.01733,-0.0205 -0.01138,-0.0408 0.0039,-0.0133 0.02397,-0.0183 0.03514,-0.0217 0.01437,-0.003 0.0292,-0.005 0.04393,-0.006 7.93e-4,-0.005 0.0019,-0.0107 0.0031,-0.016 1.46e-4,-5.3e-4 5.29e-4,-5e-5 0.0011,-5.3e-4 v -0.004 c 0.0016,-5.3e-4 0.0048,5.3e-4 0.0067,5.3e-4 0.01204,-2.5e-4 0.02413,5.3e-4 0.03617,5.3e-4 0.02326,1.1e-4 0.04651,-5e-5 0.06976,0 0.0026,-1.9e-4 0.03006,0.002 0.03049,0.004 1.96e-4,0.001 8e-6,0.002 5.29e-4,0.003 h 5.29e-4 c 0.02032,1e-5 0.04065,-8e-5 0.06098,0 0.01696,1.3e-4 0.03422,-2.7e-4 0.05116,5.2e-4 0.0016,1.8e-4 0.01323,-10e-4 0.01654,0.003 l 5.29e-4,5.3e-4 c 0.0016,0.004 0.003,0.008 0.0047,0.0119 7.94e-4,5e-5 0.0019,-5e-5 0.0026,0 0.0059,2.6e-4 0.01164,7.9e-4 0.01757,10e-4 5.3e-4,-0.007 0.0016,-0.0107 0.0041,-0.0129 v -5.3e-4 c -0.0013,-0.005 -5.29e-4,-0.006 0.0052,-0.006 v -5.3e-4 c 1.06e-4,-0.002 0.003,-5e-5 0.0047,0 0.0067,2.3e-4 0.0092,8e-4 0.01394,0.002 0.01585,5.3e-4 0.03174,-0.001 0.04754,0.002 0.0068,7.9e-4 0.01688,0.002 0.02532,0.005 0.005,2.6e-4 0.01008,-4e-5 0.015,5.3e-4 5.29e-4,6e-5 0.0053,7.9e-4 0.0098,0.002 7.94e-4,1.1e-4 0.0013,-1e-4 0.0021,0 0.0026,2.6e-4 0.0051,5.3e-4 0.0062,10e-4 l 5.29e-4,5.3e-4 c 1.09e-4,0.005 5.3e-4,0.008 5.3e-4,0.0119 0.0042,7.9e-4 0.0088,0.002 0.01291,0.003 0.01445,0.003 0.02984,0.005 0.04341,0.0114 0.0038,0.002 0.0097,0.002 0.01085,0.006 7.94e-4,0.002 0.0024,0.004 0.0031,0.006 0.01,10e-6 0.01998,0 0.02997,0 0.0095,-3e-5 0.01892,-5.3e-4 0.02842,-5.3e-4 0.0021,0 0.0057,-0.002 0.0057,0 -8e-6,8e-4 0,0.002 0,0.003 0.0011,10e-4 0.0029,0.002 0.0031,0.005 0.006,2.6e-4 0.02204,-0.001 0.02997,0.002 0.0069,-3e-5 0.01275,-0.001 0.01963,-0.001 h 0.0031 c 0.0021,-5.3e-4 0.0052,-7.9e-4 0.0062,0 h 0.0031 c -2.65e-4,0.004 -0.0031,0.009 -0.0031,0.0129 0.0044,0.0172 0.0087,0.0279 0.01085,0.0346 0.0013,0.004 0.0034,0.007 0.0031,0.009 v 5.3e-4 c 0.0011,0.008 5.29e-4,0.0168 0,0.0253 0.04988,0.006 0.09968,0.0112 0.149347,0.0186 0.0051,0.002 0.01561,-10e-4 0.0155,0.005 -2.38e-4,0.0127 -0.0021,0.028 -0.0062,0.0403 v 5.3e-4 c 0.0083,0.0211 0.0016,0.0221 -0.0093,0.0186 -5.3e-4,5.3e-4 -0.0026,0.002 -0.0031,0.002 -0.0071,0.008 -0.02209,5.3e-4 -0.03307,0 -0.0069,-2.6e-4 -0.01331,7.9e-4 -0.02016,-0.002 -0.0019,0.007 -0.0044,0.0173 -0.0093,0.0279 -2.65e-4,5.3e-4 -0.0021,-10e-4 -0.0026,0.002 0.03432,0.0195 0.01151,0.0621 -0.03824,0.0491 -0.0145,-0.004 -0.02735,-0.0118 -0.04031,-0.0191 -0.0122,-0.007 -0.02529,-0.0102 -0.03824,-0.015 -0.01762,-0.006 -0.0362,-0.0123 -0.05426,-0.0176 -0.0048,0.0231 -0.0089,0.0449 -0.01188,0.0641 0.0028,2.1e-4 0.006,1.2e-4 0.0088,5.3e-4 -0.0028,0.0613 -0.0011,0.12304 -0.0021,0.18449 0.06126,0.005 0.05889,0.0325 0.0217,0.17311 0.05493,-3e-5 0.109924,4e-5 0.164849,0 0.02922,-0.0102 0.06001,-0.0224 0.07028,0 0.01482,-10e-6 0.02964,1e-5 0.04444,0 -0.0061,0.0455 -0.009,0.0919 -0.01241,0.13798 0.0037,0.0416 0.005,0.084 0.0072,0.12609 0.0366,10e-4 0.07297,0.002 0.109554,0.003 0.0066,2.3e-4 0.01281,1.3e-4 0.01913,5.3e-4 0.02056,-0.006 0.04131,-0.0109 0.05064,5.2e-4 0.109537,8e-4 0.142943,0.007 0.0739,0.19172 0.03805,0.11431 0.02633,0.14028 -0.02739,0.14367 0.03665,0.32427 -0.04564,0.29991 -0.217557,0.29456 -0.0013,0.002 -0.0028,0.003 -0.0041,0.005 -0.127814,0.079 -0.271623,0.12483 -0.417028,0.16071 0.08761,0.0627 0.148363,0.15449 0.138494,0.27337 -0.003,0.0359 -0.02204,0.0686 -0.03307,0.10283 -0.01831,0.0252 -0.03448,0.0523 -0.05529,0.0754 -0.09383,0.10423 -0.225959,0.16185 -0.356052,0.21033 -0.02527,0.10788 -0.0564,0.21417 -0.09508,0.31781 v 5.3e-4 c 0.03248,0.10304 0.04013,0.22323 0.04857,0.30076 0.02347,0.25398 0.0285,0.50937 0.01138,0.76378 -0.01439,0.20909 -0.07971,0.40358 -0.193787,0.57826 -0.04908,0.064 -0.107151,0.10878 -0.1695,0.11937 v 0.14469 c 0,0.0157 3.7e-5,0.0314 0,0.047 v 0.35863 c 0,0.0412 -0.0049,0.0771 -0.01394,0.10801 v 5.3e-4 c -0.0059,0.0884 -0.01423,0.17662 -0.02635,0.26459 0.04617,0.039 0.0617,0.0926 0.06356,0.16278 0.0013,1.4e-4 0.0024,-1.1e-4 0.0036,0 0.08144,0.007 0.163089,0.0141 0.24443,0.0217 -0.0559,-0.20244 -0.05053,-0.19169 0.118856,-0.20257 0.218381,-0.009 0.436948,-0.005 0.655256,0.005 0.03565,0.002 0.07139,0.004 0.106971,0.007 0.02771,0.002 0.06791,-0.0131 0.0832,0.0103 0.07113,0.10821 0.108027,0.18167 0.117306,0.23254 0.04797,0.006 0.09594,0.0134 0.142626,0.0258 0.03597,0.01 0.100682,10e-4 0.104386,0.0382 0.01042,0.10509 -0.04683,0.20603 -0.07028,0.30902 -0.04137,0.003 -0.08209,0.004 -0.122989,0.003 -0.0035,0.0321 -0.01371,0.0641 -0.0181,0.0961 -0.0136,0.0211 -0.02508,0.0439 -0.03927,0.0646 0.356301,-0.007 0.712671,-0.007 1.069184,0.002 5.29e-4,0.002 0.0016,0.004 0.0021,0.007 0.0033,-1.6e-4 0.0065,-1.1e-4 0.0098,-5.3e-4 0.0037,-1.9e-4 0.01119,-0.006 0.01085,-0.002 -0.0021,0.0217 -0.0042,0.0435 -0.0067,0.0651 0.02088,0.0877 0.04498,0.17495 0.05116,0.26458 0.0011,0.0145 -0.0289,0.004 -0.04341,0.005 -0.03903,0.002 -0.07822,0.004 -0.117303,0.005 -0.128119,0.004 -0.25581,0.006 -0.383958,0.008 -0.0045,0.0209 -0.0079,0.0397 -0.01344,0.0646 -0.0016,0.007 -0.01818,0.0129 -0.04237,0.017 0.0034,0.0526 -0.0063,0.0917 -0.02429,0.1204 0.0076,0.0108 0.01532,0.0209 0.0217,0.031 0.155305,0.004 0.309848,0.01 0.465087,0.016 0.04805,0.004 0.0855,0.005 0.113689,0.007 0.0089,-0.002 0.01654,-0.002 0.01913,0.002 0.08755,0.0116 0.0613,0.0535 0.0031,0.33641 -0.0035,0.0168 -0.03447,0 -0.05168,0 h -0.20464 c -0.01627,0.0244 -0.05371,0.0338 -0.112136,0.0398 -0.01529,0.002 -0.03169,0.003 -0.04806,0.004 -0.0088,0.0115 -0.034,0.007 -0.05374,0.007 -0.01802,0.0193 -0.05045,0.0317 -0.09767,0.0403 -0.0353,0.006 -0.09832,0.0119 -0.158128,0.0165 -0.0024,0.0381 -0.0083,0.0763 -0.01603,0.11214 -0.0075,0.0352 -0.06369,0.0334 -0.0956,0.0501 -0.254841,0.0797 -0.516578,0.12957 -0.780833,0.16173 -0.03964,0.006 -0.07862,0.0134 -0.124021,0.0202 -0.09601,0.012 -0.192074,0.0221 -0.288356,0.0315 0.0011,0.003 0.0029,0.006 0.0031,0.009 0.0051,0.0626 -0.06247,0.067 -0.09974,0.0698 -0.0097,7.9e-4 -0.01725,0.002 -0.02429,0.002 0.06252,0.0155 0.07015,0.0734 0.02326,0.0997 h 0.114721 c 0.116406,0 0.116406,0.1173 0,0.1173 h -0.04341 c 0.0016,0.0154 -0.01241,0.031 -0.04289,0.031 h -0.01344 -0.04496 -0.04237 -0.04237 -0.01394 c 0.01,0.006 0.01336,0.0149 0.01394,0.0238 0.05728,0.002 0.05975,0.0575 0.0052,0.0646 0.0013,7.9e-4 0.0021,10e-4 0.0036,0.002 0.0021,10e-4 0.0043,0.002 0.0067,0.002 0.0056,10e-4 0.01135,0.004 0.01704,0.005 h 0.0021 c 0.01762,0.003 0.02982,0.01 0.03669,0.0181 0.0019,1.1e-4 0.0038,5.3e-4 0.0057,5.3e-4 0.0123,5.3e-4 0.0254,7.9e-4 0.03772,0.001 0.0037,6e-5 0.0072,-3e-5 0.01085,0 0.06566,5.3e-4 0.06372,0.0663 -0.0021,0.0656 -0.0038,-4e-5 -0.0076,5e-5 -0.01138,0 -0.01286,-2e-4 -0.02593,-3e-5 -0.03876,-5.3e-4 -0.01688,-7.9e-4 -0.03379,-0.001 -0.05064,-0.003 -0.0066,-2.3e-4 -0.01312,-2.4e-4 -0.01963,-5.3e-4 0.0097,0.006 0.01513,0.0145 0.01654,0.0227 0.0083,-10e-6 0.01646,0 0.02482,0 0.01262,1e-5 0.02511,0 0.03772,0 h 0.01138 c 0.06567,0 0.06566,0.0667 0,0.0667 h -0.01138 -5.29e-4 c 0.01193,0.0128 0.009,0.0301 -0.0062,0.0413 0.01513,0.005 0.02498,0.0123 0.03049,0.0207 0.03394,0.0128 0.02916,0.0565 -0.02326,0.0625 -0.0052,5.3e-4 -0.01029,0.002 -0.0155,0.002 h -0.01188 -0.01394 -0.0217 c -0.0097,0 -0.01924,2e-5 -0.02894,0 -0.01016,-3e-5 -0.02032,-1.8e-4 -0.03049,-5.3e-4 -0.01008,-1.6e-4 -0.01992,2.2e-4 -0.02997,-5.2e-4 -0.0093,-8e-4 -0.0186,-0.002 -0.0279,-0.003 -0.01021,-0.001 -0.02058,-0.003 -0.03049,-0.006 -0.0041,-10e-4 -0.0081,-0.002 -0.01241,-0.002 h -0.01241 c -0.0045,0 -0.009,3e-5 -0.01344,0 -0.0058,-4e-5 -0.01127,1.4e-4 -0.01704,0 -0.0068,-2.2e-4 -0.01339,-2.6e-4 -0.02016,-0.002 -0.005,-5.3e-4 -0.01008,-10e-4 -0.01497,-10e-4 h -0.02066 -0.02326 -0.02482 -0.0181 -0.01551 -0.02532 -0.04702 c -0.05673,0 -0.06352,-0.05 -0.02222,-0.0636 h -0.0062 -0.01241 c -0.04421,0 -0.05781,-0.0299 -0.04237,-0.0496 -0.01042,7.9e-4 -0.02098,0.002 -0.03152,0.001 -0.01662,-5.3e-4 -0.03306,4e-5 -0.04961,-0.003 -0.02085,-0.002 -0.04197,-0.006 -0.06149,-0.015 -0.01683,-0.008 -0.03869,-0.0203 -0.03979,-0.0419 -2.65e-4,-0.007 0.0021,-0.0134 0.0031,-0.0202 0.0036,-0.005 0.0067,-0.009 0.01085,-0.0134 0.0072,-0.007 0.01767,-0.008 0.02687,-0.0103 0.0066,-10e-4 0.01341,-0.002 0.02016,-0.004 -0.04468,-0.0119 -0.03793,-0.0641 0.02016,-0.0641 h 0.02479 0.03617 0.0021 c -0.0024,-0.002 -0.0056,-0.004 -0.0078,-0.005 h -5.29e-4 -0.01085 c -0.05618,0 -0.06426,-0.0481 -0.02429,-0.062 -0.007,-0.008 -0.0081,-0.0182 -0.0036,-0.0274 h -0.03824 c -0.03046,0 -0.04331,-0.0156 -0.04186,-0.031 h -0.0114 -0.03514 c -0.09296,0 -0.110792,-0.0742 -0.05529,-0.10439 h -0.02119 c -0.112803,0 -0.116679,-0.11048 -0.01085,-0.11731 0.0016,-1.3e-4 0.0044,3e-5 0.0062,0 0.0019,-8e-5 0.0044,0 0.0062,0 h 0.0093 c 0.0011,-0.002 0.0041,-0.003 0.0062,-0.005 -0.0473,0.002 -0.09472,0.005 -0.14211,0.006 -0.03181,7.9e-4 -0.287806,0.008 -0.341583,0.007 -0.03789,-10e-4 -0.0987,0.025 -0.11317,-0.0103 -0.0019,-0.004 -0.0044,-0.008 -0.0062,-0.0124 -0.06323,-8e-5 -0.126953,-4e-5 -0.19017,0 -0.141396,-4e-5 -0.282876,1.4e-4 -0.424262,0 -0.01699,-3e-5 -0.04655,0.0156 -0.05168,10e-4 -0.0066,0.002 -0.01344,0.004 -0.01344,-10e-4 -2.62e-4,-0.0317 -0.0029,-0.0633 -0.0031,-0.0951 -0.0049,-0.007 -0.0086,-0.0137 -0.01138,-0.0217 -0.0076,-0.0222 -0.01323,-0.0429 -0.01704,-0.062 -0.04156,0.007 -0.08629,0.0338 -0.123508,0.0155 -0.07364,-0.0363 -0.116361,-0.0752 -0.136943,-0.11524 v 12.87996 h 28.541927 z m -26.490372,9.89914 c 0.0016,5.3e-4 0.0073,0.002 0.0088,0 -0.0029,1.4e-4 -0.0058,-7e-5 -0.0088,0 z m -0.412895,0.74517 c -0.0091,0.002 -0.01847,0.004 -0.02739,0.006 -0.06511,0.0183 0.0013,0.028 0.02739,-0.006 z m 0.977201,1.04438 c -0.01468,0.002 -0.01926,0.0182 -0.02119,0.0346 0.0097,-0.0111 0.01722,-0.0224 0.02119,-0.0346 z m -0.108003,0.0413 c 0.0065,0.0156 0.0131,0.0311 0.0186,0.046 0.01524,-0.009 0.02936,-0.0182 0.04186,-0.0279 -0.008,-0.003 -0.01648,-0.006 -0.02119,-0.007 -0.01299,-0.004 -0.02617,-0.007 -0.03927,-0.0109 z m -2.508374,4.80591 v 5.3e-4 5.3e-4 0.0289 c 0.0058,-0.009 0.0118,-0.0176 0.01704,-0.0253 0.0011,-0.001 0.0021,-0.002 0.0031,-0.004 -0.0067,-5e-5 -0.01344,-5.3e-4 -0.02016,-5.3e-4 z m 0,0.46664 v 0.0176 c 7.93e-4,-0.002 0.0016,-0.004 0.0026,-0.006 -0.0011,-0.004 -0.0016,-0.008 -0.0026,-0.0114 z m 1.035595,0.42995 c 7.94e-4,5.3e-4 0.0024,0.003 0.0026,0.002 4.5e-5,-8e-4 -4.8e-5,-5.3e-4 0,-0.002 -7.94e-4,8e-5 -0.0019,-8e-5 -0.0026,0 z" />
    </clipPath>
    <clipPath
       clipPathUnits="userSpaceOnUse"
       id="clipPath3083">
      <path
         id="path3085"
         style="fill:#ff0000;fill-opacity:1;fill-rule:nonzero;stroke:none;stroke-width:0.314161"
         d="m 55.026975,268.74582 -4.832851,5.3e-4 c 0.0044,0.0245 0.0089,0.0482 0.01342,0.0749 0.0111,0.0656 -0.116494,0.0657 -0.180063,0.0853 -0.06083,0.0187 -0.125679,0.0217 -0.189014,0.0279 -0.135105,0.0131 -0.570434,0.0322 -0.67499,0.0372 -0.261587,0.009 -0.522776,0.014 -0.784416,0.0181 0.0089,0.0651 0.01915,0.14073 0.03134,0.22841 10e-4,0.008 -5.09e-4,0.0147 -0.005,0.0196 0.224126,0.36344 0.07582,0.45466 -0.324313,0.4501 -0.390646,-0.0184 -0.780805,-0.0422 -1.170906,-0.0692 0.0055,0.0955 -0.05151,0.12002 -0.126344,0.13074 -0.01645,0.0221 -0.03565,0.044 -0.04676,0.0667 -0.0092,0.003 -0.01831,0.005 -0.02736,0.007 -0.02402,0.0382 -0.07712,0.0677 -0.159671,0.0677 h -0.0179 c 7.64e-4,0.007 0.0013,0.0126 10e-4,0.0191 v 5.3e-4 c 2.55e-4,0.007 1.8e-5,0.0144 -10e-4,0.0212 -1.61e-4,0.001 -0.0023,5.3e-4 -0.004,5.3e-4 -0.0018,10e-4 -0.0058,1.2e-4 -0.009,-5.3e-4 h -0.02437 -0.01093 c 2.55e-4,0.003 2.27e-4,0.007 -10e-4,0.01 v 5.3e-4 c 0.0013,1.2e-4 0.0031,-2.5e-4 0.0045,0 7.64e-4,1.5e-4 0.0018,7.9e-4 0.0025,10e-4 h 5.09e-4 c 0.0013,-2.6e-4 0.0023,-2.7e-4 0.0025,5.3e-4 l 5.09e-4,5.3e-4 c 0.0054,0.002 0.01057,0.003 0.01592,0.005 -0.004,0.0119 -0.0054,0.0255 -0.01194,0.0362 -0.0018,0.003 -0.0068,7.9e-4 -0.01044,0.001 -0.03164,0.003 -0.06331,0.004 -0.09501,0.006 l -5.09e-4,5.3e-4 c 0.03534,0.007 0.03067,0.0421 -0.004,0.0403 v 1.80868 h 11.703597 v -1.73065 h -0.01044 -0.01742 -0.01492 -0.02437 -0.04526 c -0.05457,0 -0.062,-0.0495 -0.02239,-0.063 h -0.005 -0.01194 c -0.02058,0 -0.03464,-0.007 -0.04178,-0.0165 h -0.02437 -0.06715 -0.04228 c -0.03031,0 -0.04407,-0.0157 -0.04278,-0.031 h -0.0095 -0.03482 c -0.09217,0 -0.111881,-0.0727 -0.0582,-0.10335 h -0.01839 c -0.114596,0 -0.116119,-0.11479 -0.0055,-0.11834 0.0018,-7e-5 0.0037,0 0.0055,0 h 0.0099 c 7.64e-4,-10e-4 0.0028,-0.002 0.004,-0.004 -0.04661,0.002 -0.09357,0.005 -0.140272,0.006 -0.03181,7.9e-4 -0.287449,0.008 -0.341224,0.007 -0.03789,-0.001 -0.09894,0.0255 -0.113409,-0.0103 -0.0018,-0.004 -0.0032,-0.008 -0.005,-0.0124 -0.06323,-6e-5 -0.126288,-2e-5 -0.189516,0 -0.141388,-2e-5 -0.282903,1.6e-4 -0.42429,0 -0.01699,-2e-5 -0.04709,0.0156 -0.05223,10e-4 -0.0066,0.002 -0.01388,0.004 -0.01393,-10e-4 -2.55e-4,-0.0317 -0.0018,-0.0632 -0.002,-0.0951 -0.0049,-0.007 -0.0082,-0.0137 -0.01093,-0.0217 -0.0076,-0.0222 -0.01355,-0.0429 -0.01742,-0.062 -0.04156,0.007 -0.08614,0.0333 -0.123359,0.015 -0.155742,-0.0767 -0.173971,-0.16569 -0.134301,-0.25011 -0.0034,-0.0133 -0.0065,-0.0268 -0.0095,-0.0403 -0.01098,-0.007 -0.02208,-0.0149 -0.03382,-0.0248 -0.141105,-0.11933 -0.01245,-0.30437 0.0577,-0.40772 10e-4,-0.001 0.002,-0.002 0.003,-0.004 -0.138869,-0.001 -0.277733,-0.004 -0.416831,-0.009 -0.09651,-0.003 -0.193117,-0.006 -0.289491,-0.0124 -0.06946,-0.004 -0.145175,0.011 -0.208418,-0.0181 -0.04599,-0.0211 -0.08459,-0.0538 -0.121865,-0.0889 z m 2.052322,1.02423 c 7.64e-4,5.3e-4 0.0023,0.003 0.0025,0.002 4.6e-5,-8e-4 -4.9e-5,-10e-4 0,-0.002 -7.64e-4,8e-5 -0.0018,-8e-5 -0.0025,0 z" />
    </clipPath>
    <clipPath
       clipPathUnits="userSpaceOnUse"
       id="clipPath3117">
      <path
         id="path3119"
         style="fill:#ff0000;fill-opacity:1;fill-rule:nonzero;stroke:none;stroke-width:0.264583"
         d="M 36.906274,183.90656 V 350.09383 H 203.09355 V 183.90656 Z m 21.219377,85.79424 c 0.0049,-1.2e-4 0.0096,10e-6 0.01447,0 0.01093,2e-5 0.02162,10e-5 0.03256,5.3e-4 0.01484,7.9e-4 0.0294,0.003 0.04393,0.006 0.01331,0.004 0.0268,0.006 0.04031,0.009 0.01125,0.002 0.0223,0.005 0.03359,0.007 0.0065,0.001 0.01312,0.002 0.01963,0.002 0.0035,2.4e-4 0.0068,5.3e-4 0.01035,5.3e-4 0.02997,7.9e-4 0.0422,0.0165 0.04444,0.0315 0.06092,1.7e-4 0.06111,0.059 0.0016,0.0641 0.0036,0.002 0.0073,0.004 0.01085,0.006 0.0021,0.001 0.0043,0.002 0.0067,0.002 0.0056,0.001 0.01135,0.004 0.01704,0.005 h 0.0016 c 0.01722,0.003 0.02923,0.009 0.03617,0.0176 0.0019,1.1e-4 0.0038,5.3e-4 0.0057,5.3e-4 0.0123,5.2e-4 0.0249,7.9e-4 0.03721,10e-4 0.0037,4e-5 0.0072,-5e-5 0.01085,0 0.06566,5.3e-4 0.06517,0.0668 -5.29e-4,0.0661 -0.0038,-2e-5 -0.0076,7e-5 -0.01138,0 -0.01286,-1.9e-4 -0.02593,-5.2e-4 -0.03876,-10e-4 -0.01688,-8e-4 -0.03379,-0.001 -0.05064,-0.003 -0.0066,-2.3e-4 -0.01312,-2.3e-4 -0.01963,-5.3e-4 0.01008,0.007 0.01543,0.0152 0.01654,0.0238 h 0.02429 c 0.01262,10e-6 0.02511,0 0.03772,0 h 0.01138 c 0.06567,0 0.06566,0.0667 0,0.0667 h -0.01138 -0.01963 c 0.01905,0.0119 0.01834,0.0278 0.0057,0.0393 0.0013,2.6e-4 0.0028,5.3e-4 0.0041,10e-4 h 5.29e-4 c 0.02604,0.008 0.0377,0.0231 0.03824,0.0372 0.01564,0.0179 0.01429,0.0421 -0.02842,0.047 -0.0052,5.3e-4 -0.01029,0.002 -0.0155,0.002 h -0.01188 -0.01394 -0.0217 c -0.0097,-10e-6 -0.01924,3e-5 -0.02894,0 -0.01016,-3e-5 -0.02032,-2e-4 -0.03049,-5.3e-4 -0.01008,-1.4e-4 -0.01992,-2.6e-4 -0.02997,-10e-4 -0.0093,-8e-4 -0.0186,-0.002 -0.02791,-0.003 -0.01021,-0.001 -0.02059,-0.003 -0.03049,-0.006 -0.0041,-10e-4 -0.0081,-0.002 -0.01241,-0.002 h -0.01241 c -0.0045,-10e-6 -0.009,3e-5 -0.01344,0 -0.0058,-4e-5 -0.01127,1.4e-4 -0.01704,0 -0.0068,-2.3e-4 -0.01389,1.8e-4 -0.02066,-0.002 -0.005,-5.3e-4 -0.01005,-8e-4 -0.015,-5.3e-4 h -0.02066 -0.02326 -0.02479 -0.0181 -0.01551 -0.02532 -0.04703 c -0.06086,0 -0.06186,-0.0551 -0.0098,-0.0636 h -0.0186 -0.01241 c -0.0491,0 -0.05023,-0.0334 -0.02585,-0.0522 -0.0034,2.6e-4 -0.0065,7.9e-4 -0.0098,10e-4 -0.01275,0.001 -0.0254,0.002 -0.03824,0.002 -0.01662,-5.3e-4 -0.03306,-7.9e-4 -0.04961,-0.003 -0.02085,-0.002 -0.04198,-0.006 -0.0615,-0.0129 -0.01683,-0.008 -0.03869,-0.0213 -0.03979,-0.0429 -2.65e-4,-0.007 0.0021,-0.0134 0.0031,-0.0202 0.0036,-0.005 0.0067,-0.009 0.01085,-0.0134 0.0072,-0.007 0.01768,-0.008 0.02687,-0.01 0.0094,-0.002 0.01892,-0.004 0.02842,-0.005 -0.05214,-0.008 -0.04801,-0.0651 0.01291,-0.0651 h 0.02479 0.03566 c -0.0016,-10e-4 -0.0038,-0.002 -0.0052,-0.003 h -0.0026 -0.01138 c -0.06156,0 -0.06516,-0.0584 -0.01138,-0.0656 -0.01849,-0.0195 -0.01656,-0.0465 0.02946,-0.0465 0.01635,0 0.03282,8e-4 0.04909,-10e-4 0.01185,-0.002 0.02376,-0.003 0.03566,-0.004 0.0076,-5.3e-4 0.01516,-7.9e-4 0.02273,-0.001 0.0053,-1.4e-4 0.01072,-5.3e-4 0.01603,-5.3e-4 0.0049,-3e-5 0.0096,10e-6 0.01447,0 h 0.01913 0.02066 c 0.0071,-5.3e-4 0.0146,-7.9e-4 0.0217,-0.002 0.0104,-10e-4 0.02056,-0.002 0.03101,-0.002 0.0099,-2.6e-4 0.02008,-5.3e-4 0.02997,-5.3e-4 0.0049,-3e-5 0.01011,-5.3e-4 0.01498,-5.3e-4 z" />
    </clipPath>
  </defs>
  <sodipodi:namedview
     id="base"
     pagecolor="#ffffff"
     bordercolor="#666666"
     borderopacity="1.0"
     inkscape:pageopacity="0.0"
     inkscape:pageshadow="2"
     inkscape:zoom="1.3932073"
     inkscape:cx="279.21187"
     inkscape:cy="312.22921"
     inkscape:document-units="mm"
     inkscape:current-layer="layer1"
     showgrid="false"
     showborder="true"
     width="200mm"
     showguides="true"
     inkscape:guide-bbox="true"
     inkscape:window-width="1440"
     inkscape:window-height="840"
     inkscape:window-x="0"
     inkscape:window-y="0"
     inkscape:window-maximized="1"
     inkscape:showpageshadow="2"
     inkscape:pagecheckerboard="0"
     inkscape:deskcolor="#d1d1d1">
    <inkscape:grid
       type="xygrid"
       id="grid815"
       units="mm"
       spacingx="10"
       spacingy="10"
       empspacing="4"
       dotted="false"
       originx="0"
       originy="0" />
  </sodipodi:namedview>
  <metadata
     id="metadata5">
    <rdf:RDF>
      <cc:Work
         rdf:about="">
        <dc:format>image/svg+xml</dc:format>
        <dc:type
           rdf:resource="http://purl.org/dc/dcmitype/StillImage" />
      </cc:Work>
    </rdf:RDF>
  </metadata>
  <g
     inkscape:groupmode="layer"
     id="layer2"
     inkscape:label="background">
    <path
       style="fill:#000000;stroke:none;stroke-width:1.64385;stroke-linejoin:bevel;fill-opacity:0.1"
       d="M 446.52512,26.779186 C 394.68454,27.751908 343.4627,42.263305 298.39288,67.801188 225.63005,109.55314 169.65779,181.06784 149.77234,262.90937 c -21.96509,86.02379 -5.75335,181.18704 45.13495,254.1684 48.19572,71.28486 127.01311,120.3876 211.98829,133.23107 87.10402,13.13134 179.46532,-12.13801 246.80628,-69.20112 62.10337,-51.24157 103.52716,-127.31824 111.36515,-207.55636 2.61773,-36.87788 2.1817,-74.40261 -7.7017,-110.28645 C 734.28934,169.90397 665.59686,89.31 576.94626,51.960711 535.93718,34.367467 491.13078,25.768288 446.52512,26.779186 Z m 6.90175,244.579064 c 37.48533,-1.69703 71.89363,33.94142 68.71432,71.54191 0.635,40.88052 -43.01848,74.31941 -82.26995,64.78215 -29.18351,-5.70251 -52.96859,-31.61319 -54.89156,-61.61283 -3.78932,-34.43927 22.62716,-69.34095 57.05978,-74.02539 3.72554,-0.48406 7.57562,-0.67595 11.38741,-0.68584 z"
       id="path2851"
       transform="scale(0.26458333)" />
    <path
       style="fill:none;stroke:#000000;stroke-width:0.5;stroke-linecap:butt;stroke-linejoin:miter;stroke-opacity:1;stroke-miterlimit:4;stroke-dasharray:none;marker-end:url(#Arrow1Mend)"
       d="M 92.253317,65.751709 101.286,73.223262"
       id="path14965" />
    <text
       xml:space="preserve"
       style="font-size:3.88056px;line-height:1.25;font-family:sans-serif;-inkscape-font-specification:'sans-serif, Normal';stroke-width:0.264583"
       x="96.931229"
       y="66.112106"
       id="text16831"><tspan
         sodipodi:role="line"
         id="tspan16829"
         style="stroke-width:0.264583"
         x="96.931229"
         y="66.112106">$I_2$</tspan></text>
    <text
       xml:space="preserve"
       style="font-size:3.88056px;line-height:1.25;font-family:sans-serif;-inkscape-font-specification:'sans-serif, Normal';stroke-width:0.264583"
       x="86.956047"
       y="80.899849"
       id="text16831-3"><tspan
         sodipodi:role="line"
         id="tspan16829-5"
         style="stroke-width:0.264583"
         x="86.956047"
         y="80.899849">$I_3$</tspan></text>
    <text
       xml:space="preserve"
       style="font-size:3.88056px;line-height:1.25;font-family:sans-serif;-inkscape-font-specification:'sans-serif, Normal';stroke-width:0.264583"
       x="71.908722"
       y="45.577835"
       id="text16831-3-6"><tspan
         sodipodi:role="line"
         id="tspan16829-5-2"
         style="stroke-width:0.264583"
         x="71.908722"
         y="45.577835">$I_1$</tspan></text>
    <path
       style="fill:none;stroke:#000000;stroke-width:0.5;stroke-linecap:butt;stroke-linejoin:miter;stroke-miterlimit:4;stroke-dasharray:none;stroke-opacity:1;marker-start:url(#Arrow1Mstart)"
       d="m 89.078315,69.455878 9.032677,7.471553"
       id="path16978" />
    <path
       style="fill:#9900ff;stroke:#000000;stroke-width:0.5;stroke-linecap:butt;stroke-linejoin:miter;stroke-opacity:1;stroke-miterlimit:4;stroke-dasharray:none;fill-opacity:1;marker-end:url(#Arrow1Mend)"
       d="m 66.746296,43.728584 8.817473,7.775231"
       id="path18610" />
    <path
       style="fill:#9900ff;fill-opacity:1;stroke:#000000;stroke-width:0.5;stroke-linecap:butt;stroke-linejoin:miter;stroke-miterlimit:4;stroke-dasharray:none;stroke-opacity:1;marker-start:url(#Arrow1Mstart)"
       d="m 63.571294,47.96192 8.817473,7.775231"
       id="path25831" />
    <text
       xml:space="preserve"
       style="font-size:3.88056px;line-height:1.25;font-family:sans-serif;-inkscape-font-specification:'sans-serif, Normal';stroke-width:0.264583"
       x="61.518169"
       y="59.419178"
       id="text27177"><tspan
         sodipodi:role="line"
         id="tspan27175"
         style="stroke-width:0.264583"
         x="61.518169"
         y="59.419178">$I_4$</tspan></text>
  </g>
  <g
     inkscape:label="Layer 1"
     inkscape:groupmode="layer"
     id="layer1"
     transform="translate(0, -177)">
    <circle
       style="fill:#ffffff;fill-opacity:0.0000937668;fill-rule:evenodd;stroke:#000000;stroke-width:0.308;stroke-dasharray:0.308,0.308;paint-order:markers stroke fill;stroke-miterlimit:4;stroke-dashoffset:0"
       id="path469"
       cx="120"
       cy="267"
       r="82.889671"
       clip-path="url(#clipPath3117)" />
    <circle
       style="fill:#ffffff;fill-opacity:0.0000937668;fill-rule:evenodd;stroke:#000000;stroke-width:0.30799999;stroke-dasharray:0.30799999,0.30799999;paint-order:markers stroke fill;stroke-miterlimit:4;stroke-dashoffset:0"
       id="circle3111"
       cx="120"
       cy="267"
       r="18.393042" />
    <text
       xml:space="preserve"
       style="font-size:3.88056px;line-height:1.25;font-family:sans-serif;-inkscape-font-specification:'sans-serif, Normal';stroke-width:0.264583"
       x="172.66786"
       y="195.77155"
       id="text4290"><tspan
         sodipodi:role="line"
         id="tspan4288"
         style="stroke-width:0.264583"
         x="172.66786"
         y="195.77155">$\Omega_{R,r}$</tspan></text>
    <circle
       style="fill:#ffffff;fill-opacity:9.37668e-05;fill-rule:evenodd;stroke:#000000;stroke-width:0.5;stroke-miterlimit:4;stroke-dasharray:none;stroke-opacity:1;marker-mid:url(#Arrow1Mend);paint-order:markers stroke fill"
       id="circle2281"
       cx="-272.00159"
       cy="-106.17739"
       r="24.171492"
       transform="rotate(-135.40178)" />
    <circle
       style="fill:#ffffff;fill-opacity:9.37668e-05;fill-rule:evenodd;stroke:#000000;stroke-width:0.5;stroke-miterlimit:4;stroke-dasharray:none;stroke-opacity:1;marker-mid:url(#Arrow1Mstart);paint-order:markers stroke fill"
       id="circle2337"
       cx="-258.15704"
       cy="-136.59573"
       r="69.80722"
       transform="rotate(-141.94735)" />
    <text
       xml:space="preserve"
       style="font-size:3.88056px;line-height:1.25;font-family:sans-serif;-inkscape-font-specification:'sans-serif, Normal';stroke-width:0.264583"
       x="130.87721"
       y="210.63568"
       id="text3551"><tspan
         sodipodi:role="line"
         id="tspan3549"
         style="stroke-width:0.264583"
         x="130.87721"
         y="210.63568">$C_{\tilde R}$</tspan></text>
    <text
       xml:space="preserve"
       style="font-size:3.88056px;line-height:1.25;font-family:sans-serif;-inkscape-font-specification:'sans-serif, Normal';stroke-width:0.264583"
       x="131.86717"
       y="299.27954"
       id="text5976"><tspan
         sodipodi:role="line"
         id="tspan5974"
         style="stroke-width:0.264583"
         x="131.86717"
         y="299.27954">$C_{\tilde r}$</tspan></text>
    <circle
       id="path8124"
       style="fill:#000000;stroke:none;stroke-width:0.483651"
       cx="82.297745"
       cy="237.54309"
       r="0.72547793" />
    <text
       xml:space="preserve"
       style="font-size:3.88056px;line-height:1.25;font-family:sans-serif;-inkscape-font-specification:'sans-serif, Normal';stroke-width:0.264583"
       x="79.897995"
       y="244.3477"
       id="text11332"><tspan
         sodipodi:role="line"
         id="tspan11330"
         style="stroke-width:0.264583"
         x="79.897995"
         y="244.3477">$w$</tspan></text>
    <circle
       id="circle12807"
       style="fill:none;stroke:#000000;stroke-width:0.5;stroke-miterlimit:4;stroke-dasharray:none;stroke-opacity:1;marker-mid:url(#Arrow1Mend)"
       cx="82.297745"
       cy="237.54309"
       r="11.129598" />
    <text
       xml:space="preserve"
       style="font-size:3.88056px;line-height:1.25;font-family:sans-serif;-inkscape-font-specification:'sans-serif, Normal';stroke-width:0.264583"
       x="89.538177"
       y="224.97496"
       id="text14735"><tspan
         sodipodi:role="line"
         id="tspan14733"
         style="stroke-width:0.264583"
         x="89.538177"
         y="224.97496">$\gamma_\eps^{+}$</tspan></text>
    <text
       xml:space="preserve"
       style="font-size:3.88056px;line-height:1.25;font-family:sans-serif;-inkscape-font-specification:'sans-serif, Normal';stroke-width:0.264583"
       x="69.739563"
       y="254.70357"
       id="text14735-9"><tspan
         sodipodi:role="line"
         id="tspan14733-1"
         style="stroke-width:0.264583"
         x="69.739563"
         y="254.70357">$\gamma_\eps^{-}$</tspan></text>
  </g>
</svg>
