<?xml version="1.0" encoding="UTF-8" standalone="no"?>
<!-- Created with Inkscape (http://www.inkscape.org/) -->

<svg
   width="240mm"
   height="120mm"
   viewBox="0 0 240 120"
   version="1.1"
   id="svg8"
   inkscape:version="1.2.2 (b0a8486541, 2022-12-01)"
   sodipodi:docname="montel_theorem_location_of_points.svg"
   xmlns:inkscape="http://www.inkscape.org/namespaces/inkscape"
   xmlns:sodipodi="http://sodipodi.sourceforge.net/DTD/sodipodi-0.dtd"
   xmlns="http://www.w3.org/2000/svg"
   xmlns:svg="http://www.w3.org/2000/svg"
   xmlns:rdf="http://www.w3.org/1999/02/22-rdf-syntax-ns#"
   xmlns:cc="http://creativecommons.org/ns#"
   xmlns:dc="http://purl.org/dc/elements/1.1/"
   xmlns:ns1="http://www.iki.fi/pav/software/textext/">
  <defs
     id="defs2" />
  <sodipodi:namedview
     id="base"
     pagecolor="#ffffff"
     bordercolor="#666666"
     borderopacity="1.0"
     inkscape:pageopacity="0.0"
     inkscape:pageshadow="2"
     inkscape:zoom="1.7082733"
     inkscape:cx="469.7726"
     inkscape:cy="291.52244"
     inkscape:document-units="mm"
     inkscape:current-layer="layer1"
     showgrid="false"
     showborder="true"
     width="200mm"
     showguides="true"
     inkscape:guide-bbox="true"
     inkscape:window-width="1280"
     inkscape:window-height="1371"
     inkscape:window-x="0"
     inkscape:window-y="0"
     inkscape:window-maximized="1"
     inkscape:showpageshadow="2"
     inkscape:pagecheckerboard="0"
     inkscape:deskcolor="#d1d1d1">
    <inkscape:grid
       type="xygrid"
       id="grid815"
       units="mm"
       spacingx="10"
       spacingy="10"
       empspacing="4"
       dotted="false" />
  </sodipodi:namedview>
  <metadata
     id="metadata5">
    <rdf:RDF>
      <cc:Work
         rdf:about="">
        <dc:format>image/svg+xml</dc:format>
        <dc:type
           rdf:resource="http://purl.org/dc/dcmitype/StillImage" />
        <dc:title />
      </cc:Work>
    </rdf:RDF>
  </metadata>
  <g
     inkscape:label="Layer 1"
     inkscape:groupmode="layer"
     id="layer1"
     transform="translate(0, -177)">
    <circle
       style="fill:#808080;fill-opacity:0;fill-rule:evenodd;stroke:#000000;stroke-width:0.410001;stroke-dasharray:none;paint-order:markers stroke fill"
       id="path183"
       cx="120"
       cy="237"
       r="34.487026" />
    <circle
       style="fill:#000000;fill-opacity:1;fill-rule:evenodd;stroke:#000000;stroke-width:0.410001;stroke-dasharray:none;paint-order:markers stroke fill"
       id="path1623"
       cx="120"
       cy="237"
       r="0.80800003" />
    <circle
       style="fill:#808080;fill-opacity:0;fill-rule:evenodd;stroke:#000000;stroke-width:0.410001;stroke-dasharray:none;paint-order:markers stroke fill"
       id="circle3337"
       cx="120"
       cy="237"
       r="19.487" />
    <g
       transform="matrix(0.458611,0,0,0.458611,116.5561,231.93511)"
       ns1:version="1.8.2"
       ns1:texconverter="pdflatex"
       ns1:pdfconverter="inkscape"
       ns1:text="$$a$$"
       ns1:preamble="/home/buyolitsez/.config/inkscape/extensions/textext/default_packages.tex"
       ns1:scale="1.3"
       ns1:alignment="middle center"
       ns1:stroke-to-path="0"
       ns1:inkscapeversion="0.92.4"
       ns1:jacobian_sqrt="0.458611"
       id="g4206">
      <defs
         id="id-cddeec87-7d2a-4918-8dd8-62d189e32e49">
        <g
           id="id-2f9f9e15-d8f9-4648-b1da-6338ac46c15f">
          <g
             id="id-2406c498-676c-4787-8941-e0178a617948" />
          <g
             id="id-e8b71144-76b1-4596-bac6-856706e3cb67">
            <path
               d="M 4.3125,-1.703125 C 4.25,-1.46875 4.25,-1.4375 4.046875,-1.15625 c -0.3125,0.390625 -0.953125,1.015625 -1.625,1.015625 -0.578125,0 -0.921875,-0.53125 -0.921875,-1.375 0,-0.796875 0.453125,-2.40625 0.71875,-3 0.5,-1 1.171875,-1.515625 1.71875,-1.515625 0.953125,0 1.140625,1.171875 1.140625,1.28125 0,0.015625 -0.046875,0.203125 -0.0625,0.234375 z M 5.234375,-5.375 C 5.078125,-5.75 4.6875,-6.328125 3.9375,-6.328125 c -1.609375,0 -3.359375,2.09375 -3.359375,4.21875 0,1.421875 0.828125,2.25 1.796875,2.25 0.796875,0 1.46875,-0.609375 1.875,-1.09375 0.140625,0.859375 0.8125,1.09375 1.25,1.09375 0.421875,0 0.765625,-0.25 1.03125,-0.765625 C 6.75,-1.125 6.953125,-2 6.953125,-2.046875 6.953125,-2.125 6.90625,-2.1875 6.8125,-2.1875 c -0.125,0 -0.140625,0.078125 -0.203125,0.296875 -0.21875,0.84375 -0.484375,1.75 -1.078125,1.75 -0.40625,0 -0.4375,-0.375 -0.4375,-0.65625 0,-0.34375 0.046875,-0.5 0.171875,-1.046875 0.09375,-0.359375 0.171875,-0.6875 0.28125,-1.09375 0.53125,-2.15625 0.65625,-2.671875 0.65625,-2.75 0,-0.203125 -0.15625,-0.359375 -0.359375,-0.359375 -0.46875,0 -0.578125,0.5 -0.609375,0.671875 z m 0,0"
               id="id-723a43be-2658-4d35-ab97-3680014474cd" />
          </g>
        </g>
      </defs>
      <g
         fill="#000000"
         fill-opacity="1"
         id="id-9f7cb41e-3b87-4c09-80a8-383c23ed3f8a"
         transform="translate(-294.529,-60.5559)">
        <g
           transform="translate(293.951,66.884)"
           id="g4203">
          <path
             d="M 4.3125,-1.703125 C 4.25,-1.46875 4.25,-1.4375 4.046875,-1.15625 c -0.3125,0.390625 -0.953125,1.015625 -1.625,1.015625 -0.578125,0 -0.921875,-0.53125 -0.921875,-1.375 0,-0.796875 0.453125,-2.40625 0.71875,-3 0.5,-1 1.171875,-1.515625 1.71875,-1.515625 0.953125,0 1.140625,1.171875 1.140625,1.28125 0,0.015625 -0.046875,0.203125 -0.0625,0.234375 z M 5.234375,-5.375 C 5.078125,-5.75 4.6875,-6.328125 3.9375,-6.328125 c -1.609375,0 -3.359375,2.09375 -3.359375,4.21875 0,1.421875 0.828125,2.25 1.796875,2.25 0.796875,0 1.46875,-0.609375 1.875,-1.09375 0.140625,0.859375 0.8125,1.09375 1.25,1.09375 0.421875,0 0.765625,-0.25 1.03125,-0.765625 C 6.75,-1.125 6.953125,-2 6.953125,-2.046875 6.953125,-2.125 6.90625,-2.1875 6.8125,-2.1875 c -0.125,0 -0.140625,0.078125 -0.203125,0.296875 -0.21875,0.84375 -0.484375,1.75 -1.078125,1.75 -0.40625,0 -0.4375,-0.375 -0.4375,-0.65625 0,-0.34375 0.046875,-0.5 0.171875,-1.046875 0.09375,-0.359375 0.171875,-0.6875 0.28125,-1.09375 0.53125,-2.15625 0.65625,-2.671875 0.65625,-2.75 0,-0.203125 -0.15625,-0.359375 -0.359375,-0.359375 -0.46875,0 -0.578125,0.5 -0.609375,0.671875 z m 0,0"
             id="id-a145b73c-8c33-491f-8b21-7964bb661587" />
        </g>
      </g>
    </g>
    <g
       transform="matrix(0.458611,0,0,0.458611,140.58073,237.7379)"
       ns1:version="1.8.2"
       ns1:texconverter="pdflatex"
       ns1:pdfconverter="inkscape"
       ns1:text="$$w$$"
       ns1:preamble="/home/buyolitsez/.config/inkscape/extensions/textext/default_packages.tex"
       ns1:scale="1.3"
       ns1:alignment="middle center"
       ns1:stroke-to-path="0"
       ns1:inkscapeversion="0.92.4"
       ns1:jacobian_sqrt="0.458611"
       id="g4993">
      <defs
         id="id-aa64b1b6-4d55-4f75-9385-ee91773df910">
        <g
           id="id-68646c61-6a53-45dd-b842-71014db1b2b4">
          <g
             id="id-6d2369df-9958-4e77-a50d-b9c54147588a" />
          <g
             id="id-8b15dfb3-dbb9-4559-a2b3-6ad275ab885e">
            <path
               d="m 4.9375,-0.875 c 0.3125,0.859375 1.203125,1.015625 1.75,1.015625 1.09375,0 1.734375,-0.9375 2.140625,-1.9375 C 9.15625,-2.625 9.6875,-4.515625 9.6875,-5.359375 c 0,-0.875 -0.453125,-0.96875 -0.578125,-0.96875 -0.34375,0 -0.65625,0.34375 -0.65625,0.640625 0,0.171875 0.09375,0.265625 0.171875,0.328125 0.125,0.125 0.5,0.515625 0.5,1.25 0,0.5 -0.40625,1.84375 -0.703125,2.515625 -0.40625,0.875 -0.9375,1.453125 -1.6875,1.453125 C 5.9375,-0.140625 5.6875,-0.75 5.6875,-1.40625 c 0,-0.421875 0.125,-0.921875 0.171875,-1.15625 L 6.46875,-4.984375 c 0.078125,-0.28125 0.203125,-0.78125 0.203125,-0.84375 C 6.671875,-6.03125 6.5,-6.1875 6.28125,-6.1875 c -0.421875,0 -0.515625,0.359375 -0.59375,0.703125 -0.15625,0.5625 -0.75,2.984375 -0.8125,3.296875 -0.0625,0.25 -0.0625,0.40625 -0.0625,0.71875 0,0.34375 -0.453125,0.890625 -0.46875,0.921875 -0.15625,0.15625 -0.390625,0.40625 -0.828125,0.40625 C 2.375,-0.140625 2.375,-1.21875 2.375,-1.46875 c 0,-0.453125 0.109375,-1.078125 0.75,-2.796875 0.171875,-0.4375 0.25,-0.625 0.25,-0.90625 0,-0.609375 -0.4375,-1.15625 -1.140625,-1.15625 -1.3125,0 -1.84375,2.078125 -1.84375,2.203125 0,0.046875 0.046875,0.125 0.15625,0.125 0.125,0 0.140625,-0.0625 0.203125,-0.265625 0.359375,-1.25 0.90625,-1.765625 1.4375,-1.765625 0.15625,0 0.375,0 0.375,0.46875 0,0.0625 0,0.375 -0.234375,1 C 1.65625,-2.765625 1.5,-2.1875 1.5,-1.640625 c 0,1.515625 1.234375,1.78125 1.96875,1.78125 0.25,0 0.890625,0 1.46875,-1.015625 z m 0,0"
               id="id-ca19df09-57fd-4f03-a0ac-163934a16f59" />
          </g>
        </g>
      </defs>
      <g
         fill="#000000"
         fill-opacity="1"
         id="id-d4b34b94-9a54-4c12-9111-ef7c0eaecea7"
         transform="translate(-292.815,-60.5559)">
        <g
           transform="translate(292.424,66.884)"
           id="g4990">
          <path
             d="m 4.9375,-0.875 c 0.3125,0.859375 1.203125,1.015625 1.75,1.015625 1.09375,0 1.734375,-0.9375 2.140625,-1.9375 C 9.15625,-2.625 9.6875,-4.515625 9.6875,-5.359375 c 0,-0.875 -0.453125,-0.96875 -0.578125,-0.96875 -0.34375,0 -0.65625,0.34375 -0.65625,0.640625 0,0.171875 0.09375,0.265625 0.171875,0.328125 0.125,0.125 0.5,0.515625 0.5,1.25 0,0.5 -0.40625,1.84375 -0.703125,2.515625 -0.40625,0.875 -0.9375,1.453125 -1.6875,1.453125 C 5.9375,-0.140625 5.6875,-0.75 5.6875,-1.40625 c 0,-0.421875 0.125,-0.921875 0.171875,-1.15625 L 6.46875,-4.984375 c 0.078125,-0.28125 0.203125,-0.78125 0.203125,-0.84375 C 6.671875,-6.03125 6.5,-6.1875 6.28125,-6.1875 c -0.421875,0 -0.515625,0.359375 -0.59375,0.703125 -0.15625,0.5625 -0.75,2.984375 -0.8125,3.296875 -0.0625,0.25 -0.0625,0.40625 -0.0625,0.71875 0,0.34375 -0.453125,0.890625 -0.46875,0.921875 -0.15625,0.15625 -0.390625,0.40625 -0.828125,0.40625 C 2.375,-0.140625 2.375,-1.21875 2.375,-1.46875 c 0,-0.453125 0.109375,-1.078125 0.75,-2.796875 0.171875,-0.4375 0.25,-0.625 0.25,-0.90625 0,-0.609375 -0.4375,-1.15625 -1.140625,-1.15625 -1.3125,0 -1.84375,2.078125 -1.84375,2.203125 0,0.046875 0.046875,0.125 0.15625,0.125 0.125,0 0.140625,-0.0625 0.203125,-0.265625 0.359375,-1.25 0.90625,-1.765625 1.4375,-1.765625 0.15625,0 0.375,0 0.375,0.46875 0,0.0625 0,0.375 -0.234375,1 C 1.65625,-2.765625 1.5,-2.1875 1.5,-1.640625 c 0,1.515625 1.234375,1.78125 1.96875,1.78125 0.25,0 0.890625,0 1.46875,-1.015625 z m 0,0"
             id="id-a110e737-db69-4d3b-8850-5d9ead47fde6" />
        </g>
      </g>
    </g>
    <circle
       style="fill:#000000;fill-opacity:1;fill-rule:evenodd;stroke:#000000;stroke-width:0.410001;stroke-dasharray:none;paint-order:markers stroke fill"
       id="circle5007"
       cx="139.13289"
       cy="241.33112"
       r="0.80800003" />
    <g
       transform="matrix(0.458611,0,0,0.458611,150.50609,214.23883)"
       ns1:version="1.8.2"
       ns1:texconverter="pdflatex"
       ns1:pdfconverter="inkscape"
       ns1:text="$$z$$"
       ns1:preamble="/home/buyolitsez/.config/inkscape/extensions/textext/default_packages.tex"
       ns1:scale="1.3"
       ns1:alignment="middle center"
       ns1:stroke-to-path="0"
       ns1:inkscapeversion="0.92.4"
       ns1:jacobian_sqrt="0.458611"
       id="g6524">
      <defs
         id="id-85266097-cd2b-4df1-b4a0-d0f8ebe2ff01">
        <g
           id="id-2b79b517-9045-4eec-99ed-716630e2a34d">
          <g
             id="id-9209c2ea-36ea-4316-bd42-aa90dcb47943" />
          <g
             id="id-980b8c00-4ccd-4e73-b69e-ce747f771e87">
            <path
               d="M 1.828125,-1.15625 C 2.4375,-1.859375 2.9375,-2.3125 3.65625,-2.953125 c 0.859375,-0.75 1.234375,-1.109375 1.4375,-1.328125 1,-0.984375 1.5,-1.8125 1.5,-1.921875 0,-0.125 -0.109375,-0.125 -0.140625,-0.125 -0.09375,0 -0.125,0.0625 -0.203125,0.15625 C 5.890625,-5.546875 5.546875,-5.25 5.171875,-5.25 4.875,-5.25 4.71875,-5.375 4.453125,-5.71875 4.140625,-6.078125 3.90625,-6.328125 3.484375,-6.328125 c -1.046875,0 -1.671875,1.3125 -1.671875,1.609375 0,0.046875 0.015625,0.125 0.140625,0.125 0.109375,0 0.125,-0.046875 0.171875,-0.15625 0.234375,-0.578125 0.9375,-0.671875 1.203125,-0.671875 0.296875,0 0.59375,0.09375 0.890625,0.234375 0.546875,0.21875 0.765625,0.21875 0.921875,0.21875 0.09375,0 0.15625,0 0.21875,-0.015625 -0.46875,0.5625 -1.25,1.25 -1.890625,1.84375 L 2.015625,-1.8125 c -0.875,0.890625 -1.40625,1.734375 -1.40625,1.84375 0,0.078125 0.078125,0.109375 0.171875,0.109375 0.078125,0 0.09375,-0.015625 0.1875,-0.1875 C 1.203125,-0.40625 1.65625,-0.9375 2.1875,-0.9375 c 0.3125,0 0.453125,0.109375 0.734375,0.46875 0.28125,0.3125 0.515625,0.609375 0.984375,0.609375 1.40625,0 2.203125,-1.8125 2.203125,-2.15625 0,-0.046875 -0.015625,-0.140625 -0.15625,-0.140625 -0.109375,0 -0.125,0.0625 -0.171875,0.203125 -0.3125,0.84375 -1.15625,1.1875 -1.71875,1.1875 -0.296875,0 -0.59375,-0.09375 -0.890625,-0.21875 C 2.59375,-1.21875 2.4375,-1.21875 2.25,-1.21875 c -0.140625,0 -0.296875,0 -0.421875,0.0625 z m 0,0"
               id="id-51151aa7-f146-4947-8c93-170793e3e3de" />
          </g>
        </g>
      </defs>
      <g
         fill="#000000"
         fill-opacity="1"
         id="id-e1685944-31ed-4f4c-91e7-e7dd0cbf3c99"
         transform="translate(-294.664,-60.5559)">
        <g
           transform="translate(294.055,66.884)"
           id="g6521">
          <path
             d="M 1.828125,-1.15625 C 2.4375,-1.859375 2.9375,-2.3125 3.65625,-2.953125 c 0.859375,-0.75 1.234375,-1.109375 1.4375,-1.328125 1,-0.984375 1.5,-1.8125 1.5,-1.921875 0,-0.125 -0.109375,-0.125 -0.140625,-0.125 -0.09375,0 -0.125,0.0625 -0.203125,0.15625 C 5.890625,-5.546875 5.546875,-5.25 5.171875,-5.25 4.875,-5.25 4.71875,-5.375 4.453125,-5.71875 4.140625,-6.078125 3.90625,-6.328125 3.484375,-6.328125 c -1.046875,0 -1.671875,1.3125 -1.671875,1.609375 0,0.046875 0.015625,0.125 0.140625,0.125 0.109375,0 0.125,-0.046875 0.171875,-0.15625 0.234375,-0.578125 0.9375,-0.671875 1.203125,-0.671875 0.296875,0 0.59375,0.09375 0.890625,0.234375 0.546875,0.21875 0.765625,0.21875 0.921875,0.21875 0.09375,0 0.15625,0 0.21875,-0.015625 -0.46875,0.5625 -1.25,1.25 -1.890625,1.84375 L 2.015625,-1.8125 c -0.875,0.890625 -1.40625,1.734375 -1.40625,1.84375 0,0.078125 0.078125,0.109375 0.171875,0.109375 0.078125,0 0.09375,-0.015625 0.1875,-0.1875 C 1.203125,-0.40625 1.65625,-0.9375 2.1875,-0.9375 c 0.3125,0 0.453125,0.109375 0.734375,0.46875 0.28125,0.3125 0.515625,0.609375 0.984375,0.609375 1.40625,0 2.203125,-1.8125 2.203125,-2.15625 0,-0.046875 -0.015625,-0.140625 -0.15625,-0.140625 -0.109375,0 -0.125,0.0625 -0.171875,0.203125 -0.3125,0.84375 -1.15625,1.1875 -1.71875,1.1875 -0.296875,0 -0.59375,-0.09375 -0.890625,-0.21875 C 2.59375,-1.21875 2.4375,-1.21875 2.25,-1.21875 c -0.140625,0 -0.296875,0 -0.421875,0.0625 z m 0,0"
             id="id-732dc1f6-e254-4ff3-9e11-a6f01fb5f7f4" />
        </g>
      </g>
    </g>
    <circle
       style="fill:#000000;fill-opacity:1;fill-rule:evenodd;stroke:#000000;stroke-width:0.410001;stroke-dasharray:none;paint-order:markers stroke fill"
       id="circle6538"
       cx="149.20609"
       cy="218.77914"
       r="0.80800003" />
    <circle
       style="fill:#808080;fill-opacity:0;fill-rule:evenodd;stroke:#000000;stroke-width:0.410001;stroke-dasharray:none;paint-order:markers stroke fill"
       id="circle6540"
       cx="120"
       cy="237"
       r="49.487" />
    <g
       transform="matrix(0.458611,0,0,0.458611,155.8784,196.62954)"
       ns1:version="1.8.2"
       ns1:texconverter="pdflatex"
       ns1:pdfconverter="inkscape"
       ns1:text="$$\\eps(a)$$"
       ns1:preamble="/home/buyolitsez/.config/inkscape/extensions/textext/default_packages.tex"
       ns1:scale="1.3"
       ns1:alignment="middle center"
       ns1:stroke-to-path="0"
       ns1:inkscapeversion="0.92.4"
       ns1:jacobian_sqrt="0.458611"
       id="g6646">
      <defs
         id="id-ae462fcc-3fd7-4f30-9216-c750cec7c6bd">
        <g
           id="id-baf1e2db-e461-4576-b7e7-65ef4a7f7d5b">
          <g
             id="id-6f06e12c-4b5f-47a0-9ef0-7736d4de1eb1" />
          <g
             id="id-db17916a-950d-4610-b42a-20e069eb2913">
            <path
               d="m 2,-3.265625 c 0.453125,0.1875 0.9375,0.1875 1.21875,0.1875 0.359375,0 1.109375,0 1.109375,-0.421875 0,-0.265625 -0.265625,-0.359375 -1,-0.359375 -0.359375,0 -0.796875,0.046875 -1.296875,0.265625 -0.4375,-0.21875 -0.609375,-0.546875 -0.609375,-0.859375 0,-0.890625 1.40625,-1.40625 2.6875,-1.40625 0.234375,0 0.75,0 1.359375,0.4375 0.078125,0.0625 0.125,0.09375 0.21875,0.09375 0.171875,0 0.359375,-0.1875 0.359375,-0.359375 0,-0.25 -0.828125,-0.796875 -1.8125,-0.796875 -1.609375,0 -3.125,0.96875 -3.125,2.03125 0,0.515625 0.34375,0.859375 0.578125,1.03125 -0.828125,0.46875 -1.3125,1.234375 -1.3125,1.9375 0,1 0.890625,1.78125 2.265625,1.78125 1.890625,0 2.65625,-1.265625 2.65625,-1.453125 0,-0.078125 -0.0625,-0.140625 -0.140625,-0.140625 C 5.09375,-1.296875 5.0625,-1.25 5,-1.15625 4.84375,-0.890625 4.46875,-0.3125 2.765625,-0.3125 c -0.890625,0 -2.0625,-0.234375 -2.0625,-1.25 C 0.703125,-2.046875 1.0625,-2.78125 2,-3.265625 Z M 2.4375,-3.4375 c 0.390625,-0.140625 0.765625,-0.140625 0.859375,-0.140625 0.40625,0 0.46875,0.03125 0.703125,0.09375 C 3.765625,-3.375 3.734375,-3.375 3.21875,-3.375 c -0.265625,0 -0.5,0 -0.78125,-0.0625 z m 0,0"
               id="id-28760343-19b2-4481-9fb0-0494c4477687" />
          </g>
          <g
             id="id-66daadbd-3dea-4e5d-8ac1-3c5529358454">
            <path
               d="M 4.3125,-1.703125 C 4.25,-1.46875 4.25,-1.4375 4.046875,-1.15625 c -0.3125,0.390625 -0.953125,1.015625 -1.625,1.015625 -0.578125,0 -0.921875,-0.53125 -0.921875,-1.375 0,-0.796875 0.453125,-2.40625 0.71875,-3 0.5,-1 1.171875,-1.515625 1.71875,-1.515625 0.953125,0 1.140625,1.171875 1.140625,1.28125 0,0.015625 -0.046875,0.203125 -0.0625,0.234375 z M 5.234375,-5.375 C 5.078125,-5.75 4.6875,-6.328125 3.9375,-6.328125 c -1.609375,0 -3.359375,2.09375 -3.359375,4.21875 0,1.421875 0.828125,2.25 1.796875,2.25 0.796875,0 1.46875,-0.609375 1.875,-1.09375 0.140625,0.859375 0.8125,1.09375 1.25,1.09375 0.421875,0 0.765625,-0.25 1.03125,-0.765625 C 6.75,-1.125 6.953125,-2 6.953125,-2.046875 6.953125,-2.125 6.90625,-2.1875 6.8125,-2.1875 c -0.125,0 -0.140625,0.078125 -0.203125,0.296875 -0.21875,0.84375 -0.484375,1.75 -1.078125,1.75 -0.40625,0 -0.4375,-0.375 -0.4375,-0.65625 0,-0.34375 0.046875,-0.5 0.171875,-1.046875 0.09375,-0.359375 0.171875,-0.6875 0.28125,-1.09375 0.53125,-2.15625 0.65625,-2.671875 0.65625,-2.75 0,-0.203125 -0.15625,-0.359375 -0.359375,-0.359375 -0.46875,0 -0.578125,0.5 -0.609375,0.671875 z m 0,0"
               id="id-ba3c34c2-9a7e-4ba1-88ac-177f19d31804" />
          </g>
          <g
             id="id-c2afd830-42e6-4349-9b69-ba575b6ff0c7" />
          <g
             id="id-96ed1e44-eed9-47ac-b89d-a500912f8ba2">
            <path
               d="m 4.65625,3.484375 c 0,-0.046875 0,-0.078125 -0.234375,-0.3125 -1.4375,-1.453125 -2.234375,-3.8125 -2.234375,-6.75 0,-2.78125 0.671875,-5.171875 2.328125,-6.859375 0.140625,-0.140625 0.140625,-0.15625 0.140625,-0.203125 0,-0.09375 -0.0625,-0.109375 -0.125,-0.109375 -0.1875,0 -1.359375,1.03125 -2.0625,2.4375 -0.734375,1.4375 -1.0625,2.984375 -1.0625,4.734375 0,1.28125 0.203125,2.984375 0.953125,4.53125 0.84375,1.71875 2.015625,2.640625 2.171875,2.640625 0.0625,0 0.125,-0.015625 0.125,-0.109375 z m 0,0"
               id="id-905f3cc4-ad5c-4f3c-93af-26e18c94872c" />
          </g>
          <g
             id="id-23ba134b-d3ff-4220-a29b-cb735dcc669f">
            <path
               d="M 4.046875,-3.578125 C 4.046875,-4.65625 3.90625,-6.4375 3.09375,-8.109375 2.25,-9.828125 1.078125,-10.75 0.921875,-10.75 c -0.0625,0 -0.140625,0.01563 -0.140625,0.109375 0,0.04687 0,0.0625 0.25,0.3125 1.4375,1.453125 2.234375,3.8125 2.234375,6.75 0,2.78125 -0.671875,5.171875 -2.328125,6.859375 -0.15625,0.125 -0.15625,0.15625 -0.15625,0.203125 0,0.09375 0.078125,0.109375 0.140625,0.109375 0.1875,0 1.359375,-1.03125 2.0625,-2.4375 0.734375,-1.453125 1.0625,-3 1.0625,-4.734375 z m 0,0"
               id="id-dcd2ae5d-5714-4681-a0ee-08ea9572e1d4" />
          </g>
        </g>
      </defs>
      <g
         fill="#000000"
         fill-opacity="1"
         id="id-e35fe037-0ba3-48a5-91ba-2991c0b1749c"
         transform="translate(-285.576,-56.134)">
        <g
           transform="translate(285.201,66.884)"
           id="g6631">
          <path
             d="m 2,-3.265625 c 0.453125,0.1875 0.9375,0.1875 1.21875,0.1875 0.359375,0 1.109375,0 1.109375,-0.421875 0,-0.265625 -0.265625,-0.359375 -1,-0.359375 -0.359375,0 -0.796875,0.046875 -1.296875,0.265625 -0.4375,-0.21875 -0.609375,-0.546875 -0.609375,-0.859375 0,-0.890625 1.40625,-1.40625 2.6875,-1.40625 0.234375,0 0.75,0 1.359375,0.4375 0.078125,0.0625 0.125,0.09375 0.21875,0.09375 0.171875,0 0.359375,-0.1875 0.359375,-0.359375 0,-0.25 -0.828125,-0.796875 -1.8125,-0.796875 -1.609375,0 -3.125,0.96875 -3.125,2.03125 0,0.515625 0.34375,0.859375 0.578125,1.03125 -0.828125,0.46875 -1.3125,1.234375 -1.3125,1.9375 0,1 0.890625,1.78125 2.265625,1.78125 1.890625,0 2.65625,-1.265625 2.65625,-1.453125 0,-0.078125 -0.0625,-0.140625 -0.140625,-0.140625 C 5.09375,-1.296875 5.0625,-1.25 5,-1.15625 4.84375,-0.890625 4.46875,-0.3125 2.765625,-0.3125 c -0.890625,0 -2.0625,-0.234375 -2.0625,-1.25 C 0.703125,-2.046875 1.0625,-2.78125 2,-3.265625 Z M 2.4375,-3.4375 c 0.390625,-0.140625 0.765625,-0.140625 0.859375,-0.140625 0.40625,0 0.46875,0.03125 0.703125,0.09375 C 3.765625,-3.375 3.734375,-3.375 3.21875,-3.375 c -0.265625,0 -0.5,0 -0.78125,-0.0625 z m 0,0"
             id="id-13413cd6-b015-4409-acf9-cad6863b5f78" />
        </g>
      </g>
      <g
         fill="#000000"
         fill-opacity="1"
         id="id-39e0313c-7158-4546-a20f-7966657ebd97"
         transform="translate(-285.576,-56.134)">
        <g
           transform="translate(291.775,66.884)"
           id="g6635">
          <path
             d="m 4.65625,3.484375 c 0,-0.046875 0,-0.078125 -0.234375,-0.3125 -1.4375,-1.453125 -2.234375,-3.8125 -2.234375,-6.75 0,-2.78125 0.671875,-5.171875 2.328125,-6.859375 0.140625,-0.140625 0.140625,-0.15625 0.140625,-0.203125 0,-0.09375 -0.0625,-0.109375 -0.125,-0.109375 -0.1875,0 -1.359375,1.03125 -2.0625,2.4375 -0.734375,1.4375 -1.0625,2.984375 -1.0625,4.734375 0,1.28125 0.203125,2.984375 0.953125,4.53125 0.84375,1.71875 2.015625,2.640625 2.171875,2.640625 0.0625,0 0.125,-0.015625 0.125,-0.109375 z m 0,0"
             id="id-c5de4f69-710a-4aca-abbc-b95f1241c60a" />
        </g>
      </g>
      <g
         fill="#000000"
         fill-opacity="1"
         id="id-69ec452b-f80a-417d-973a-acae52a5c5eb"
         transform="translate(-285.576,-56.134)">
        <g
           transform="translate(297.238,66.884)"
           id="g6639">
          <path
             d="M 4.3125,-1.703125 C 4.25,-1.46875 4.25,-1.4375 4.046875,-1.15625 c -0.3125,0.390625 -0.953125,1.015625 -1.625,1.015625 -0.578125,0 -0.921875,-0.53125 -0.921875,-1.375 0,-0.796875 0.453125,-2.40625 0.71875,-3 0.5,-1 1.171875,-1.515625 1.71875,-1.515625 0.953125,0 1.140625,1.171875 1.140625,1.28125 0,0.015625 -0.046875,0.203125 -0.0625,0.234375 z M 5.234375,-5.375 C 5.078125,-5.75 4.6875,-6.328125 3.9375,-6.328125 c -1.609375,0 -3.359375,2.09375 -3.359375,4.21875 0,1.421875 0.828125,2.25 1.796875,2.25 0.796875,0 1.46875,-0.609375 1.875,-1.09375 0.140625,0.859375 0.8125,1.09375 1.25,1.09375 0.421875,0 0.765625,-0.25 1.03125,-0.765625 C 6.75,-1.125 6.953125,-2 6.953125,-2.046875 6.953125,-2.125 6.90625,-2.1875 6.8125,-2.1875 c -0.125,0 -0.140625,0.078125 -0.203125,0.296875 -0.21875,0.84375 -0.484375,1.75 -1.078125,1.75 -0.40625,0 -0.4375,-0.375 -0.4375,-0.65625 0,-0.34375 0.046875,-0.5 0.171875,-1.046875 0.09375,-0.359375 0.171875,-0.6875 0.28125,-1.09375 0.53125,-2.15625 0.65625,-2.671875 0.65625,-2.75 0,-0.203125 -0.15625,-0.359375 -0.359375,-0.359375 -0.46875,0 -0.578125,0.5 -0.609375,0.671875 z m 0,0"
             id="id-d7d4323e-0e2c-4b41-870a-3383570446b4" />
        </g>
      </g>
      <g
         fill="#000000"
         fill-opacity="1"
         id="id-9fddef53-313d-4e15-b2f3-43d6cfb14623"
         transform="translate(-285.576,-56.134)">
        <g
           transform="translate(304.612,66.884)"
           id="g6643">
          <path
             d="M 4.046875,-3.578125 C 4.046875,-4.65625 3.90625,-6.4375 3.09375,-8.109375 2.25,-9.828125 1.078125,-10.75 0.921875,-10.75 c -0.0625,0 -0.140625,0.01563 -0.140625,0.109375 0,0.04687 0,0.0625 0.25,0.3125 1.4375,1.453125 2.234375,3.8125 2.234375,6.75 0,2.78125 -0.671875,5.171875 -2.328125,6.859375 -0.15625,0.125 -0.15625,0.15625 -0.15625,0.203125 0,0.09375 0.078125,0.109375 0.140625,0.109375 0.1875,0 1.359375,-1.03125 2.0625,-2.4375 0.734375,-1.453125 1.0625,-3 1.0625,-4.734375 z m 0,0"
             id="id-541d58f2-5b31-4b07-821c-3f05730809c4" />
        </g>
      </g>
    </g>
  </g>
</svg>
