<?xml version="1.0" encoding="UTF-8" standalone="no"?>
<!-- Created with Inkscape (http://www.inkscape.org/) -->

<svg
   width="240mm"
   height="120mm"
   viewBox="0 0 240 120"
   version="1.1"
   id="svg8"
   inkscape:version="1.2.2 (b0a8486541, 2022-12-01)"
   sodipodi:docname="montel_theorem_location_of_points.svg"
   xmlns:inkscape="http://www.inkscape.org/namespaces/inkscape"
   xmlns:sodipodi="http://sodipodi.sourceforge.net/DTD/sodipodi-0.dtd"
   xmlns="http://www.w3.org/2000/svg"
   xmlns:svg="http://www.w3.org/2000/svg"
   xmlns:rdf="http://www.w3.org/1999/02/22-rdf-syntax-ns#"
   xmlns:cc="http://creativecommons.org/ns#"
   xmlns:dc="http://purl.org/dc/elements/1.1/"
   xmlns:ns1="http://www.iki.fi/pav/software/textext/">
  <defs
     id="defs2" />
  <sodipodi:namedview
     id="base"
     pagecolor="#ffffff"
     bordercolor="#666666"
     borderopacity="1.0"
     inkscape:pageopacity="0.0"
     inkscape:pageshadow="2"
     inkscape:zoom="5.6585707"
     inkscape:cx="492.5272"
     inkscape:cy="147.74049"
     inkscape:document-units="mm"
     inkscape:current-layer="layer1"
     showgrid="false"
     showborder="true"
     width="200mm"
     showguides="true"
     inkscape:guide-bbox="true"
     inkscape:window-width="2560"
     inkscape:window-height="1417"
     inkscape:window-x="0"
     inkscape:window-y="0"
     inkscape:window-maximized="1"
     inkscape:showpageshadow="2"
     inkscape:pagecheckerboard="0"
     inkscape:deskcolor="#d1d1d1">
    <inkscape:grid
       type="xygrid"
       id="grid815"
       units="mm"
       spacingx="10"
       spacingy="10"
       empspacing="4"
       dotted="false" />
  </sodipodi:namedview>
  <metadata
     id="metadata5">
    <rdf:RDF>
      <cc:Work
         rdf:about="">
        <dc:format>image/svg+xml</dc:format>
        <dc:type
           rdf:resource="http://purl.org/dc/dcmitype/StillImage" />
        <dc:title />
      </cc:Work>
    </rdf:RDF>
  </metadata>
  <g
     inkscape:label="Layer 1"
     inkscape:groupmode="layer"
     id="layer1"
     transform="translate(0, -177)">
    <ellipse
       style="fill:#808080;fill-opacity:0;fill-rule:evenodd;stroke:#000000;stroke-width:0.410001;stroke-dasharray:none;paint-order:markers stroke fill"
       id="path183"
       cx="127.16862"
       cy="232.99269"
       rx="42.876472"
       ry="40.505486" />
    <ellipse
       style="fill:#000000;fill-opacity:1;fill-rule:evenodd;stroke:#000000;stroke-width:0.410001;stroke-dasharray:none;paint-order:markers stroke fill"
       id="path1623"
       cx="127.16862"
       cy="232.99269"
       rx="0.92384511"
       ry="0.87275827" />
    <ellipse
       style="fill:#808080;fill-opacity:0;fill-rule:evenodd;stroke:#000000;stroke-width:0.410001;stroke-dasharray:none;paint-order:markers stroke fill"
       id="circle3337"
       cx="127.16862"
       cy="232.99269"
       rx="28.584314"
       ry="27.003658" />
    <g
       transform="matrix(0.52436327,0,0,0.49536696,131.04686,230.02816)"
       ns1:version="1.8.2"
       ns1:texconverter="pdflatex"
       ns1:pdfconverter="inkscape"
       ns1:text="$$a$$"
       ns1:preamble="/home/buyolitsez/.config/inkscape/extensions/textext/default_packages.tex"
       ns1:scale="1.3"
       ns1:alignment="middle center"
       ns1:stroke-to-path="0"
       ns1:inkscapeversion="0.92.4"
       ns1:jacobian_sqrt="0.458611"
       id="g4206"
       style="stroke-width:0.899839">
      <defs
         id="id-cddeec87-7d2a-4918-8dd8-62d189e32e49">
        <g
           id="id-2f9f9e15-d8f9-4648-b1da-6338ac46c15f">
          <g
             id="id-2406c498-676c-4787-8941-e0178a617948" />
          <g
             id="id-e8b71144-76b1-4596-bac6-856706e3cb67">
            <path
               d="M 4.3125,-1.703125 C 4.25,-1.46875 4.25,-1.4375 4.046875,-1.15625 c -0.3125,0.390625 -0.953125,1.015625 -1.625,1.015625 -0.578125,0 -0.921875,-0.53125 -0.921875,-1.375 0,-0.796875 0.453125,-2.40625 0.71875,-3 0.5,-1 1.171875,-1.515625 1.71875,-1.515625 0.953125,0 1.140625,1.171875 1.140625,1.28125 0,0.015625 -0.046875,0.203125 -0.0625,0.234375 z M 5.234375,-5.375 C 5.078125,-5.75 4.6875,-6.328125 3.9375,-6.328125 c -1.609375,0 -3.359375,2.09375 -3.359375,4.21875 0,1.421875 0.828125,2.25 1.796875,2.25 0.796875,0 1.46875,-0.609375 1.875,-1.09375 0.140625,0.859375 0.8125,1.09375 1.25,1.09375 0.421875,0 0.765625,-0.25 1.03125,-0.765625 C 6.75,-1.125 6.953125,-2 6.953125,-2.046875 6.953125,-2.125 6.90625,-2.1875 6.8125,-2.1875 c -0.125,0 -0.140625,0.078125 -0.203125,0.296875 -0.21875,0.84375 -0.484375,1.75 -1.078125,1.75 -0.40625,0 -0.4375,-0.375 -0.4375,-0.65625 0,-0.34375 0.046875,-0.5 0.171875,-1.046875 0.09375,-0.359375 0.171875,-0.6875 0.28125,-1.09375 0.53125,-2.15625 0.65625,-2.671875 0.65625,-2.75 0,-0.203125 -0.15625,-0.359375 -0.359375,-0.359375 -0.46875,0 -0.578125,0.5 -0.609375,0.671875 z m 0,0"
               id="id-723a43be-2658-4d35-ab97-3680014474cd" />
          </g>
        </g>
      </defs>
      <g
         fill="#000000"
         fill-opacity="1"
         id="id-9f7cb41e-3b87-4c09-80a8-383c23ed3f8a"
         transform="translate(-294.529,-60.5559)"
         style="stroke-width:0.80971">
        <g
           transform="translate(293.951,66.884)"
           id="g4203"
           style="stroke-width:0.899839">
          <path
             d="M 4.3125,-1.703125 C 4.25,-1.46875 4.25,-1.4375 4.046875,-1.15625 c -0.3125,0.390625 -0.953125,1.015625 -1.625,1.015625 -0.578125,0 -0.921875,-0.53125 -0.921875,-1.375 0,-0.796875 0.453125,-2.40625 0.71875,-3 0.5,-1 1.171875,-1.515625 1.71875,-1.515625 0.953125,0 1.140625,1.171875 1.140625,1.28125 0,0.015625 -0.046875,0.203125 -0.0625,0.234375 z M 5.234375,-5.375 C 5.078125,-5.75 4.6875,-6.328125 3.9375,-6.328125 c -1.609375,0 -3.359375,2.09375 -3.359375,4.21875 0,1.421875 0.828125,2.25 1.796875,2.25 0.796875,0 1.46875,-0.609375 1.875,-1.09375 0.140625,0.859375 0.8125,1.09375 1.25,1.09375 0.421875,0 0.765625,-0.25 1.03125,-0.765625 C 6.75,-1.125 6.953125,-2 6.953125,-2.046875 6.953125,-2.125 6.90625,-2.1875 6.8125,-2.1875 c -0.125,0 -0.140625,0.078125 -0.203125,0.296875 -0.21875,0.84375 -0.484375,1.75 -1.078125,1.75 -0.40625,0 -0.4375,-0.375 -0.4375,-0.65625 0,-0.34375 0.046875,-0.5 0.171875,-1.046875 0.09375,-0.359375 0.171875,-0.6875 0.28125,-1.09375 0.53125,-2.15625 0.65625,-2.671875 0.65625,-2.75 0,-0.203125 -0.15625,-0.359375 -0.359375,-0.359375 -0.46875,0 -0.578125,0.5 -0.609375,0.671875 z m 0,0"
             id="id-a145b73c-8c33-491f-8b21-7964bb661587"
             style="stroke-width:0.899839" />
        </g>
      </g>
    </g>
    <g
       transform="matrix(0.52436327,0,0,0.49536696,153.62708,215.24435)"
       ns1:version="1.8.2"
       ns1:texconverter="pdflatex"
       ns1:pdfconverter="inkscape"
       ns1:text="$$w$$"
       ns1:preamble="/home/buyolitsez/.config/inkscape/extensions/textext/default_packages.tex"
       ns1:scale="1.3"
       ns1:alignment="middle center"
       ns1:stroke-to-path="0"
       ns1:inkscapeversion="0.92.4"
       ns1:jacobian_sqrt="0.458611"
       id="g4993"
       style="stroke-width:0.899839">
      <defs
         id="id-aa64b1b6-4d55-4f75-9385-ee91773df910">
        <g
           id="id-68646c61-6a53-45dd-b842-71014db1b2b4">
          <g
             id="id-6d2369df-9958-4e77-a50d-b9c54147588a" />
          <g
             id="id-8b15dfb3-dbb9-4559-a2b3-6ad275ab885e">
            <path
               d="m 4.9375,-0.875 c 0.3125,0.859375 1.203125,1.015625 1.75,1.015625 1.09375,0 1.734375,-0.9375 2.140625,-1.9375 C 9.15625,-2.625 9.6875,-4.515625 9.6875,-5.359375 c 0,-0.875 -0.453125,-0.96875 -0.578125,-0.96875 -0.34375,0 -0.65625,0.34375 -0.65625,0.640625 0,0.171875 0.09375,0.265625 0.171875,0.328125 0.125,0.125 0.5,0.515625 0.5,1.25 0,0.5 -0.40625,1.84375 -0.703125,2.515625 -0.40625,0.875 -0.9375,1.453125 -1.6875,1.453125 C 5.9375,-0.140625 5.6875,-0.75 5.6875,-1.40625 c 0,-0.421875 0.125,-0.921875 0.171875,-1.15625 L 6.46875,-4.984375 c 0.078125,-0.28125 0.203125,-0.78125 0.203125,-0.84375 C 6.671875,-6.03125 6.5,-6.1875 6.28125,-6.1875 c -0.421875,0 -0.515625,0.359375 -0.59375,0.703125 -0.15625,0.5625 -0.75,2.984375 -0.8125,3.296875 -0.0625,0.25 -0.0625,0.40625 -0.0625,0.71875 0,0.34375 -0.453125,0.890625 -0.46875,0.921875 -0.15625,0.15625 -0.390625,0.40625 -0.828125,0.40625 C 2.375,-0.140625 2.375,-1.21875 2.375,-1.46875 c 0,-0.453125 0.109375,-1.078125 0.75,-2.796875 0.171875,-0.4375 0.25,-0.625 0.25,-0.90625 0,-0.609375 -0.4375,-1.15625 -1.140625,-1.15625 -1.3125,0 -1.84375,2.078125 -1.84375,2.203125 0,0.046875 0.046875,0.125 0.15625,0.125 0.125,0 0.140625,-0.0625 0.203125,-0.265625 0.359375,-1.25 0.90625,-1.765625 1.4375,-1.765625 0.15625,0 0.375,0 0.375,0.46875 0,0.0625 0,0.375 -0.234375,1 C 1.65625,-2.765625 1.5,-2.1875 1.5,-1.640625 c 0,1.515625 1.234375,1.78125 1.96875,1.78125 0.25,0 0.890625,0 1.46875,-1.015625 z m 0,0"
               id="id-ca19df09-57fd-4f03-a0ac-163934a16f59" />
          </g>
        </g>
      </defs>
      <g
         fill="#000000"
         fill-opacity="1"
         id="id-d4b34b94-9a54-4c12-9111-ef7c0eaecea7"
         transform="translate(-292.815,-60.5559)"
         style="stroke-width:0.80971">
        <g
           transform="translate(292.424,66.884)"
           id="g4990"
           style="stroke-width:0.899839">
          <path
             d="m 4.9375,-0.875 c 0.3125,0.859375 1.203125,1.015625 1.75,1.015625 1.09375,0 1.734375,-0.9375 2.140625,-1.9375 C 9.15625,-2.625 9.6875,-4.515625 9.6875,-5.359375 c 0,-0.875 -0.453125,-0.96875 -0.578125,-0.96875 -0.34375,0 -0.65625,0.34375 -0.65625,0.640625 0,0.171875 0.09375,0.265625 0.171875,0.328125 0.125,0.125 0.5,0.515625 0.5,1.25 0,0.5 -0.40625,1.84375 -0.703125,2.515625 -0.40625,0.875 -0.9375,1.453125 -1.6875,1.453125 C 5.9375,-0.140625 5.6875,-0.75 5.6875,-1.40625 c 0,-0.421875 0.125,-0.921875 0.171875,-1.15625 L 6.46875,-4.984375 c 0.078125,-0.28125 0.203125,-0.78125 0.203125,-0.84375 C 6.671875,-6.03125 6.5,-6.1875 6.28125,-6.1875 c -0.421875,0 -0.515625,0.359375 -0.59375,0.703125 -0.15625,0.5625 -0.75,2.984375 -0.8125,3.296875 -0.0625,0.25 -0.0625,0.40625 -0.0625,0.71875 0,0.34375 -0.453125,0.890625 -0.46875,0.921875 -0.15625,0.15625 -0.390625,0.40625 -0.828125,0.40625 C 2.375,-0.140625 2.375,-1.21875 2.375,-1.46875 c 0,-0.453125 0.109375,-1.078125 0.75,-2.796875 0.171875,-0.4375 0.25,-0.625 0.25,-0.90625 0,-0.609375 -0.4375,-1.15625 -1.140625,-1.15625 -1.3125,0 -1.84375,2.078125 -1.84375,2.203125 0,0.046875 0.046875,0.125 0.15625,0.125 0.125,0 0.140625,-0.0625 0.203125,-0.265625 0.359375,-1.25 0.90625,-1.765625 1.4375,-1.765625 0.15625,0 0.375,0 0.375,0.46875 0,0.0625 0,0.375 -0.234375,1 C 1.65625,-2.765625 1.5,-2.1875 1.5,-1.640625 c 0,1.515625 1.234375,1.78125 1.96875,1.78125 0.25,0 0.890625,0 1.46875,-1.015625 z m 0,0"
             id="id-a110e737-db69-4d3b-8850-5d9ead47fde6"
             style="stroke-width:0.899839" />
        </g>
      </g>
    </g>
    <ellipse
       style="fill:#000000;fill-opacity:1;fill-rule:evenodd;stroke:#000000;stroke-width:0.410001;stroke-dasharray:none;paint-order:markers stroke fill"
       id="circle5007"
       cx="151.97165"
       cy="219.12555"
       rx="0.92384511"
       ry="0.87275827" />
    <g
       transform="matrix(0.52436327,0,0,0.49536696,164.44003,206.21941)"
       ns1:version="1.8.2"
       ns1:texconverter="pdflatex"
       ns1:pdfconverter="inkscape"
       ns1:text="$$z$$"
       ns1:preamble="/home/buyolitsez/.config/inkscape/extensions/textext/default_packages.tex"
       ns1:scale="1.3"
       ns1:alignment="middle center"
       ns1:stroke-to-path="0"
       ns1:inkscapeversion="0.92.4"
       ns1:jacobian_sqrt="0.458611"
       id="g6524"
       style="stroke-width:0.899839">
      <defs
         id="id-85266097-cd2b-4df1-b4a0-d0f8ebe2ff01">
        <g
           id="id-2b79b517-9045-4eec-99ed-716630e2a34d">
          <g
             id="id-9209c2ea-36ea-4316-bd42-aa90dcb47943" />
          <g
             id="id-980b8c00-4ccd-4e73-b69e-ce747f771e87">
            <path
               d="M 1.828125,-1.15625 C 2.4375,-1.859375 2.9375,-2.3125 3.65625,-2.953125 c 0.859375,-0.75 1.234375,-1.109375 1.4375,-1.328125 1,-0.984375 1.5,-1.8125 1.5,-1.921875 0,-0.125 -0.109375,-0.125 -0.140625,-0.125 -0.09375,0 -0.125,0.0625 -0.203125,0.15625 C 5.890625,-5.546875 5.546875,-5.25 5.171875,-5.25 4.875,-5.25 4.71875,-5.375 4.453125,-5.71875 4.140625,-6.078125 3.90625,-6.328125 3.484375,-6.328125 c -1.046875,0 -1.671875,1.3125 -1.671875,1.609375 0,0.046875 0.015625,0.125 0.140625,0.125 0.109375,0 0.125,-0.046875 0.171875,-0.15625 0.234375,-0.578125 0.9375,-0.671875 1.203125,-0.671875 0.296875,0 0.59375,0.09375 0.890625,0.234375 0.546875,0.21875 0.765625,0.21875 0.921875,0.21875 0.09375,0 0.15625,0 0.21875,-0.015625 -0.46875,0.5625 -1.25,1.25 -1.890625,1.84375 L 2.015625,-1.8125 c -0.875,0.890625 -1.40625,1.734375 -1.40625,1.84375 0,0.078125 0.078125,0.109375 0.171875,0.109375 0.078125,0 0.09375,-0.015625 0.1875,-0.1875 C 1.203125,-0.40625 1.65625,-0.9375 2.1875,-0.9375 c 0.3125,0 0.453125,0.109375 0.734375,0.46875 0.28125,0.3125 0.515625,0.609375 0.984375,0.609375 1.40625,0 2.203125,-1.8125 2.203125,-2.15625 0,-0.046875 -0.015625,-0.140625 -0.15625,-0.140625 -0.109375,0 -0.125,0.0625 -0.171875,0.203125 -0.3125,0.84375 -1.15625,1.1875 -1.71875,1.1875 -0.296875,0 -0.59375,-0.09375 -0.890625,-0.21875 C 2.59375,-1.21875 2.4375,-1.21875 2.25,-1.21875 c -0.140625,0 -0.296875,0 -0.421875,0.0625 z m 0,0"
               id="id-51151aa7-f146-4947-8c93-170793e3e3de" />
          </g>
        </g>
      </defs>
      <g
         fill="#000000"
         fill-opacity="1"
         id="id-e1685944-31ed-4f4c-91e7-e7dd0cbf3c99"
         transform="translate(-294.664,-60.5559)"
         style="stroke-width:0.80971">
        <g
           transform="translate(294.055,66.884)"
           id="g6521"
           style="stroke-width:0.899839">
          <path
             d="M 1.828125,-1.15625 C 2.4375,-1.859375 2.9375,-2.3125 3.65625,-2.953125 c 0.859375,-0.75 1.234375,-1.109375 1.4375,-1.328125 1,-0.984375 1.5,-1.8125 1.5,-1.921875 0,-0.125 -0.109375,-0.125 -0.140625,-0.125 -0.09375,0 -0.125,0.0625 -0.203125,0.15625 C 5.890625,-5.546875 5.546875,-5.25 5.171875,-5.25 4.875,-5.25 4.71875,-5.375 4.453125,-5.71875 4.140625,-6.078125 3.90625,-6.328125 3.484375,-6.328125 c -1.046875,0 -1.671875,1.3125 -1.671875,1.609375 0,0.046875 0.015625,0.125 0.140625,0.125 0.109375,0 0.125,-0.046875 0.171875,-0.15625 0.234375,-0.578125 0.9375,-0.671875 1.203125,-0.671875 0.296875,0 0.59375,0.09375 0.890625,0.234375 0.546875,0.21875 0.765625,0.21875 0.921875,0.21875 0.09375,0 0.15625,0 0.21875,-0.015625 -0.46875,0.5625 -1.25,1.25 -1.890625,1.84375 L 2.015625,-1.8125 c -0.875,0.890625 -1.40625,1.734375 -1.40625,1.84375 0,0.078125 0.078125,0.109375 0.171875,0.109375 0.078125,0 0.09375,-0.015625 0.1875,-0.1875 C 1.203125,-0.40625 1.65625,-0.9375 2.1875,-0.9375 c 0.3125,0 0.453125,0.109375 0.734375,0.46875 0.28125,0.3125 0.515625,0.609375 0.984375,0.609375 1.40625,0 2.203125,-1.8125 2.203125,-2.15625 0,-0.046875 -0.015625,-0.140625 -0.15625,-0.140625 -0.109375,0 -0.125,0.0625 -0.171875,0.203125 -0.3125,0.84375 -1.15625,1.1875 -1.71875,1.1875 -0.296875,0 -0.59375,-0.09375 -0.890625,-0.21875 C 2.59375,-1.21875 2.4375,-1.21875 2.25,-1.21875 c -0.140625,0 -0.296875,0 -0.421875,0.0625 z m 0,0"
             id="id-732dc1f6-e254-4ff3-9e11-a6f01fb5f7f4"
             style="stroke-width:0.899839" />
        </g>
      </g>
    </g>
    <ellipse
       style="fill:#000000;fill-opacity:1;fill-rule:evenodd;stroke:#000000;stroke-width:0.410001;stroke-dasharray:none;paint-order:markers stroke fill"
       id="circle6538"
       cx="162.95363"
       cy="211.12363"
       rx="0.92384511"
       ry="0.87275827" />
    <ellipse
       style="fill:#808080;fill-opacity:0;fill-rule:evenodd;stroke:#000000;stroke-width:0.410001;stroke-dasharray:none;paint-order:markers stroke fill"
       id="circle6540"
       cx="127.16862"
       cy="232.99269"
       rx="57.168629"
       ry="54.007317" />
    <path
       style="fill:#ffffff;fill-opacity:0;fill-rule:evenodd;stroke:#000000;stroke-width:0.408001;stroke-dasharray:0.408001, 0.408001;stroke-dashoffset:0;paint-order:stroke fill markers"
       d="M 127.21978,232.97955 V 179.03262"
       id="path453" />
    <g
       transform="matrix(0.38185712,0,0,0.36074114,128.18785,180.92293)"
       ns1:version="1.8.2"
       ns1:texconverter="pdflatex"
       ns1:pdfconverter="inkscape"
       ns1:text="$$\\frac {\\eps(a)} 4$$"
       ns1:preamble="/home/buyolitsez/.config/inkscape/extensions/textext/default_packages.tex"
       ns1:scale="1.3"
       ns1:alignment="middle center"
       ns1:stroke-to-path="0"
       ns1:inkscapeversion="1.2.2"
       ns1:jacobian_sqrt="0.458611"
       id="g6646"
       style="stroke-width:1.23565">
      <defs
         id="id-ab13e70a-771e-457f-a3a0-90e18f26e39e">
        <g
           id="id-42e7273a-3c60-4707-8972-2466a52f1c57">
          <g
             id="id-7cbb1339-b808-4574-bd9b-17a77c531a1e" />
          <g
             id="id-b80e4146-4425-4ba3-81d9-1c5d0ccfddcc">
            <path
               d="m 2,-3.265625 c 0.453125,0.1875 0.9375,0.1875 1.21875,0.1875 0.359375,0 1.109375,0 1.109375,-0.421875 0,-0.265625 -0.265625,-0.359375 -1,-0.359375 -0.359375,0 -0.796875,0.046875 -1.296875,0.265625 -0.4375,-0.21875 -0.609375,-0.546875 -0.609375,-0.859375 0,-0.890625 1.40625,-1.40625 2.6875,-1.40625 0.234375,0 0.75,0 1.359375,0.4375 0.078125,0.0625 0.125,0.09375 0.21875,0.09375 0.171875,0 0.359375,-0.1875 0.359375,-0.359375 0,-0.25 -0.828125,-0.796875 -1.8125,-0.796875 -1.609375,0 -3.125,0.96875 -3.125,2.03125 0,0.515625 0.34375,0.859375 0.578125,1.03125 -0.828125,0.46875 -1.3125,1.234375 -1.3125,1.9375 0,1 0.890625,1.78125 2.265625,1.78125 1.890625,0 2.65625,-1.265625 2.65625,-1.453125 0,-0.078125 -0.0625,-0.140625 -0.140625,-0.140625 C 5.09375,-1.296875 5.0625,-1.25 5,-1.15625 4.84375,-0.890625 4.46875,-0.3125 2.765625,-0.3125 c -0.890625,0 -2.0625,-0.234375 -2.0625,-1.25 C 0.703125,-2.046875 1.0625,-2.78125 2,-3.265625 Z M 2.4375,-3.4375 c 0.390625,-0.140625 0.765625,-0.140625 0.859375,-0.140625 0.40625,0 0.46875,0.03125 0.703125,0.09375 C 3.765625,-3.375 3.734375,-3.375 3.21875,-3.375 c -0.265625,0 -0.5,0 -0.78125,-0.0625 z m 0,0"
               id="id-e0078ee2-58f3-4291-8962-5d240a27dce8" />
          </g>
          <g
             id="id-5fadf2b1-e021-48be-ba8c-45da8a62b5e7">
            <path
               d="M 4.3125,-1.703125 C 4.25,-1.46875 4.25,-1.4375 4.046875,-1.15625 c -0.3125,0.390625 -0.953125,1.015625 -1.625,1.015625 -0.578125,0 -0.921875,-0.53125 -0.921875,-1.375 0,-0.796875 0.453125,-2.40625 0.71875,-3 0.5,-1 1.171875,-1.515625 1.71875,-1.515625 0.953125,0 1.140625,1.171875 1.140625,1.28125 0,0.015625 -0.046875,0.203125 -0.0625,0.234375 z M 5.234375,-5.375 C 5.078125,-5.75 4.6875,-6.328125 3.9375,-6.328125 c -1.609375,0 -3.359375,2.09375 -3.359375,4.21875 0,1.421875 0.828125,2.25 1.796875,2.25 0.796875,0 1.46875,-0.609375 1.875,-1.09375 0.140625,0.859375 0.8125,1.09375 1.25,1.09375 0.421875,0 0.765625,-0.25 1.03125,-0.765625 C 6.75,-1.125 6.953125,-2 6.953125,-2.046875 6.953125,-2.125 6.90625,-2.1875 6.8125,-2.1875 c -0.125,0 -0.140625,0.078125 -0.203125,0.296875 -0.21875,0.84375 -0.484375,1.75 -1.078125,1.75 -0.40625,0 -0.4375,-0.375 -0.4375,-0.65625 0,-0.34375 0.046875,-0.5 0.171875,-1.046875 0.09375,-0.359375 0.171875,-0.6875 0.28125,-1.09375 0.53125,-2.15625 0.65625,-2.671875 0.65625,-2.75 0,-0.203125 -0.15625,-0.359375 -0.359375,-0.359375 -0.46875,0 -0.578125,0.5 -0.609375,0.671875 z m 0,0"
               id="id-e5d284c0-b452-4fc9-b75f-98183e525a50" />
          </g>
          <g
             id="id-036cb643-ac5e-46cf-ae0a-7c8d8e950797" />
          <g
             id="id-dbf7703b-a8bf-4210-806a-f7d0179b005d">
            <path
               d="m 4.65625,3.484375 c 0,-0.046875 0,-0.078125 -0.234375,-0.3125 -1.4375,-1.453125 -2.234375,-3.8125 -2.234375,-6.75 0,-2.78125 0.671875,-5.171875 2.328125,-6.859375 0.140625,-0.140625 0.140625,-0.15625 0.140625,-0.203125 0,-0.09375 -0.0625,-0.109375 -0.125,-0.109375 -0.1875,0 -1.359375,1.03125 -2.0625,2.4375 -0.734375,1.4375 -1.0625,2.984375 -1.0625,4.734375 0,1.28125 0.203125,2.984375 0.953125,4.53125 0.84375,1.71875 2.015625,2.640625 2.171875,2.640625 0.0625,0 0.125,-0.015625 0.125,-0.109375 z m 0,0"
               id="id-697e921d-b8a1-4219-8b78-12de32f19bbf" />
          </g>
          <g
             id="id-2f7c2ee0-e092-4104-8592-86e12f4b0d2f">
            <path
               d="M 4.046875,-3.578125 C 4.046875,-4.65625 3.90625,-6.4375 3.09375,-8.109375 2.25,-9.828125 1.078125,-10.75 0.921875,-10.75 c -0.0625,0 -0.140625,0.01563 -0.140625,0.109375 0,0.04687 0,0.0625 0.25,0.3125 1.4375,1.453125 2.234375,3.8125 2.234375,6.75 0,2.78125 -0.671875,5.171875 -2.328125,6.859375 -0.15625,0.125 -0.15625,0.15625 -0.15625,0.203125 0,0.09375 0.078125,0.109375 0.140625,0.109375 0.1875,0 1.359375,-1.03125 2.0625,-2.4375 0.734375,-1.453125 1.0625,-3 1.0625,-4.734375 z m 0,0"
               id="id-5b9dd1ab-fde4-4c42-a023-6aeebbc16f52" />
          </g>
          <g
             id="id-a5cbf804-26d4-4c16-81c2-2ea8f12b85c8">
            <path
               d="m 5.171875,-9.34375 c 0,-0.265625 0,-0.34375 -0.1875,-0.34375 -0.125,0 -0.171875,0 -0.28125,0.171875 l -4.3125,6.703125 v 0.421875 H 4.15625 v 1.296875 c 0,0.53125 -0.03125,0.671875 -1.078125,0.671875 H 2.796875 V 0 C 3.125,-0.03125 4.265625,-0.03125 4.65625,-0.03125 c 0.40625,0 1.546875,0 1.890625,0.03125 V -0.421875 H 6.25 c -1.03125,0 -1.078125,-0.140625 -1.078125,-0.671875 V -2.390625 H 6.625 V -2.8125 H 5.171875 Z m -0.9375,1.125 V -2.8125 H 0.75 Z m 0,0"
               id="id-86e1b701-1a87-41f1-bc8e-081aa8179441" />
          </g>
        </g>
      </defs>
      <g
         fill="#000000"
         fill-opacity="1"
         id="id-0bb4001c-8cb8-4c81-9ae0-36cc47d7eacf"
         transform="translate(-285.199,-50.954)"
         style="stroke-width:1.11189">
        <g
           transform="translate(285.201,61.704)"
           id="g1127"
           style="stroke-width:1.23565">
          <path
             d="m 2,-3.265625 c 0.453125,0.1875 0.9375,0.1875 1.21875,0.1875 0.359375,0 1.109375,0 1.109375,-0.421875 0,-0.265625 -0.265625,-0.359375 -1,-0.359375 -0.359375,0 -0.796875,0.046875 -1.296875,0.265625 -0.4375,-0.21875 -0.609375,-0.546875 -0.609375,-0.859375 0,-0.890625 1.40625,-1.40625 2.6875,-1.40625 0.234375,0 0.75,0 1.359375,0.4375 0.078125,0.0625 0.125,0.09375 0.21875,0.09375 0.171875,0 0.359375,-0.1875 0.359375,-0.359375 0,-0.25 -0.828125,-0.796875 -1.8125,-0.796875 -1.609375,0 -3.125,0.96875 -3.125,2.03125 0,0.515625 0.34375,0.859375 0.578125,1.03125 -0.828125,0.46875 -1.3125,1.234375 -1.3125,1.9375 0,1 0.890625,1.78125 2.265625,1.78125 1.890625,0 2.65625,-1.265625 2.65625,-1.453125 0,-0.078125 -0.0625,-0.140625 -0.140625,-0.140625 C 5.09375,-1.296875 5.0625,-1.25 5,-1.15625 4.84375,-0.890625 4.46875,-0.3125 2.765625,-0.3125 c -0.890625,0 -2.0625,-0.234375 -2.0625,-1.25 C 0.703125,-2.046875 1.0625,-2.78125 2,-3.265625 Z M 2.4375,-3.4375 c 0.390625,-0.140625 0.765625,-0.140625 0.859375,-0.140625 0.40625,0 0.46875,0.03125 0.703125,0.09375 C 3.765625,-3.375 3.734375,-3.375 3.21875,-3.375 c -0.265625,0 -0.5,0 -0.78125,-0.0625 z m 0,0"
             id="id-baf4d5ea-4d0d-4a45-8ca4-cf8dbda243c3"
             style="stroke-width:1.23565" />
        </g>
      </g>
      <g
         fill="#000000"
         fill-opacity="1"
         id="id-ffaccc59-5d47-4a1d-ae94-2b202cfcf054"
         transform="translate(-285.199,-50.954)"
         style="stroke-width:1.11189">
        <g
           transform="translate(291.775,61.704)"
           id="g1131"
           style="stroke-width:1.23565">
          <path
             d="m 4.65625,3.484375 c 0,-0.046875 0,-0.078125 -0.234375,-0.3125 -1.4375,-1.453125 -2.234375,-3.8125 -2.234375,-6.75 0,-2.78125 0.671875,-5.171875 2.328125,-6.859375 0.140625,-0.140625 0.140625,-0.15625 0.140625,-0.203125 0,-0.09375 -0.0625,-0.109375 -0.125,-0.109375 -0.1875,0 -1.359375,1.03125 -2.0625,2.4375 -0.734375,1.4375 -1.0625,2.984375 -1.0625,4.734375 0,1.28125 0.203125,2.984375 0.953125,4.53125 0.84375,1.71875 2.015625,2.640625 2.171875,2.640625 0.0625,0 0.125,-0.015625 0.125,-0.109375 z m 0,0"
             id="id-ef71a48f-f58b-4744-9c8c-aa9fb1ed2cfd"
             style="stroke-width:1.23565" />
        </g>
      </g>
      <g
         fill="#000000"
         fill-opacity="1"
         id="id-bfe8fe61-82d7-4c26-8372-28d7a33a83fb"
         transform="translate(-285.199,-50.954)"
         style="stroke-width:1.11189">
        <g
           transform="translate(297.238,61.704)"
           id="g1135"
           style="stroke-width:1.23565">
          <path
             d="M 4.3125,-1.703125 C 4.25,-1.46875 4.25,-1.4375 4.046875,-1.15625 c -0.3125,0.390625 -0.953125,1.015625 -1.625,1.015625 -0.578125,0 -0.921875,-0.53125 -0.921875,-1.375 0,-0.796875 0.453125,-2.40625 0.71875,-3 0.5,-1 1.171875,-1.515625 1.71875,-1.515625 0.953125,0 1.140625,1.171875 1.140625,1.28125 0,0.015625 -0.046875,0.203125 -0.0625,0.234375 z M 5.234375,-5.375 C 5.078125,-5.75 4.6875,-6.328125 3.9375,-6.328125 c -1.609375,0 -3.359375,2.09375 -3.359375,4.21875 0,1.421875 0.828125,2.25 1.796875,2.25 0.796875,0 1.46875,-0.609375 1.875,-1.09375 0.140625,0.859375 0.8125,1.09375 1.25,1.09375 0.421875,0 0.765625,-0.25 1.03125,-0.765625 C 6.75,-1.125 6.953125,-2 6.953125,-2.046875 6.953125,-2.125 6.90625,-2.1875 6.8125,-2.1875 c -0.125,0 -0.140625,0.078125 -0.203125,0.296875 -0.21875,0.84375 -0.484375,1.75 -1.078125,1.75 -0.40625,0 -0.4375,-0.375 -0.4375,-0.65625 0,-0.34375 0.046875,-0.5 0.171875,-1.046875 0.09375,-0.359375 0.171875,-0.6875 0.28125,-1.09375 0.53125,-2.15625 0.65625,-2.671875 0.65625,-2.75 0,-0.203125 -0.15625,-0.359375 -0.359375,-0.359375 -0.46875,0 -0.578125,0.5 -0.609375,0.671875 z m 0,0"
             id="id-3bf11e14-e3f6-4fa5-a786-d838f4bc53f5"
             style="stroke-width:1.23565" />
        </g>
      </g>
      <g
         fill="#000000"
         fill-opacity="1"
         id="id-53d9450f-12d2-4311-a0ff-33d7c49937f3"
         transform="translate(-285.199,-50.954)"
         style="stroke-width:1.11189">
        <g
           transform="translate(304.612,61.704)"
           id="g1139"
           style="stroke-width:1.23565">
          <path
             d="M 4.046875,-3.578125 C 4.046875,-4.65625 3.90625,-6.4375 3.09375,-8.109375 2.25,-9.828125 1.078125,-10.75 0.921875,-10.75 c -0.0625,0 -0.140625,0.01563 -0.140625,0.109375 0,0.04687 0,0.0625 0.25,0.3125 1.4375,1.453125 2.234375,3.8125 2.234375,6.75 0,2.78125 -0.671875,5.171875 -2.328125,6.859375 -0.15625,0.125 -0.15625,0.15625 -0.15625,0.203125 0,0.09375 0.078125,0.109375 0.140625,0.109375 0.1875,0 1.359375,-1.03125 2.0625,-2.4375 0.734375,-1.453125 1.0625,-3 1.0625,-4.734375 z m 0,0"
             id="id-7c24ae6e-0ec1-4226-8d69-8b2d825085dd"
             style="stroke-width:1.23565" />
        </g>
      </g>
      <path
         fill="none"
         stroke-width="0.709265"
         stroke-linecap="butt"
         stroke-linejoin="miter"
         stroke="#000000"
         stroke-opacity="1"
         stroke-miterlimit="10"
         d="M 0,16.87022 H 24.875"
         id="id-63fa5e25-4427-4891-a1c7-1411eb319acb" />
      <g
         fill="#000000"
         fill-opacity="1"
         id="id-84091b20-4f9a-4d4e-a578-255401d6ed8a"
         transform="translate(-285.199,-50.954)"
         style="stroke-width:1.11189">
        <g
           transform="translate(294.126,81.25)"
           id="g1144"
           style="stroke-width:1.23565">
          <path
             d="m 5.171875,-9.34375 c 0,-0.265625 0,-0.34375 -0.1875,-0.34375 -0.125,0 -0.171875,0 -0.28125,0.171875 l -4.3125,6.703125 v 0.421875 H 4.15625 v 1.296875 c 0,0.53125 -0.03125,0.671875 -1.078125,0.671875 H 2.796875 V 0 C 3.125,-0.03125 4.265625,-0.03125 4.65625,-0.03125 c 0.40625,0 1.546875,0 1.890625,0.03125 V -0.421875 H 6.25 c -1.03125,0 -1.078125,-0.140625 -1.078125,-0.671875 V -2.390625 H 6.625 V -2.8125 H 5.171875 Z m -0.9375,1.125 V -2.8125 H 0.75 Z m 0,0"
             id="id-7048d431-8422-4b82-b62e-7b9b1d86b406"
             style="stroke-width:1.23565" />
        </g>
      </g>
    </g>
    <g
       transform="matrix(0.381857 0 0 0.360741 128.188 193.856)"
       ns1:version="1.8.2"
       ns1:texconverter="pdflatex"
       ns1:pdfconverter="inkscape"
       ns1:text="$$\\frac {\\eps(a)} 4$$"
       ns1:preamble="/home/buyolitsez/.config/inkscape/extensions/textext/default_packages.tex"
       ns1:scale="1.3"
       ns1:alignment="middle center"
       ns1:stroke-to-path="0"
       ns1:inkscapeversion="1.2.2"
       ns1:jacobian_sqrt="0.458611"
       id="g1242"
       style="stroke-width:1.23565">
      <defs
         id="defs1208">
        <g
           id="g1206">
          <g
             id="g1182" />
          <g
             id="g1186">
            <path
               d="m 2,-3.265625 c 0.453125,0.1875 0.9375,0.1875 1.21875,0.1875 0.359375,0 1.109375,0 1.109375,-0.421875 0,-0.265625 -0.265625,-0.359375 -1,-0.359375 -0.359375,0 -0.796875,0.046875 -1.296875,0.265625 -0.4375,-0.21875 -0.609375,-0.546875 -0.609375,-0.859375 0,-0.890625 1.40625,-1.40625 2.6875,-1.40625 0.234375,0 0.75,0 1.359375,0.4375 0.078125,0.0625 0.125,0.09375 0.21875,0.09375 0.171875,0 0.359375,-0.1875 0.359375,-0.359375 0,-0.25 -0.828125,-0.796875 -1.8125,-0.796875 -1.609375,0 -3.125,0.96875 -3.125,2.03125 0,0.515625 0.34375,0.859375 0.578125,1.03125 -0.828125,0.46875 -1.3125,1.234375 -1.3125,1.9375 0,1 0.890625,1.78125 2.265625,1.78125 1.890625,0 2.65625,-1.265625 2.65625,-1.453125 0,-0.078125 -0.0625,-0.140625 -0.140625,-0.140625 C 5.09375,-1.296875 5.0625,-1.25 5,-1.15625 4.84375,-0.890625 4.46875,-0.3125 2.765625,-0.3125 c -0.890625,0 -2.0625,-0.234375 -2.0625,-1.25 C 0.703125,-2.046875 1.0625,-2.78125 2,-3.265625 Z M 2.4375,-3.4375 c 0.390625,-0.140625 0.765625,-0.140625 0.859375,-0.140625 0.40625,0 0.46875,0.03125 0.703125,0.09375 C 3.765625,-3.375 3.734375,-3.375 3.21875,-3.375 c -0.265625,0 -0.5,0 -0.78125,-0.0625 z m 0,0"
               id="path1184" />
          </g>
          <g
             id="g1190">
            <path
               d="M 4.3125,-1.703125 C 4.25,-1.46875 4.25,-1.4375 4.046875,-1.15625 c -0.3125,0.390625 -0.953125,1.015625 -1.625,1.015625 -0.578125,0 -0.921875,-0.53125 -0.921875,-1.375 0,-0.796875 0.453125,-2.40625 0.71875,-3 0.5,-1 1.171875,-1.515625 1.71875,-1.515625 0.953125,0 1.140625,1.171875 1.140625,1.28125 0,0.015625 -0.046875,0.203125 -0.0625,0.234375 z M 5.234375,-5.375 C 5.078125,-5.75 4.6875,-6.328125 3.9375,-6.328125 c -1.609375,0 -3.359375,2.09375 -3.359375,4.21875 0,1.421875 0.828125,2.25 1.796875,2.25 0.796875,0 1.46875,-0.609375 1.875,-1.09375 0.140625,0.859375 0.8125,1.09375 1.25,1.09375 0.421875,0 0.765625,-0.25 1.03125,-0.765625 C 6.75,-1.125 6.953125,-2 6.953125,-2.046875 6.953125,-2.125 6.90625,-2.1875 6.8125,-2.1875 c -0.125,0 -0.140625,0.078125 -0.203125,0.296875 -0.21875,0.84375 -0.484375,1.75 -1.078125,1.75 -0.40625,0 -0.4375,-0.375 -0.4375,-0.65625 0,-0.34375 0.046875,-0.5 0.171875,-1.046875 0.09375,-0.359375 0.171875,-0.6875 0.28125,-1.09375 0.53125,-2.15625 0.65625,-2.671875 0.65625,-2.75 0,-0.203125 -0.15625,-0.359375 -0.359375,-0.359375 -0.46875,0 -0.578125,0.5 -0.609375,0.671875 z m 0,0"
               id="path1188" />
          </g>
          <g
             id="g1192" />
          <g
             id="g1196">
            <path
               d="m 4.65625,3.484375 c 0,-0.046875 0,-0.078125 -0.234375,-0.3125 -1.4375,-1.453125 -2.234375,-3.8125 -2.234375,-6.75 0,-2.78125 0.671875,-5.171875 2.328125,-6.859375 0.140625,-0.140625 0.140625,-0.15625 0.140625,-0.203125 0,-0.09375 -0.0625,-0.109375 -0.125,-0.109375 -0.1875,0 -1.359375,1.03125 -2.0625,2.4375 -0.734375,1.4375 -1.0625,2.984375 -1.0625,4.734375 0,1.28125 0.203125,2.984375 0.953125,4.53125 0.84375,1.71875 2.015625,2.640625 2.171875,2.640625 0.0625,0 0.125,-0.015625 0.125,-0.109375 z m 0,0"
               id="path1194" />
          </g>
          <g
             id="g1200">
            <path
               d="M 4.046875,-3.578125 C 4.046875,-4.65625 3.90625,-6.4375 3.09375,-8.109375 2.25,-9.828125 1.078125,-10.75 0.921875,-10.75 c -0.0625,0 -0.140625,0.01563 -0.140625,0.109375 0,0.04687 0,0.0625 0.25,0.3125 1.4375,1.453125 2.234375,3.8125 2.234375,6.75 0,2.78125 -0.671875,5.171875 -2.328125,6.859375 -0.15625,0.125 -0.15625,0.15625 -0.15625,0.203125 0,0.09375 0.078125,0.109375 0.140625,0.109375 0.1875,0 1.359375,-1.03125 2.0625,-2.4375 0.734375,-1.453125 1.0625,-3 1.0625,-4.734375 z m 0,0"
               id="path1198" />
          </g>
          <g
             id="g1204">
            <path
               d="m 5.171875,-9.34375 c 0,-0.265625 0,-0.34375 -0.1875,-0.34375 -0.125,0 -0.171875,0 -0.28125,0.171875 l -4.3125,6.703125 v 0.421875 H 4.15625 v 1.296875 c 0,0.53125 -0.03125,0.671875 -1.078125,0.671875 H 2.796875 V 0 C 3.125,-0.03125 4.265625,-0.03125 4.65625,-0.03125 c 0.40625,0 1.546875,0 1.890625,0.03125 V -0.421875 H 6.25 c -1.03125,0 -1.078125,-0.140625 -1.078125,-0.671875 V -2.390625 H 6.625 V -2.8125 H 5.171875 Z m -0.9375,1.125 V -2.8125 H 0.75 Z m 0,0"
               id="path1202" />
          </g>
        </g>
      </defs>
      <g
         fill="#000000"
         fill-opacity="1"
         id="g1214"
         transform="translate(-285.199,-50.954)"
         style="stroke-width:1.11189">
        <g
           transform="translate(285.201,61.704)"
           id="g1212"
           style="stroke-width:1.23565">
          <path
             d="m 2,-3.265625 c 0.453125,0.1875 0.9375,0.1875 1.21875,0.1875 0.359375,0 1.109375,0 1.109375,-0.421875 0,-0.265625 -0.265625,-0.359375 -1,-0.359375 -0.359375,0 -0.796875,0.046875 -1.296875,0.265625 -0.4375,-0.21875 -0.609375,-0.546875 -0.609375,-0.859375 0,-0.890625 1.40625,-1.40625 2.6875,-1.40625 0.234375,0 0.75,0 1.359375,0.4375 0.078125,0.0625 0.125,0.09375 0.21875,0.09375 0.171875,0 0.359375,-0.1875 0.359375,-0.359375 0,-0.25 -0.828125,-0.796875 -1.8125,-0.796875 -1.609375,0 -3.125,0.96875 -3.125,2.03125 0,0.515625 0.34375,0.859375 0.578125,1.03125 -0.828125,0.46875 -1.3125,1.234375 -1.3125,1.9375 0,1 0.890625,1.78125 2.265625,1.78125 1.890625,0 2.65625,-1.265625 2.65625,-1.453125 0,-0.078125 -0.0625,-0.140625 -0.140625,-0.140625 C 5.09375,-1.296875 5.0625,-1.25 5,-1.15625 4.84375,-0.890625 4.46875,-0.3125 2.765625,-0.3125 c -0.890625,0 -2.0625,-0.234375 -2.0625,-1.25 C 0.703125,-2.046875 1.0625,-2.78125 2,-3.265625 Z M 2.4375,-3.4375 c 0.390625,-0.140625 0.765625,-0.140625 0.859375,-0.140625 0.40625,0 0.46875,0.03125 0.703125,0.09375 C 3.765625,-3.375 3.734375,-3.375 3.21875,-3.375 c -0.265625,0 -0.5,0 -0.78125,-0.0625 z m 0,0"
             id="path1210"
             style="stroke-width:1.23565" />
        </g>
      </g>
      <g
         fill="#000000"
         fill-opacity="1"
         id="g1220"
         transform="translate(-285.199,-50.954)"
         style="stroke-width:1.11189">
        <g
           transform="translate(291.775,61.704)"
           id="g1218"
           style="stroke-width:1.23565">
          <path
             d="m 4.65625,3.484375 c 0,-0.046875 0,-0.078125 -0.234375,-0.3125 -1.4375,-1.453125 -2.234375,-3.8125 -2.234375,-6.75 0,-2.78125 0.671875,-5.171875 2.328125,-6.859375 0.140625,-0.140625 0.140625,-0.15625 0.140625,-0.203125 0,-0.09375 -0.0625,-0.109375 -0.125,-0.109375 -0.1875,0 -1.359375,1.03125 -2.0625,2.4375 -0.734375,1.4375 -1.0625,2.984375 -1.0625,4.734375 0,1.28125 0.203125,2.984375 0.953125,4.53125 0.84375,1.71875 2.015625,2.640625 2.171875,2.640625 0.0625,0 0.125,-0.015625 0.125,-0.109375 z m 0,0"
             id="path1216"
             style="stroke-width:1.23565" />
        </g>
      </g>
      <g
         fill="#000000"
         fill-opacity="1"
         id="g1226"
         transform="translate(-285.199,-50.954)"
         style="stroke-width:1.11189">
        <g
           transform="translate(297.238,61.704)"
           id="g1224"
           style="stroke-width:1.23565">
          <path
             d="M 4.3125,-1.703125 C 4.25,-1.46875 4.25,-1.4375 4.046875,-1.15625 c -0.3125,0.390625 -0.953125,1.015625 -1.625,1.015625 -0.578125,0 -0.921875,-0.53125 -0.921875,-1.375 0,-0.796875 0.453125,-2.40625 0.71875,-3 0.5,-1 1.171875,-1.515625 1.71875,-1.515625 0.953125,0 1.140625,1.171875 1.140625,1.28125 0,0.015625 -0.046875,0.203125 -0.0625,0.234375 z M 5.234375,-5.375 C 5.078125,-5.75 4.6875,-6.328125 3.9375,-6.328125 c -1.609375,0 -3.359375,2.09375 -3.359375,4.21875 0,1.421875 0.828125,2.25 1.796875,2.25 0.796875,0 1.46875,-0.609375 1.875,-1.09375 0.140625,0.859375 0.8125,1.09375 1.25,1.09375 0.421875,0 0.765625,-0.25 1.03125,-0.765625 C 6.75,-1.125 6.953125,-2 6.953125,-2.046875 6.953125,-2.125 6.90625,-2.1875 6.8125,-2.1875 c -0.125,0 -0.140625,0.078125 -0.203125,0.296875 -0.21875,0.84375 -0.484375,1.75 -1.078125,1.75 -0.40625,0 -0.4375,-0.375 -0.4375,-0.65625 0,-0.34375 0.046875,-0.5 0.171875,-1.046875 0.09375,-0.359375 0.171875,-0.6875 0.28125,-1.09375 0.53125,-2.15625 0.65625,-2.671875 0.65625,-2.75 0,-0.203125 -0.15625,-0.359375 -0.359375,-0.359375 -0.46875,0 -0.578125,0.5 -0.609375,0.671875 z m 0,0"
             id="path1222"
             style="stroke-width:1.23565" />
        </g>
      </g>
      <g
         fill="#000000"
         fill-opacity="1"
         id="g1232"
         transform="translate(-285.199,-50.954)"
         style="stroke-width:1.11189">
        <g
           transform="translate(304.612,61.704)"
           id="g1230"
           style="stroke-width:1.23565">
          <path
             d="M 4.046875,-3.578125 C 4.046875,-4.65625 3.90625,-6.4375 3.09375,-8.109375 2.25,-9.828125 1.078125,-10.75 0.921875,-10.75 c -0.0625,0 -0.140625,0.01563 -0.140625,0.109375 0,0.04687 0,0.0625 0.25,0.3125 1.4375,1.453125 2.234375,3.8125 2.234375,6.75 0,2.78125 -0.671875,5.171875 -2.328125,6.859375 -0.15625,0.125 -0.15625,0.15625 -0.15625,0.203125 0,0.09375 0.078125,0.109375 0.140625,0.109375 0.1875,0 1.359375,-1.03125 2.0625,-2.4375 0.734375,-1.453125 1.0625,-3 1.0625,-4.734375 z m 0,0"
             id="path1228"
             style="stroke-width:1.23565" />
        </g>
      </g>
      <path
         fill="none"
         stroke-width="0.709265"
         stroke-linecap="butt"
         stroke-linejoin="miter"
         stroke="#000000"
         stroke-opacity="1"
         stroke-miterlimit="10"
         d="M 0,16.87022 H 24.875"
         id="path1234" />
      <g
         fill="#000000"
         fill-opacity="1"
         id="g1240"
         transform="translate(-285.199,-50.954)"
         style="stroke-width:1.11189">
        <g
           transform="translate(294.126,81.25)"
           id="g1238"
           style="stroke-width:1.23565">
          <path
             d="m 5.171875,-9.34375 c 0,-0.265625 0,-0.34375 -0.1875,-0.34375 -0.125,0 -0.171875,0 -0.28125,0.171875 l -4.3125,6.703125 v 0.421875 H 4.15625 v 1.296875 c 0,0.53125 -0.03125,0.671875 -1.078125,0.671875 H 2.796875 V 0 C 3.125,-0.03125 4.265625,-0.03125 4.65625,-0.03125 c 0.40625,0 1.546875,0 1.890625,0.03125 V -0.421875 H 6.25 c -1.03125,0 -1.078125,-0.140625 -1.078125,-0.671875 V -2.390625 H 6.625 V -2.8125 H 5.171875 Z m -0.9375,1.125 V -2.8125 H 0.75 Z m 0,0"
             id="path1236"
             style="stroke-width:1.23565" />
        </g>
      </g>
    </g>
    <g
       transform="matrix(0.371149,0,0,0.371149,128.188,213.22959)"
       ns1:version="1.8.2"
       ns1:texconverter="pdflatex"
       ns1:pdfconverter="inkscape"
       ns1:text="$$\\frac {\\eps(a)} {2}$$"
       ns1:preamble="/home/buyolitsez/.config/inkscape/extensions/textext/default_packages.tex"
       ns1:scale="1.0520757626303252"
       ns1:alignment="middle center"
       ns1:stroke-to-path="0"
       ns1:inkscapeversion="1.2.2"
       ns1:jacobian_sqrt="0.371149"
       id="g3973">
      <defs
         id="id-c9a4127e-86c2-4264-a1af-7ee17294cc7b">
        <g
           id="id-a1c3a947-5dfb-465f-982d-6abd5b3c6ad3">
          <g
             id="id-7c068998-51fb-44c4-ad1d-ba1d278d736d" />
          <g
             id="id-34a1f224-c37f-45d2-a426-e4782c0d72b7">
            <path
               d="m 2,-3.265625 c 0.453125,0.1875 0.9375,0.1875 1.21875,0.1875 0.359375,0 1.109375,0 1.109375,-0.421875 0,-0.265625 -0.265625,-0.359375 -1,-0.359375 -0.359375,0 -0.796875,0.046875 -1.296875,0.265625 -0.4375,-0.21875 -0.609375,-0.546875 -0.609375,-0.859375 0,-0.890625 1.40625,-1.40625 2.6875,-1.40625 0.234375,0 0.75,0 1.359375,0.4375 0.078125,0.0625 0.125,0.09375 0.21875,0.09375 0.171875,0 0.359375,-0.1875 0.359375,-0.359375 0,-0.25 -0.828125,-0.796875 -1.8125,-0.796875 -1.609375,0 -3.125,0.96875 -3.125,2.03125 0,0.515625 0.34375,0.859375 0.578125,1.03125 -0.828125,0.46875 -1.3125,1.234375 -1.3125,1.9375 0,1 0.890625,1.78125 2.265625,1.78125 1.890625,0 2.65625,-1.265625 2.65625,-1.453125 0,-0.078125 -0.0625,-0.140625 -0.140625,-0.140625 C 5.09375,-1.296875 5.0625,-1.25 5,-1.15625 4.84375,-0.890625 4.46875,-0.3125 2.765625,-0.3125 c -0.890625,0 -2.0625,-0.234375 -2.0625,-1.25 C 0.703125,-2.046875 1.0625,-2.78125 2,-3.265625 Z M 2.4375,-3.4375 c 0.390625,-0.140625 0.765625,-0.140625 0.859375,-0.140625 0.40625,0 0.46875,0.03125 0.703125,0.09375 C 3.765625,-3.375 3.734375,-3.375 3.21875,-3.375 c -0.265625,0 -0.5,0 -0.78125,-0.0625 z m 0,0"
               id="id-f8f713eb-ab29-4dac-9516-c68279a4ed54" />
          </g>
          <g
             id="id-e7e65464-b832-4171-b012-7416ea635343">
            <path
               d="M 4.3125,-1.703125 C 4.25,-1.46875 4.25,-1.4375 4.046875,-1.15625 c -0.3125,0.390625 -0.953125,1.015625 -1.625,1.015625 -0.578125,0 -0.921875,-0.53125 -0.921875,-1.375 0,-0.796875 0.453125,-2.40625 0.71875,-3 0.5,-1 1.171875,-1.515625 1.71875,-1.515625 0.953125,0 1.140625,1.171875 1.140625,1.28125 0,0.015625 -0.046875,0.203125 -0.0625,0.234375 z M 5.234375,-5.375 C 5.078125,-5.75 4.6875,-6.328125 3.9375,-6.328125 c -1.609375,0 -3.359375,2.09375 -3.359375,4.21875 0,1.421875 0.828125,2.25 1.796875,2.25 0.796875,0 1.46875,-0.609375 1.875,-1.09375 0.140625,0.859375 0.8125,1.09375 1.25,1.09375 0.421875,0 0.765625,-0.25 1.03125,-0.765625 C 6.75,-1.125 6.953125,-2 6.953125,-2.046875 6.953125,-2.125 6.90625,-2.1875 6.8125,-2.1875 c -0.125,0 -0.140625,0.078125 -0.203125,0.296875 -0.21875,0.84375 -0.484375,1.75 -1.078125,1.75 -0.40625,0 -0.4375,-0.375 -0.4375,-0.65625 0,-0.34375 0.046875,-0.5 0.171875,-1.046875 0.09375,-0.359375 0.171875,-0.6875 0.28125,-1.09375 0.53125,-2.15625 0.65625,-2.671875 0.65625,-2.75 0,-0.203125 -0.15625,-0.359375 -0.359375,-0.359375 -0.46875,0 -0.578125,0.5 -0.609375,0.671875 z m 0,0"
               id="id-2c846e43-e478-4ab2-9ccc-58c6da2f776d" />
          </g>
          <g
             id="id-f1581d7e-0861-4c2f-979a-9f0ea715a448" />
          <g
             id="id-8f137059-cc2b-4718-8d04-59b5aaa781db">
            <path
               d="m 4.65625,3.484375 c 0,-0.046875 0,-0.078125 -0.234375,-0.3125 -1.4375,-1.453125 -2.234375,-3.8125 -2.234375,-6.75 0,-2.78125 0.671875,-5.171875 2.328125,-6.859375 0.140625,-0.140625 0.140625,-0.15625 0.140625,-0.203125 0,-0.09375 -0.0625,-0.109375 -0.125,-0.109375 -0.1875,0 -1.359375,1.03125 -2.0625,2.4375 -0.734375,1.4375 -1.0625,2.984375 -1.0625,4.734375 0,1.28125 0.203125,2.984375 0.953125,4.53125 0.84375,1.71875 2.015625,2.640625 2.171875,2.640625 0.0625,0 0.125,-0.015625 0.125,-0.109375 z m 0,0"
               id="id-cb93317e-6d32-426e-bfa7-f005d73133f4" />
          </g>
          <g
             id="id-1bd0b24c-c0c0-4770-8636-9ebbef8fb0af">
            <path
               d="M 4.046875,-3.578125 C 4.046875,-4.65625 3.90625,-6.4375 3.09375,-8.109375 2.25,-9.828125 1.078125,-10.75 0.921875,-10.75 c -0.0625,0 -0.140625,0.01563 -0.140625,0.109375 0,0.04687 0,0.0625 0.25,0.3125 1.4375,1.453125 2.234375,3.8125 2.234375,6.75 0,2.78125 -0.671875,5.171875 -2.328125,6.859375 -0.15625,0.125 -0.15625,0.15625 -0.15625,0.203125 0,0.09375 0.078125,0.109375 0.140625,0.109375 0.1875,0 1.359375,-1.03125 2.0625,-2.4375 0.734375,-1.453125 1.0625,-3 1.0625,-4.734375 z m 0,0"
               id="id-96fd8c0f-ea82-4ea6-8b7e-e29dd6a36a98" />
          </g>
          <g
             id="id-d65d8199-0345-4109-aa23-140abd5fe421">
            <path
               d="M 6.3125,-2.40625 H 6 c -0.046875,0.234375 -0.15625,1.03125 -0.3125,1.265625 -0.09375,0.125 -0.90625,0.125 -1.34375,0.125 H 1.6875 c 0.390625,-0.328125 1.265625,-1.25 1.640625,-1.59375 2.1875,-2.015625 2.984375,-2.75 2.984375,-4.171875 0,-1.65625 -1.3125,-2.75 -2.96875,-2.75 -1.671875,0 -2.640625,1.40625 -2.640625,2.640625 0,0.734375 0.625,0.734375 0.671875,0.734375 0.296875,0 0.671875,-0.21875 0.671875,-0.671875 C 2.046875,-7.234375 1.78125,-7.5 1.375,-7.5 1.25,-7.5 1.21875,-7.5 1.171875,-7.484375 1.453125,-8.46875 2.21875,-9.125 3.15625,-9.125 4.375,-9.125 5.125,-8.109375 5.125,-6.78125 5.125,-5.5625 4.421875,-4.5 3.59375,-3.578125 L 0.703125,-0.34375 V 0 H 5.9375 Z m 0,0"
               id="id-cbf1bae5-478d-4c05-8dd4-d0a4b1251fbd" />
          </g>
        </g>
      </defs>
      <g
         fill="#000000"
         fill-opacity="1"
         id="id-2cacb70a-b9a2-447e-8166-0a9ad0922b2a"
         transform="translate(-285.199,-50.954)">
        <g
           transform="translate(285.201,61.704)"
           id="g3953">
          <path
             d="m 2,-3.265625 c 0.453125,0.1875 0.9375,0.1875 1.21875,0.1875 0.359375,0 1.109375,0 1.109375,-0.421875 0,-0.265625 -0.265625,-0.359375 -1,-0.359375 -0.359375,0 -0.796875,0.046875 -1.296875,0.265625 -0.4375,-0.21875 -0.609375,-0.546875 -0.609375,-0.859375 0,-0.890625 1.40625,-1.40625 2.6875,-1.40625 0.234375,0 0.75,0 1.359375,0.4375 0.078125,0.0625 0.125,0.09375 0.21875,0.09375 0.171875,0 0.359375,-0.1875 0.359375,-0.359375 0,-0.25 -0.828125,-0.796875 -1.8125,-0.796875 -1.609375,0 -3.125,0.96875 -3.125,2.03125 0,0.515625 0.34375,0.859375 0.578125,1.03125 -0.828125,0.46875 -1.3125,1.234375 -1.3125,1.9375 0,1 0.890625,1.78125 2.265625,1.78125 1.890625,0 2.65625,-1.265625 2.65625,-1.453125 0,-0.078125 -0.0625,-0.140625 -0.140625,-0.140625 C 5.09375,-1.296875 5.0625,-1.25 5,-1.15625 4.84375,-0.890625 4.46875,-0.3125 2.765625,-0.3125 c -0.890625,0 -2.0625,-0.234375 -2.0625,-1.25 C 0.703125,-2.046875 1.0625,-2.78125 2,-3.265625 Z M 2.4375,-3.4375 c 0.390625,-0.140625 0.765625,-0.140625 0.859375,-0.140625 0.40625,0 0.46875,0.03125 0.703125,0.09375 C 3.765625,-3.375 3.734375,-3.375 3.21875,-3.375 c -0.265625,0 -0.5,0 -0.78125,-0.0625 z m 0,0"
             id="id-6e98b35d-0d15-4006-b903-c9dc2621a951" />
        </g>
      </g>
      <g
         fill="#000000"
         fill-opacity="1"
         id="id-feb61a5c-f3db-49cc-b8b0-10151a2da13f"
         transform="translate(-285.199,-50.954)">
        <g
           transform="translate(291.775,61.704)"
           id="g3957">
          <path
             d="m 4.65625,3.484375 c 0,-0.046875 0,-0.078125 -0.234375,-0.3125 -1.4375,-1.453125 -2.234375,-3.8125 -2.234375,-6.75 0,-2.78125 0.671875,-5.171875 2.328125,-6.859375 0.140625,-0.140625 0.140625,-0.15625 0.140625,-0.203125 0,-0.09375 -0.0625,-0.109375 -0.125,-0.109375 -0.1875,0 -1.359375,1.03125 -2.0625,2.4375 -0.734375,1.4375 -1.0625,2.984375 -1.0625,4.734375 0,1.28125 0.203125,2.984375 0.953125,4.53125 0.84375,1.71875 2.015625,2.640625 2.171875,2.640625 0.0625,0 0.125,-0.015625 0.125,-0.109375 z m 0,0"
             id="id-6516e630-756b-46f3-b9d6-0143aa5b8274" />
        </g>
      </g>
      <g
         fill="#000000"
         fill-opacity="1"
         id="id-696c7f41-3386-4774-ae6b-1d1126676e93"
         transform="translate(-285.199,-50.954)">
        <g
           transform="translate(297.238,61.704)"
           id="g3961">
          <path
             d="M 4.3125,-1.703125 C 4.25,-1.46875 4.25,-1.4375 4.046875,-1.15625 c -0.3125,0.390625 -0.953125,1.015625 -1.625,1.015625 -0.578125,0 -0.921875,-0.53125 -0.921875,-1.375 0,-0.796875 0.453125,-2.40625 0.71875,-3 0.5,-1 1.171875,-1.515625 1.71875,-1.515625 0.953125,0 1.140625,1.171875 1.140625,1.28125 0,0.015625 -0.046875,0.203125 -0.0625,0.234375 z M 5.234375,-5.375 C 5.078125,-5.75 4.6875,-6.328125 3.9375,-6.328125 c -1.609375,0 -3.359375,2.09375 -3.359375,4.21875 0,1.421875 0.828125,2.25 1.796875,2.25 0.796875,0 1.46875,-0.609375 1.875,-1.09375 0.140625,0.859375 0.8125,1.09375 1.25,1.09375 0.421875,0 0.765625,-0.25 1.03125,-0.765625 C 6.75,-1.125 6.953125,-2 6.953125,-2.046875 6.953125,-2.125 6.90625,-2.1875 6.8125,-2.1875 c -0.125,0 -0.140625,0.078125 -0.203125,0.296875 -0.21875,0.84375 -0.484375,1.75 -1.078125,1.75 -0.40625,0 -0.4375,-0.375 -0.4375,-0.65625 0,-0.34375 0.046875,-0.5 0.171875,-1.046875 0.09375,-0.359375 0.171875,-0.6875 0.28125,-1.09375 0.53125,-2.15625 0.65625,-2.671875 0.65625,-2.75 0,-0.203125 -0.15625,-0.359375 -0.359375,-0.359375 -0.46875,0 -0.578125,0.5 -0.609375,0.671875 z m 0,0"
             id="id-f8263a1e-4a0a-4e66-9d39-d21b5b15ac9b" />
        </g>
      </g>
      <g
         fill="#000000"
         fill-opacity="1"
         id="id-34d8ba83-02ba-4f83-89a6-33fe833fa2a1"
         transform="translate(-285.199,-50.954)">
        <g
           transform="translate(304.612,61.704)"
           id="g3965">
          <path
             d="M 4.046875,-3.578125 C 4.046875,-4.65625 3.90625,-6.4375 3.09375,-8.109375 2.25,-9.828125 1.078125,-10.75 0.921875,-10.75 c -0.0625,0 -0.140625,0.01563 -0.140625,0.109375 0,0.04687 0,0.0625 0.25,0.3125 1.4375,1.453125 2.234375,3.8125 2.234375,6.75 0,2.78125 -0.671875,5.171875 -2.328125,6.859375 -0.15625,0.125 -0.15625,0.15625 -0.15625,0.203125 0,0.09375 0.078125,0.109375 0.140625,0.109375 0.1875,0 1.359375,-1.03125 2.0625,-2.4375 0.734375,-1.453125 1.0625,-3 1.0625,-4.734375 z m 0,0"
             id="id-2c03a7e9-a59a-411a-892d-54312af1381d" />
        </g>
      </g>
      <path
         fill="none"
         stroke-width="0.574"
         stroke-linecap="butt"
         stroke-linejoin="miter"
         stroke="#000000"
         stroke-opacity="1"
         stroke-miterlimit="10"
         d="M 0,16.87022 H 24.875"
         id="id-97566dfe-6615-4977-8df0-e1bec2f2f475" />
      <g
         fill="#000000"
         fill-opacity="1"
         id="id-06ab73cd-1a1c-4688-aae7-7a5e22b00fcc"
         transform="translate(-285.199,-50.954)">
        <g
           transform="translate(294.126,81.25)"
           id="g3970">
          <path
             d="M 6.3125,-2.40625 H 6 c -0.046875,0.234375 -0.15625,1.03125 -0.3125,1.265625 -0.09375,0.125 -0.90625,0.125 -1.34375,0.125 H 1.6875 c 0.390625,-0.328125 1.265625,-1.25 1.640625,-1.59375 2.1875,-2.015625 2.984375,-2.75 2.984375,-4.171875 0,-1.65625 -1.3125,-2.75 -2.96875,-2.75 -1.671875,0 -2.640625,1.40625 -2.640625,2.640625 0,0.734375 0.625,0.734375 0.671875,0.734375 0.296875,0 0.671875,-0.21875 0.671875,-0.671875 C 2.046875,-7.234375 1.78125,-7.5 1.375,-7.5 1.25,-7.5 1.21875,-7.5 1.171875,-7.484375 1.453125,-8.46875 2.21875,-9.125 3.15625,-9.125 4.375,-9.125 5.125,-8.109375 5.125,-6.78125 5.125,-5.5625 4.421875,-4.5 3.59375,-3.578125 L 0.703125,-0.34375 V 0 H 5.9375 Z m 0,0"
             id="id-df850d3f-7074-4467-979d-30330915a82f" />
        </g>
      </g>
    </g>
  </g>
</svg>
