<?xml version="1.0" encoding="UTF-8" standalone="no"?>
<!-- Created with Inkscape (http://www.inkscape.org/) -->

<svg
   width="240mm"
   height="120mm"
   viewBox="0 0 240 120"
   version="1.1"
   id="svg8"
   inkscape:version="1.1.2 (0a00cf5339, 2022-02-04)"
   sodipodi:docname="standart-region.svg"
   xmlns:inkscape="http://www.inkscape.org/namespaces/inkscape"
   xmlns:sodipodi="http://sodipodi.sourceforge.net/DTD/sodipodi-0.dtd"
   xmlns="http://www.w3.org/2000/svg"
   xmlns:svg="http://www.w3.org/2000/svg"
   xmlns:rdf="http://www.w3.org/1999/02/22-rdf-syntax-ns#"
   xmlns:cc="http://creativecommons.org/ns#"
   xmlns:dc="http://purl.org/dc/elements/1.1/">
  <defs
     id="defs2">
    <marker
       style="overflow:visible"
       id="Arrow1Lstart"
       refX="0.0"
       refY="0.0"
       orient="auto"
       inkscape:stockid="Arrow1Lstart"
       inkscape:isstock="true">
      <path
         transform="scale(0.8) translate(12.5,0)"
         style="fill-rule:evenodd;fill:context-stroke;stroke:context-stroke;stroke-width:1.0pt"
         d="M 0.0,0.0 L 5.0,-5.0 L -12.5,0.0 L 5.0,5.0 L 0.0,0.0 z "
         id="path3810" />
    </marker>
    <marker
       style="overflow:visible;"
       id="Arrow1Lend"
       refX="0.0"
       refY="0.0"
       orient="auto"
       inkscape:stockid="Arrow1Lend"
       inkscape:isstock="true">
      <path
         transform="scale(0.8) rotate(180) translate(12.5,0)"
         style="fill-rule:evenodd;fill:context-stroke;stroke:context-stroke;stroke-width:1.0pt;"
         d="M 0.0,0.0 L 5.0,-5.0 L -12.5,0.0 L 5.0,5.0 L 0.0,0.0 z "
         id="path3813" />
    </marker>
    <marker
       style="overflow:visible;"
       id="Arrow1Mend"
       refX="0.0"
       refY="0.0"
       orient="auto"
       inkscape:stockid="Arrow1Mend"
       inkscape:isstock="true">
      <path
         transform="scale(0.4) rotate(180) translate(10,0)"
         style="fill-rule:evenodd;fill:context-stroke;stroke:context-stroke;stroke-width:1.0pt;"
         d="M 0.0,0.0 L 5.0,-5.0 L -12.5,0.0 L 5.0,5.0 L 0.0,0.0 z "
         id="path3819" />
    </marker>
    <marker
       style="overflow:visible"
       id="Arrow1Sstart"
       refX="0.0"
       refY="0.0"
       orient="auto"
       inkscape:stockid="Arrow1Sstart"
       inkscape:isstock="true">
      <path
         transform="scale(0.2) translate(6,0)"
         style="fill-rule:evenodd;fill:context-stroke;stroke:context-stroke;stroke-width:1.0pt"
         d="M 0.0,0.0 L 5.0,-5.0 L -12.5,0.0 L 5.0,5.0 L 0.0,0.0 z "
         id="path3822" />
    </marker>
    <marker
       style="overflow:visible"
       id="Arrow1Mstart"
       refX="0.0"
       refY="0.0"
       orient="auto"
       inkscape:stockid="Arrow1Mstart"
       inkscape:isstock="true">
      <path
         transform="scale(0.4) translate(10,0)"
         style="fill-rule:evenodd;fill:context-stroke;stroke:context-stroke;stroke-width:1.0pt"
         d="M 0.0,0.0 L 5.0,-5.0 L -12.5,0.0 L 5.0,5.0 L 0.0,0.0 z "
         id="path3816" />
    </marker>
  </defs>
  <sodipodi:namedview
     id="base"
     pagecolor="#ffffff"
     bordercolor="#666666"
     borderopacity="1.0"
     inkscape:pageopacity="0.0"
     inkscape:pageshadow="2"
     inkscape:zoom="0.96383221"
     inkscape:cx="440.94812"
     inkscape:cy="211.6551"
     inkscape:document-units="mm"
     inkscape:current-layer="layer1"
     showgrid="false"
     showborder="true"
     width="200mm"
     showguides="false"
     inkscape:guide-bbox="true"
     inkscape:window-width="1440"
     inkscape:window-height="840"
     inkscape:window-x="0"
     inkscape:window-y="0"
     inkscape:window-maximized="1"
     inkscape:showpageshadow="2"
     inkscape:pagecheckerboard="0"
     inkscape:deskcolor="#d1d1d1">
    <inkscape:grid
       type="xygrid"
       id="grid815"
       units="mm"
       spacingx="10"
       spacingy="10"
       empspacing="4"
       dotted="false" />
  </sodipodi:namedview>
  <metadata
     id="metadata5">
    <rdf:RDF>
      <cc:Work
         rdf:about="">
        <dc:format>image/svg+xml</dc:format>
        <dc:type
           rdf:resource="http://purl.org/dc/dcmitype/StillImage" />
        <dc:title />
      </cc:Work>
    </rdf:RDF>
  </metadata>
  <g
     inkscape:groupmode="layer"
     id="layer2"
     inkscape:label="Layer 2">
    <path
       style="fill:#000000;fill-opacity:0.113885;stroke:none;stroke-width:1.63128;stroke-linejoin:bevel;stroke-miterlimit:4;stroke-dasharray:none;stroke-dashoffset:0"
       d="M 612.65242,10.711635 C 522.4015,11.230487 432.65819,22.944044 343.58314,36.560266 280.94873,46.90698 218.09611,57.655765 157.26609,76.164871 c -16.12132,4.906432 -33.01416,12.811306 -42.09474,27.690979 -2.39929,6.93674 6.71407,9.77452 11.29515,12.26342 32.04656,13.95364 64.73795,26.38093 96.17564,41.7526 20.39974,9.9749 41.2183,19.32944 60.88791,30.70235 6.44922,5.7422 13.88145,11.50797 17.81625,19.27527 -1.55204,6.03863 -10.01452,4.69465 -14.79081,5.29097 -55.53923,-1.10327 -110.71157,-12.24087 -166.45387,-11.33779 -11.04217,0.90531 -24.446996,0.84547 -32.392257,9.80176 -5.871024,9.78723 2.851429,20.40133 9.576842,27.19045 21.866415,20.81789 51.010365,31.9639 80.140705,38.07028 7.27774,2.07708 18.68329,5.86374 16.93475,15.63786 -3.89903,16.61982 -13.32502,31.30412 -19.54207,47.12316 -10.75064,24.10075 -19.17238,49.57321 -22.58104,75.80125 -1.52028,12.20914 8.43251,22.47233 19.68461,25.27955 22.42704,6.31578 46.016,2.91639 68.75224,0.31814 85.35691,-13.68499 167.63401,-41.14868 250.21108,-65.94247 40.56361,-11.87515 80.67923,-25.85131 122.22722,-33.96088 16.80882,-2.88645 36.66881,-2.34389 48.91843,11.26386 12.93013,13.84723 24.8106,30.21504 43.46257,36.73285 29.851,10.58981 62.27097,7.01123 93.16244,4.35679 25.28424,-3.32075 52.37623,-6.24138 73.70076,-21.48204 10.73838,-7.46122 14.76871,-22.10377 9.79674,-34.12187 -9.22151,-23.66708 -29.0313,-40.98673 -47.16396,-57.89791 -41.97555,-35.85001 -89.18046,-64.83528 -135.01786,-95.36961 -15.14968,-10.59912 -32.75637,-19.32526 -43.38567,-34.95707 -4.21405,-6.08848 -4.42804,-14.20066 0.26343,-20.09192 12.18063,-15.12427 30.69298,-23.11662 45.24987,-35.618311 C 714.43521,84.14486 727.49493,72.160981 728.98289,55.450847 730.81718,44.345095 727.9148,30.80868 716.74131,25.696981 691.1976,12.930818 661.79751,11.823922 633.78817,10.898983 c -7.044,-0.158484 -14.09011,-0.207298 -21.13575,-0.187348 z M 419.32626,64.632538 c 26.81968,10.045726 52.73509,26.648911 67.9822,51.460832 13.86954,22.44024 14.60812,54.19405 -3.20173,74.81731 -12.26101,13.86799 -36.9718,12.6415 -47.60254,-2.66068 -18.84215,-23.60705 -22.80058,-55.11098 -24.29478,-84.20677 0.26427,-13.097443 -0.90176,-27.581401 6.44206,-39.141178 0.19142,-0.160633 0.3437,-0.553631 0.67479,-0.269514 z m 45.48696,177.913252 c 13.0394,0.64315 23.08214,10.56212 33.78989,16.93423 8.72294,5.04971 15.62665,12.41913 20.31542,21.31032 7.40349,13.02462 22.57798,17.15492 33.17243,26.66965 6.89565,4.86852 2.1238,13.92926 -3.83195,17.00163 -12.82405,8.08539 -27.99941,13.27323 -43.21536,13.38448 -18.3398,-6.22618 -38.2206,-12.7131 -57.61506,-7.06611 -21.4615,5.54788 -36.957,22.76637 -54.47081,35.17951 -15.31171,10.95479 -29.99292,24.20069 -48.21174,30.1258 -7.85819,2.45366 -18.37584,2.3669 -23.05655,-5.78543 -8.01817,-13.28466 -4.6085,-30.04137 -0.0527,-44.04211 3.28766,-8.33739 6.32762,-17.43826 12.06109,-24.15663 36.07585,-24.35698 70.93052,-50.7594 108.92301,-72.12383 6.88229,-3.47809 14.26157,-7.18639 22.19232,-7.43151 z"
       id="path4393"
       transform="scale(0.26458333)" />
  </g>
  <g
     inkscape:label="Layer 1"
     inkscape:groupmode="layer"
     id="layer1"
     transform="translate(0, -177)">
    <path
       style="fill:#4d4d4d;fill-opacity:0.00366893;fill-rule:evenodd;stroke:#000000;stroke-width:0.41600001;stroke-miterlimit:4;stroke-dasharray:0.41600001, 0.41600001;paint-order:markers stroke fill;marker-mid:url(#Arrow1Mstart);stroke-dashoffset:0"
       d="m 70.296956,224.27006 c -37.63551,-19.6906 -46.432445,-15.39841 -35.542897,-24.09249 10.889546,-8.69409 153.446471,-32.36832 157.848361,-12.79293 4.4019,19.57541 -36.66051,19.50547 -11.81518,35.73352 24.84534,16.22804 82.0686,50.2721 35.24944,57.32199 -46.81916,7.04988 -31.51126,-14.94313 -51.30196,-13.6253 -19.79068,1.31782 -129.380029,46.33782 -124.276026,18.78415 5.104005,-27.55366 19.704304,-33.16916 4.197571,-36.01051 -15.506737,-2.84134 -33.240475,-18.70462 -12.568025,-19.15442 20.672445,-0.44978 56.284035,7.68826 46.001503,-0.66147 -2.542406,-3.75738 -7.792787,-5.50208 -7.792787,-5.50208 z"
       id="path540"
       sodipodi:nodetypes="cssssssssccc" />
    <path
       style="fill:#4d4d4d;fill-opacity:0.00366893;fill-rule:evenodd;stroke:#000000;stroke-width:0.41600001;paint-order:markers stroke fill;stroke-miterlimit:4;stroke-dasharray:0.41600001, 0.41600001;stroke-dashoffset:0;marker-mid:url(#Arrow1Mend)"
       d="m 111.06153,193.90367 c 28.34832,11.2961 21.81364,33.19608 14.08818,35.79404 -17.06005,5.73706 -18.52127,-34.61857 -14.08818,-35.79404 z"
       id="path1961"
       sodipodi:nodetypes="csc" />
    <path
       style="fill:#4d4d4d;fill-opacity:0.00366893;fill-rule:evenodd;stroke:#000000;stroke-width:0.41600001;paint-order:markers stroke fill;stroke-miterlimit:4;stroke-dasharray:0.41600001,0.41600001;marker-mid:url(#Arrow1Mend);stroke-dashoffset:0"
       d="m 87.860701,262.4157 c 36.648179,-25.50631 33.553229,-23.38877 42.735399,-17.83385 9.33105,5.64498 3.82799,7.19868 12.90537,11.76238 11.48982,5.77659 -8.01186,11.42984 -10.99309,9.91455 -2.98122,-1.51529 -11.70272,-4.67066 -19.77012,0.90506 -8.0674,5.57573 -22.436636,20.08758 -27.381566,13.59446 -4.944934,-6.49314 2.504007,-18.3426 2.504007,-18.3426 z"
       id="path2147"
       sodipodi:nodetypes="csssssc" />
    <text
       xml:space="preserve"
       style="font-size:3.88056px;line-height:1.25;font-family:sans-serif;-inkscape-font-specification:'sans-serif, Normal';stroke-width:0.264583"
       x="166.68433"
       y="240.19772"
       id="text6269"><tspan
         sodipodi:role="line"
         id="tspan6267"
         style="stroke-width:0.264583"
         x="166.68433"
         y="240.19772">$\Omega$</tspan></text>
  </g>
</svg>
