<?xml version="1.0" encoding="UTF-8" standalone="no"?>
<!-- Created with Inkscape (http://www.inkscape.org/) -->

<svg
   width="240mm"
   height="120mm"
   viewBox="0 0 240 120"
   version="1.1"
   id="svg8"
   inkscape:version="1.2.2 (b0a8486541, 2022-12-01)"
   sodipodi:docname="theorem_cauchy_gurs_morer_1_to_3.svg"
   xmlns:inkscape="http://www.inkscape.org/namespaces/inkscape"
   xmlns:sodipodi="http://sodipodi.sourceforge.net/DTD/sodipodi-0.dtd"
   xmlns="http://www.w3.org/2000/svg"
   xmlns:svg="http://www.w3.org/2000/svg"
   xmlns:rdf="http://www.w3.org/1999/02/22-rdf-syntax-ns#"
   xmlns:cc="http://creativecommons.org/ns#"
   xmlns:dc="http://purl.org/dc/elements/1.1/"
   xmlns:ns2="http://www.iki.fi/pav/software/textext/">
  <defs
     id="defs2" />
  <sodipodi:namedview
     id="base"
     pagecolor="#ffffff"
     bordercolor="#666666"
     borderopacity="1.0"
     inkscape:pageopacity="0.0"
     inkscape:pageshadow="2"
     inkscape:zoom="5.6593479"
     inkscape:cx="507.83236"
     inkscape:cy="264.69481"
     inkscape:document-units="mm"
     inkscape:current-layer="layer1"
     showgrid="false"
     showborder="true"
     width="200mm"
     showguides="true"
     inkscape:guide-bbox="true"
     inkscape:window-width="2560"
     inkscape:window-height="1417"
     inkscape:window-x="0"
     inkscape:window-y="0"
     inkscape:window-maximized="1"
     inkscape:pagecheckerboard="0"
     inkscape:showpageshadow="2"
     inkscape:deskcolor="#d1d1d1">
    <inkscape:grid
       type="xygrid"
       id="grid815"
       units="mm"
       spacingx="10"
       spacingy="10"
       empspacing="4"
       dotted="false" />
  </sodipodi:namedview>
  <metadata
     id="metadata5">
    <rdf:RDF>
      <cc:Work
         rdf:about="">
        <dc:format>image/svg+xml</dc:format>
        <dc:type
           rdf:resource="http://purl.org/dc/dcmitype/StillImage" />
        <dc:title />
      </cc:Work>
    </rdf:RDF>
  </metadata>
  <g
     inkscape:label="Layer 1"
     inkscape:groupmode="layer"
     id="layer1"
     transform="translate(0, -177)">
    <path
       style="fill:none;stroke:#000000;stroke-width:0.264583px;stroke-linecap:butt;stroke-linejoin:miter;stroke-opacity:1"
       d="m 80.422824,266.97231 c -31.742694,-53.71612 6.517926,-17.59955 16.512717,-42.10293 36.655179,-89.86439 119.958649,42.82384 44.192139,53.85191 -24.59942,3.58053 -41.11686,0.90309 -60.704856,-11.74898 z"
       id="path856" />
    <path
       style="fill:none;stroke:#000000;stroke-width:0.264583px;stroke-linecap:butt;stroke-linejoin:miter;stroke-opacity:1"
       d="m 126.17774,223.27269 c -2.28134,-24.07119 21.50698,-12.63913 0,0 z"
       id="path858" />
    <path
       style="fill:none;stroke:#000000;stroke-width:0.264583px;stroke-linecap:butt;stroke-linejoin:miter;stroke-opacity:1"
       d="m 92.944328,269.28613 c -4.040264,-34.79191 46.850832,-9.62888 0,0 z"
       id="path860" />
    <circle
       id="path895"
       style="fill:#000000;stroke:none;stroke-width:0.264583"
       cx="144.34964"
       cy="244.50159"
       r="0.39687499" />
    <ellipse
       id="path897"
       style="fill:#000000;stroke:none;stroke-width:0.264583"
       cx="147.36732"
       cy="231.89397"
       rx="0.39700001"
       ry="0.39687499" />
    <circle
       id="circle1591"
       style="fill:#000000;stroke:#000000;stroke-width:0.264583;fill-opacity:0"
       cx="144.3497"
       cy="244.502"
       r="19.18461" />
    <g
       transform="matrix(0.386514,0,0,0.386514,143.29851,245.86124)"
       ns2:version="1.8.2"
       ns2:texconverter="pdflatex"
       ns2:pdfconverter="inkscape"
       ns2:text="$$z_0$$"
       ns2:preamble="/home/buyolitsez/.config/inkscape/extensions/textext/default_packages.tex"
       ns2:scale="1.09563089851748"
       ns2:alignment="middle center"
       ns2:stroke-to-path="0"
       ns2:inkscapeversion="1.2.2"
       ns2:jacobian_sqrt="0.386514"
       id="g3929">
      <defs
         id="id-0b965ca2-d101-4544-9a05-792584c561c7">
        <g
           id="id-cd113cc0-b8b4-4532-84fc-c1a627391464">
          <g
             id="id-ad4396f0-b832-4513-ae17-38bf87423895" />
          <g
             id="id-e3b4a5f5-5c56-4af4-b016-04f0583f6a5d">
            <path
               d="M 1.828125,-1.15625 C 2.4375,-1.859375 2.9375,-2.3125 3.65625,-2.953125 c 0.859375,-0.75 1.234375,-1.109375 1.4375,-1.328125 1,-0.984375 1.5,-1.8125 1.5,-1.921875 0,-0.125 -0.109375,-0.125 -0.140625,-0.125 -0.09375,0 -0.125,0.0625 -0.203125,0.15625 C 5.890625,-5.546875 5.546875,-5.25 5.171875,-5.25 4.875,-5.25 4.71875,-5.375 4.453125,-5.71875 4.140625,-6.078125 3.90625,-6.328125 3.484375,-6.328125 c -1.046875,0 -1.671875,1.3125 -1.671875,1.609375 0,0.046875 0.015625,0.125 0.140625,0.125 0.109375,0 0.125,-0.046875 0.171875,-0.15625 0.234375,-0.578125 0.9375,-0.671875 1.203125,-0.671875 0.296875,0 0.59375,0.09375 0.890625,0.234375 0.546875,0.21875 0.765625,0.21875 0.921875,0.21875 0.09375,0 0.15625,0 0.21875,-0.015625 -0.46875,0.5625 -1.25,1.25 -1.890625,1.84375 L 2.015625,-1.8125 c -0.875,0.890625 -1.40625,1.734375 -1.40625,1.84375 0,0.078125 0.078125,0.109375 0.171875,0.109375 0.078125,0 0.09375,-0.015625 0.1875,-0.1875 C 1.203125,-0.40625 1.65625,-0.9375 2.1875,-0.9375 c 0.3125,0 0.453125,0.109375 0.734375,0.46875 0.28125,0.3125 0.515625,0.609375 0.984375,0.609375 1.40625,0 2.203125,-1.8125 2.203125,-2.15625 0,-0.046875 -0.015625,-0.140625 -0.15625,-0.140625 -0.109375,0 -0.125,0.0625 -0.171875,0.203125 -0.3125,0.84375 -1.15625,1.1875 -1.71875,1.1875 -0.296875,0 -0.59375,-0.09375 -0.890625,-0.21875 C 2.59375,-1.21875 2.4375,-1.21875 2.25,-1.21875 c -0.140625,0 -0.296875,0 -0.421875,0.0625 z m 0,0"
               id="id-96fa29a2-4b71-4e8a-a143-a6f93ab24a84" />
          </g>
          <g
             id="id-1fcb24cf-750a-4382-8a11-feaa328fc1cf" />
          <g
             id="id-8031d2c1-2479-4e10-82f1-a8115ca0a6c4">
            <path
               d="m 4.578125,-3.1875 c 0,-0.796875 -0.046875,-1.59375 -0.390625,-2.328125 -0.453125,-0.96875 -1.28125,-1.125 -1.6875,-1.125 -0.609375,0 -1.328125,0.265625 -1.75,1.1875 -0.3125,0.6875 -0.359375,1.46875 -0.359375,2.265625 0,0.75 0.03125,1.640625 0.453125,2.40625 0.421875,0.796875 1.15625,1 1.640625,1 0.53125,0 1.296875,-0.203125 1.734375,-1.15625 0.3125,-0.6875 0.359375,-1.46875 0.359375,-2.25 z M 2.484375,0 C 2.09375,0 1.5,-0.25 1.328125,-1.203125 1.21875,-1.796875 1.21875,-2.71875 1.21875,-3.3125 c 0,-0.640625 0,-1.296875 0.078125,-1.828125 0.1875,-1.1875 0.9375,-1.28125 1.1875,-1.28125 0.328125,0 0.984375,0.1875 1.171875,1.171875 0.109375,0.5625 0.109375,1.3125 0.109375,1.9375 0,0.75 0,1.421875 -0.109375,2.0625 C 3.5,-0.296875 2.9375,0 2.484375,0 Z m 0,0"
               id="id-0c277d16-2f00-4ff1-99c7-a0694a61efcd" />
          </g>
        </g>
      </defs>
      <g
         fill="#000000"
         fill-opacity="1"
         id="id-7621ed5e-ac08-4727-b308-9aa2a35d923d"
         transform="translate(-292.244,-60.5559)">
        <g
           transform="translate(291.635,66.884)"
           id="g3922">
          <path
             d="M 1.828125,-1.15625 C 2.4375,-1.859375 2.9375,-2.3125 3.65625,-2.953125 c 0.859375,-0.75 1.234375,-1.109375 1.4375,-1.328125 1,-0.984375 1.5,-1.8125 1.5,-1.921875 0,-0.125 -0.109375,-0.125 -0.140625,-0.125 -0.09375,0 -0.125,0.0625 -0.203125,0.15625 C 5.890625,-5.546875 5.546875,-5.25 5.171875,-5.25 4.875,-5.25 4.71875,-5.375 4.453125,-5.71875 4.140625,-6.078125 3.90625,-6.328125 3.484375,-6.328125 c -1.046875,0 -1.671875,1.3125 -1.671875,1.609375 0,0.046875 0.015625,0.125 0.140625,0.125 0.109375,0 0.125,-0.046875 0.171875,-0.15625 0.234375,-0.578125 0.9375,-0.671875 1.203125,-0.671875 0.296875,0 0.59375,0.09375 0.890625,0.234375 0.546875,0.21875 0.765625,0.21875 0.921875,0.21875 0.09375,0 0.15625,0 0.21875,-0.015625 -0.46875,0.5625 -1.25,1.25 -1.890625,1.84375 L 2.015625,-1.8125 c -0.875,0.890625 -1.40625,1.734375 -1.40625,1.84375 0,0.078125 0.078125,0.109375 0.171875,0.109375 0.078125,0 0.09375,-0.015625 0.1875,-0.1875 C 1.203125,-0.40625 1.65625,-0.9375 2.1875,-0.9375 c 0.3125,0 0.453125,0.109375 0.734375,0.46875 0.28125,0.3125 0.515625,0.609375 0.984375,0.609375 1.40625,0 2.203125,-1.8125 2.203125,-2.15625 0,-0.046875 -0.015625,-0.140625 -0.15625,-0.140625 -0.109375,0 -0.125,0.0625 -0.171875,0.203125 -0.3125,0.84375 -1.15625,1.1875 -1.71875,1.1875 -0.296875,0 -0.59375,-0.09375 -0.890625,-0.21875 C 2.59375,-1.21875 2.4375,-1.21875 2.25,-1.21875 c -0.140625,0 -0.296875,0 -0.421875,0.0625 z m 0,0"
             id="id-7eee47e6-e1d0-488c-9ffc-5a0de19079d8" />
        </g>
      </g>
      <g
         fill="#000000"
         fill-opacity="1"
         id="id-1369d5dd-f54f-49b9-a6d2-15a5e6106f8c"
         transform="translate(-292.244,-60.5559)">
        <g
           transform="translate(298.161,69.036)"
           id="g3926">
          <path
             d="m 4.578125,-3.1875 c 0,-0.796875 -0.046875,-1.59375 -0.390625,-2.328125 -0.453125,-0.96875 -1.28125,-1.125 -1.6875,-1.125 -0.609375,0 -1.328125,0.265625 -1.75,1.1875 -0.3125,0.6875 -0.359375,1.46875 -0.359375,2.265625 0,0.75 0.03125,1.640625 0.453125,2.40625 0.421875,0.796875 1.15625,1 1.640625,1 0.53125,0 1.296875,-0.203125 1.734375,-1.15625 0.3125,-0.6875 0.359375,-1.46875 0.359375,-2.25 z M 2.484375,0 C 2.09375,0 1.5,-0.25 1.328125,-1.203125 1.21875,-1.796875 1.21875,-2.71875 1.21875,-3.3125 c 0,-0.640625 0,-1.296875 0.078125,-1.828125 0.1875,-1.1875 0.9375,-1.28125 1.1875,-1.28125 0.328125,0 0.984375,0.1875 1.171875,1.171875 0.109375,0.5625 0.109375,1.3125 0.109375,1.9375 0,0.75 0,1.421875 -0.109375,2.0625 C 3.5,-0.296875 2.9375,0 2.484375,0 Z m 0,0"
             id="id-1d20b260-f4e8-48c6-aab9-3078ea65a7dc" />
        </g>
      </g>
    </g>
    <g
       transform="matrix(0.386514,0,0,0.386514,144.38049,228.52704)"
       ns2:version="1.8.2"
       ns2:texconverter="pdflatex"
       ns2:pdfconverter="inkscape"
       ns2:text="$$\\zeta$$"
       ns2:preamble="/home/buyolitsez/.config/inkscape/extensions/textext/default_packages.tex"
       ns2:scale="1.09563089851748"
       ns2:alignment="middle center"
       ns2:stroke-to-path="0"
       ns2:inkscapeversion="1.2.2"
       ns2:jacobian_sqrt="0.386514"
       id="g9126">
      <defs
         id="id-571ac680-7ea2-472c-a651-73a2faf559a0">
        <g
           id="id-c274962b-4d85-4035-aaf8-1b7141865bfe">
          <g
             id="id-bd5cc784-d9fa-4a4a-8403-4564bca6cef6" />
          <g
             id="id-ac37e9c3-a76c-4c1a-bb59-af7624837cc0">
            <path
               d="M 2.71875,-0.703125 C 1.859375,-1.03125 1.375,-1.671875 1.375,-2.75 c 0,-1.96875 1.453125,-4.59375 3.21875,-5.609375 0.25,0.234375 0.578125,0.234375 0.859375,0.234375 0.359375,0 1.234375,0 1.234375,-0.40625 0,-0.34375 -0.65625,-0.359375 -1.109375,-0.359375 -0.28125,0 -0.53125,0 -0.90625,0.15625 -0.078125,-0.1875 -0.125,-0.390625 -0.125,-0.609375 0,-0.25 0.0625,-0.453125 0.0625,-0.5 0,-0.078125 -0.078125,-0.140625 -0.15625,-0.140625 -0.21875,0 -0.21875,0.53125 -0.21875,0.640625 0,0.140625 0,0.4375 0.171875,0.734375 C 2.734375,-7.75 0.640625,-5.0625 0.640625,-2.375 c 0,1.953125 1.3125,2.421875 2.0625,2.671875 0.1875,0.0625 0.640625,0.21875 0.828125,0.296875 0.578125,0.1875 1.140625,0.375 1.140625,1.0625 0,0.421875 -0.296875,0.984375 -0.828125,0.984375 C 3.5625,2.640625 3.171875,2.53125 2.8125,2.1875 2.75,2.125 2.71875,2.09375 2.65625,2.09375 c -0.125,0 -0.140625,0.109375 -0.140625,0.140625 0,0.140625 0.609375,0.6875 1.328125,0.6875 0.921875,0 1.546875,-0.953125 1.546875,-1.703125 0,-1 -0.828125,-1.296875 -1.359375,-1.46875 z M 4.90625,-8.5 C 5.125,-8.609375 5.328125,-8.609375 5.5625,-8.609375 c 0.46875,0 0.5,0.015625 0.796875,0.09375 C 6.1875,-8.453125 6.0625,-8.40625 5.46875,-8.40625 c -0.3125,0 -0.40625,0 -0.5625,-0.09375 z m 0,0"
               id="id-ef4af192-367c-4292-b2eb-d68d66fefd7a" />
          </g>
        </g>
      </defs>
      <g
         fill="#000000"
         fill-opacity="1"
         id="id-bc8a2037-2a1e-47ae-818d-102fe1805b45"
         transform="translate(-294.669,-56.8996)">
        <g
           transform="translate(294.028,66.884)"
           id="g9123">
          <path
             d="M 2.71875,-0.703125 C 1.859375,-1.03125 1.375,-1.671875 1.375,-2.75 c 0,-1.96875 1.453125,-4.59375 3.21875,-5.609375 0.25,0.234375 0.578125,0.234375 0.859375,0.234375 0.359375,0 1.234375,0 1.234375,-0.40625 0,-0.34375 -0.65625,-0.359375 -1.109375,-0.359375 -0.28125,0 -0.53125,0 -0.90625,0.15625 -0.078125,-0.1875 -0.125,-0.390625 -0.125,-0.609375 0,-0.25 0.0625,-0.453125 0.0625,-0.5 0,-0.078125 -0.078125,-0.140625 -0.15625,-0.140625 -0.21875,0 -0.21875,0.53125 -0.21875,0.640625 0,0.140625 0,0.4375 0.171875,0.734375 C 2.734375,-7.75 0.640625,-5.0625 0.640625,-2.375 c 0,1.953125 1.3125,2.421875 2.0625,2.671875 0.1875,0.0625 0.640625,0.21875 0.828125,0.296875 0.578125,0.1875 1.140625,0.375 1.140625,1.0625 0,0.421875 -0.296875,0.984375 -0.828125,0.984375 C 3.5625,2.640625 3.171875,2.53125 2.8125,2.1875 2.75,2.125 2.71875,2.09375 2.65625,2.09375 c -0.125,0 -0.140625,0.109375 -0.140625,0.140625 0,0.140625 0.609375,0.6875 1.328125,0.6875 0.921875,0 1.546875,-0.953125 1.546875,-1.703125 0,-1 -0.828125,-1.296875 -1.359375,-1.46875 z M 4.90625,-8.5 C 5.125,-8.609375 5.328125,-8.609375 5.5625,-8.609375 c 0.46875,0 0.5,0.015625 0.796875,0.09375 C 6.1875,-8.453125 6.0625,-8.40625 5.46875,-8.40625 c -0.3125,0 -0.40625,0 -0.5625,-0.09375 z m 0,0"
             id="id-84cf2a1d-80f4-4fe3-b732-0140371e129a" />
        </g>
      </g>
    </g>
  </g>
</svg>
