<?xml version="1.0" encoding="UTF-8" standalone="no"?>
<!-- Created with Inkscape (http://www.inkscape.org/) -->

<svg
   width="240mm"
   height="120mm"
   viewBox="0 0 240 120"
   version="1.1"
   id="svg8"
   inkscape:version="1.1.2 (0a00cf5339, 2022-02-04)"
   sodipodi:docname="theorem_cauchy_gurs_morer_1_to_3.svg"
   xmlns:inkscape="http://www.inkscape.org/namespaces/inkscape"
   xmlns:sodipodi="http://sodipodi.sourceforge.net/DTD/sodipodi-0.dtd"
   xmlns="http://www.w3.org/2000/svg"
   xmlns:svg="http://www.w3.org/2000/svg"
   xmlns:rdf="http://www.w3.org/1999/02/22-rdf-syntax-ns#"
   xmlns:cc="http://creativecommons.org/ns#"
   xmlns:dc="http://purl.org/dc/elements/1.1/">
  <defs
     id="defs2" />
  <sodipodi:namedview
     id="base"
     pagecolor="#ffffff"
     bordercolor="#666666"
     borderopacity="1.0"
     inkscape:pageopacity="0.0"
     inkscape:pageshadow="2"
     inkscape:zoom="1.1932731"
     inkscape:cx="424.88179"
     inkscape:cy="188.55701"
     inkscape:document-units="mm"
     inkscape:current-layer="layer1"
     showgrid="false"
     showborder="true"
     width="200mm"
     showguides="true"
     inkscape:guide-bbox="true"
     inkscape:window-width="1440"
     inkscape:window-height="840"
     inkscape:window-x="0"
     inkscape:window-y="0"
     inkscape:window-maximized="1"
     inkscape:pagecheckerboard="0"
     inkscape:showpageshadow="2"
     inkscape:deskcolor="#d1d1d1">
    <inkscape:grid
       type="xygrid"
       id="grid815"
       units="mm"
       spacingx="10"
       spacingy="10"
       empspacing="4"
       dotted="false" />
  </sodipodi:namedview>
  <metadata
     id="metadata5">
    <rdf:RDF>
      <cc:Work
         rdf:about="">
        <dc:format>image/svg+xml</dc:format>
        <dc:type
           rdf:resource="http://purl.org/dc/dcmitype/StillImage" />
        <dc:title />
      </cc:Work>
    </rdf:RDF>
  </metadata>
  <g
     inkscape:label="Layer 1"
     inkscape:groupmode="layer"
     id="layer1"
     transform="translate(0, -177)">
    <path
       style="fill:none;stroke:#000000;stroke-width:0.264583px;stroke-linecap:butt;stroke-linejoin:miter;stroke-opacity:1"
       d="m 67.231495,260.4439 c -29.997643,-44.34643 17.355772,-33.33464 28.216055,-45.63126 5.84194,-6.61458 5.4087,-26.53399 13.53487,-29.96297 43.51403,-18.36147 71.55445,11.67229 78.74619,55.31903 1.57489,9.55803 16.69071,39.22944 13.48136,46.54985 -3.48531,7.94984 -24.06441,-14.18766 -27.5628,-14.80236 -5.97772,-1.05033 -13.00621,19.0697 -22.26195,21.27008 -5.69964,1.35498 -77.600369,-0.23804 -82.365105,-6.30057 -4.168291,-5.30363 2.561979,-19.83655 -1.78862,-26.4418 z"
       id="path7458" />
    <path
       style="fill:none;stroke:#000000;stroke-width:0.264583px;stroke-linecap:butt;stroke-linejoin:miter;stroke-opacity:1"
       d="m 142.09073,289.90644 c -31.87446,-14.43041 2.52012,-48.87527 0,0 z"
       id="path7462" />
    <path
       style="fill:none;stroke:#000000;stroke-width:0.264583px;stroke-linecap:butt;stroke-linejoin:miter;stroke-opacity:1"
       d="m 77.673696,249.52591 c -22.479195,-36.10067 56.464594,-34.50607 27.364494,-6.55763 -9.544023,9.1663 -17.445532,8.65739 -27.364494,6.55763 z"
       id="path7924" />
    <path
       style="fill:#000000;fill-opacity:0.102909;stroke:none;stroke-width:1.38522;stroke-linejoin:bevel;stroke-miterlimit:4;stroke-dasharray:none"
       d="m 498.40222,8.673137 c -28.85639,1.0409959 -57.40453,8.350138 -83.96361,19.493422 -16.4218,6.07412 -23.02519,23.722297 -27.65154,39.105357 -7.84709,23.477728 -10.83009,48.828614 -23.25548,70.524904 -12.33321,18.21789 -35.58953,22.2553 -55.26885,28.00196 -26.44852,7.41101 -55.92534,11.01527 -77.53111,29.46956 -14.48944,11.88077 -16.33498,32.63265 -11.9808,49.7128 6.47043,28.11615 23.56744,51.89148 37.49708,76.6144 5.01687,13.76977 1.97326,29.00249 1.12475,43.1902 -1.05402,15.85564 -4.74869,32.77964 1.10183,48.08965 4.55222,8.49362 15.78237,8.89875 23.9615,11.55646 49.71976,9.97314 100.60192,12.00082 151.11235,14.79925 46.16267,2.16229 92.43586,1.4654 138.609,1.22109 22.46554,-8.62068 35.33876,-30.39525 49.34614,-48.55231 8.84671,-11.2559 16.36859,-25.00903 29.47862,-31.82173 7.59773,-3.0611 13.41459,5.43096 19.22849,8.8094 22.23883,16.85182 42.5783,37.00066 67.74056,49.63524 8.24679,4.66751 23.38556,4.58796 23.98911,-7.77057 2.13006,-24.34126 -8.25076,-47.47223 -15.70371,-70.09079 -11.6124,-33.85114 -27.27533,-66.49106 -35.7227,-101.3157 C 700.13277,184.75067 683.42584,129.66522 649.57341,84.693896 620.85301,45.116022 576.77781,15.271505 527.55669,9.8432095 517.87429,8.866641 508.13112,8.5073736 498.40222,8.673137 Z M 360.37828,171.41866 c 18.88899,0.62495 39.88154,3.64462 53.70369,17.86744 8.87763,9.04501 8.33974,23.42208 2.12503,33.8822 -12.71032,22.96192 -33.88573,41.09994 -58.29663,50.73006 -12.50416,4.19088 -25.91487,4.43295 -38.9551,3.91984 -8.22647,-1.85396 -17.28643,-1.8205 -25.04198,-4.97433 -11.75165,-18.33713 -20.01148,-41.52418 -11.35396,-62.52283 9.22836,-21.44159 32.87892,-31.80263 54.40533,-36.52979 7.69557,-1.59353 15.55454,-2.39329 23.41362,-2.37259 z M 508.17039,332.1343 c 12.96569,0.58602 19.24647,14.44318 22.84177,25.05822 6.00501,22.20242 5.25592,45.43771 5.0453,68.2576 -22.71465,-10.24418 -44.88015,-29.02183 -49.37422,-54.53105 -1.54663,-13.87114 2.1437,-31.60604 16.24515,-37.83776 1.67393,-0.61804 3.45652,-0.95038 5.242,-0.94701 z"
       id="path7963"
       transform="matrix(0.26458333,0,0,0.26458333,0,177)" />
    <circle
       style="fill:#0000ff;fill-opacity:0.18553;stroke:none;stroke-width:0.444055;stroke-linejoin:bevel;stroke-miterlimit:4;stroke-dasharray:none"
       id="path8028"
       cx="268.18362"
       cy="-24.130373"
       r="34.894787"
       transform="rotate(62.122669)" />
    <circle
       id="path8839"
       style="fill:#0000ff;stroke:none;stroke-width:0.523701;fill-opacity:1"
       cx="146.51666"
       cy="226.27747"
       r="0.78555286" />
    <circle
       id="path8839-3"
       style="fill:#ff0000;fill-opacity:1;stroke:none;stroke-width:0.523701"
       cx="138.50871"
       cy="203.70044"
       r="0.78555286" />
    <text
       xml:space="preserve"
       style="font-size:3.88056px;line-height:1.25;font-family:sans-serif;-inkscape-font-specification:'sans-serif, Normal';stroke-width:0.264583"
       x="144.98308"
       y="232.49648"
       id="text10667"><tspan
         sodipodi:role="line"
         id="tspan10665"
         style="stroke-width:0.264583"
         x="144.98308"
         y="232.49648">\color{blue}$a$</tspan></text>
    <text
       xml:space="preserve"
       style="font-size:3.88056px;line-height:1.25;font-family:sans-serif;-inkscape-font-specification:'sans-serif, Normal';stroke-width:0.264583"
       x="134.91125"
       y="209.48946"
       id="text15179"><tspan
         sodipodi:role="line"
         id="tspan15177"
         style="stroke-width:0.264583"
         x="134.91125"
         y="209.48946">\color{red}$b$</tspan></text>
    <text
       xml:space="preserve"
       style="font-size:3.88056px;line-height:1.25;font-family:sans-serif;-inkscape-font-specification:'sans-serif, Normal';stroke-width:0.264583"
       x="173.91806"
       y="255.97404"
       id="text20589"><tspan
         sodipodi:role="line"
         id="tspan20587"
         style="stroke-width:0.264583"
         x="173.91806"
         y="255.97404">\color{blue}$D$</tspan></text>
    <text
       xml:space="preserve"
       style="font-size:3.88056px;line-height:1.25;font-family:sans-serif;-inkscape-font-specification:'sans-serif, Normal';stroke-width:0.264583"
       x="83.866333"
       y="274.88373"
       id="text21817"><tspan
         sodipodi:role="line"
         id="tspan21815"
         style="stroke-width:0.264583"
         x="83.866333"
         y="274.88373">$\Omega$</tspan></text>
    <circle
       style="fill:none;stroke:#89008c;stroke-width:0.404231;stroke-linejoin:bevel;stroke-opacity:1"
       id="path893"
       cx="147.16399"
       cy="225.54614"
       r="31.152737" />
    <text
       xml:space="preserve"
       style="font-size:3.88056px;line-height:1.25;font-family:sans-serif;-inkscape-font-specification:'sans-serif, Normal';stroke-width:0.264583"
       x="120.35113"
       y="233.91266"
       id="text5683"><tspan
         sodipodi:role="line"
         id="tspan5681"
         style="stroke-width:0.264583"
         x="120.35113"
         y="233.91266">\color{violet}$C_\rho$</tspan></text>
  </g>
</svg>
