<?xml version="1.0" encoding="UTF-8" standalone="no"?>
<!-- Created with Inkscape (http://www.inkscape.org/) -->

<svg
   width="240mm"
   height="120mm"
   viewBox="0 0 240 120"
   version="1.1"
   id="svg8"
   inkscape:version="1.2.2 (b0a8486541, 2022-12-01)"
   sodipodi:docname="uniqueness_thm_f.svg"
   xmlns:inkscape="http://www.inkscape.org/namespaces/inkscape"
   xmlns:sodipodi="http://sodipodi.sourceforge.net/DTD/sodipodi-0.dtd"
   xmlns="http://www.w3.org/2000/svg"
   xmlns:svg="http://www.w3.org/2000/svg"
   xmlns:rdf="http://www.w3.org/1999/02/22-rdf-syntax-ns#"
   xmlns:cc="http://creativecommons.org/ns#"
   xmlns:dc="http://purl.org/dc/elements/1.1/"
   xmlns:ns1="http://www.iki.fi/pav/software/textext/">
  <defs
     id="defs2" />
  <sodipodi:namedview
     id="base"
     pagecolor="#ffffff"
     bordercolor="#666666"
     borderopacity="1.0"
     inkscape:pageopacity="0.0"
     inkscape:pageshadow="2"
     inkscape:zoom="8.2839323"
     inkscape:cx="358.40467"
     inkscape:cy="246.74272"
     inkscape:document-units="mm"
     inkscape:current-layer="g6416"
     showgrid="false"
     showborder="true"
     width="200mm"
     showguides="true"
     inkscape:guide-bbox="true"
     inkscape:window-width="2560"
     inkscape:window-height="1417"
     inkscape:window-x="0"
     inkscape:window-y="0"
     inkscape:window-maximized="1"
     inkscape:showpageshadow="2"
     inkscape:pagecheckerboard="0"
     inkscape:deskcolor="#d1d1d1">
    <inkscape:grid
       type="xygrid"
       id="grid815"
       units="mm"
       spacingx="10"
       spacingy="10"
       empspacing="4"
       dotted="false" />
  </sodipodi:namedview>
  <metadata
     id="metadata5">
    <rdf:RDF>
      <cc:Work
         rdf:about="">
        <dc:format>image/svg+xml</dc:format>
        <dc:type
           rdf:resource="http://purl.org/dc/dcmitype/StillImage" />
        <dc:title />
      </cc:Work>
    </rdf:RDF>
  </metadata>
  <g
     inkscape:label="Layer 1"
     inkscape:groupmode="layer"
     id="layer1"
     transform="translate(0, -177)">
    <path
       style="fill:#000000;fill-opacity:0;fill-rule:evenodd;stroke:#000000;stroke-width:0.408001;paint-order:stroke fill markers"
       d="m 87.521218,285.93311 c -32.104014,-0.47745 -35.079272,1.58126 -48.862606,-28.54202 -13.783335,-30.12328 -17.494897,-41.82553 -3.23156,-50.61644 14.263341,-8.79091 38.634882,-25.22418 55.211316,-15.96285 16.576432,9.26133 128.745222,9.86341 122.767872,24.9749 -5.97736,15.1115 -5.83531,51.17998 -30.56877,59.54541 -22.31028,7.54585 -95.316252,10.601 -95.316252,10.601 z"
       id="path185"
       sodipodi:nodetypes="csssssc" />
    <g
       transform="matrix(0.386514,0,0,0.386514,203.79541,259.0029)"
       ns1:version="1.8.2"
       ns1:texconverter="pdflatex"
       ns1:pdfconverter="inkscape"
       ns1:text="$$\\Omega$$"
       ns1:preamble="/home/buyolitsez/.config/inkscape/extensions/textext/default_packages.tex"
       ns1:scale="1.09563089851748"
       ns1:alignment="middle center"
       ns1:stroke-to-path="0"
       ns1:inkscapeversion="0.92.4"
       ns1:jacobian_sqrt="0.386514"
       id="g462">
      <defs
         id="id-85b1a502-888d-40d6-9142-588f8b2a5b98">
        <g
           id="id-020bf1bb-1d0f-4c39-891d-ab9424aef605">
          <g
             id="id-7b6a0ae0-e8ea-4a23-8f57-dcf33b6b736d" />
          <g
             id="id-e00d129f-535e-44dc-9244-7390a266d4bf">
            <path
               d="M 9.5,-2.234375 H 9.1875 c -0.078125,0.375 -0.15625,0.75 -0.265625,1.046875 C 8.84375,-0.96875 8.8125,-0.84375 7.96875,-0.84375 h -1.125 c 0.171875,-0.8125 0.59375,-1.5 1.171875,-2.390625 0.671875,-1.046875 1.34375,-2.09375 1.34375,-3.28125 0,-1.96875 -1.90625,-3.578125 -4.296875,-3.578125 -2.40625,0 -4.28125,1.609375 -4.28125,3.578125 0,1.1875 0.640625,2.21875 1.3125,3.265625 0.609375,0.921875 1.03125,1.59375 1.1875,2.40625 h -1.125 c -0.84375,0 -0.875,-0.125 -0.953125,-0.328125 -0.109375,-0.3125 -0.1875,-0.71875 -0.25,-1.0625 H 0.625 L 1.09375,0 H 3.3125 C 3.625,0 3.65625,0 3.65625,-0.265625 3.65625,-1.28125 3.203125,-2.53125 2.90625,-3.25 2.5,-4.390625 2.109375,-5.4375 2.109375,-6.53125 c 0,-2.203125 1.53125,-3.28125 2.953125,-3.28125 1.421875,0 2.953125,1.078125 2.953125,3.28125 0,1.09375 -0.40625,2.171875 -0.796875,3.234375 -0.25,0.6875 -0.75,2 -0.75,3.03125 C 6.46875,0 6.515625,0 6.828125,0 H 9.03125 Z m 0,0"
               id="id-aa2b2798-05db-4e6b-aa67-1b03546ecbe6" />
          </g>
        </g>
      </defs>
      <g
         fill="#000000"
         fill-opacity="1"
         id="id-7b4d601b-796c-48d7-8bc7-c5388849019e"
         transform="translate(-293.19,-56.7903)">
        <g
           transform="translate(292.565,66.884)"
           id="g459">
          <path
             d="M 9.5,-2.234375 H 9.1875 c -0.078125,0.375 -0.15625,0.75 -0.265625,1.046875 C 8.84375,-0.96875 8.8125,-0.84375 7.96875,-0.84375 h -1.125 c 0.171875,-0.8125 0.59375,-1.5 1.171875,-2.390625 0.671875,-1.046875 1.34375,-2.09375 1.34375,-3.28125 0,-1.96875 -1.90625,-3.578125 -4.296875,-3.578125 -2.40625,0 -4.28125,1.609375 -4.28125,3.578125 0,1.1875 0.640625,2.21875 1.3125,3.265625 0.609375,0.921875 1.03125,1.59375 1.1875,2.40625 h -1.125 c -0.84375,0 -0.875,-0.125 -0.953125,-0.328125 -0.109375,-0.3125 -0.1875,-0.71875 -0.25,-1.0625 H 0.625 L 1.09375,0 H 3.3125 C 3.625,0 3.65625,0 3.65625,-0.265625 3.65625,-1.28125 3.203125,-2.53125 2.90625,-3.25 2.5,-4.390625 2.109375,-5.4375 2.109375,-6.53125 c 0,-2.203125 1.53125,-3.28125 2.953125,-3.28125 1.421875,0 2.953125,1.078125 2.953125,3.28125 0,1.09375 -0.40625,2.171875 -0.796875,3.234375 -0.25,0.6875 -0.75,2 -0.75,3.03125 C 6.46875,0 6.515625,0 6.828125,0 H 9.03125 Z m 0,0"
             id="id-b369a204-72ec-45e3-840b-aa88402f1a9a" />
        </g>
      </g>
    </g>
    <g
       transform="matrix(0.386514,0,0,0.386514,156.86229,237.27556)"
       ns1:version="1.8.2"
       ns1:texconverter="pdflatex"
       ns1:pdfconverter="inkscape"
       ns1:text="$$w$$"
       ns1:preamble="/home/buyolitsez/.config/inkscape/extensions/textext/default_packages.tex"
       ns1:scale="1.09563089851748"
       ns1:alignment="middle center"
       ns1:stroke-to-path="0"
       ns1:inkscapeversion="0.92.4"
       ns1:jacobian_sqrt="0.386514"
       id="g517">
      <defs
         id="id-b31ee3b0-f9c3-4e66-b045-3eb70606fe96">
        <g
           id="id-f70c3214-c206-4cd6-9800-26325e30cb30">
          <g
             id="id-f5932dd7-9fd8-4c58-81d5-c6664dc76c66" />
          <g
             id="id-d1eaec8e-f282-4890-b7c6-d8f3aeeae09a">
            <path
               d="m 4.9375,-0.875 c 0.3125,0.859375 1.203125,1.015625 1.75,1.015625 1.09375,0 1.734375,-0.9375 2.140625,-1.9375 C 9.15625,-2.625 9.6875,-4.515625 9.6875,-5.359375 c 0,-0.875 -0.453125,-0.96875 -0.578125,-0.96875 -0.34375,0 -0.65625,0.34375 -0.65625,0.640625 0,0.171875 0.09375,0.265625 0.171875,0.328125 0.125,0.125 0.5,0.515625 0.5,1.25 0,0.5 -0.40625,1.84375 -0.703125,2.515625 -0.40625,0.875 -0.9375,1.453125 -1.6875,1.453125 C 5.9375,-0.140625 5.6875,-0.75 5.6875,-1.40625 c 0,-0.421875 0.125,-0.921875 0.171875,-1.15625 L 6.46875,-4.984375 c 0.078125,-0.28125 0.203125,-0.78125 0.203125,-0.84375 C 6.671875,-6.03125 6.5,-6.1875 6.28125,-6.1875 c -0.421875,0 -0.515625,0.359375 -0.59375,0.703125 -0.15625,0.5625 -0.75,2.984375 -0.8125,3.296875 -0.0625,0.25 -0.0625,0.40625 -0.0625,0.71875 0,0.34375 -0.453125,0.890625 -0.46875,0.921875 -0.15625,0.15625 -0.390625,0.40625 -0.828125,0.40625 C 2.375,-0.140625 2.375,-1.21875 2.375,-1.46875 c 0,-0.453125 0.109375,-1.078125 0.75,-2.796875 0.171875,-0.4375 0.25,-0.625 0.25,-0.90625 0,-0.609375 -0.4375,-1.15625 -1.140625,-1.15625 -1.3125,0 -1.84375,2.078125 -1.84375,2.203125 0,0.046875 0.046875,0.125 0.15625,0.125 0.125,0 0.140625,-0.0625 0.203125,-0.265625 0.359375,-1.25 0.90625,-1.765625 1.4375,-1.765625 0.15625,0 0.375,0 0.375,0.46875 0,0.0625 0,0.375 -0.234375,1 C 1.65625,-2.765625 1.5,-2.1875 1.5,-1.640625 c 0,1.515625 1.234375,1.78125 1.96875,1.78125 0.25,0 0.890625,0 1.46875,-1.015625 z m 0,0"
               id="id-9eecff8c-e273-4562-8287-33db57c0dc78" />
          </g>
        </g>
      </defs>
      <g
         fill="#000000"
         fill-opacity="1"
         id="id-d14ada11-1020-463c-aadb-20532c99b5d9"
         transform="translate(-292.815,-60.5559)">
        <g
           transform="translate(292.424,66.884)"
           id="g514">
          <path
             d="m 4.9375,-0.875 c 0.3125,0.859375 1.203125,1.015625 1.75,1.015625 1.09375,0 1.734375,-0.9375 2.140625,-1.9375 C 9.15625,-2.625 9.6875,-4.515625 9.6875,-5.359375 c 0,-0.875 -0.453125,-0.96875 -0.578125,-0.96875 -0.34375,0 -0.65625,0.34375 -0.65625,0.640625 0,0.171875 0.09375,0.265625 0.171875,0.328125 0.125,0.125 0.5,0.515625 0.5,1.25 0,0.5 -0.40625,1.84375 -0.703125,2.515625 -0.40625,0.875 -0.9375,1.453125 -1.6875,1.453125 C 5.9375,-0.140625 5.6875,-0.75 5.6875,-1.40625 c 0,-0.421875 0.125,-0.921875 0.171875,-1.15625 L 6.46875,-4.984375 c 0.078125,-0.28125 0.203125,-0.78125 0.203125,-0.84375 C 6.671875,-6.03125 6.5,-6.1875 6.28125,-6.1875 c -0.421875,0 -0.515625,0.359375 -0.59375,0.703125 -0.15625,0.5625 -0.75,2.984375 -0.8125,3.296875 -0.0625,0.25 -0.0625,0.40625 -0.0625,0.71875 0,0.34375 -0.453125,0.890625 -0.46875,0.921875 -0.15625,0.15625 -0.390625,0.40625 -0.828125,0.40625 C 2.375,-0.140625 2.375,-1.21875 2.375,-1.46875 c 0,-0.453125 0.109375,-1.078125 0.75,-2.796875 0.171875,-0.4375 0.25,-0.625 0.25,-0.90625 0,-0.609375 -0.4375,-1.15625 -1.140625,-1.15625 -1.3125,0 -1.84375,2.078125 -1.84375,2.203125 0,0.046875 0.046875,0.125 0.15625,0.125 0.125,0 0.140625,-0.0625 0.203125,-0.265625 0.359375,-1.25 0.90625,-1.765625 1.4375,-1.765625 0.15625,0 0.375,0 0.375,0.46875 0,0.0625 0,0.375 -0.234375,1 C 1.65625,-2.765625 1.5,-2.1875 1.5,-1.640625 c 0,1.515625 1.234375,1.78125 1.96875,1.78125 0.25,0 0.890625,0 1.46875,-1.015625 z m 0,0"
             id="id-d0579847-f026-4c60-affd-7078f03abf4a" />
        </g>
      </g>
    </g>
    <circle
       style="fill:#000000;fill-opacity:1;fill-rule:evenodd;stroke:#000000;stroke-width:0.408001;paint-order:stroke fill markers"
       id="path608"
       cx="155.31671"
       cy="235.92078"
       r="1.1" />
    <circle
       style="fill:#000000;fill-opacity:1;fill-rule:evenodd;stroke:#000000;stroke-width:0.408001;paint-order:stroke fill markers"
       id="circle3706"
       cx="71.905487"
       cy="244.51704"
       r="1.1" />
    <g
       transform="matrix(0.386514,0,0,0.386514,71.767208,248.22248)"
       ns1:version="1.8.2"
       ns1:texconverter="pdflatex"
       ns1:pdfconverter="inkscape"
       ns1:text="$$z_\\ast$$"
       ns1:preamble="/home/buyolitsez/.config/inkscape/extensions/textext/default_packages.tex"
       ns1:scale="1.09563089851748"
       ns1:alignment="middle center"
       ns1:stroke-to-path="0"
       ns1:inkscapeversion="1.2.2"
       ns1:jacobian_sqrt="0.386514"
       id="g3776">
      <defs
         id="id-4e453883-e51d-4c9d-8011-66137570cbd3">
        <g
           id="id-9c679380-f021-42d1-b64e-bc501c400e3d">
          <g
             id="id-3f217446-7709-4ef2-968e-c75999279cf0" />
          <g
             id="id-22938526-bd7a-42e2-8b27-7ae824f82b24">
            <path
               d="M 1.828125,-1.15625 C 2.4375,-1.859375 2.9375,-2.3125 3.65625,-2.953125 c 0.859375,-0.75 1.234375,-1.109375 1.4375,-1.328125 1,-0.984375 1.5,-1.8125 1.5,-1.921875 0,-0.125 -0.109375,-0.125 -0.140625,-0.125 -0.09375,0 -0.125,0.0625 -0.203125,0.15625 C 5.890625,-5.546875 5.546875,-5.25 5.171875,-5.25 4.875,-5.25 4.71875,-5.375 4.453125,-5.71875 4.140625,-6.078125 3.90625,-6.328125 3.484375,-6.328125 c -1.046875,0 -1.671875,1.3125 -1.671875,1.609375 0,0.046875 0.015625,0.125 0.140625,0.125 0.109375,0 0.125,-0.046875 0.171875,-0.15625 0.234375,-0.578125 0.9375,-0.671875 1.203125,-0.671875 0.296875,0 0.59375,0.09375 0.890625,0.234375 0.546875,0.21875 0.765625,0.21875 0.921875,0.21875 0.09375,0 0.15625,0 0.21875,-0.015625 -0.46875,0.5625 -1.25,1.25 -1.890625,1.84375 L 2.015625,-1.8125 c -0.875,0.890625 -1.40625,1.734375 -1.40625,1.84375 0,0.078125 0.078125,0.109375 0.171875,0.109375 0.078125,0 0.09375,-0.015625 0.1875,-0.1875 C 1.203125,-0.40625 1.65625,-0.9375 2.1875,-0.9375 c 0.3125,0 0.453125,0.109375 0.734375,0.46875 0.28125,0.3125 0.515625,0.609375 0.984375,0.609375 1.40625,0 2.203125,-1.8125 2.203125,-2.15625 0,-0.046875 -0.015625,-0.140625 -0.15625,-0.140625 -0.109375,0 -0.125,0.0625 -0.171875,0.203125 -0.3125,0.84375 -1.15625,1.1875 -1.71875,1.1875 -0.296875,0 -0.59375,-0.09375 -0.890625,-0.21875 C 2.59375,-1.21875 2.4375,-1.21875 2.25,-1.21875 c -0.140625,0 -0.296875,0 -0.421875,0.0625 z m 0,0"
               id="id-83b33235-2328-4306-8944-c6c817712f85" />
          </g>
          <g
             id="id-3043d58e-5ffa-433c-a261-7b6f51142ee7" />
          <g
             id="id-6d27e47e-5924-4a70-9c37-b666c3355b77">
            <path
               d="M 2.734375,-4.25 C 2.75,-4.390625 2.75,-4.640625 2.5,-4.640625 2.328125,-4.640625 2.203125,-4.5 2.234375,-4.375 V -4.25 L 2.375,-2.703125 1.09375,-3.625 C 1,-3.671875 0.984375,-3.703125 0.921875,-3.703125 c -0.140625,0 -0.28125,0.140625 -0.28125,0.28125 0,0.15625 0.109375,0.203125 0.203125,0.25 L 2.265625,-2.5 l -1.375,0.671875 c -0.15625,0.078125 -0.25,0.125 -0.25,0.265625 0,0.15625 0.140625,0.28125 0.28125,0.28125 0.0625,0 0.078125,0 0.328125,-0.1875 L 2.375,-2.265625 2.21875,-0.59375 c 0,0.203125 0.1875,0.25 0.265625,0.25 0.125,0 0.265625,-0.0625 0.265625,-0.25 L 2.609375,-2.265625 3.875,-1.34375 c 0.09375,0.046875 0.109375,0.0625 0.1875,0.0625 0.140625,0 0.265625,-0.140625 0.265625,-0.28125 0,-0.140625 -0.09375,-0.1875 -0.21875,-0.25 C 3.515625,-2.109375 3.5,-2.109375 2.71875,-2.484375 l 1.375,-0.671875 C 4.25,-3.234375 4.328125,-3.265625 4.328125,-3.421875 c 0,-0.140625 -0.125,-0.28125 -0.265625,-0.28125 -0.078125,0 -0.09375,0 -0.34375,0.1875 l -1.109375,0.8125 z m 0,0"
               id="id-a00a06cc-c6ea-4d81-a039-cfc5dbbe34a4" />
          </g>
        </g>
      </defs>
      <g
         fill="#000000"
         fill-opacity="1"
         id="id-1c00abbe-8b26-48da-a1c1-6dab05bf0856"
         transform="translate(-292.244,-60.5559)">
        <g
           transform="translate(291.635,66.884)"
           id="g3769">
          <path
             d="M 1.828125,-1.15625 C 2.4375,-1.859375 2.9375,-2.3125 3.65625,-2.953125 c 0.859375,-0.75 1.234375,-1.109375 1.4375,-1.328125 1,-0.984375 1.5,-1.8125 1.5,-1.921875 0,-0.125 -0.109375,-0.125 -0.140625,-0.125 -0.09375,0 -0.125,0.0625 -0.203125,0.15625 C 5.890625,-5.546875 5.546875,-5.25 5.171875,-5.25 4.875,-5.25 4.71875,-5.375 4.453125,-5.71875 4.140625,-6.078125 3.90625,-6.328125 3.484375,-6.328125 c -1.046875,0 -1.671875,1.3125 -1.671875,1.609375 0,0.046875 0.015625,0.125 0.140625,0.125 0.109375,0 0.125,-0.046875 0.171875,-0.15625 0.234375,-0.578125 0.9375,-0.671875 1.203125,-0.671875 0.296875,0 0.59375,0.09375 0.890625,0.234375 0.546875,0.21875 0.765625,0.21875 0.921875,0.21875 0.09375,0 0.15625,0 0.21875,-0.015625 -0.46875,0.5625 -1.25,1.25 -1.890625,1.84375 L 2.015625,-1.8125 c -0.875,0.890625 -1.40625,1.734375 -1.40625,1.84375 0,0.078125 0.078125,0.109375 0.171875,0.109375 0.078125,0 0.09375,-0.015625 0.1875,-0.1875 C 1.203125,-0.40625 1.65625,-0.9375 2.1875,-0.9375 c 0.3125,0 0.453125,0.109375 0.734375,0.46875 0.28125,0.3125 0.515625,0.609375 0.984375,0.609375 1.40625,0 2.203125,-1.8125 2.203125,-2.15625 0,-0.046875 -0.015625,-0.140625 -0.15625,-0.140625 -0.109375,0 -0.125,0.0625 -0.171875,0.203125 -0.3125,0.84375 -1.15625,1.1875 -1.71875,1.1875 -0.296875,0 -0.59375,-0.09375 -0.890625,-0.21875 C 2.59375,-1.21875 2.4375,-1.21875 2.25,-1.21875 c -0.140625,0 -0.296875,0 -0.421875,0.0625 z m 0,0"
             id="id-f9f2fb18-f8a4-41d7-b32b-c850698a104a" />
        </g>
      </g>
      <g
         fill="#000000"
         fill-opacity="1"
         id="id-16e85267-8022-4827-bffd-75375731239c"
         transform="translate(-292.244,-60.5559)">
        <g
           transform="translate(298.161,69.036)"
           id="g3773">
          <path
             d="M 2.734375,-4.25 C 2.75,-4.390625 2.75,-4.640625 2.5,-4.640625 2.328125,-4.640625 2.203125,-4.5 2.234375,-4.375 V -4.25 L 2.375,-2.703125 1.09375,-3.625 C 1,-3.671875 0.984375,-3.703125 0.921875,-3.703125 c -0.140625,0 -0.28125,0.140625 -0.28125,0.28125 0,0.15625 0.109375,0.203125 0.203125,0.25 L 2.265625,-2.5 l -1.375,0.671875 c -0.15625,0.078125 -0.25,0.125 -0.25,0.265625 0,0.15625 0.140625,0.28125 0.28125,0.28125 0.0625,0 0.078125,0 0.328125,-0.1875 L 2.375,-2.265625 2.21875,-0.59375 c 0,0.203125 0.1875,0.25 0.265625,0.25 0.125,0 0.265625,-0.0625 0.265625,-0.25 L 2.609375,-2.265625 3.875,-1.34375 c 0.09375,0.046875 0.109375,0.0625 0.1875,0.0625 0.140625,0 0.265625,-0.140625 0.265625,-0.28125 0,-0.140625 -0.09375,-0.1875 -0.21875,-0.25 C 3.515625,-2.109375 3.5,-2.109375 2.71875,-2.484375 l 1.375,-0.671875 C 4.25,-3.234375 4.328125,-3.265625 4.328125,-3.421875 c 0,-0.140625 -0.125,-0.28125 -0.265625,-0.28125 -0.078125,0 -0.09375,0 -0.34375,0.1875 l -1.109375,0.8125 z m 0,0"
             id="id-0a7aa5c6-8123-47bd-baf1-10373be805ee" />
        </g>
      </g>
    </g>
    <path
       style="fill:#000000;fill-opacity:0;fill-rule:evenodd;stroke:#000000;stroke-width:0.408001;paint-order:stroke fill markers"
       d="m 67.938885,262.61887 c -18.677721,-12.54156 -30.647227,-23.04736 -26.378302,-28.6484 4.268925,-5.60103 16.340489,-11.34843 31.280382,-3.55922 14.939894,7.78921 22.451134,12.57916 18.148639,24.47414 -4.302498,11.89498 -11.226239,19.57072 -15.207795,17.03004 -3.981553,-2.54068 -7.842924,-9.29656 -7.842924,-9.29656 z"
       id="path3850" />
    <g
       transform="matrix(0.386514,0,0,0.386514,86.502233,267.22977)"
       ns1:version="1.8.2"
       ns1:texconverter="pdflatex"
       ns1:pdfconverter="inkscape"
       ns1:text="$$F$$"
       ns1:preamble="/home/buyolitsez/.config/inkscape/extensions/textext/default_packages.tex"
       ns1:scale="1.09563089851748"
       ns1:alignment="middle center"
       ns1:stroke-to-path="0"
       ns1:inkscapeversion="1.2.2"
       ns1:jacobian_sqrt="0.386514"
       id="g4053">
      <defs
         id="id-1ae1623a-abb0-4aae-bc6a-cf86c5c13a24">
        <g
           id="id-766a3a73-10eb-4c3f-9e80-a0835879eb3e">
          <g
             id="id-9cc3f239-610e-444d-a167-30ee941d0142" />
          <g
             id="id-d9e4e6a4-ca40-4404-b836-575f60cfbeb5">
            <path
               d="m 4.265625,-4.671875 h 1.375 c 1.09375,0 1.171875,0.234375 1.171875,0.65625 0,0.1875 -0.03125,0.390625 -0.09375,0.703125 -0.03125,0.0625 -0.046875,0.125 -0.046875,0.15625 0,0.09375 0.0625,0.15625 0.15625,0.15625 0.109375,0 0.125,-0.0625 0.1875,-0.28125 L 7.84375,-6.625 c 0,-0.0625 -0.046875,-0.140625 -0.140625,-0.140625 -0.125,0 -0.140625,0.046875 -0.203125,0.296875 -0.296875,1.078125 -0.59375,1.375 -1.828125,1.375 h -1.3125 l 0.9375,-3.71875 c 0.125,-0.5 0.15625,-0.546875 0.734375,-0.546875 h 1.921875 c 1.796875,0 2.0625,0.53125 2.0625,1.5625 0,0.078125 0,0.390625 -0.046875,0.765625 -0.015625,0.0625 -0.046875,0.25 -0.046875,0.296875 0,0.125 0.078125,0.171875 0.15625,0.171875 0.109375,0 0.15625,-0.0625 0.1875,-0.328125 l 0.3125,-2.5 c 0,-0.046875 0.01563,-0.1875 0.01563,-0.21875 0,-0.15625 -0.125,-0.15625 -0.375,-0.15625 h -6.8125 c -0.265625,0 -0.40625,0 -0.40625,0.25 0,0.15625 0.09375,0.15625 0.34375,0.15625 0.890625,0 0.890625,0.109375 0.890625,0.265625 0,0.078125 -0.015625,0.125 -0.0625,0.28125 l -1.9375,7.75 c -0.125,0.5 -0.15625,0.640625 -1.15625,0.640625 -0.28125,0 -0.421875,0 -0.421875,0.265625 C 0.65625,0 0.78125,0 0.875,0 1.140625,0 1.4375,-0.03125 1.703125,-0.03125 h 1.875 c 0.3125,0 0.65625,0.03125 0.96875,0.03125 0.125,0 0.296875,0 0.296875,-0.265625 0,-0.15625 -0.078125,-0.15625 -0.390625,-0.15625 -1.140625,0 -1.171875,-0.09375 -1.171875,-0.3125 0,-0.0625 0.03125,-0.1875 0.0625,-0.28125 z m 0,0"
               id="id-1c534925-433e-4e2f-b6fb-d95bcc740134" />
          </g>
        </g>
      </defs>
      <g
         fill="#000000"
         fill-opacity="1"
         id="id-cd223c1b-159e-4cee-9deb-c0d3a16d9a77"
         transform="translate(-292.772,-57.1184)">
        <g
           transform="translate(292.116,66.884)"
           id="g4050">
          <path
             d="m 4.265625,-4.671875 h 1.375 c 1.09375,0 1.171875,0.234375 1.171875,0.65625 0,0.1875 -0.03125,0.390625 -0.09375,0.703125 -0.03125,0.0625 -0.046875,0.125 -0.046875,0.15625 0,0.09375 0.0625,0.15625 0.15625,0.15625 0.109375,0 0.125,-0.0625 0.1875,-0.28125 L 7.84375,-6.625 c 0,-0.0625 -0.046875,-0.140625 -0.140625,-0.140625 -0.125,0 -0.140625,0.046875 -0.203125,0.296875 -0.296875,1.078125 -0.59375,1.375 -1.828125,1.375 h -1.3125 l 0.9375,-3.71875 c 0.125,-0.5 0.15625,-0.546875 0.734375,-0.546875 h 1.921875 c 1.796875,0 2.0625,0.53125 2.0625,1.5625 0,0.078125 0,0.390625 -0.046875,0.765625 -0.015625,0.0625 -0.046875,0.25 -0.046875,0.296875 0,0.125 0.078125,0.171875 0.15625,0.171875 0.109375,0 0.15625,-0.0625 0.1875,-0.328125 l 0.3125,-2.5 c 0,-0.046875 0.01563,-0.1875 0.01563,-0.21875 0,-0.15625 -0.125,-0.15625 -0.375,-0.15625 h -6.8125 c -0.265625,0 -0.40625,0 -0.40625,0.25 0,0.15625 0.09375,0.15625 0.34375,0.15625 0.890625,0 0.890625,0.109375 0.890625,0.265625 0,0.078125 -0.015625,0.125 -0.0625,0.28125 l -1.9375,7.75 c -0.125,0.5 -0.15625,0.640625 -1.15625,0.640625 -0.28125,0 -0.421875,0 -0.421875,0.265625 C 0.65625,0 0.78125,0 0.875,0 1.140625,0 1.4375,-0.03125 1.703125,-0.03125 h 1.875 c 0.3125,0 0.65625,0.03125 0.96875,0.03125 0.125,0 0.296875,0 0.296875,-0.265625 0,-0.15625 -0.078125,-0.15625 -0.390625,-0.15625 -1.140625,0 -1.171875,-0.09375 -1.171875,-0.3125 0,-0.0625 0.03125,-0.1875 0.0625,-0.28125 z m 0,0"
             id="id-e8c71ef6-1f98-494e-95f2-fe09ae868d93" />
        </g>
      </g>
    </g>
    <path
       style="fill:#000000;fill-opacity:0;fill-rule:evenodd;stroke:#000000;stroke-width:0.408;paint-order:stroke fill markers;stroke-dasharray:0.40799999,0.40799999;stroke-dashoffset:0"
       d="m 72.033595,244.37417 c 43.604755,-13.63382 51.798045,0.83935 51.901965,4.56975 0.10393,3.73039 5.30309,10.36522 10.81529,4.01702 5.51219,-6.3482 -5.32279,-12.55267 2.89019,-18.32761 8.21298,-5.77494 17.47149,1.52031 17.47149,1.52031"
       id="path5571" />
    <circle
       style="fill:#ff0000;fill-opacity:1;fill-rule:evenodd;stroke:#ff0000;stroke-width:0.408001;paint-order:stroke fill markers"
       id="circle5573"
       cx="88.222626"
       cy="240.3008"
       r="1.1" />
    <g
       transform="matrix(0.386514 0 0 0.386514 93.6714 239.79)"
       ns1:version="1.8.2"
       ns1:texconverter="pdflatex"
       ns1:pdfconverter="inkscape"
       ns1:text="$$\\xi$$"
       ns1:preamble="/home/buyolitsez/.config/inkscape/extensions/textext/default_packages.tex"
       ns1:scale="1.09563089851748"
       ns1:alignment="middle center"
       ns1:stroke-to-path="0"
       ns1:inkscapeversion="1.2.2"
       ns1:jacobian_sqrt="0.386514"
       id="g6416">
      <defs
         id="id-e1effd61-2651-4907-8495-0ad3581d1af4">
        <g
           id="id-3798aaf7-903e-434b-a3d7-6c47a733007a">
          <g
             id="id-364bda12-f6dd-40a6-ace3-4924d7ffcdf8" />
          <g
             id="id-503c71c5-7c67-4538-8c7c-c56f09b3687a">
            <path
               d="M 3.75,0.078125 2.234375,-0.53125 C 1.859375,-0.671875 1,-1.015625 1,-1.875 c 0,-1.234375 1.515625,-2.484375 1.8125,-2.484375 0.03125,0 0.15625,0.03125 0.203125,0.046875 0.390625,0.109375 0.75,0.109375 1.015625,0.109375 0.4375,0 1.296875,0 1.296875,-0.421875 0,-0.3125 -0.515625,-0.359375 -1.140625,-0.359375 -0.28125,0 -0.671875,0 -1.1875,0.171875 -0.34375,-0.28125 -0.484375,-0.734375 -0.484375,-1.171875 0,-0.78125 0.515625,-1.90625 1.640625,-2.4375 C 4.421875,-8.125 4.765625,-8.125 5.0625,-8.125 c 0.359375,0 1.234375,0 1.234375,-0.40625 0,-0.359375 -0.6875,-0.359375 -1.140625,-0.359375 -0.296875,0 -0.515625,0 -0.90625,0.0625 C 4.171875,-9 4.15625,-9.015625 4.15625,-9.34375 c 0,-0.25 0.0625,-0.453125 0.0625,-0.5 0,-0.078125 -0.078125,-0.140625 -0.140625,-0.140625 -0.234375,0 -0.234375,0.53125 -0.234375,0.640625 0,0.203125 0.015625,0.40625 0.09375,0.59375 -1.71875,0.5 -2.46875,1.71875 -2.46875,2.65625 0,0.859375 0.5625,1.328125 0.953125,1.546875 C 0.953125,-3.75 0.3125,-2.28125 0.3125,-1.5 c 0,1.234375 1.140625,1.6875 1.65625,1.90625 L 3.25,0.921875 c 0.359375,0.125 0.953125,0.375 1.046875,0.421875 0.15625,0.109375 0.265625,0.28125 0.265625,0.5 0,0.3125 -0.234375,0.796875 -0.734375,0.796875 -0.21875,0 -0.6875,-0.0625 -1.203125,-0.453125 C 2.53125,2.109375 2.515625,2.09375 2.453125,2.09375 2.375,2.09375 2.3125,2.15625 2.3125,2.234375 c 0,0.15625 0.75,0.6875 1.515625,0.6875 0.921875,0 1.484375,-0.890625 1.484375,-1.5 0,-0.453125 -0.25,-0.8125 -0.703125,-1 z M 4.46875,-8.53125 c 0.25,-0.078125 0.515625,-0.078125 0.6875,-0.078125 0.484375,0 0.53125,0.015625 0.8125,0.09375 -0.171875,0.0625 -0.28125,0.109375 -0.890625,0.109375 -0.265625,0 -0.4375,0 -0.609375,-0.125 z m -1.125,3.921875 C 3.6875,-4.6875 4,-4.6875 4.171875,-4.6875 c 0.46875,0 0.5,0.015625 0.8125,0.078125 -0.15625,0.078125 -0.28125,0.125 -0.890625,0.125 -0.34375,0 -0.5,0 -0.75,-0.125 z m 0,0"
               id="id-43b0ab91-af20-42e4-9bbb-987ab4c91084" />
          </g>
        </g>
      </defs>
      <g
         fill="#000000"
         fill-opacity="1"
         id="id-9cc2b389-bd77-484f-9416-91e4c37092dd"
         transform="translate(-311.14325,-73.94778)"
         style="fill:#ff0000">
        <g
           transform="translate(294.224,66.884)"
           id="g6413"
           style="fill:#ff0000">
          <path
             d="M 3.75,0.078125 2.234375,-0.53125 C 1.859375,-0.671875 1,-1.015625 1,-1.875 c 0,-1.234375 1.515625,-2.484375 1.8125,-2.484375 0.03125,0 0.15625,0.03125 0.203125,0.046875 0.390625,0.109375 0.75,0.109375 1.015625,0.109375 0.4375,0 1.296875,0 1.296875,-0.421875 0,-0.3125 -0.515625,-0.359375 -1.140625,-0.359375 -0.28125,0 -0.671875,0 -1.1875,0.171875 -0.34375,-0.28125 -0.484375,-0.734375 -0.484375,-1.171875 0,-0.78125 0.515625,-1.90625 1.640625,-2.4375 C 4.421875,-8.125 4.765625,-8.125 5.0625,-8.125 c 0.359375,0 1.234375,0 1.234375,-0.40625 0,-0.359375 -0.6875,-0.359375 -1.140625,-0.359375 -0.296875,0 -0.515625,0 -0.90625,0.0625 C 4.171875,-9 4.15625,-9.015625 4.15625,-9.34375 c 0,-0.25 0.0625,-0.453125 0.0625,-0.5 0,-0.078125 -0.078125,-0.140625 -0.140625,-0.140625 -0.234375,0 -0.234375,0.53125 -0.234375,0.640625 0,0.203125 0.015625,0.40625 0.09375,0.59375 -1.71875,0.5 -2.46875,1.71875 -2.46875,2.65625 0,0.859375 0.5625,1.328125 0.953125,1.546875 C 0.953125,-3.75 0.3125,-2.28125 0.3125,-1.5 c 0,1.234375 1.140625,1.6875 1.65625,1.90625 L 3.25,0.921875 c 0.359375,0.125 0.953125,0.375 1.046875,0.421875 0.15625,0.109375 0.265625,0.28125 0.265625,0.5 0,0.3125 -0.234375,0.796875 -0.734375,0.796875 -0.21875,0 -0.6875,-0.0625 -1.203125,-0.453125 C 2.53125,2.109375 2.515625,2.09375 2.453125,2.09375 2.375,2.09375 2.3125,2.15625 2.3125,2.234375 c 0,0.15625 0.75,0.6875 1.515625,0.6875 0.921875,0 1.484375,-0.890625 1.484375,-1.5 0,-0.453125 -0.25,-0.8125 -0.703125,-1 z M 4.46875,-8.53125 c 0.25,-0.078125 0.515625,-0.078125 0.6875,-0.078125 0.484375,0 0.53125,0.015625 0.8125,0.09375 -0.171875,0.0625 -0.28125,0.109375 -0.890625,0.109375 -0.265625,0 -0.4375,0 -0.609375,-0.125 z m -1.125,3.921875 C 3.6875,-4.6875 4,-4.6875 4.171875,-4.6875 c 0.46875,0 0.5,0.015625 0.8125,0.078125 -0.15625,0.078125 -0.28125,0.125 -0.890625,0.125 -0.34375,0 -0.5,0 -0.75,-0.125 z m 0,0"
             id="id-30156e0f-42e7-4698-8be0-3c4297c9c684"
             style="fill:#ff0000" />
        </g>
      </g>
    </g>
  </g>
</svg>
