<?xml version="1.0" encoding="UTF-8" standalone="no"?>
<!-- Created with Inkscape (http://www.inkscape.org/) -->

<svg
   width="240mm"
   height="120mm"
   viewBox="0 0 240 120"
   version="1.1"
   id="svg8"
   inkscape:version="1.2.2 (b0a8486541, 2022-12-01)"
   sodipodi:docname="laurent-series-compacts-not-limited.svg"
   xmlns:inkscape="http://www.inkscape.org/namespaces/inkscape"
   xmlns:sodipodi="http://sodipodi.sourceforge.net/DTD/sodipodi-0.dtd"
   xmlns="http://www.w3.org/2000/svg"
   xmlns:svg="http://www.w3.org/2000/svg"
   xmlns:rdf="http://www.w3.org/1999/02/22-rdf-syntax-ns#"
   xmlns:cc="http://creativecommons.org/ns#"
   xmlns:dc="http://purl.org/dc/elements/1.1/"
   xmlns:ns1="http://www.iki.fi/pav/software/textext/">
  <defs
     id="defs2" />
  <sodipodi:namedview
     id="base"
     pagecolor="#ffffff"
     bordercolor="#666666"
     borderopacity="1.0"
     inkscape:pageopacity="0.0"
     inkscape:pageshadow="2"
     inkscape:zoom="0.99437388"
     inkscape:cx="468.63661"
     inkscape:cy="185.04106"
     inkscape:document-units="mm"
     inkscape:current-layer="layer1"
     showgrid="false"
     showborder="true"
     width="200mm"
     showguides="true"
     inkscape:guide-bbox="true"
     inkscape:window-width="1280"
     inkscape:window-height="1255"
     inkscape:window-x="0"
     inkscape:window-y="0"
     inkscape:window-maximized="1"
     inkscape:showpageshadow="2"
     inkscape:pagecheckerboard="0"
     inkscape:deskcolor="#d1d1d1">
    <inkscape:grid
       type="xygrid"
       id="grid815"
       units="mm"
       spacingx="10"
       spacingy="10"
       empspacing="4"
       dotted="false" />
  </sodipodi:namedview>
  <metadata
     id="metadata5">
    <rdf:RDF>
      <cc:Work
         rdf:about="">
        <dc:format>image/svg+xml</dc:format>
        <dc:type
           rdf:resource="http://purl.org/dc/dcmitype/StillImage" />
      </cc:Work>
    </rdf:RDF>
  </metadata>
  <g
     inkscape:label="Layer 1"
     inkscape:groupmode="layer"
     id="layer1"
     transform="translate(0, -177)">
    <circle
       style="fill:#ff00ff;fill-opacity:0;fill-rule:evenodd;stroke:#2b0000;stroke-width:0.526136;stroke-dasharray:0.52613598,0.52613598;stroke-dashoffset:0"
       id="path183"
       cx="110.73723"
       cy="230.49254"
       r="23.142427" />
    <path
       style="fill:#81797e;fill-opacity:0.391436;fill-rule:evenodd;stroke:#2b0000;stroke-width:0.602001;stroke-dasharray:none;stroke-dashoffset:0"
       d="m 66.066911,200.46288 c -4.83102,15.53348 -4.87051,20.86444 -2.67951,30.65432 2.19101,9.78989 0.88451,11.37806 6.00448,10.58813 5.11997,-0.78992 10.43949,-2.72732 10.43949,-5.16674 0,-2.43941 3.01419,-8.64865 -0.77329,-10.33971 -3.78749,-1.69107 -0.0333,-7.04801 -4.44541,-13.31129 -4.41216,-6.26329 -8.54576,-12.42471 -8.54576,-12.42471 z"
       id="path2409" />
    <g
       transform="matrix(0.458611,0,0,0.458611,67.505202,244.13586)"
       ns1:version="1.8.2"
       ns1:texconverter="pdflatex"
       ns1:pdfconverter="inkscape"
       ns1:text="$$K$$"
       ns1:preamble="/home/buyolitsez/.config/inkscape/extensions/textext/default_packages.tex"
       ns1:scale="1.3"
       ns1:alignment="middle center"
       ns1:stroke-to-path="0"
       ns1:inkscapeversion="0.92.4"
       ns1:jacobian_sqrt="0.458611"
       id="g13255">
      <defs
         id="id-697b3a1d-5b6b-4a2a-adff-f5d97f7521e2">
        <g
           id="id-9f7fef99-634c-47f9-9752-0972e028811c">
          <g
             id="id-42d8af51-a5c5-4411-a965-32e4facaad24" />
          <g
             id="id-32577557-816c-466d-9054-fbcfd0be97e0">
            <path
               d="M 7.171875,-5.796875 C 7.15625,-5.84375 7.09375,-5.953125 7.09375,-6 c 0,-0.015625 0.015625,-0.03125 0.265625,-0.203125 L 8.75,-7.296875 c 1.921875,-1.5 2.546875,-2 3.546875,-2.078125 0.09375,-0.015625 0.234375,-0.015625 0.234375,-0.265625 0,-0.078125 -0.03125,-0.15625 -0.15625,-0.15625 -0.15625,0 -0.328125,0.03125 -0.484375,0.03125 H 11.34375 c -0.4375,0 -0.921875,-0.03125 -1.34375,-0.03125 -0.109375,0 -0.28125,0 -0.28125,0.265625 0,0.140625 0.109375,0.15625 0.1875,0.15625 0.15625,0.015625 0.34375,0.0625 0.34375,0.265625 0,0.28125 -0.421875,0.625 -0.546875,0.71875 L 4.09375,-4.015625 5.28125,-8.75 c 0.125,-0.484375 0.15625,-0.625 1.171875,-0.625 0.28125,0 0.40625,0 0.40625,-0.28125 0,-0.140625 -0.140625,-0.140625 -0.21875,-0.140625 -0.25,0 -0.5625,0.03125 -0.828125,0.03125 H 4.109375 c -0.25,0 -0.5625,-0.03125 -0.828125,-0.03125 -0.109375,0 -0.265625,0 -0.265625,0.265625 0,0.15625 0.125,0.15625 0.34375,0.15625 0.875,0 0.875,0.109375 0.875,0.265625 0,0.03125 0,0.109375 -0.0625,0.328125 l -1.9375,7.71875 c -0.125,0.5 -0.15625,0.640625 -1.15625,0.640625 -0.28125,0 -0.421875,0 -0.421875,0.265625 C 0.65625,0 0.78125,0 0.875,0 1.140625,0 1.4375,-0.03125 1.703125,-0.03125 h 1.6875 C 3.65625,-0.03125 3.953125,0 4.234375,0 4.34375,0 4.5,0 4.5,-0.265625 c 0,-0.15625 -0.125,-0.15625 -0.34375,-0.15625 -0.875,0 -0.875,-0.109375 -0.875,-0.25 0,-0.109375 0.09375,-0.46875 0.140625,-0.6875 l 0.5625,-2.21875 2.1875,-1.71875 C 6.578125,-4.375 7.34375,-2.53125 7.9375,-1.140625 7.96875,-1.046875 8,-0.96875 8,-0.859375 c 0,0.421875 -0.5625,0.4375 -0.703125,0.4375 -0.125,0 -0.265625,0 -0.265625,0.28125 C 7.03125,0 7.1875,0 7.234375,0 c 0.5,0 1.03125,-0.03125 1.53125,-0.03125 h 0.6875 C 9.671875,-0.03125 9.90625,0 10.125,0 c 0.09375,0 0.25,0 0.25,-0.265625 0,-0.15625 -0.140625,-0.15625 -0.28125,-0.15625 C 9.5625,-0.4375 9.375,-0.546875 9.171875,-1.0625 Z m 0,0"
               id="id-41ffc153-1d29-4fe6-a4a7-0c768be6ee00" />
          </g>
        </g>
      </defs>
      <g
         fill="#000000"
         fill-opacity="1"
         id="id-6bd1139d-9a93-476f-bec0-9028c7a9d612"
         transform="translate(-291.803,-57.0871)">
        <g
           transform="translate(291.147,66.884)"
           id="g13252">
          <path
             d="M 7.171875,-5.796875 C 7.15625,-5.84375 7.09375,-5.953125 7.09375,-6 c 0,-0.015625 0.015625,-0.03125 0.265625,-0.203125 L 8.75,-7.296875 c 1.921875,-1.5 2.546875,-2 3.546875,-2.078125 0.09375,-0.015625 0.234375,-0.015625 0.234375,-0.265625 0,-0.078125 -0.03125,-0.15625 -0.15625,-0.15625 -0.15625,0 -0.328125,0.03125 -0.484375,0.03125 H 11.34375 c -0.4375,0 -0.921875,-0.03125 -1.34375,-0.03125 -0.109375,0 -0.28125,0 -0.28125,0.265625 0,0.140625 0.109375,0.15625 0.1875,0.15625 0.15625,0.015625 0.34375,0.0625 0.34375,0.265625 0,0.28125 -0.421875,0.625 -0.546875,0.71875 L 4.09375,-4.015625 5.28125,-8.75 c 0.125,-0.484375 0.15625,-0.625 1.171875,-0.625 0.28125,0 0.40625,0 0.40625,-0.28125 0,-0.140625 -0.140625,-0.140625 -0.21875,-0.140625 -0.25,0 -0.5625,0.03125 -0.828125,0.03125 H 4.109375 c -0.25,0 -0.5625,-0.03125 -0.828125,-0.03125 -0.109375,0 -0.265625,0 -0.265625,0.265625 0,0.15625 0.125,0.15625 0.34375,0.15625 0.875,0 0.875,0.109375 0.875,0.265625 0,0.03125 0,0.109375 -0.0625,0.328125 l -1.9375,7.71875 c -0.125,0.5 -0.15625,0.640625 -1.15625,0.640625 -0.28125,0 -0.421875,0 -0.421875,0.265625 C 0.65625,0 0.78125,0 0.875,0 1.140625,0 1.4375,-0.03125 1.703125,-0.03125 h 1.6875 C 3.65625,-0.03125 3.953125,0 4.234375,0 4.34375,0 4.5,0 4.5,-0.265625 c 0,-0.15625 -0.125,-0.15625 -0.34375,-0.15625 -0.875,0 -0.875,-0.109375 -0.875,-0.25 0,-0.109375 0.09375,-0.46875 0.140625,-0.6875 l 0.5625,-2.21875 2.1875,-1.71875 C 6.578125,-4.375 7.34375,-2.53125 7.9375,-1.140625 7.96875,-1.046875 8,-0.96875 8,-0.859375 c 0,0.421875 -0.5625,0.4375 -0.703125,0.4375 -0.125,0 -0.265625,0 -0.265625,0.28125 C 7.03125,0 7.1875,0 7.234375,0 c 0.5,0 1.03125,-0.03125 1.53125,-0.03125 h 0.6875 C 9.671875,-0.03125 9.90625,0 10.125,0 c 0.09375,0 0.25,0 0.25,-0.265625 0,-0.15625 -0.140625,-0.15625 -0.28125,-0.15625 C 9.5625,-0.4375 9.375,-0.546875 9.171875,-1.0625 Z m 0,0"
             id="id-affb8860-2a55-4240-858c-1de9e7c95eb8" />
        </g>
      </g>
    </g>
  </g>
</svg>
