<?xml version="1.0" encoding="UTF-8" standalone="no"?>
<!-- Created with Inkscape (http://www.inkscape.org/) -->

<svg
   width="240mm"
   height="120mm"
   viewBox="0 0 240 120"
   version="1.1"
   id="svg8"
   inkscape:version="1.1.2 (0a00cf5339, 2022-02-04)"
   sodipodi:docname="lepestok_lemniskati.svg"
   xmlns:inkscape="http://www.inkscape.org/namespaces/inkscape"
   xmlns:sodipodi="http://sodipodi.sourceforge.net/DTD/sodipodi-0.dtd"
   xmlns="http://www.w3.org/2000/svg"
   xmlns:svg="http://www.w3.org/2000/svg"
   xmlns:rdf="http://www.w3.org/1999/02/22-rdf-syntax-ns#"
   xmlns:cc="http://creativecommons.org/ns#"
   xmlns:dc="http://purl.org/dc/elements/1.1/">
  <defs
     id="defs2" />
  <sodipodi:namedview
     id="base"
     pagecolor="#ffffff"
     bordercolor="#666666"
     borderopacity="1.0"
     inkscape:pageopacity="0.0"
     inkscape:pageshadow="2"
     inkscape:zoom="0.8532248"
     inkscape:cx="403.17628"
     inkscape:cy="200.41612"
     inkscape:document-units="mm"
     inkscape:current-layer="layer1"
     showgrid="false"
     showborder="true"
     width="200mm"
     showguides="true"
     inkscape:guide-bbox="true"
     inkscape:window-width="1440"
     inkscape:window-height="840"
     inkscape:window-x="0"
     inkscape:window-y="0"
     inkscape:window-maximized="1"
     inkscape:pagecheckerboard="0">
    <inkscape:grid
       type="xygrid"
       id="grid815"
       units="mm"
       spacingx="10"
       spacingy="10"
       empspacing="4"
       dotted="false" />
  </sodipodi:namedview>
  <metadata
     id="metadata5">
    <rdf:RDF>
      <cc:Work
         rdf:about="">
        <dc:format>image/svg+xml</dc:format>
        <dc:type
           rdf:resource="http://purl.org/dc/dcmitype/StillImage" />
        <dc:title />
      </cc:Work>
    </rdf:RDF>
  </metadata>
  <g
     inkscape:label="Layer 1"
     inkscape:groupmode="layer"
     id="layer1"
     transform="translate(0,-177)">
    <path
       style="fill:none;stroke:#000000;stroke-width:0.402201px;stroke-linecap:butt;stroke-linejoin:miter;stroke-opacity:1"
       d="m 118.05928,237.55227 c 0,0 114.69723,-62.40465 115.80699,-2.61865"
       id="path3112" />
    <path
       style="fill:none;stroke:#000000;stroke-width:0.432461px;stroke-linecap:butt;stroke-linejoin:miter;stroke-opacity:1"
       d="m 118.04474,237.53927 c 0,0 119.3207,66.46655 115.7824,-2.6181"
       id="path3112-3" />
    <path
       style="fill:none;stroke:#000000;stroke-width:0.383021px;stroke-linecap:butt;stroke-linejoin:miter;stroke-opacity:1"
       d="m 118.05928,237.55227 c 0,0 -109.2276031,59.42875 -110.2844571,2.49377"
       id="path3112-6" />
    <path
       style="fill:none;stroke:#000000;stroke-width:0.411838px;stroke-linecap:butt;stroke-linejoin:miter;stroke-opacity:1"
       d="m 118.07314,237.56464 c 0,0 -113.6306162,-63.29693 -110.2610354,2.49325"
       id="path3112-3-7" />
    <path
       style="fill:#000000;fill-opacity:0.242466;stroke:none;stroke-width:0.544991"
       d="m 198.67095,265.77058 c -11.90764,-1.39827 -20.40928,-3.37128 -32.97863,-7.65345 -13.59607,-4.63196 -31.53156,-12.40581 -43.8023,-18.98539 l -2.98617,-1.6012 3.63657,-1.86548 c 16.19829,-8.30936 35.3767,-16.17353 50.39291,-20.66379 30.61401,-9.15444 50.18589,-7.0173 57.31622,6.25861 2.14239,3.98892 2.89505,7.27648 3.12836,13.66435 0.33056,9.05117 -0.94364,15.12727 -4.25933,20.31081 -2.8453,4.44815 -8.28573,8.0467 -14.5074,9.59585 -2.22637,0.55436 -13.54138,1.22138 -15.94023,0.93969 z"
       id="path3382" />
    <text
       xml:space="preserve"
       style="font-size:3.88056px;line-height:1.25;font-family:sans-serif;-inkscape-font-specification:'sans-serif, Normal';stroke-width:0.264583"
       x="174.94969"
       y="244.27811"
       id="text4599"
       transform="matrix(0.99944031,-0.02259955,0.03606025,0.9997446,0,0)"><tspan
         sodipodi:role="line"
         id="tspan4597"
         style="stroke-width:0.264583"
         x="174.94969"
         y="244.27811">$\Omega$</tspan></text>
  </g>
</svg>
