<?xml version="1.0" encoding="UTF-8" standalone="no"?>
<!-- Created with Inkscape (http://www.inkscape.org/) -->

<svg
   width="240mm"
   height="120mm"
   viewBox="0 0 240 120"
   version="1.1"
   id="svg8"
   inkscape:version="1.2.2 (b0a8486541, 2022-12-01)"
   sodipodi:docname="region-traversal-direction.svg"
   xmlns:inkscape="http://www.inkscape.org/namespaces/inkscape"
   xmlns:sodipodi="http://sodipodi.sourceforge.net/DTD/sodipodi-0.dtd"
   xmlns="http://www.w3.org/2000/svg"
   xmlns:svg="http://www.w3.org/2000/svg"
   xmlns:rdf="http://www.w3.org/1999/02/22-rdf-syntax-ns#"
   xmlns:cc="http://creativecommons.org/ns#"
   xmlns:dc="http://purl.org/dc/elements/1.1/"
   xmlns:ns12="http://www.iki.fi/pav/software/textext/">
  <defs
     id="defs2">
    <marker
       style="overflow:visible"
       id="marker3503"
       refX="37.656811"
       refY="3.1041706"
       orient="139.9785614"
       inkscape:stockid="Arrow1"
       markerWidth="4.0606599"
       markerHeight="6.7071061"
       viewBox="0 0 4.0606602 6.7071068"
       inkscape:isstock="true"
       inkscape:collect="always"
       preserveAspectRatio="xMidYMid">
      <path
         style="fill:none;stroke:context-stroke;stroke-width:1;stroke-linecap:butt"
         d="M 3,-3 0,0 3,3"
         id="path3501"
         transform="rotate(180,0.125,0)"
         sodipodi:nodetypes="ccc" />
    </marker>
    <marker
       style="overflow:visible"
       id="Arrow1"
       refX="0"
       refY="0"
       orient="auto-start-reverse"
       inkscape:stockid="Arrow1"
       markerWidth="4.0606604"
       markerHeight="6.7071066"
       viewBox="0 0 4.0606602 6.7071068"
       inkscape:isstock="true"
       inkscape:collect="always"
       preserveAspectRatio="xMidYMid">
      <path
         style="fill:none;stroke:context-stroke;stroke-width:1;stroke-linecap:butt"
         d="M 3,-3 0,0 3,3"
         id="path5057"
         sodipodi:nodetypes="ccc"
         transform="rotate(180,0.125,0)" />
    </marker>
  </defs>
  <sodipodi:namedview
     id="base"
     pagecolor="#ffffff"
     bordercolor="#666666"
     borderopacity="1.0"
     inkscape:pageopacity="0.0"
     inkscape:pageshadow="2"
     inkscape:zoom="6.2083031"
     inkscape:cx="255.70594"
     inkscape:cy="167.51759"
     inkscape:document-units="mm"
     inkscape:current-layer="layer1"
     showgrid="false"
     showborder="true"
     width="200mm"
     showguides="true"
     inkscape:guide-bbox="true"
     inkscape:window-width="1280"
     inkscape:window-height="1317"
     inkscape:window-x="0"
     inkscape:window-y="0"
     inkscape:window-maximized="1"
     inkscape:showpageshadow="2"
     inkscape:pagecheckerboard="0"
     inkscape:deskcolor="#d1d1d1">
    <inkscape:grid
       type="xygrid"
       id="grid815"
       units="mm"
       spacingx="10"
       spacingy="10"
       empspacing="4"
       dotted="false" />
  </sodipodi:namedview>
  <metadata
     id="metadata5">
    <rdf:RDF>
      <cc:Work
         rdf:about="">
        <dc:format>image/svg+xml</dc:format>
        <dc:type
           rdf:resource="http://purl.org/dc/dcmitype/StillImage" />
        <dc:title />
      </cc:Work>
    </rdf:RDF>
  </metadata>
  <g
     inkscape:label="Layer 1"
     inkscape:groupmode="layer"
     id="layer1"
     transform="translate(0, -177)">
    <path
       id="path765"
       style="fill:#4d4d4d;fill-opacity:0.00366893;fill-rule:evenodd;stroke:#000000;stroke-width:0.628;paint-order:markers stroke fill;stroke-dasharray:none;marker-start:url(#marker3503)"
       d="m 45.639811,227.86934 c 12.419295,-14.24426 39.147534,-24.02884 69.954699,-25.60879 27.55679,-1.41325 31.24749,16.07399 40.74854,22.83159 1.47254,1.04734 1.4337,1.00693 2.61353,2.59437"
       sodipodi:nodetypes="cssc" />
    <circle
       style="opacity:1;fill:#000000;fill-opacity:1;fill-rule:evenodd;stroke:#000000;stroke-width:0.119443;paint-order:markers stroke fill"
       id="path821"
       cx="123.55814"
       cy="202.25804"
       r="0.75938481" />
    <path
       style="opacity:1;fill:#000000;fill-opacity:1;fill-rule:evenodd;stroke:#000000;stroke-width:0.343;paint-order:markers stroke fill;stroke-dasharray:none;stroke-dashoffset:0;marker-end:url(#Arrow1)"
       d="M 123.54714,202.19179 67.499066,194.06883"
       id="path2254"
       sodipodi:nodetypes="cc" />
    <g
       transform="matrix(0.458611,0,0,0.458611,47.887384,185.70491)"
       ns12:version="1.8.2"
       ns12:texconverter="pdflatex"
       ns12:pdfconverter="inkscape"
       ns12:text="$$\\gamma'(t_0) + \\gamma(t_0)$$"
       ns12:preamble="/home/buyolitsez/.config/inkscape/extensions/textext/default_packages.tex"
       ns12:scale="1.3"
       ns12:alignment="middle center"
       ns12:stroke-to-path="0"
       ns12:inkscapeversion="0.92.4"
       ns12:jacobian_sqrt="0.458611"
       id="g2970">
      <defs
         id="id-c7f386c7-5b5c-4a97-8bd6-8dbd80a8531a">
        <g
           id="id-7255e50c-ffaf-4464-9418-7290241780d5">
          <g
             id="id-50e2797d-1008-47a3-bc50-3b2897b8c5f1" />
          <g
             id="id-deae28cc-af82-4fdc-99d1-6989dc1b28f3">
            <path
               d="M 5.421875,-1.75 C 5.390625,-2.453125 5.359375,-3.5625 4.8125,-4.84375 4.53125,-5.5625 4.046875,-6.328125 3,-6.328125 c -1.765625,0 -2.734375,2.25 -2.734375,2.625 0,0.125 0.109375,0.125 0.15625,0.125 0.125,0 0.125,-0.015625 0.1875,-0.203125 0.3125,-0.890625 1.234375,-1.59375 2.21875,-1.59375 1.984375,0 2.28125,2.21875 2.28125,3.640625 0,0.90625 -0.109375,1.203125 -0.1875,1.484375 -0.28125,0.890625 -0.75,2.671875 -0.75,3.078125 0,0.109375 0.046875,0.234375 0.15625,0.234375 0.21875,0 0.34375,-0.46875 0.5,-1.046875 0.34375,-1.25 0.4375,-1.890625 0.5,-2.453125 0.046875,-0.34375 0.875,-2.71875 2,-4.96875 C 7.4375,-5.640625 7.625,-6.03125 7.625,-6.0625 c 0,-0.015625 -0.015625,-0.125 -0.140625,-0.125 -0.03125,0 -0.09375,0 -0.125,0.0625 -0.03125,0.03125 -0.53125,1 -0.96875,1.984375 -0.203125,0.484375 -0.5,1.125 -0.96875,2.390625 z m 0,0"
               id="id-1271079f-d5fd-48fe-bc64-33bd00c1fe26" />
          </g>
          <g
             id="id-8e49b9e9-94a1-46c8-9b5a-ba1da550b9c4">
            <path
               d="m 2.890625,-5.765625 h 1.3125 c 0.265625,0 0.421875,0 0.421875,-0.265625 C 4.625,-6.1875 4.53125,-6.1875 4.25,-6.1875 H 2.984375 l 0.53125,-2.09375 c 0.0625,-0.203125 0.0625,-0.21875 0.0625,-0.328125 0,-0.21875 -0.1875,-0.359375 -0.375,-0.359375 -0.125,0 -0.453125,0.046875 -0.5625,0.5 l -0.5625,2.28125 h -1.34375 c -0.296875,0 -0.421875,0 -0.421875,0.28125 0,0.140625 0.109375,0.140625 0.375,0.140625 h 1.28125 l -0.953125,3.78125 c -0.109375,0.5 -0.15625,0.65625 -0.15625,0.84375 0,0.671875 0.46875,1.28125 1.28125,1.28125 1.4375,0 2.21875,-2.09375 2.21875,-2.1875 0,-0.09375 -0.0625,-0.140625 -0.140625,-0.140625 -0.03125,0 -0.09375,0 -0.109375,0.0625 -0.015625,0.015625 -0.03125,0.03125 -0.140625,0.265625 -0.296875,0.71875 -0.953125,1.71875 -1.78125,1.71875 -0.4375,0 -0.46875,-0.359375 -0.46875,-0.671875 0,-0.015625 0,-0.296875 0.046875,-0.46875 z m 0,0"
               id="id-8493c21e-8e2d-42a7-8974-94549a1b3209" />
          </g>
          <g
             id="id-840e47ed-829f-4d49-8b45-88c6d686db50" />
          <g
             id="id-020d2edc-1d3e-4f83-92cd-ea67a078fabc">
            <path
               d="m 2.515625,-4.734375 c 0.0625,-0.125 0.09375,-0.203125 0.09375,-0.3125 0,-0.28125 -0.25,-0.53125 -0.5625,-0.53125 -0.28125,0 -0.46875,0.1875 -0.53125,0.453125 l -1.1875,4.359375 c 0,0.015625 -0.03125,0.125 -0.03125,0.140625 0,0.109375 0.25,0.171875 0.328125,0.171875 0.0625,0 0.078125,-0.03125 0.125,-0.15625 z m 0,0"
               id="id-46fd6d93-bd37-456d-b19c-00ac47a922b0" />
          </g>
          <g
             id="id-c5c4cddb-ef04-4052-957f-013384d36277" />
          <g
             id="id-16f9d749-8d8b-4192-a683-aae605e5dd2c">
            <path
               d="m 4.65625,3.484375 c 0,-0.046875 0,-0.078125 -0.234375,-0.3125 -1.4375,-1.453125 -2.234375,-3.8125 -2.234375,-6.75 0,-2.78125 0.671875,-5.171875 2.328125,-6.859375 0.140625,-0.140625 0.140625,-0.15625 0.140625,-0.203125 0,-0.09375 -0.0625,-0.109375 -0.125,-0.109375 -0.1875,0 -1.359375,1.03125 -2.0625,2.4375 -0.734375,1.4375 -1.0625,2.984375 -1.0625,4.734375 0,1.28125 0.203125,2.984375 0.953125,4.53125 0.84375,1.71875 2.015625,2.640625 2.171875,2.640625 0.0625,0 0.125,-0.015625 0.125,-0.109375 z m 0,0"
               id="id-bc92fa0c-25dc-4d41-b7f0-517cbf6de4a5" />
          </g>
          <g
             id="id-f41f4d5c-8815-4e4e-8fec-ef997a827a3e">
            <path
               d="M 4.046875,-3.578125 C 4.046875,-4.65625 3.90625,-6.4375 3.09375,-8.109375 2.25,-9.828125 1.078125,-10.75 0.921875,-10.75 c -0.0625,0 -0.140625,0.01563 -0.140625,0.109375 0,0.04687 0,0.0625 0.25,0.3125 1.4375,1.453125 2.234375,3.8125 2.234375,6.75 0,2.78125 -0.671875,5.171875 -2.328125,6.859375 -0.15625,0.125 -0.15625,0.15625 -0.15625,0.203125 0,0.09375 0.078125,0.109375 0.140625,0.109375 0.1875,0 1.359375,-1.03125 2.0625,-2.4375 0.734375,-1.453125 1.0625,-3 1.0625,-4.734375 z m 0,0"
               id="id-a9710def-1bca-4ce3-be81-174e2ce8df34" />
          </g>
          <g
             id="id-8a9890e7-c85e-42f6-9444-2e4e9ecd9a26">
            <path
               d="M 5.71875,-3.3125 H 9.6875 c 0.203125,0 0.453125,0 0.453125,-0.265625 0,-0.265625 -0.25,-0.265625 -0.453125,-0.265625 H 5.71875 v -3.953125 c 0,-0.203125 0,-0.46875 -0.25,-0.46875 -0.28125,0 -0.28125,0.25 -0.28125,0.46875 V -3.84375 H 1.234375 c -0.203125,0 -0.453125,0 -0.453125,0.265625 0,0.265625 0.234375,0.265625 0.453125,0.265625 H 5.1875 v 3.953125 c 0,0.203125 0,0.46875 0.265625,0.46875 0.265625,0 0.265625,-0.25 0.265625,-0.46875 z m 0,0"
               id="id-f6b81541-2dd4-4c67-8fb8-144ae834f416" />
          </g>
          <g
             id="id-a5635278-fb75-433b-8c4e-5045f211a8f0" />
          <g
             id="id-982d1c64-ff0a-4e01-ae00-e6b8b979fa2b">
            <path
               d="m 4.578125,-3.1875 c 0,-0.796875 -0.046875,-1.59375 -0.390625,-2.328125 -0.453125,-0.96875 -1.28125,-1.125 -1.6875,-1.125 -0.609375,0 -1.328125,0.265625 -1.75,1.1875 -0.3125,0.6875 -0.359375,1.46875 -0.359375,2.265625 0,0.75 0.03125,1.640625 0.453125,2.40625 0.421875,0.796875 1.15625,1 1.640625,1 0.53125,0 1.296875,-0.203125 1.734375,-1.15625 0.3125,-0.6875 0.359375,-1.46875 0.359375,-2.25 z M 2.484375,0 C 2.09375,0 1.5,-0.25 1.328125,-1.203125 1.21875,-1.796875 1.21875,-2.71875 1.21875,-3.3125 c 0,-0.640625 0,-1.296875 0.078125,-1.828125 0.1875,-1.1875 0.9375,-1.28125 1.1875,-1.28125 0.328125,0 0.984375,0.1875 1.171875,1.171875 0.109375,0.5625 0.109375,1.3125 0.109375,1.9375 0,0.75 0,1.421875 -0.109375,2.0625 C 3.5,-0.296875 2.9375,0 2.484375,0 Z m 0,0"
               id="id-6ad5b20a-ae6b-4da5-bee7-1c03bfc9bbda" />
          </g>
        </g>
      </defs>
      <g
         fill="#000000"
         fill-opacity="1"
         id="id-9ea1feeb-98dc-43b3-b216-ba65cff2f1f7"
         transform="translate(-258.09,-55.3829)">
        <g
           transform="translate(257.824,66.884)"
           id="g2923">
          <path
             d="M 5.421875,-1.75 C 5.390625,-2.453125 5.359375,-3.5625 4.8125,-4.84375 4.53125,-5.5625 4.046875,-6.328125 3,-6.328125 c -1.765625,0 -2.734375,2.25 -2.734375,2.625 0,0.125 0.109375,0.125 0.15625,0.125 0.125,0 0.125,-0.015625 0.1875,-0.203125 0.3125,-0.890625 1.234375,-1.59375 2.21875,-1.59375 1.984375,0 2.28125,2.21875 2.28125,3.640625 0,0.90625 -0.109375,1.203125 -0.1875,1.484375 -0.28125,0.890625 -0.75,2.671875 -0.75,3.078125 0,0.109375 0.046875,0.234375 0.15625,0.234375 0.21875,0 0.34375,-0.46875 0.5,-1.046875 0.34375,-1.25 0.4375,-1.890625 0.5,-2.453125 0.046875,-0.34375 0.875,-2.71875 2,-4.96875 C 7.4375,-5.640625 7.625,-6.03125 7.625,-6.0625 c 0,-0.015625 -0.015625,-0.125 -0.140625,-0.125 -0.03125,0 -0.09375,0 -0.125,0.0625 -0.03125,0.03125 -0.53125,1 -0.96875,1.984375 -0.203125,0.484375 -0.5,1.125 -0.96875,2.390625 z m 0,0"
             id="id-5f90e556-ebf8-474f-b015-cd7c03625ba4" />
        </g>
      </g>
      <g
         fill="#000000"
         fill-opacity="1"
         id="id-dc2ef02a-6d28-4890-84f5-80ad41e5f8f6"
         transform="translate(-258.09,-55.3829)">
        <g
           transform="translate(265.891,60.961)"
           id="g2927">
          <path
             d="m 2.515625,-4.734375 c 0.0625,-0.125 0.09375,-0.203125 0.09375,-0.3125 0,-0.28125 -0.25,-0.53125 -0.5625,-0.53125 -0.28125,0 -0.46875,0.1875 -0.53125,0.453125 l -1.1875,4.359375 c 0,0.015625 -0.03125,0.125 -0.03125,0.140625 0,0.109375 0.25,0.171875 0.328125,0.171875 0.0625,0 0.078125,-0.03125 0.125,-0.15625 z m 0,0"
             id="id-c3934edb-9e6b-4291-9898-8e3ad7605d5b" />
        </g>
      </g>
      <g
         fill="#000000"
         fill-opacity="1"
         id="id-fc9b6025-5075-40ae-a5b7-a597735bd460"
         transform="translate(-258.09,-55.3829)">
        <g
           transform="translate(269.128,66.884)"
           id="g2931">
          <path
             d="m 4.65625,3.484375 c 0,-0.046875 0,-0.078125 -0.234375,-0.3125 -1.4375,-1.453125 -2.234375,-3.8125 -2.234375,-6.75 0,-2.78125 0.671875,-5.171875 2.328125,-6.859375 0.140625,-0.140625 0.140625,-0.15625 0.140625,-0.203125 0,-0.09375 -0.0625,-0.109375 -0.125,-0.109375 -0.1875,0 -1.359375,1.03125 -2.0625,2.4375 -0.734375,1.4375 -1.0625,2.984375 -1.0625,4.734375 0,1.28125 0.203125,2.984375 0.953125,4.53125 0.84375,1.71875 2.015625,2.640625 2.171875,2.640625 0.0625,0 0.125,-0.015625 0.125,-0.109375 z m 0,0"
             id="id-ddfb0107-63e6-4d43-b1f8-91fd531c541a" />
        </g>
      </g>
      <g
         fill="#000000"
         fill-opacity="1"
         id="id-8c7063ee-5a10-4f23-aab3-9d917fb0ba42"
         transform="translate(-258.09,-55.3829)">
        <g
           transform="translate(274.591,66.884)"
           id="g2935">
          <path
             d="m 2.890625,-5.765625 h 1.3125 c 0.265625,0 0.421875,0 0.421875,-0.265625 C 4.625,-6.1875 4.53125,-6.1875 4.25,-6.1875 H 2.984375 l 0.53125,-2.09375 c 0.0625,-0.203125 0.0625,-0.21875 0.0625,-0.328125 0,-0.21875 -0.1875,-0.359375 -0.375,-0.359375 -0.125,0 -0.453125,0.046875 -0.5625,0.5 l -0.5625,2.28125 h -1.34375 c -0.296875,0 -0.421875,0 -0.421875,0.28125 0,0.140625 0.109375,0.140625 0.375,0.140625 h 1.28125 l -0.953125,3.78125 c -0.109375,0.5 -0.15625,0.65625 -0.15625,0.84375 0,0.671875 0.46875,1.28125 1.28125,1.28125 1.4375,0 2.21875,-2.09375 2.21875,-2.1875 0,-0.09375 -0.0625,-0.140625 -0.140625,-0.140625 -0.03125,0 -0.09375,0 -0.109375,0.0625 -0.015625,0.015625 -0.03125,0.03125 -0.140625,0.265625 -0.296875,0.71875 -0.953125,1.71875 -1.78125,1.71875 -0.4375,0 -0.46875,-0.359375 -0.46875,-0.671875 0,-0.015625 0,-0.296875 0.046875,-0.46875 z m 0,0"
             id="id-8a57c0af-22dc-4d40-a081-c82910f86979" />
        </g>
      </g>
      <g
         fill="#000000"
         fill-opacity="1"
         id="id-3539296a-1987-43cc-9eae-306ab58faf42"
         transform="translate(-258.09,-55.3829)">
        <g
           transform="translate(279.664,69.036)"
           id="g2939">
          <path
             d="m 4.578125,-3.1875 c 0,-0.796875 -0.046875,-1.59375 -0.390625,-2.328125 -0.453125,-0.96875 -1.28125,-1.125 -1.6875,-1.125 -0.609375,0 -1.328125,0.265625 -1.75,1.1875 -0.3125,0.6875 -0.359375,1.46875 -0.359375,2.265625 0,0.75 0.03125,1.640625 0.453125,2.40625 0.421875,0.796875 1.15625,1 1.640625,1 0.53125,0 1.296875,-0.203125 1.734375,-1.15625 0.3125,-0.6875 0.359375,-1.46875 0.359375,-2.25 z M 2.484375,0 C 2.09375,0 1.5,-0.25 1.328125,-1.203125 1.21875,-1.796875 1.21875,-2.71875 1.21875,-3.3125 c 0,-0.640625 0,-1.296875 0.078125,-1.828125 0.1875,-1.1875 0.9375,-1.28125 1.1875,-1.28125 0.328125,0 0.984375,0.1875 1.171875,1.171875 0.109375,0.5625 0.109375,1.3125 0.109375,1.9375 0,0.75 0,1.421875 -0.109375,2.0625 C 3.5,-0.296875 2.9375,0 2.484375,0 Z m 0,0"
             id="id-28633975-453e-4fe8-b77b-66163203360c" />
        </g>
      </g>
      <g
         fill="#000000"
         fill-opacity="1"
         id="id-8f591654-c4c1-4afc-b0c3-2fa54ccd881f"
         transform="translate(-258.09,-55.3829)">
        <g
           transform="translate(285.143,66.884)"
           id="g2943">
          <path
             d="M 4.046875,-3.578125 C 4.046875,-4.65625 3.90625,-6.4375 3.09375,-8.109375 2.25,-9.828125 1.078125,-10.75 0.921875,-10.75 c -0.0625,0 -0.140625,0.01563 -0.140625,0.109375 0,0.04687 0,0.0625 0.25,0.3125 1.4375,1.453125 2.234375,3.8125 2.234375,6.75 0,2.78125 -0.671875,5.171875 -2.328125,6.859375 -0.15625,0.125 -0.15625,0.15625 -0.15625,0.203125 0,0.09375 0.078125,0.109375 0.140625,0.109375 0.1875,0 1.359375,-1.03125 2.0625,-2.4375 0.734375,-1.453125 1.0625,-3 1.0625,-4.734375 z m 0,0"
             id="id-1d2d2394-d111-48e0-af7b-83b7b28ebd47" />
        </g>
      </g>
      <g
         fill="#000000"
         fill-opacity="1"
         id="id-4c6bb157-8813-48e6-a930-15cf9413945a"
         transform="translate(-258.09,-55.3829)">
        <g
           transform="translate(293.791,66.884)"
           id="g2947">
          <path
             d="M 5.71875,-3.3125 H 9.6875 c 0.203125,0 0.453125,0 0.453125,-0.265625 0,-0.265625 -0.25,-0.265625 -0.453125,-0.265625 H 5.71875 v -3.953125 c 0,-0.203125 0,-0.46875 -0.25,-0.46875 -0.28125,0 -0.28125,0.25 -0.28125,0.46875 V -3.84375 H 1.234375 c -0.203125,0 -0.453125,0 -0.453125,0.265625 0,0.265625 0.234375,0.265625 0.453125,0.265625 H 5.1875 v 3.953125 c 0,0.203125 0,0.46875 0.265625,0.46875 0.265625,0 0.265625,-0.25 0.265625,-0.46875 z m 0,0"
             id="id-69e8e4a6-b656-4b7a-952c-1952246ff67d" />
        </g>
      </g>
      <g
         fill="#000000"
         fill-opacity="1"
         id="id-00959c51-e0b6-4f87-aa13-eef75f32de4c"
         transform="translate(-258.09,-55.3829)">
        <g
           transform="translate(307.908,66.884)"
           id="g2951">
          <path
             d="M 5.421875,-1.75 C 5.390625,-2.453125 5.359375,-3.5625 4.8125,-4.84375 4.53125,-5.5625 4.046875,-6.328125 3,-6.328125 c -1.765625,0 -2.734375,2.25 -2.734375,2.625 0,0.125 0.109375,0.125 0.15625,0.125 0.125,0 0.125,-0.015625 0.1875,-0.203125 0.3125,-0.890625 1.234375,-1.59375 2.21875,-1.59375 1.984375,0 2.28125,2.21875 2.28125,3.640625 0,0.90625 -0.109375,1.203125 -0.1875,1.484375 -0.28125,0.890625 -0.75,2.671875 -0.75,3.078125 0,0.109375 0.046875,0.234375 0.15625,0.234375 0.21875,0 0.34375,-0.46875 0.5,-1.046875 0.34375,-1.25 0.4375,-1.890625 0.5,-2.453125 0.046875,-0.34375 0.875,-2.71875 2,-4.96875 C 7.4375,-5.640625 7.625,-6.03125 7.625,-6.0625 c 0,-0.015625 -0.015625,-0.125 -0.140625,-0.125 -0.03125,0 -0.09375,0 -0.125,0.0625 -0.03125,0.03125 -0.53125,1 -0.96875,1.984375 -0.203125,0.484375 -0.5,1.125 -0.96875,2.390625 z m 0,0"
             id="id-ebc73b8b-5f89-4450-bb25-28783a8774ae" />
        </g>
      </g>
      <g
         fill="#000000"
         fill-opacity="1"
         id="id-67a14009-31ae-4bec-b5b5-2f003a5f1d0e"
         transform="translate(-258.09,-55.3829)">
        <g
           transform="translate(315.974,66.884)"
           id="g2955">
          <path
             d="m 4.65625,3.484375 c 0,-0.046875 0,-0.078125 -0.234375,-0.3125 -1.4375,-1.453125 -2.234375,-3.8125 -2.234375,-6.75 0,-2.78125 0.671875,-5.171875 2.328125,-6.859375 0.140625,-0.140625 0.140625,-0.15625 0.140625,-0.203125 0,-0.09375 -0.0625,-0.109375 -0.125,-0.109375 -0.1875,0 -1.359375,1.03125 -2.0625,2.4375 -0.734375,1.4375 -1.0625,2.984375 -1.0625,4.734375 0,1.28125 0.203125,2.984375 0.953125,4.53125 0.84375,1.71875 2.015625,2.640625 2.171875,2.640625 0.0625,0 0.125,-0.015625 0.125,-0.109375 z m 0,0"
             id="id-78a46b4f-38f1-4541-8895-9e99b50f3420" />
        </g>
      </g>
      <g
         fill="#000000"
         fill-opacity="1"
         id="id-a514a319-b23b-4b20-955d-f419a2ab67ba"
         transform="translate(-258.09,-55.3829)">
        <g
           transform="translate(321.437,66.884)"
           id="g2959">
          <path
             d="m 2.890625,-5.765625 h 1.3125 c 0.265625,0 0.421875,0 0.421875,-0.265625 C 4.625,-6.1875 4.53125,-6.1875 4.25,-6.1875 H 2.984375 l 0.53125,-2.09375 c 0.0625,-0.203125 0.0625,-0.21875 0.0625,-0.328125 0,-0.21875 -0.1875,-0.359375 -0.375,-0.359375 -0.125,0 -0.453125,0.046875 -0.5625,0.5 l -0.5625,2.28125 h -1.34375 c -0.296875,0 -0.421875,0 -0.421875,0.28125 0,0.140625 0.109375,0.140625 0.375,0.140625 h 1.28125 l -0.953125,3.78125 c -0.109375,0.5 -0.15625,0.65625 -0.15625,0.84375 0,0.671875 0.46875,1.28125 1.28125,1.28125 1.4375,0 2.21875,-2.09375 2.21875,-2.1875 0,-0.09375 -0.0625,-0.140625 -0.140625,-0.140625 -0.03125,0 -0.09375,0 -0.109375,0.0625 -0.015625,0.015625 -0.03125,0.03125 -0.140625,0.265625 -0.296875,0.71875 -0.953125,1.71875 -1.78125,1.71875 -0.4375,0 -0.46875,-0.359375 -0.46875,-0.671875 0,-0.015625 0,-0.296875 0.046875,-0.46875 z m 0,0"
             id="id-e287d0e9-89ce-4495-bf7d-10d8f846ecd8" />
        </g>
      </g>
      <g
         fill="#000000"
         fill-opacity="1"
         id="id-fb07ffe9-9a1b-49d5-a4be-e11580ef1624"
         transform="translate(-258.09,-55.3829)">
        <g
           transform="translate(326.51,69.036)"
           id="g2963">
          <path
             d="m 4.578125,-3.1875 c 0,-0.796875 -0.046875,-1.59375 -0.390625,-2.328125 -0.453125,-0.96875 -1.28125,-1.125 -1.6875,-1.125 -0.609375,0 -1.328125,0.265625 -1.75,1.1875 -0.3125,0.6875 -0.359375,1.46875 -0.359375,2.265625 0,0.75 0.03125,1.640625 0.453125,2.40625 0.421875,0.796875 1.15625,1 1.640625,1 0.53125,0 1.296875,-0.203125 1.734375,-1.15625 0.3125,-0.6875 0.359375,-1.46875 0.359375,-2.25 z M 2.484375,0 C 2.09375,0 1.5,-0.25 1.328125,-1.203125 1.21875,-1.796875 1.21875,-2.71875 1.21875,-3.3125 c 0,-0.640625 0,-1.296875 0.078125,-1.828125 0.1875,-1.1875 0.9375,-1.28125 1.1875,-1.28125 0.328125,0 0.984375,0.1875 1.171875,1.171875 0.109375,0.5625 0.109375,1.3125 0.109375,1.9375 0,0.75 0,1.421875 -0.109375,2.0625 C 3.5,-0.296875 2.9375,0 2.484375,0 Z m 0,0"
             id="id-9bc41679-041f-4abf-9859-e6ada0403e79" />
        </g>
      </g>
      <g
         fill="#000000"
         fill-opacity="1"
         id="id-13dcb06d-cde5-4c88-905e-d48c1fa95cc5"
         transform="translate(-258.09,-55.3829)">
        <g
           transform="translate(331.989,66.884)"
           id="g2967">
          <path
             d="M 4.046875,-3.578125 C 4.046875,-4.65625 3.90625,-6.4375 3.09375,-8.109375 2.25,-9.828125 1.078125,-10.75 0.921875,-10.75 c -0.0625,0 -0.140625,0.01563 -0.140625,0.109375 0,0.04687 0,0.0625 0.25,0.3125 1.4375,1.453125 2.234375,3.8125 2.234375,6.75 0,2.78125 -0.671875,5.171875 -2.328125,6.859375 -0.15625,0.125 -0.15625,0.15625 -0.15625,0.203125 0,0.09375 0.078125,0.109375 0.140625,0.109375 0.1875,0 1.359375,-1.03125 2.0625,-2.4375 0.734375,-1.453125 1.0625,-3 1.0625,-4.734375 z m 0,0"
             id="id-0c6530fa-d830-4e75-b635-dbb71b9dfd95" />
        </g>
      </g>
    </g>
    <path
       style="opacity:1;fill:#000000;fill-opacity:1;fill-rule:evenodd;stroke:#000000;stroke-width:0.398;stroke-dasharray:none;stroke-dashoffset:0;marker-end:url(#Arrow1);paint-order:markers stroke fill"
       d="m 123.87073,201.76747 -2.31785,15.99306"
       id="path4239"
       sodipodi:nodetypes="cc" />
    <g
       transform="matrix(0.458611,0,0,0.458611,98.946488,219.5727)"
       ns12:version="1.8.2"
       ns12:texconverter="pdflatex"
       ns12:pdfconverter="inkscape"
       ns12:text="$$i\\gamma'(t_0) \\cdot \\varepsilon + \\gamma(t_0)$$"
       ns12:preamble="/home/buyolitsez/.config/inkscape/extensions/textext/default_packages.tex"
       ns12:scale="1.3"
       ns12:alignment="middle center"
       ns12:stroke-to-path="0"
       ns12:inkscapeversion="0.92.4"
       ns12:jacobian_sqrt="0.458611"
       id="g4375">
      <defs
         id="id-268c6a52-c67a-4854-91c8-10bad58d9846">
        <g
           id="id-0da93745-95ae-4474-b1b3-50bc6e151f23">
          <g
             id="id-966cbd4a-393e-4e1e-8212-ac41d7854d24" />
          <g
             id="id-67719e12-de4a-4802-bee6-fb7aa48344e7">
            <path
               d="M 4.0625,-2.046875 C 4.0625,-2.125 4,-2.1875 3.921875,-2.1875 c -0.140625,0 -0.15625,0.046875 -0.21875,0.296875 -0.375,1.296875 -0.96875,1.75 -1.4375,1.75 -0.171875,0 -0.375,-0.046875 -0.375,-0.46875 0,-0.390625 0.171875,-0.828125 0.328125,-1.25 L 3.234375,-4.53125 C 3.265625,-4.640625 3.375,-4.90625 3.375,-5.171875 c 0,-0.609375 -0.4375,-1.15625 -1.140625,-1.15625 -1.3125,0 -1.84375,2.078125 -1.84375,2.203125 0,0.046875 0.046875,0.125 0.15625,0.125 C 0.671875,-4 0.6875,-4.0625 0.75,-4.265625 1.09375,-5.46875 1.640625,-6.03125 2.1875,-6.03125 c 0.140625,0 0.375,0 0.375,0.46875 0,0.375 -0.1875,0.84375 -0.296875,1.15625 l -1,2.671875 C 1.171875,-1.5 1.09375,-1.28125 1.09375,-1.015625 c 0,0.640625 0.4375,1.15625 1.125,1.15625 1.328125,0 1.84375,-2.09375 1.84375,-2.1875 z m -0.125,-6.90625 c 0,-0.21875 -0.171875,-0.46875 -0.484375,-0.46875 -0.328125,0 -0.703125,0.3125 -0.703125,0.6875 0,0.359375 0.3125,0.46875 0.484375,0.46875 0.375,0 0.703125,-0.375 0.703125,-0.6875 z m 0,0"
               id="id-141b1782-cc6b-4203-9f1c-00b03f4d1379" />
          </g>
          <g
             id="id-6c752e9b-c972-4811-9c50-a547c09209fc">
            <path
               d="M 5.421875,-1.75 C 5.390625,-2.453125 5.359375,-3.5625 4.8125,-4.84375 4.53125,-5.5625 4.046875,-6.328125 3,-6.328125 c -1.765625,0 -2.734375,2.25 -2.734375,2.625 0,0.125 0.109375,0.125 0.15625,0.125 0.125,0 0.125,-0.015625 0.1875,-0.203125 0.3125,-0.890625 1.234375,-1.59375 2.21875,-1.59375 1.984375,0 2.28125,2.21875 2.28125,3.640625 0,0.90625 -0.109375,1.203125 -0.1875,1.484375 -0.28125,0.890625 -0.75,2.671875 -0.75,3.078125 0,0.109375 0.046875,0.234375 0.15625,0.234375 0.21875,0 0.34375,-0.46875 0.5,-1.046875 0.34375,-1.25 0.4375,-1.890625 0.5,-2.453125 0.046875,-0.34375 0.875,-2.71875 2,-4.96875 C 7.4375,-5.640625 7.625,-6.03125 7.625,-6.0625 c 0,-0.015625 -0.015625,-0.125 -0.140625,-0.125 -0.03125,0 -0.09375,0 -0.125,0.0625 -0.03125,0.03125 -0.53125,1 -0.96875,1.984375 -0.203125,0.484375 -0.5,1.125 -0.96875,2.390625 z m 0,0"
               id="id-ac64c200-d6bb-4496-a712-163f1f499153" />
          </g>
          <g
             id="id-6437241a-793d-4cf3-94d6-9a22b195b16c">
            <path
               d="m 2.890625,-5.765625 h 1.3125 c 0.265625,0 0.421875,0 0.421875,-0.265625 C 4.625,-6.1875 4.53125,-6.1875 4.25,-6.1875 H 2.984375 l 0.53125,-2.09375 c 0.0625,-0.203125 0.0625,-0.21875 0.0625,-0.328125 0,-0.21875 -0.1875,-0.359375 -0.375,-0.359375 -0.125,0 -0.453125,0.046875 -0.5625,0.5 l -0.5625,2.28125 h -1.34375 c -0.296875,0 -0.421875,0 -0.421875,0.28125 0,0.140625 0.109375,0.140625 0.375,0.140625 h 1.28125 l -0.953125,3.78125 c -0.109375,0.5 -0.15625,0.65625 -0.15625,0.84375 0,0.671875 0.46875,1.28125 1.28125,1.28125 1.4375,0 2.21875,-2.09375 2.21875,-2.1875 0,-0.09375 -0.0625,-0.140625 -0.140625,-0.140625 -0.03125,0 -0.09375,0 -0.109375,0.0625 -0.015625,0.015625 -0.03125,0.03125 -0.140625,0.265625 -0.296875,0.71875 -0.953125,1.71875 -1.78125,1.71875 -0.4375,0 -0.46875,-0.359375 -0.46875,-0.671875 0,-0.015625 0,-0.296875 0.046875,-0.46875 z m 0,0"
               id="id-8b7f87f8-b3ec-4db2-87fb-f70b831950f3" />
          </g>
          <g
             id="id-80459d64-3650-4269-bb62-7600afbd9f21">
            <path
               d="m 2,-3.265625 c 0.453125,0.1875 0.9375,0.1875 1.21875,0.1875 0.359375,0 1.109375,0 1.109375,-0.421875 0,-0.265625 -0.265625,-0.359375 -1,-0.359375 -0.359375,0 -0.796875,0.046875 -1.296875,0.265625 -0.4375,-0.21875 -0.609375,-0.546875 -0.609375,-0.859375 0,-0.890625 1.40625,-1.40625 2.6875,-1.40625 0.234375,0 0.75,0 1.359375,0.4375 0.078125,0.0625 0.125,0.09375 0.21875,0.09375 0.171875,0 0.359375,-0.1875 0.359375,-0.359375 0,-0.25 -0.828125,-0.796875 -1.8125,-0.796875 -1.609375,0 -3.125,0.96875 -3.125,2.03125 0,0.515625 0.34375,0.859375 0.578125,1.03125 -0.828125,0.46875 -1.3125,1.234375 -1.3125,1.9375 0,1 0.890625,1.78125 2.265625,1.78125 1.890625,0 2.65625,-1.265625 2.65625,-1.453125 0,-0.078125 -0.0625,-0.140625 -0.140625,-0.140625 C 5.09375,-1.296875 5.0625,-1.25 5,-1.15625 4.84375,-0.890625 4.46875,-0.3125 2.765625,-0.3125 c -0.890625,0 -2.0625,-0.234375 -2.0625,-1.25 C 0.703125,-2.046875 1.0625,-2.78125 2,-3.265625 Z M 2.4375,-3.4375 c 0.390625,-0.140625 0.765625,-0.140625 0.859375,-0.140625 0.40625,0 0.46875,0.03125 0.703125,0.09375 C 3.765625,-3.375 3.734375,-3.375 3.21875,-3.375 c -0.265625,0 -0.5,0 -0.78125,-0.0625 z m 0,0"
               id="id-a392fb99-bdbe-4ba1-a440-e910e863a6db" />
          </g>
          <g
             id="id-c341609a-7e81-4d0e-a9a1-d01926426b3f" />
          <g
             id="id-db4f6820-405c-498b-8203-c97b53f2e7de">
            <path
               d="m 2.515625,-4.734375 c 0.0625,-0.125 0.09375,-0.203125 0.09375,-0.3125 0,-0.28125 -0.25,-0.53125 -0.5625,-0.53125 -0.28125,0 -0.46875,0.1875 -0.53125,0.453125 l -1.1875,4.359375 c 0,0.015625 -0.03125,0.125 -0.03125,0.140625 0,0.109375 0.25,0.171875 0.328125,0.171875 0.0625,0 0.078125,-0.03125 0.125,-0.15625 z m 0,0"
               id="id-4aa700c6-956d-4028-8dbe-f5bc42425817" />
          </g>
          <g
             id="id-415e438a-03d8-4ab4-8545-df409ee8ade4" />
          <g
             id="id-2aa34b76-1819-4dfd-8385-e9e7113b512b">
            <path
               d="m 4.65625,3.484375 c 0,-0.046875 0,-0.078125 -0.234375,-0.3125 -1.4375,-1.453125 -2.234375,-3.8125 -2.234375,-6.75 0,-2.78125 0.671875,-5.171875 2.328125,-6.859375 0.140625,-0.140625 0.140625,-0.15625 0.140625,-0.203125 0,-0.09375 -0.0625,-0.109375 -0.125,-0.109375 -0.1875,0 -1.359375,1.03125 -2.0625,2.4375 -0.734375,1.4375 -1.0625,2.984375 -1.0625,4.734375 0,1.28125 0.203125,2.984375 0.953125,4.53125 0.84375,1.71875 2.015625,2.640625 2.171875,2.640625 0.0625,0 0.125,-0.015625 0.125,-0.109375 z m 0,0"
               id="id-2d4d84f3-d928-4ce8-a211-680f2ae1cc55" />
          </g>
          <g
             id="id-4f739eaf-fadd-48db-a333-022b0ce51ebf">
            <path
               d="M 4.046875,-3.578125 C 4.046875,-4.65625 3.90625,-6.4375 3.09375,-8.109375 2.25,-9.828125 1.078125,-10.75 0.921875,-10.75 c -0.0625,0 -0.140625,0.01563 -0.140625,0.109375 0,0.04687 0,0.0625 0.25,0.3125 1.4375,1.453125 2.234375,3.8125 2.234375,6.75 0,2.78125 -0.671875,5.171875 -2.328125,6.859375 -0.15625,0.125 -0.15625,0.15625 -0.15625,0.203125 0,0.09375 0.078125,0.109375 0.140625,0.109375 0.1875,0 1.359375,-1.03125 2.0625,-2.4375 0.734375,-1.453125 1.0625,-3 1.0625,-4.734375 z m 0,0"
               id="id-ddb97097-3b09-4977-8d6b-ba115b0c6ea5" />
          </g>
          <g
             id="id-01fba442-1e13-4769-a083-90bbca8dc61a">
            <path
               d="M 5.71875,-3.3125 H 9.6875 c 0.203125,0 0.453125,0 0.453125,-0.265625 0,-0.265625 -0.25,-0.265625 -0.453125,-0.265625 H 5.71875 v -3.953125 c 0,-0.203125 0,-0.46875 -0.25,-0.46875 -0.28125,0 -0.28125,0.25 -0.28125,0.46875 V -3.84375 H 1.234375 c -0.203125,0 -0.453125,0 -0.453125,0.265625 0,0.265625 0.234375,0.265625 0.453125,0.265625 H 5.1875 v 3.953125 c 0,0.203125 0,0.46875 0.265625,0.46875 0.265625,0 0.265625,-0.25 0.265625,-0.46875 z m 0,0"
               id="id-12c074d2-ce27-4148-bb66-0d9ca56a1526" />
          </g>
          <g
             id="id-7950505f-82fe-42fe-b534-70882ca051c9" />
          <g
             id="id-af9e0b4d-6b5c-4832-b263-161cb7a127b4">
            <path
               d="m 4.578125,-3.1875 c 0,-0.796875 -0.046875,-1.59375 -0.390625,-2.328125 -0.453125,-0.96875 -1.28125,-1.125 -1.6875,-1.125 -0.609375,0 -1.328125,0.265625 -1.75,1.1875 -0.3125,0.6875 -0.359375,1.46875 -0.359375,2.265625 0,0.75 0.03125,1.640625 0.453125,2.40625 0.421875,0.796875 1.15625,1 1.640625,1 0.53125,0 1.296875,-0.203125 1.734375,-1.15625 0.3125,-0.6875 0.359375,-1.46875 0.359375,-2.25 z M 2.484375,0 C 2.09375,0 1.5,-0.25 1.328125,-1.203125 1.21875,-1.796875 1.21875,-2.71875 1.21875,-3.3125 c 0,-0.640625 0,-1.296875 0.078125,-1.828125 0.1875,-1.1875 0.9375,-1.28125 1.1875,-1.28125 0.328125,0 0.984375,0.1875 1.171875,1.171875 0.109375,0.5625 0.109375,1.3125 0.109375,1.9375 0,0.75 0,1.421875 -0.109375,2.0625 C 3.5,-0.296875 2.9375,0 2.484375,0 Z m 0,0"
               id="id-ea28b2c7-420f-4dc2-b2ec-29499797f947" />
          </g>
          <g
             id="id-5ded8b41-1ba1-418c-92ab-e692adbf1177" />
          <g
             id="id-0def5421-b421-4a1f-a03a-6239a8428aac">
            <path
               d="M 2.75,-3.578125 C 2.75,-4 2.40625,-4.34375 2,-4.34375 c -0.421875,0 -0.765625,0.34375 -0.765625,0.765625 0,0.40625 0.34375,0.75 0.765625,0.75 0.40625,0 0.75,-0.34375 0.75,-0.75 z m 0,0"
               id="id-2d8101c1-a664-415d-a4bf-87f5489dd2b3" />
          </g>
        </g>
      </defs>
      <g
         fill="#000000"
         fill-opacity="1"
         id="id-43780abb-9e00-45d6-ab00-60181365ae55"
         transform="translate(-247.351,-55.3829)">
        <g
           transform="translate(246.96,66.884)"
           id="g4598">
          <path
             d="M 4.0625,-2.046875 C 4.0625,-2.125 4,-2.1875 3.921875,-2.1875 c -0.140625,0 -0.15625,0.046875 -0.21875,0.296875 -0.375,1.296875 -0.96875,1.75 -1.4375,1.75 -0.171875,0 -0.375,-0.046875 -0.375,-0.46875 0,-0.390625 0.171875,-0.828125 0.328125,-1.25 L 3.234375,-4.53125 C 3.265625,-4.640625 3.375,-4.90625 3.375,-5.171875 c 0,-0.609375 -0.4375,-1.15625 -1.140625,-1.15625 -1.3125,0 -1.84375,2.078125 -1.84375,2.203125 0,0.046875 0.046875,0.125 0.15625,0.125 C 0.671875,-4 0.6875,-4.0625 0.75,-4.265625 1.09375,-5.46875 1.640625,-6.03125 2.1875,-6.03125 c 0.140625,0 0.375,0 0.375,0.46875 0,0.375 -0.1875,0.84375 -0.296875,1.15625 l -1,2.671875 C 1.171875,-1.5 1.09375,-1.28125 1.09375,-1.015625 c 0,0.640625 0.4375,1.15625 1.125,1.15625 1.328125,0 1.84375,-2.09375 1.84375,-2.1875 z m -0.125,-6.90625 c 0,-0.21875 -0.171875,-0.46875 -0.484375,-0.46875 -0.328125,0 -0.703125,0.3125 -0.703125,0.6875 0,0.359375 0.3125,0.46875 0.484375,0.46875 0.375,0 0.703125,-0.375 0.703125,-0.6875 z m 0,0"
             id="id-1c919ee8-a818-498c-955d-3418ec0653c0" />
        </g>
        <g
           transform="translate(251.752,66.884)"
           id="g4601">
          <path
             d="M 5.421875,-1.75 C 5.390625,-2.453125 5.359375,-3.5625 4.8125,-4.84375 4.53125,-5.5625 4.046875,-6.328125 3,-6.328125 c -1.765625,0 -2.734375,2.25 -2.734375,2.625 0,0.125 0.109375,0.125 0.15625,0.125 0.125,0 0.125,-0.015625 0.1875,-0.203125 0.3125,-0.890625 1.234375,-1.59375 2.21875,-1.59375 1.984375,0 2.28125,2.21875 2.28125,3.640625 0,0.90625 -0.109375,1.203125 -0.1875,1.484375 -0.28125,0.890625 -0.75,2.671875 -0.75,3.078125 0,0.109375 0.046875,0.234375 0.15625,0.234375 0.21875,0 0.34375,-0.46875 0.5,-1.046875 0.34375,-1.25 0.4375,-1.890625 0.5,-2.453125 0.046875,-0.34375 0.875,-2.71875 2,-4.96875 C 7.4375,-5.640625 7.625,-6.03125 7.625,-6.0625 c 0,-0.015625 -0.015625,-0.125 -0.140625,-0.125 -0.03125,0 -0.09375,0 -0.125,0.0625 -0.03125,0.03125 -0.53125,1 -0.96875,1.984375 -0.203125,0.484375 -0.5,1.125 -0.96875,2.390625 z m 0,0"
             id="id-34c9fb25-60a7-4e30-88d4-739d56004bc0" />
        </g>
      </g>
      <g
         fill="#000000"
         fill-opacity="1"
         id="id-a7420664-5879-4825-afde-95b3cc81f6da"
         transform="translate(-247.351,-55.3829)">
        <g
           transform="translate(259.819,60.961)"
           id="g4605">
          <path
             d="m 2.515625,-4.734375 c 0.0625,-0.125 0.09375,-0.203125 0.09375,-0.3125 0,-0.28125 -0.25,-0.53125 -0.5625,-0.53125 -0.28125,0 -0.46875,0.1875 -0.53125,0.453125 l -1.1875,4.359375 c 0,0.015625 -0.03125,0.125 -0.03125,0.140625 0,0.109375 0.25,0.171875 0.328125,0.171875 0.0625,0 0.078125,-0.03125 0.125,-0.15625 z m 0,0"
             id="id-eed8162f-439b-4b33-8889-23547f2cd466" />
        </g>
      </g>
      <g
         fill="#000000"
         fill-opacity="1"
         id="id-c7739cce-b107-4808-8ae1-5fe29460ea67"
         transform="translate(-247.351,-55.3829)">
        <g
           transform="translate(263.057,66.884)"
           id="g4609">
          <path
             d="m 4.65625,3.484375 c 0,-0.046875 0,-0.078125 -0.234375,-0.3125 -1.4375,-1.453125 -2.234375,-3.8125 -2.234375,-6.75 0,-2.78125 0.671875,-5.171875 2.328125,-6.859375 0.140625,-0.140625 0.140625,-0.15625 0.140625,-0.203125 0,-0.09375 -0.0625,-0.109375 -0.125,-0.109375 -0.1875,0 -1.359375,1.03125 -2.0625,2.4375 -0.734375,1.4375 -1.0625,2.984375 -1.0625,4.734375 0,1.28125 0.203125,2.984375 0.953125,4.53125 0.84375,1.71875 2.015625,2.640625 2.171875,2.640625 0.0625,0 0.125,-0.015625 0.125,-0.109375 z m 0,0"
             id="id-3d5e6e1f-e56c-40af-8ed1-7bbecf4a2838" />
        </g>
      </g>
      <g
         fill="#000000"
         fill-opacity="1"
         id="id-a9862401-63b6-4ee5-aec7-41ece580ef55"
         transform="translate(-247.351,-55.3829)">
        <g
           transform="translate(268.52,66.884)"
           id="g4613">
          <path
             d="m 2.890625,-5.765625 h 1.3125 c 0.265625,0 0.421875,0 0.421875,-0.265625 C 4.625,-6.1875 4.53125,-6.1875 4.25,-6.1875 H 2.984375 l 0.53125,-2.09375 c 0.0625,-0.203125 0.0625,-0.21875 0.0625,-0.328125 0,-0.21875 -0.1875,-0.359375 -0.375,-0.359375 -0.125,0 -0.453125,0.046875 -0.5625,0.5 l -0.5625,2.28125 h -1.34375 c -0.296875,0 -0.421875,0 -0.421875,0.28125 0,0.140625 0.109375,0.140625 0.375,0.140625 h 1.28125 l -0.953125,3.78125 c -0.109375,0.5 -0.15625,0.65625 -0.15625,0.84375 0,0.671875 0.46875,1.28125 1.28125,1.28125 1.4375,0 2.21875,-2.09375 2.21875,-2.1875 0,-0.09375 -0.0625,-0.140625 -0.140625,-0.140625 -0.03125,0 -0.09375,0 -0.109375,0.0625 -0.015625,0.015625 -0.03125,0.03125 -0.140625,0.265625 -0.296875,0.71875 -0.953125,1.71875 -1.78125,1.71875 -0.4375,0 -0.46875,-0.359375 -0.46875,-0.671875 0,-0.015625 0,-0.296875 0.046875,-0.46875 z m 0,0"
             id="id-eaf4f43c-3966-4740-bea5-4ce28df30461" />
        </g>
      </g>
      <g
         fill="#000000"
         fill-opacity="1"
         id="id-bfbf0acf-e3f8-4751-9bd9-3e5cdbcf2e80"
         transform="translate(-247.351,-55.3829)">
        <g
           transform="translate(273.592,69.036)"
           id="g4617">
          <path
             d="m 4.578125,-3.1875 c 0,-0.796875 -0.046875,-1.59375 -0.390625,-2.328125 -0.453125,-0.96875 -1.28125,-1.125 -1.6875,-1.125 -0.609375,0 -1.328125,0.265625 -1.75,1.1875 -0.3125,0.6875 -0.359375,1.46875 -0.359375,2.265625 0,0.75 0.03125,1.640625 0.453125,2.40625 0.421875,0.796875 1.15625,1 1.640625,1 0.53125,0 1.296875,-0.203125 1.734375,-1.15625 0.3125,-0.6875 0.359375,-1.46875 0.359375,-2.25 z M 2.484375,0 C 2.09375,0 1.5,-0.25 1.328125,-1.203125 1.21875,-1.796875 1.21875,-2.71875 1.21875,-3.3125 c 0,-0.640625 0,-1.296875 0.078125,-1.828125 0.1875,-1.1875 0.9375,-1.28125 1.1875,-1.28125 0.328125,0 0.984375,0.1875 1.171875,1.171875 0.109375,0.5625 0.109375,1.3125 0.109375,1.9375 0,0.75 0,1.421875 -0.109375,2.0625 C 3.5,-0.296875 2.9375,0 2.484375,0 Z m 0,0"
             id="id-8b336817-ca9e-401c-a5d6-73c68e17bbae" />
        </g>
      </g>
      <g
         fill="#000000"
         fill-opacity="1"
         id="id-18a183df-b346-47c6-8df1-0d75f117e12c"
         transform="translate(-247.351,-55.3829)">
        <g
           transform="translate(279.072,66.884)"
           id="g4621">
          <path
             d="M 4.046875,-3.578125 C 4.046875,-4.65625 3.90625,-6.4375 3.09375,-8.109375 2.25,-9.828125 1.078125,-10.75 0.921875,-10.75 c -0.0625,0 -0.140625,0.01563 -0.140625,0.109375 0,0.04687 0,0.0625 0.25,0.3125 1.4375,1.453125 2.234375,3.8125 2.234375,6.75 0,2.78125 -0.671875,5.171875 -2.328125,6.859375 -0.15625,0.125 -0.15625,0.15625 -0.15625,0.203125 0,0.09375 0.078125,0.109375 0.140625,0.109375 0.1875,0 1.359375,-1.03125 2.0625,-2.4375 0.734375,-1.453125 1.0625,-3 1.0625,-4.734375 z m 0,0"
             id="id-b4847d00-a29f-4bb4-b5d2-3f9de1364af5" />
        </g>
      </g>
      <g
         fill="#000000"
         fill-opacity="1"
         id="id-32d5d411-a68a-4dd0-b45f-3bc3e88aa3f6"
         transform="translate(-247.351,-55.3829)">
        <g
           transform="translate(287.723,66.884)"
           id="g4625">
          <path
             d="M 2.75,-3.578125 C 2.75,-4 2.40625,-4.34375 2,-4.34375 c -0.421875,0 -0.765625,0.34375 -0.765625,0.765625 0,0.40625 0.34375,0.75 0.765625,0.75 0.40625,0 0.75,-0.34375 0.75,-0.75 z m 0,0"
             id="id-87f01385-7ad3-44cf-ab49-40c699250e69" />
        </g>
      </g>
      <g
         fill="#000000"
         fill-opacity="1"
         id="id-0ae80cc4-9dc6-4d7b-8df7-f92a9bcc0362"
         transform="translate(-247.351,-55.3829)">
        <g
           transform="translate(294.896,66.884)"
           id="g4629">
          <path
             d="m 2,-3.265625 c 0.453125,0.1875 0.9375,0.1875 1.21875,0.1875 0.359375,0 1.109375,0 1.109375,-0.421875 0,-0.265625 -0.265625,-0.359375 -1,-0.359375 -0.359375,0 -0.796875,0.046875 -1.296875,0.265625 -0.4375,-0.21875 -0.609375,-0.546875 -0.609375,-0.859375 0,-0.890625 1.40625,-1.40625 2.6875,-1.40625 0.234375,0 0.75,0 1.359375,0.4375 0.078125,0.0625 0.125,0.09375 0.21875,0.09375 0.171875,0 0.359375,-0.1875 0.359375,-0.359375 0,-0.25 -0.828125,-0.796875 -1.8125,-0.796875 -1.609375,0 -3.125,0.96875 -3.125,2.03125 0,0.515625 0.34375,0.859375 0.578125,1.03125 -0.828125,0.46875 -1.3125,1.234375 -1.3125,1.9375 0,1 0.890625,1.78125 2.265625,1.78125 1.890625,0 2.65625,-1.265625 2.65625,-1.453125 0,-0.078125 -0.0625,-0.140625 -0.140625,-0.140625 C 5.09375,-1.296875 5.0625,-1.25 5,-1.15625 4.84375,-0.890625 4.46875,-0.3125 2.765625,-0.3125 c -0.890625,0 -2.0625,-0.234375 -2.0625,-1.25 C 0.703125,-2.046875 1.0625,-2.78125 2,-3.265625 Z M 2.4375,-3.4375 c 0.390625,-0.140625 0.765625,-0.140625 0.859375,-0.140625 0.40625,0 0.46875,0.03125 0.703125,0.09375 C 3.765625,-3.375 3.734375,-3.375 3.21875,-3.375 c -0.265625,0 -0.5,0 -0.78125,-0.0625 z m 0,0"
             id="id-ae6d23a0-6e94-42a5-a52e-8fe62fefe38f" />
        </g>
      </g>
      <g
         fill="#000000"
         fill-opacity="1"
         id="id-ca499ed1-df98-4583-b114-cef1c02c5815"
         transform="translate(-247.351,-55.3829)">
        <g
           transform="translate(304.657,66.884)"
           id="g4633">
          <path
             d="M 5.71875,-3.3125 H 9.6875 c 0.203125,0 0.453125,0 0.453125,-0.265625 0,-0.265625 -0.25,-0.265625 -0.453125,-0.265625 H 5.71875 v -3.953125 c 0,-0.203125 0,-0.46875 -0.25,-0.46875 -0.28125,0 -0.28125,0.25 -0.28125,0.46875 V -3.84375 H 1.234375 c -0.203125,0 -0.453125,0 -0.453125,0.265625 0,0.265625 0.234375,0.265625 0.453125,0.265625 H 5.1875 v 3.953125 c 0,0.203125 0,0.46875 0.265625,0.46875 0.265625,0 0.265625,-0.25 0.265625,-0.46875 z m 0,0"
             id="id-be116fcc-3516-4c60-8de0-9b91d1798b8d" />
        </g>
      </g>
      <g
         fill="#000000"
         fill-opacity="1"
         id="id-fa0adf36-7575-4e48-b92b-779fc055ea5d"
         transform="translate(-247.351,-55.3829)">
        <g
           transform="translate(318.771,66.884)"
           id="g4637">
          <path
             d="M 5.421875,-1.75 C 5.390625,-2.453125 5.359375,-3.5625 4.8125,-4.84375 4.53125,-5.5625 4.046875,-6.328125 3,-6.328125 c -1.765625,0 -2.734375,2.25 -2.734375,2.625 0,0.125 0.109375,0.125 0.15625,0.125 0.125,0 0.125,-0.015625 0.1875,-0.203125 0.3125,-0.890625 1.234375,-1.59375 2.21875,-1.59375 1.984375,0 2.28125,2.21875 2.28125,3.640625 0,0.90625 -0.109375,1.203125 -0.1875,1.484375 -0.28125,0.890625 -0.75,2.671875 -0.75,3.078125 0,0.109375 0.046875,0.234375 0.15625,0.234375 0.21875,0 0.34375,-0.46875 0.5,-1.046875 0.34375,-1.25 0.4375,-1.890625 0.5,-2.453125 0.046875,-0.34375 0.875,-2.71875 2,-4.96875 C 7.4375,-5.640625 7.625,-6.03125 7.625,-6.0625 c 0,-0.015625 -0.015625,-0.125 -0.140625,-0.125 -0.03125,0 -0.09375,0 -0.125,0.0625 -0.03125,0.03125 -0.53125,1 -0.96875,1.984375 -0.203125,0.484375 -0.5,1.125 -0.96875,2.390625 z m 0,0"
             id="id-e7e7e443-907e-4101-9e8f-693cb460cff3" />
        </g>
      </g>
      <g
         fill="#000000"
         fill-opacity="1"
         id="id-be2f5a71-4d68-4841-a7c2-307318c91921"
         transform="translate(-247.351,-55.3829)">
        <g
           transform="translate(326.838,66.884)"
           id="g4641">
          <path
             d="m 4.65625,3.484375 c 0,-0.046875 0,-0.078125 -0.234375,-0.3125 -1.4375,-1.453125 -2.234375,-3.8125 -2.234375,-6.75 0,-2.78125 0.671875,-5.171875 2.328125,-6.859375 0.140625,-0.140625 0.140625,-0.15625 0.140625,-0.203125 0,-0.09375 -0.0625,-0.109375 -0.125,-0.109375 -0.1875,0 -1.359375,1.03125 -2.0625,2.4375 -0.734375,1.4375 -1.0625,2.984375 -1.0625,4.734375 0,1.28125 0.203125,2.984375 0.953125,4.53125 0.84375,1.71875 2.015625,2.640625 2.171875,2.640625 0.0625,0 0.125,-0.015625 0.125,-0.109375 z m 0,0"
             id="id-87f9b962-eecd-426a-b21d-c72ea18955c5" />
        </g>
      </g>
      <g
         fill="#000000"
         fill-opacity="1"
         id="id-897a394b-e3da-4dba-911e-eb94a57253aa"
         transform="translate(-247.351,-55.3829)">
        <g
           transform="translate(332.3,66.884)"
           id="g4645">
          <path
             d="m 2.890625,-5.765625 h 1.3125 c 0.265625,0 0.421875,0 0.421875,-0.265625 C 4.625,-6.1875 4.53125,-6.1875 4.25,-6.1875 H 2.984375 l 0.53125,-2.09375 c 0.0625,-0.203125 0.0625,-0.21875 0.0625,-0.328125 0,-0.21875 -0.1875,-0.359375 -0.375,-0.359375 -0.125,0 -0.453125,0.046875 -0.5625,0.5 l -0.5625,2.28125 h -1.34375 c -0.296875,0 -0.421875,0 -0.421875,0.28125 0,0.140625 0.109375,0.140625 0.375,0.140625 h 1.28125 l -0.953125,3.78125 c -0.109375,0.5 -0.15625,0.65625 -0.15625,0.84375 0,0.671875 0.46875,1.28125 1.28125,1.28125 1.4375,0 2.21875,-2.09375 2.21875,-2.1875 0,-0.09375 -0.0625,-0.140625 -0.140625,-0.140625 -0.03125,0 -0.09375,0 -0.109375,0.0625 -0.015625,0.015625 -0.03125,0.03125 -0.140625,0.265625 -0.296875,0.71875 -0.953125,1.71875 -1.78125,1.71875 -0.4375,0 -0.46875,-0.359375 -0.46875,-0.671875 0,-0.015625 0,-0.296875 0.046875,-0.46875 z m 0,0"
             id="id-ca763e67-8c7a-4a8a-8456-2f369b98ad56" />
        </g>
      </g>
      <g
         fill="#000000"
         fill-opacity="1"
         id="id-a1d7a4af-1943-4af4-9e8f-9139b6efb719"
         transform="translate(-247.351,-55.3829)">
        <g
           transform="translate(337.373,69.036)"
           id="g4649">
          <path
             d="m 4.578125,-3.1875 c 0,-0.796875 -0.046875,-1.59375 -0.390625,-2.328125 -0.453125,-0.96875 -1.28125,-1.125 -1.6875,-1.125 -0.609375,0 -1.328125,0.265625 -1.75,1.1875 -0.3125,0.6875 -0.359375,1.46875 -0.359375,2.265625 0,0.75 0.03125,1.640625 0.453125,2.40625 0.421875,0.796875 1.15625,1 1.640625,1 0.53125,0 1.296875,-0.203125 1.734375,-1.15625 0.3125,-0.6875 0.359375,-1.46875 0.359375,-2.25 z M 2.484375,0 C 2.09375,0 1.5,-0.25 1.328125,-1.203125 1.21875,-1.796875 1.21875,-2.71875 1.21875,-3.3125 c 0,-0.640625 0,-1.296875 0.078125,-1.828125 0.1875,-1.1875 0.9375,-1.28125 1.1875,-1.28125 0.328125,0 0.984375,0.1875 1.171875,1.171875 0.109375,0.5625 0.109375,1.3125 0.109375,1.9375 0,0.75 0,1.421875 -0.109375,2.0625 C 3.5,-0.296875 2.9375,0 2.484375,0 Z m 0,0"
             id="id-20c55c54-1f91-47c2-a402-3d5301b33dc9" />
        </g>
      </g>
      <g
         fill="#000000"
         fill-opacity="1"
         id="id-05c06a19-a393-43ea-b2b9-16ff906d4b3c"
         transform="translate(-247.351,-55.3829)">
        <g
           transform="translate(342.852,66.884)"
           id="g4653">
          <path
             d="M 4.046875,-3.578125 C 4.046875,-4.65625 3.90625,-6.4375 3.09375,-8.109375 2.25,-9.828125 1.078125,-10.75 0.921875,-10.75 c -0.0625,0 -0.140625,0.01563 -0.140625,0.109375 0,0.04687 0,0.0625 0.25,0.3125 1.4375,1.453125 2.234375,3.8125 2.234375,6.75 0,2.78125 -0.671875,5.171875 -2.328125,6.859375 -0.15625,0.125 -0.15625,0.15625 -0.15625,0.203125 0,0.09375 0.078125,0.109375 0.140625,0.109375 0.1875,0 1.359375,-1.03125 2.0625,-2.4375 0.734375,-1.453125 1.0625,-3 1.0625,-4.734375 z m 0,0"
             id="id-3046be72-6fdd-49bc-b002-4f4beadc9fe1" />
        </g>
      </g>
    </g>
  </g>
</svg>
