<?xml version="1.0" encoding="UTF-8" standalone="no"?>
<!-- Created with Inkscape (http://www.inkscape.org/) -->

<svg
   width="240mm"
   height="120mm"
   viewBox="0 0 240 120"
   version="1.1"
   id="svg8"
   inkscape:version="1.2.2 (b0a8486541, 2022-12-01)"
   sodipodi:docname="theorem_cauchy_omega_tilde.svg"
   xmlns:inkscape="http://www.inkscape.org/namespaces/inkscape"
   xmlns:sodipodi="http://sodipodi.sourceforge.net/DTD/sodipodi-0.dtd"
   xmlns="http://www.w3.org/2000/svg"
   xmlns:svg="http://www.w3.org/2000/svg"
   xmlns:rdf="http://www.w3.org/1999/02/22-rdf-syntax-ns#"
   xmlns:cc="http://creativecommons.org/ns#"
   xmlns:dc="http://purl.org/dc/elements/1.1/"
   xmlns:ns1="http://www.iki.fi/pav/software/textext/">
  <defs
     id="defs2">
    <marker
       style="overflow:visible"
       id="marker5226"
       refX="0"
       refY="0"
       orient="auto-start-reverse"
       inkscape:stockid="Arrow3"
       markerWidth="4.2071066"
       markerHeight="6.9999995"
       viewBox="0 0 4.2071068 7"
       inkscape:isstock="true"
       inkscape:collect="always"
       preserveAspectRatio="xMidYMid">
      <path
         style="fill:none;stroke:context-stroke;stroke-width:1;stroke-linecap:round"
         d="M 3,-3 0,0 3,3"
         id="path5224"
         transform="rotate(180,0.125,0)"
         sodipodi:nodetypes="ccc" />
    </marker>
    <marker
       style="overflow:visible"
       id="Arrow3"
       refX="0"
       refY="0"
       orient="auto-start-reverse"
       inkscape:stockid="Arrow3"
       markerWidth="4.2071066"
       markerHeight="6.9999995"
       viewBox="0 0 4.2071068 7"
       inkscape:isstock="true"
       inkscape:collect="always"
       preserveAspectRatio="xMidYMid">
      <path
         style="fill:none;stroke:context-stroke;stroke-width:1;stroke-linecap:round"
         d="M 3,-3 0,0 3,3"
         id="arrow3"
         transform="rotate(180,0.125,0)"
         sodipodi:nodetypes="ccc" />
    </marker>
    <marker
       style="overflow:visible"
       id="Arrow1"
       refX="0"
       refY="0"
       orient="auto-start-reverse"
       inkscape:stockid="Arrow1"
       markerWidth="4.0606599"
       markerHeight="6.7071061"
       viewBox="0 0 4.0606602 6.7071068"
       inkscape:isstock="true"
       inkscape:collect="always"
       preserveAspectRatio="xMidYMid">
      <path
         style="fill:none;stroke:context-stroke;stroke-width:1;stroke-linecap:butt"
         d="M 0.60355339,3 -2.3964466,0 0.60355339,-3"
         id="path5057"
         sodipodi:nodetypes="ccc" />
    </marker>
  </defs>
  <sodipodi:namedview
     id="base"
     pagecolor="#ffffff"
     bordercolor="#666666"
     borderopacity="1.0"
     inkscape:pageopacity="0.0"
     inkscape:pageshadow="2"
     inkscape:zoom="1.0435625"
     inkscape:cx="583.57787"
     inkscape:cy="200.75462"
     inkscape:document-units="mm"
     inkscape:current-layer="layer1"
     showgrid="false"
     showborder="true"
     width="200mm"
     showguides="true"
     inkscape:guide-bbox="true"
     inkscape:window-width="1280"
     inkscape:window-height="1348"
     inkscape:window-x="0"
     inkscape:window-y="0"
     inkscape:window-maximized="1"
     inkscape:showpageshadow="2"
     inkscape:pagecheckerboard="0"
     inkscape:deskcolor="#d1d1d1">
    <inkscape:grid
       type="xygrid"
       id="grid815"
       units="mm"
       spacingx="10"
       spacingy="10"
       empspacing="4"
       dotted="false" />
  </sodipodi:namedview>
  <metadata
     id="metadata5">
    <rdf:RDF>
      <cc:Work
         rdf:about="">
        <dc:format>image/svg+xml</dc:format>
        <dc:type
           rdf:resource="http://purl.org/dc/dcmitype/StillImage" />
      </cc:Work>
    </rdf:RDF>
  </metadata>
  <g
     inkscape:label="Layer 1"
     inkscape:groupmode="layer"
     id="layer1"
     transform="translate(0, -177)">
    <path
       style="fill:#4d4d4d;fill-opacity:0.00366893;fill-rule:evenodd;stroke:#000000;stroke-width:0.542999;marker-mid:url(#Arrow1);paint-order:markers stroke fill"
       d="m 65.844488,225.92968 c -28.525681,-14.92441 -35.193282,-11.67116 -26.939594,-18.2608 8.253687,-6.58965 116.304126,-24.53344 119.640526,-9.69635 3.3364,14.8371 -27.78669,14.78409 -8.95527,27.08407 18.83142,12.29998 62.20356,38.10354 26.71717,43.44697 -35.48639,5.34343 -23.88383,-11.32608 -38.88411,-10.32724 -15.00027,0.99884 -98.063069,35.12156 -94.194511,14.23737 3.86856,-20.88418 14.934797,-25.14043 3.181532,-27.29402 -11.753268,-2.15358 -25.194482,-14.17709 -9.525883,-14.51801 15.668595,-0.34091 42.660254,5.82728 34.866651,-0.50136 -1.927006,-2.84789 -5.906511,-4.17028 -5.906511,-4.17028 z"
       id="path540"
       sodipodi:nodetypes="cssssssssccc" />
    <path
       style="fill:#4d4d4d;fill-opacity:0.00366893;fill-rule:evenodd;stroke:#000000;stroke-width:0.542999;paint-order:markers stroke fill;marker-mid:url(#Arrow3)"
       d="m 100.35155,202.9136 c 21.48649,8.56183 16.53356,25.16083 10.67808,27.12995 -12.930601,4.34838 -14.038126,-26.23901 -10.67808,-27.12995 z"
       id="path1961"
       sodipodi:nodetypes="csc" />
    <path
       style="fill:#4d4d4d;fill-opacity:0.00366893;fill-rule:evenodd;stroke:#000000;stroke-width:0.542999;paint-order:markers stroke fill;marker-mid:url(#Arrow3)"
       d="m 82.766574,254.84201 c 27.777336,-19.3324 25.431536,-17.72742 32.391126,-13.51709 7.07243,4.27859 2.90141,5.45621 9.78157,8.91525 8.70866,4.37834 -6.07256,8.6632 -8.33217,7.51469 -2.2596,-1.14851 -8.87003,-3.54011 -14.98468,0.68599 -6.114651,4.2261 -17.005758,15.2253 -20.753748,10.30386 -3.747992,-4.92145 1.897902,-13.9027 1.897902,-13.9027 z"
       id="path2147"
       sodipodi:nodetypes="csssssc" />
    <g
       transform="matrix(0.458611,0,0,0.458611,141.27867,199.8983)"
       ns1:version="1.8.2"
       ns1:texconverter="pdflatex"
       ns1:pdfconverter="inkscape"
       ns1:text="$$\\Omega$$"
       ns1:preamble="/home/buyolitsez/.config/inkscape/extensions/textext/default_packages.tex"
       ns1:scale="1.3"
       ns1:alignment="middle center"
       ns1:stroke-to-path="0"
       ns1:inkscapeversion="1.2.2"
       ns1:jacobian_sqrt="0.458611"
       id="g2252">
      <defs
         id="id-402bfdbc-1148-4a2e-b3fe-a38d330a3690">
        <g
           id="id-6cc03202-652b-4d20-a4da-6293189bb9e8">
          <g
             id="id-d046591b-a7a2-4c00-88e5-c526f7a0ccfc" />
          <g
             id="id-7af918bd-1ebe-4a9f-970c-f6de5446cd58">
            <path
               d="M 9.5,-2.234375 H 9.1875 c -0.078125,0.375 -0.15625,0.75 -0.265625,1.046875 C 8.84375,-0.96875 8.8125,-0.84375 7.96875,-0.84375 h -1.125 c 0.171875,-0.8125 0.59375,-1.5 1.171875,-2.390625 0.671875,-1.046875 1.34375,-2.09375 1.34375,-3.28125 0,-1.96875 -1.90625,-3.578125 -4.296875,-3.578125 -2.40625,0 -4.28125,1.609375 -4.28125,3.578125 0,1.1875 0.640625,2.21875 1.3125,3.265625 0.609375,0.921875 1.03125,1.59375 1.1875,2.40625 h -1.125 c -0.84375,0 -0.875,-0.125 -0.953125,-0.328125 -0.109375,-0.3125 -0.1875,-0.71875 -0.25,-1.0625 H 0.625 L 1.09375,0 H 3.3125 C 3.625,0 3.65625,0 3.65625,-0.265625 3.65625,-1.28125 3.203125,-2.53125 2.90625,-3.25 2.5,-4.390625 2.109375,-5.4375 2.109375,-6.53125 c 0,-2.203125 1.53125,-3.28125 2.953125,-3.28125 1.421875,0 2.953125,1.078125 2.953125,3.28125 0,1.09375 -0.40625,2.171875 -0.796875,3.234375 -0.25,0.6875 -0.75,2 -0.75,3.03125 C 6.46875,0 6.515625,0 6.828125,0 H 9.03125 Z m 0,0"
               id="id-3848a785-0949-4920-8493-3f398a1949f8" />
          </g>
        </g>
      </defs>
      <g
         fill="#000000"
         fill-opacity="1"
         id="id-1b782a6f-f83e-408d-b682-d1305ab88d03"
         transform="translate(-293.19,-56.7903)">
        <g
           transform="translate(292.565,66.884)"
           id="g2249">
          <path
             d="M 9.5,-2.234375 H 9.1875 c -0.078125,0.375 -0.15625,0.75 -0.265625,1.046875 C 8.84375,-0.96875 8.8125,-0.84375 7.96875,-0.84375 h -1.125 c 0.171875,-0.8125 0.59375,-1.5 1.171875,-2.390625 0.671875,-1.046875 1.34375,-2.09375 1.34375,-3.28125 0,-1.96875 -1.90625,-3.578125 -4.296875,-3.578125 -2.40625,0 -4.28125,1.609375 -4.28125,3.578125 0,1.1875 0.640625,2.21875 1.3125,3.265625 0.609375,0.921875 1.03125,1.59375 1.1875,2.40625 h -1.125 c -0.84375,0 -0.875,-0.125 -0.953125,-0.328125 -0.109375,-0.3125 -0.1875,-0.71875 -0.25,-1.0625 H 0.625 L 1.09375,0 H 3.3125 C 3.625,0 3.65625,0 3.65625,-0.265625 3.65625,-1.28125 3.203125,-2.53125 2.90625,-3.25 2.5,-4.390625 2.109375,-5.4375 2.109375,-6.53125 c 0,-2.203125 1.53125,-3.28125 2.953125,-3.28125 1.421875,0 2.953125,1.078125 2.953125,3.28125 0,1.09375 -0.40625,2.171875 -0.796875,3.234375 -0.25,0.6875 -0.75,2 -0.75,3.03125 C 6.46875,0 6.515625,0 6.828125,0 H 9.03125 Z m 0,0"
             id="id-9572efe4-c2ba-4488-a098-231cf3569c3d" />
        </g>
      </g>
    </g>
    <circle
       style="fill:#ff0000;fill-rule:evenodd;stroke:#ff0000;stroke-width:0.627999;paint-order:markers stroke fill"
       id="path315"
       cx="124.46779"
       cy="204.59648"
       r="0.47999999" />
    <circle
       style="fill-rule:evenodd;stroke:#ff0000;stroke-width:0.228;paint-order:markers stroke fill;fill-opacity:0;stroke-dasharray:none;fill:#ff0000;marker-mid:url(#marker5226);marker-end:url(#marker5226)"
       id="circle407"
       cx="124.46779"
       cy="204.59648"
       r="2.5799999" />
    <g
       transform="matrix(0.29549265,0,0,0.29549265,118.32558,196.36342)"
       ns1:version="1.8.2"
       ns1:texconverter="pdflatex"
       ns1:pdfconverter="inkscape"
       ns1:text="$$B(a, \\varepsilon)$$"
       ns1:preamble="/home/buyolitsez/.config/inkscape/extensions/textext/default_packages.tex"
       ns1:scale="1.3"
       ns1:alignment="middle center"
       ns1:stroke-to-path="0"
       ns1:inkscapeversion="1.2.2"
       ns1:jacobian_sqrt="0.458611"
       id="g6253"
       style="fill:#ff0000">
      <defs
         id="id-d6993295-bf58-423f-99c1-bf21feacf92a">
        <g
           id="id-1cf1c477-90da-49d7-b8e4-0263e1c010ea">
          <g
             id="id-094d6a75-a3b2-44e4-846e-5576149a7276" />
          <g
             id="id-f9c92357-72a9-4d23-a268-6d8d8d0f76b4">
            <path
               d="M 5.25,-8.828125 C 5.375,-9.359375 5.4375,-9.375 6,-9.375 h 1.859375 c 1.625,0 1.625,1.375 1.625,1.5 0,1.15625 -1.171875,2.640625 -3.0625,2.640625 h -2.0625 z M 7.671875,-5.125 c 1.5625,-0.28125 2.984375,-1.375 2.984375,-2.6875 0,-1.125 -0.984375,-1.984375 -2.609375,-1.984375 H 3.4375 c -0.265625,0 -0.390625,0 -0.390625,0.265625 0,0.15625 0.125,0.15625 0.34375,0.15625 0.875,0 0.875,0.109375 0.875,0.265625 0,0.03125 0,0.109375 -0.0625,0.328125 l -1.9375,7.71875 c -0.125,0.5 -0.15625,0.640625 -1.15625,0.640625 -0.28125,0 -0.421875,0 -0.421875,0.265625 C 0.6875,0 0.78125,0 1.0625,0 H 5.984375 C 8.171875,0 9.875,-1.65625 9.875,-3.109375 9.875,-4.28125 8.828125,-5 7.671875,-5.125 Z m -2.03125,4.703125 h -1.9375 c -0.203125,0 -0.234375,0 -0.3125,-0.015625 -0.15625,0 -0.171875,-0.03125 -0.171875,-0.15625 0,-0.09375 0.015625,-0.1875 0.046875,-0.3125 L 4.28125,-4.953125 h 2.6875 c 1.6875,0 1.6875,1.578125 1.6875,1.703125 0,1.375 -1.234375,2.828125 -3.015625,2.828125 z m 0,0"
               id="id-dbce49d0-5342-447d-8403-43ad1c17772a" />
          </g>
          <g
             id="id-f37db065-e342-40cb-991d-89f36f5cfa68">
            <path
               d="M 4.3125,-1.703125 C 4.25,-1.46875 4.25,-1.4375 4.046875,-1.15625 c -0.3125,0.390625 -0.953125,1.015625 -1.625,1.015625 -0.578125,0 -0.921875,-0.53125 -0.921875,-1.375 0,-0.796875 0.453125,-2.40625 0.71875,-3 0.5,-1 1.171875,-1.515625 1.71875,-1.515625 0.953125,0 1.140625,1.171875 1.140625,1.28125 0,0.015625 -0.046875,0.203125 -0.0625,0.234375 z M 5.234375,-5.375 C 5.078125,-5.75 4.6875,-6.328125 3.9375,-6.328125 c -1.609375,0 -3.359375,2.09375 -3.359375,4.21875 0,1.421875 0.828125,2.25 1.796875,2.25 0.796875,0 1.46875,-0.609375 1.875,-1.09375 0.140625,0.859375 0.8125,1.09375 1.25,1.09375 0.421875,0 0.765625,-0.25 1.03125,-0.765625 C 6.75,-1.125 6.953125,-2 6.953125,-2.046875 6.953125,-2.125 6.90625,-2.1875 6.8125,-2.1875 c -0.125,0 -0.140625,0.078125 -0.203125,0.296875 -0.21875,0.84375 -0.484375,1.75 -1.078125,1.75 -0.40625,0 -0.4375,-0.375 -0.4375,-0.65625 0,-0.34375 0.046875,-0.5 0.171875,-1.046875 0.09375,-0.359375 0.171875,-0.6875 0.28125,-1.09375 0.53125,-2.15625 0.65625,-2.671875 0.65625,-2.75 0,-0.203125 -0.15625,-0.359375 -0.359375,-0.359375 -0.46875,0 -0.578125,0.5 -0.609375,0.671875 z m 0,0"
               id="id-067819bd-5750-4544-8aa3-8d6182675411" />
          </g>
          <g
             id="id-20fbda4e-fd14-4e65-b380-3b1fec2bd7e6">
            <path
               d="m 2.796875,0.0625 c 0,-0.84375 -0.265625,-1.453125 -0.859375,-1.453125 -0.453125,0 -0.6875,0.375 -0.6875,0.6875 C 1.25,-0.390625 1.46875,0 1.953125,0 c 0.1875,0 0.34375,-0.0625 0.46875,-0.1875 0.03125,-0.03125 0.046875,-0.03125 0.0625,-0.03125 0.03125,0 0.03125,0.203125 0.03125,0.28125 0,0.46875 -0.09375,1.40625 -0.921875,2.328125 C 1.4375,2.5625 1.4375,2.59375 1.4375,2.625 c 0,0.078125 0.0625,0.140625 0.140625,0.140625 0.109375,0 1.21875,-1.0625 1.21875,-2.703125 z m 0,0"
               id="id-3282d3c9-eb08-4f3f-9652-96372865e89a" />
          </g>
          <g
             id="id-100cb90a-3cae-4cfa-a57f-da9c3fa07b1b">
            <path
               d="m 2,-3.265625 c 0.453125,0.1875 0.9375,0.1875 1.21875,0.1875 0.359375,0 1.109375,0 1.109375,-0.421875 0,-0.265625 -0.265625,-0.359375 -1,-0.359375 -0.359375,0 -0.796875,0.046875 -1.296875,0.265625 -0.4375,-0.21875 -0.609375,-0.546875 -0.609375,-0.859375 0,-0.890625 1.40625,-1.40625 2.6875,-1.40625 0.234375,0 0.75,0 1.359375,0.4375 0.078125,0.0625 0.125,0.09375 0.21875,0.09375 0.171875,0 0.359375,-0.1875 0.359375,-0.359375 0,-0.25 -0.828125,-0.796875 -1.8125,-0.796875 -1.609375,0 -3.125,0.96875 -3.125,2.03125 0,0.515625 0.34375,0.859375 0.578125,1.03125 -0.828125,0.46875 -1.3125,1.234375 -1.3125,1.9375 0,1 0.890625,1.78125 2.265625,1.78125 1.890625,0 2.65625,-1.265625 2.65625,-1.453125 0,-0.078125 -0.0625,-0.140625 -0.140625,-0.140625 C 5.09375,-1.296875 5.0625,-1.25 5,-1.15625 4.84375,-0.890625 4.46875,-0.3125 2.765625,-0.3125 c -0.890625,0 -2.0625,-0.234375 -2.0625,-1.25 C 0.703125,-2.046875 1.0625,-2.78125 2,-3.265625 Z M 2.4375,-3.4375 c 0.390625,-0.140625 0.765625,-0.140625 0.859375,-0.140625 0.40625,0 0.46875,0.03125 0.703125,0.09375 C 3.765625,-3.375 3.734375,-3.375 3.21875,-3.375 c -0.265625,0 -0.5,0 -0.78125,-0.0625 z m 0,0"
               id="id-9cea86b9-52e9-4c06-85c1-ed888b933c7d" />
          </g>
          <g
             id="id-19bf3d10-579c-49f7-874e-8b0ca17531b7" />
          <g
             id="id-32c9011d-770a-4ca8-ac27-b4e47dd7d28a">
            <path
               d="m 4.65625,3.484375 c 0,-0.046875 0,-0.078125 -0.234375,-0.3125 -1.4375,-1.453125 -2.234375,-3.8125 -2.234375,-6.75 0,-2.78125 0.671875,-5.171875 2.328125,-6.859375 0.140625,-0.140625 0.140625,-0.15625 0.140625,-0.203125 0,-0.09375 -0.0625,-0.109375 -0.125,-0.109375 -0.1875,0 -1.359375,1.03125 -2.0625,2.4375 -0.734375,1.4375 -1.0625,2.984375 -1.0625,4.734375 0,1.28125 0.203125,2.984375 0.953125,4.53125 0.84375,1.71875 2.015625,2.640625 2.171875,2.640625 0.0625,0 0.125,-0.015625 0.125,-0.109375 z m 0,0"
               id="id-57f2d90b-67e3-4f7b-85c9-0142a7be362d" />
          </g>
          <g
             id="id-444ddf8a-fe08-4e5f-911d-6eea7c38e140">
            <path
               d="M 4.046875,-3.578125 C 4.046875,-4.65625 3.90625,-6.4375 3.09375,-8.109375 2.25,-9.828125 1.078125,-10.75 0.921875,-10.75 c -0.0625,0 -0.140625,0.01563 -0.140625,0.109375 0,0.04687 0,0.0625 0.25,0.3125 1.4375,1.453125 2.234375,3.8125 2.234375,6.75 0,2.78125 -0.671875,5.171875 -2.328125,6.859375 -0.15625,0.125 -0.15625,0.15625 -0.15625,0.203125 0,0.09375 0.078125,0.109375 0.140625,0.109375 0.1875,0 1.359375,-1.03125 2.0625,-2.4375 0.734375,-1.453125 1.0625,-3 1.0625,-4.734375 z m 0,0"
               id="id-29008400-0224-4327-947c-e6c6421e7e84" />
          </g>
        </g>
      </defs>
      <g
         fill="#000000"
         fill-opacity="1"
         id="id-6676a3fb-0f01-48ff-b16c-0d198f496829"
         transform="translate(-277.044,-56.134)"
         style="fill:#ff0000">
        <g
           transform="translate(276.357,66.884)"
           id="g6231"
           style="fill:#ff0000">
          <path
             d="M 5.25,-8.828125 C 5.375,-9.359375 5.4375,-9.375 6,-9.375 h 1.859375 c 1.625,0 1.625,1.375 1.625,1.5 0,1.15625 -1.171875,2.640625 -3.0625,2.640625 h -2.0625 z M 7.671875,-5.125 c 1.5625,-0.28125 2.984375,-1.375 2.984375,-2.6875 0,-1.125 -0.984375,-1.984375 -2.609375,-1.984375 H 3.4375 c -0.265625,0 -0.390625,0 -0.390625,0.265625 0,0.15625 0.125,0.15625 0.34375,0.15625 0.875,0 0.875,0.109375 0.875,0.265625 0,0.03125 0,0.109375 -0.0625,0.328125 l -1.9375,7.71875 c -0.125,0.5 -0.15625,0.640625 -1.15625,0.640625 -0.28125,0 -0.421875,0 -0.421875,0.265625 C 0.6875,0 0.78125,0 1.0625,0 H 5.984375 C 8.171875,0 9.875,-1.65625 9.875,-3.109375 9.875,-4.28125 8.828125,-5 7.671875,-5.125 Z m -2.03125,4.703125 h -1.9375 c -0.203125,0 -0.234375,0 -0.3125,-0.015625 -0.15625,0 -0.171875,-0.03125 -0.171875,-0.15625 0,-0.09375 0.015625,-0.1875 0.046875,-0.3125 L 4.28125,-4.953125 h 2.6875 c 1.6875,0 1.6875,1.578125 1.6875,1.703125 0,1.375 -1.234375,2.828125 -3.015625,2.828125 z m 0,0"
             id="id-19f5bf28-07e5-4fc2-9727-0e1845598836"
             style="fill:#ff0000" />
        </g>
      </g>
      <g
         fill="#000000"
         fill-opacity="1"
         id="id-fe6b4175-1ae1-4fa6-8837-ba7ca6e38abe"
         transform="translate(-277.044,-56.134)"
         style="fill:#ff0000">
        <g
           transform="translate(287.753,66.884)"
           id="g6235"
           style="fill:#ff0000">
          <path
             d="m 4.65625,3.484375 c 0,-0.046875 0,-0.078125 -0.234375,-0.3125 -1.4375,-1.453125 -2.234375,-3.8125 -2.234375,-6.75 0,-2.78125 0.671875,-5.171875 2.328125,-6.859375 0.140625,-0.140625 0.140625,-0.15625 0.140625,-0.203125 0,-0.09375 -0.0625,-0.109375 -0.125,-0.109375 -0.1875,0 -1.359375,1.03125 -2.0625,2.4375 -0.734375,1.4375 -1.0625,2.984375 -1.0625,4.734375 0,1.28125 0.203125,2.984375 0.953125,4.53125 0.84375,1.71875 2.015625,2.640625 2.171875,2.640625 0.0625,0 0.125,-0.015625 0.125,-0.109375 z m 0,0"
             id="id-aec5c33e-3b4e-46b7-bf6c-ea3a8b7a5227"
             style="fill:#ff0000" />
        </g>
      </g>
      <g
         fill="#000000"
         fill-opacity="1"
         id="id-925ded67-f115-46ba-a86e-12fc0a732d86"
         transform="translate(-277.044,-56.134)"
         style="fill:#ff0000">
        <g
           transform="translate(293.215,66.884)"
           id="g6239"
           style="fill:#ff0000">
          <path
             d="M 4.3125,-1.703125 C 4.25,-1.46875 4.25,-1.4375 4.046875,-1.15625 c -0.3125,0.390625 -0.953125,1.015625 -1.625,1.015625 -0.578125,0 -0.921875,-0.53125 -0.921875,-1.375 0,-0.796875 0.453125,-2.40625 0.71875,-3 0.5,-1 1.171875,-1.515625 1.71875,-1.515625 0.953125,0 1.140625,1.171875 1.140625,1.28125 0,0.015625 -0.046875,0.203125 -0.0625,0.234375 z M 5.234375,-5.375 C 5.078125,-5.75 4.6875,-6.328125 3.9375,-6.328125 c -1.609375,0 -3.359375,2.09375 -3.359375,4.21875 0,1.421875 0.828125,2.25 1.796875,2.25 0.796875,0 1.46875,-0.609375 1.875,-1.09375 0.140625,0.859375 0.8125,1.09375 1.25,1.09375 0.421875,0 0.765625,-0.25 1.03125,-0.765625 C 6.75,-1.125 6.953125,-2 6.953125,-2.046875 6.953125,-2.125 6.90625,-2.1875 6.8125,-2.1875 c -0.125,0 -0.140625,0.078125 -0.203125,0.296875 -0.21875,0.84375 -0.484375,1.75 -1.078125,1.75 -0.40625,0 -0.4375,-0.375 -0.4375,-0.65625 0,-0.34375 0.046875,-0.5 0.171875,-1.046875 0.09375,-0.359375 0.171875,-0.6875 0.28125,-1.09375 0.53125,-2.15625 0.65625,-2.671875 0.65625,-2.75 0,-0.203125 -0.15625,-0.359375 -0.359375,-0.359375 -0.46875,0 -0.578125,0.5 -0.609375,0.671875 z m 0,0"
             id="id-bce9eec5-30f6-4239-a5b9-3f1a709127d8"
             style="fill:#ff0000" />
        </g>
        <g
           transform="translate(300.589,66.884)"
           id="g6242"
           style="fill:#ff0000">
          <path
             d="m 2.796875,0.0625 c 0,-0.84375 -0.265625,-1.453125 -0.859375,-1.453125 -0.453125,0 -0.6875,0.375 -0.6875,0.6875 C 1.25,-0.390625 1.46875,0 1.953125,0 c 0.1875,0 0.34375,-0.0625 0.46875,-0.1875 0.03125,-0.03125 0.046875,-0.03125 0.0625,-0.03125 0.03125,0 0.03125,0.203125 0.03125,0.28125 0,0.46875 -0.09375,1.40625 -0.921875,2.328125 C 1.4375,2.5625 1.4375,2.59375 1.4375,2.625 c 0,0.078125 0.0625,0.140625 0.140625,0.140625 0.109375,0 1.21875,-1.0625 1.21875,-2.703125 z m 0,0"
             id="id-e3ed6c45-0cb7-406e-abc4-09a439938116"
             style="fill:#ff0000" />
        </g>
      </g>
      <g
         fill="#000000"
         fill-opacity="1"
         id="id-208b0ade-7270-420d-8640-b7e5a03b4ffa"
         transform="translate(-277.044,-56.134)"
         style="fill:#ff0000">
        <g
           transform="translate(306.887,66.884)"
           id="g6246"
           style="fill:#ff0000">
          <path
             d="m 2,-3.265625 c 0.453125,0.1875 0.9375,0.1875 1.21875,0.1875 0.359375,0 1.109375,0 1.109375,-0.421875 0,-0.265625 -0.265625,-0.359375 -1,-0.359375 -0.359375,0 -0.796875,0.046875 -1.296875,0.265625 -0.4375,-0.21875 -0.609375,-0.546875 -0.609375,-0.859375 0,-0.890625 1.40625,-1.40625 2.6875,-1.40625 0.234375,0 0.75,0 1.359375,0.4375 0.078125,0.0625 0.125,0.09375 0.21875,0.09375 0.171875,0 0.359375,-0.1875 0.359375,-0.359375 0,-0.25 -0.828125,-0.796875 -1.8125,-0.796875 -1.609375,0 -3.125,0.96875 -3.125,2.03125 0,0.515625 0.34375,0.859375 0.578125,1.03125 -0.828125,0.46875 -1.3125,1.234375 -1.3125,1.9375 0,1 0.890625,1.78125 2.265625,1.78125 1.890625,0 2.65625,-1.265625 2.65625,-1.453125 0,-0.078125 -0.0625,-0.140625 -0.140625,-0.140625 C 5.09375,-1.296875 5.0625,-1.25 5,-1.15625 4.84375,-0.890625 4.46875,-0.3125 2.765625,-0.3125 c -0.890625,0 -2.0625,-0.234375 -2.0625,-1.25 C 0.703125,-2.046875 1.0625,-2.78125 2,-3.265625 Z M 2.4375,-3.4375 c 0.390625,-0.140625 0.765625,-0.140625 0.859375,-0.140625 0.40625,0 0.46875,0.03125 0.703125,0.09375 C 3.765625,-3.375 3.734375,-3.375 3.21875,-3.375 c -0.265625,0 -0.5,0 -0.78125,-0.0625 z m 0,0"
             id="id-c4090b38-c1ac-4ef5-8255-7ae6c6af74e0"
             style="fill:#ff0000" />
        </g>
      </g>
      <g
         fill="#000000"
         fill-opacity="1"
         id="id-3f0a88ac-3d13-4459-a6f8-7a62b89c8edf"
         transform="translate(-277.044,-56.134)"
         style="fill:#ff0000">
        <g
           transform="translate(313.456,66.884)"
           id="g6250"
           style="fill:#ff0000">
          <path
             d="M 4.046875,-3.578125 C 4.046875,-4.65625 3.90625,-6.4375 3.09375,-8.109375 2.25,-9.828125 1.078125,-10.75 0.921875,-10.75 c -0.0625,0 -0.140625,0.01563 -0.140625,0.109375 0,0.04687 0,0.0625 0.25,0.3125 1.4375,1.453125 2.234375,3.8125 2.234375,6.75 0,2.78125 -0.671875,5.171875 -2.328125,6.859375 -0.15625,0.125 -0.15625,0.15625 -0.15625,0.203125 0,0.09375 0.078125,0.109375 0.140625,0.109375 0.1875,0 1.359375,-1.03125 2.0625,-2.4375 0.734375,-1.453125 1.0625,-3 1.0625,-4.734375 z m 0,0"
             id="id-d40dc3b5-67ba-48e1-80a4-2e4cfc119780"
             style="fill:#ff0000" />
        </g>
      </g>
    </g>
    <circle
       style="fill:#ff0000;fill-rule:evenodd;stroke:#ff0000;stroke-width:0.627999;paint-order:markers stroke fill"
       id="circle7974"
       cx="70.893906"
       cy="248.80429"
       r="0.47999999" />
    <circle
       style="fill:#ff0000;fill-opacity:0;fill-rule:evenodd;stroke:#ff0000;stroke-width:0.228;stroke-dasharray:none;marker-mid:url(#marker5226);marker-end:url(#marker5226);paint-order:markers stroke fill"
       id="circle7976"
       cx="70.893906"
       cy="248.80429"
       r="2.5799999" />
    <g
       transform="matrix(0.29549265,0,0,0.29549265,64.751696,240.57123)"
       ns1:version="1.8.2"
       ns1:texconverter="pdflatex"
       ns1:pdfconverter="inkscape"
       ns1:text="$$B(a, \\varepsilon)$$"
       ns1:preamble="/home/buyolitsez/.config/inkscape/extensions/textext/default_packages.tex"
       ns1:scale="1.3"
       ns1:alignment="middle center"
       ns1:stroke-to-path="0"
       ns1:inkscapeversion="1.2.2"
       ns1:jacobian_sqrt="0.458611"
       id="g8044"
       style="fill:#ff0000">
      <defs
         id="defs8008">
        <g
           id="g8006">
          <g
             id="g7978" />
          <g
             id="g7982">
            <path
               d="M 5.25,-8.828125 C 5.375,-9.359375 5.4375,-9.375 6,-9.375 h 1.859375 c 1.625,0 1.625,1.375 1.625,1.5 0,1.15625 -1.171875,2.640625 -3.0625,2.640625 h -2.0625 z M 7.671875,-5.125 c 1.5625,-0.28125 2.984375,-1.375 2.984375,-2.6875 0,-1.125 -0.984375,-1.984375 -2.609375,-1.984375 H 3.4375 c -0.265625,0 -0.390625,0 -0.390625,0.265625 0,0.15625 0.125,0.15625 0.34375,0.15625 0.875,0 0.875,0.109375 0.875,0.265625 0,0.03125 0,0.109375 -0.0625,0.328125 l -1.9375,7.71875 c -0.125,0.5 -0.15625,0.640625 -1.15625,0.640625 -0.28125,0 -0.421875,0 -0.421875,0.265625 C 0.6875,0 0.78125,0 1.0625,0 H 5.984375 C 8.171875,0 9.875,-1.65625 9.875,-3.109375 9.875,-4.28125 8.828125,-5 7.671875,-5.125 Z m -2.03125,4.703125 h -1.9375 c -0.203125,0 -0.234375,0 -0.3125,-0.015625 -0.15625,0 -0.171875,-0.03125 -0.171875,-0.15625 0,-0.09375 0.015625,-0.1875 0.046875,-0.3125 L 4.28125,-4.953125 h 2.6875 c 1.6875,0 1.6875,1.578125 1.6875,1.703125 0,1.375 -1.234375,2.828125 -3.015625,2.828125 z m 0,0"
               id="path7980" />
          </g>
          <g
             id="g7986">
            <path
               d="M 4.3125,-1.703125 C 4.25,-1.46875 4.25,-1.4375 4.046875,-1.15625 c -0.3125,0.390625 -0.953125,1.015625 -1.625,1.015625 -0.578125,0 -0.921875,-0.53125 -0.921875,-1.375 0,-0.796875 0.453125,-2.40625 0.71875,-3 0.5,-1 1.171875,-1.515625 1.71875,-1.515625 0.953125,0 1.140625,1.171875 1.140625,1.28125 0,0.015625 -0.046875,0.203125 -0.0625,0.234375 z M 5.234375,-5.375 C 5.078125,-5.75 4.6875,-6.328125 3.9375,-6.328125 c -1.609375,0 -3.359375,2.09375 -3.359375,4.21875 0,1.421875 0.828125,2.25 1.796875,2.25 0.796875,0 1.46875,-0.609375 1.875,-1.09375 0.140625,0.859375 0.8125,1.09375 1.25,1.09375 0.421875,0 0.765625,-0.25 1.03125,-0.765625 C 6.75,-1.125 6.953125,-2 6.953125,-2.046875 6.953125,-2.125 6.90625,-2.1875 6.8125,-2.1875 c -0.125,0 -0.140625,0.078125 -0.203125,0.296875 -0.21875,0.84375 -0.484375,1.75 -1.078125,1.75 -0.40625,0 -0.4375,-0.375 -0.4375,-0.65625 0,-0.34375 0.046875,-0.5 0.171875,-1.046875 0.09375,-0.359375 0.171875,-0.6875 0.28125,-1.09375 0.53125,-2.15625 0.65625,-2.671875 0.65625,-2.75 0,-0.203125 -0.15625,-0.359375 -0.359375,-0.359375 -0.46875,0 -0.578125,0.5 -0.609375,0.671875 z m 0,0"
               id="path7984" />
          </g>
          <g
             id="g7990">
            <path
               d="m 2.796875,0.0625 c 0,-0.84375 -0.265625,-1.453125 -0.859375,-1.453125 -0.453125,0 -0.6875,0.375 -0.6875,0.6875 C 1.25,-0.390625 1.46875,0 1.953125,0 c 0.1875,0 0.34375,-0.0625 0.46875,-0.1875 0.03125,-0.03125 0.046875,-0.03125 0.0625,-0.03125 0.03125,0 0.03125,0.203125 0.03125,0.28125 0,0.46875 -0.09375,1.40625 -0.921875,2.328125 C 1.4375,2.5625 1.4375,2.59375 1.4375,2.625 c 0,0.078125 0.0625,0.140625 0.140625,0.140625 0.109375,0 1.21875,-1.0625 1.21875,-2.703125 z m 0,0"
               id="path7988" />
          </g>
          <g
             id="g7994">
            <path
               d="m 2,-3.265625 c 0.453125,0.1875 0.9375,0.1875 1.21875,0.1875 0.359375,0 1.109375,0 1.109375,-0.421875 0,-0.265625 -0.265625,-0.359375 -1,-0.359375 -0.359375,0 -0.796875,0.046875 -1.296875,0.265625 -0.4375,-0.21875 -0.609375,-0.546875 -0.609375,-0.859375 0,-0.890625 1.40625,-1.40625 2.6875,-1.40625 0.234375,0 0.75,0 1.359375,0.4375 0.078125,0.0625 0.125,0.09375 0.21875,0.09375 0.171875,0 0.359375,-0.1875 0.359375,-0.359375 0,-0.25 -0.828125,-0.796875 -1.8125,-0.796875 -1.609375,0 -3.125,0.96875 -3.125,2.03125 0,0.515625 0.34375,0.859375 0.578125,1.03125 -0.828125,0.46875 -1.3125,1.234375 -1.3125,1.9375 0,1 0.890625,1.78125 2.265625,1.78125 1.890625,0 2.65625,-1.265625 2.65625,-1.453125 0,-0.078125 -0.0625,-0.140625 -0.140625,-0.140625 C 5.09375,-1.296875 5.0625,-1.25 5,-1.15625 4.84375,-0.890625 4.46875,-0.3125 2.765625,-0.3125 c -0.890625,0 -2.0625,-0.234375 -2.0625,-1.25 C 0.703125,-2.046875 1.0625,-2.78125 2,-3.265625 Z M 2.4375,-3.4375 c 0.390625,-0.140625 0.765625,-0.140625 0.859375,-0.140625 0.40625,0 0.46875,0.03125 0.703125,0.09375 C 3.765625,-3.375 3.734375,-3.375 3.21875,-3.375 c -0.265625,0 -0.5,0 -0.78125,-0.0625 z m 0,0"
               id="path7992" />
          </g>
          <g
             id="g7996" />
          <g
             id="g8000">
            <path
               d="m 4.65625,3.484375 c 0,-0.046875 0,-0.078125 -0.234375,-0.3125 -1.4375,-1.453125 -2.234375,-3.8125 -2.234375,-6.75 0,-2.78125 0.671875,-5.171875 2.328125,-6.859375 0.140625,-0.140625 0.140625,-0.15625 0.140625,-0.203125 0,-0.09375 -0.0625,-0.109375 -0.125,-0.109375 -0.1875,0 -1.359375,1.03125 -2.0625,2.4375 -0.734375,1.4375 -1.0625,2.984375 -1.0625,4.734375 0,1.28125 0.203125,2.984375 0.953125,4.53125 0.84375,1.71875 2.015625,2.640625 2.171875,2.640625 0.0625,0 0.125,-0.015625 0.125,-0.109375 z m 0,0"
               id="path7998" />
          </g>
          <g
             id="g8004">
            <path
               d="M 4.046875,-3.578125 C 4.046875,-4.65625 3.90625,-6.4375 3.09375,-8.109375 2.25,-9.828125 1.078125,-10.75 0.921875,-10.75 c -0.0625,0 -0.140625,0.01563 -0.140625,0.109375 0,0.04687 0,0.0625 0.25,0.3125 1.4375,1.453125 2.234375,3.8125 2.234375,6.75 0,2.78125 -0.671875,5.171875 -2.328125,6.859375 -0.15625,0.125 -0.15625,0.15625 -0.15625,0.203125 0,0.09375 0.078125,0.109375 0.140625,0.109375 0.1875,0 1.359375,-1.03125 2.0625,-2.4375 0.734375,-1.453125 1.0625,-3 1.0625,-4.734375 z m 0,0"
               id="path8002" />
          </g>
        </g>
      </defs>
      <g
         fill="#000000"
         fill-opacity="1"
         id="g8014"
         transform="translate(-277.044,-56.134)"
         style="fill:#ff0000">
        <g
           transform="translate(276.357,66.884)"
           id="g8012"
           style="fill:#ff0000">
          <path
             d="M 5.25,-8.828125 C 5.375,-9.359375 5.4375,-9.375 6,-9.375 h 1.859375 c 1.625,0 1.625,1.375 1.625,1.5 0,1.15625 -1.171875,2.640625 -3.0625,2.640625 h -2.0625 z M 7.671875,-5.125 c 1.5625,-0.28125 2.984375,-1.375 2.984375,-2.6875 0,-1.125 -0.984375,-1.984375 -2.609375,-1.984375 H 3.4375 c -0.265625,0 -0.390625,0 -0.390625,0.265625 0,0.15625 0.125,0.15625 0.34375,0.15625 0.875,0 0.875,0.109375 0.875,0.265625 0,0.03125 0,0.109375 -0.0625,0.328125 l -1.9375,7.71875 c -0.125,0.5 -0.15625,0.640625 -1.15625,0.640625 -0.28125,0 -0.421875,0 -0.421875,0.265625 C 0.6875,0 0.78125,0 1.0625,0 H 5.984375 C 8.171875,0 9.875,-1.65625 9.875,-3.109375 9.875,-4.28125 8.828125,-5 7.671875,-5.125 Z m -2.03125,4.703125 h -1.9375 c -0.203125,0 -0.234375,0 -0.3125,-0.015625 -0.15625,0 -0.171875,-0.03125 -0.171875,-0.15625 0,-0.09375 0.015625,-0.1875 0.046875,-0.3125 L 4.28125,-4.953125 h 2.6875 c 1.6875,0 1.6875,1.578125 1.6875,1.703125 0,1.375 -1.234375,2.828125 -3.015625,2.828125 z m 0,0"
             id="path8010"
             style="fill:#ff0000" />
        </g>
      </g>
      <g
         fill="#000000"
         fill-opacity="1"
         id="g8020"
         transform="translate(-277.044,-56.134)"
         style="fill:#ff0000">
        <g
           transform="translate(287.753,66.884)"
           id="g8018"
           style="fill:#ff0000">
          <path
             d="m 4.65625,3.484375 c 0,-0.046875 0,-0.078125 -0.234375,-0.3125 -1.4375,-1.453125 -2.234375,-3.8125 -2.234375,-6.75 0,-2.78125 0.671875,-5.171875 2.328125,-6.859375 0.140625,-0.140625 0.140625,-0.15625 0.140625,-0.203125 0,-0.09375 -0.0625,-0.109375 -0.125,-0.109375 -0.1875,0 -1.359375,1.03125 -2.0625,2.4375 -0.734375,1.4375 -1.0625,2.984375 -1.0625,4.734375 0,1.28125 0.203125,2.984375 0.953125,4.53125 0.84375,1.71875 2.015625,2.640625 2.171875,2.640625 0.0625,0 0.125,-0.015625 0.125,-0.109375 z m 0,0"
             id="path8016"
             style="fill:#ff0000" />
        </g>
      </g>
      <g
         fill="#000000"
         fill-opacity="1"
         id="g8030"
         transform="translate(-277.044,-56.134)"
         style="fill:#ff0000">
        <g
           transform="translate(293.215,66.884)"
           id="g8024"
           style="fill:#ff0000">
          <path
             d="M 4.3125,-1.703125 C 4.25,-1.46875 4.25,-1.4375 4.046875,-1.15625 c -0.3125,0.390625 -0.953125,1.015625 -1.625,1.015625 -0.578125,0 -0.921875,-0.53125 -0.921875,-1.375 0,-0.796875 0.453125,-2.40625 0.71875,-3 0.5,-1 1.171875,-1.515625 1.71875,-1.515625 0.953125,0 1.140625,1.171875 1.140625,1.28125 0,0.015625 -0.046875,0.203125 -0.0625,0.234375 z M 5.234375,-5.375 C 5.078125,-5.75 4.6875,-6.328125 3.9375,-6.328125 c -1.609375,0 -3.359375,2.09375 -3.359375,4.21875 0,1.421875 0.828125,2.25 1.796875,2.25 0.796875,0 1.46875,-0.609375 1.875,-1.09375 0.140625,0.859375 0.8125,1.09375 1.25,1.09375 0.421875,0 0.765625,-0.25 1.03125,-0.765625 C 6.75,-1.125 6.953125,-2 6.953125,-2.046875 6.953125,-2.125 6.90625,-2.1875 6.8125,-2.1875 c -0.125,0 -0.140625,0.078125 -0.203125,0.296875 -0.21875,0.84375 -0.484375,1.75 -1.078125,1.75 -0.40625,0 -0.4375,-0.375 -0.4375,-0.65625 0,-0.34375 0.046875,-0.5 0.171875,-1.046875 0.09375,-0.359375 0.171875,-0.6875 0.28125,-1.09375 0.53125,-2.15625 0.65625,-2.671875 0.65625,-2.75 0,-0.203125 -0.15625,-0.359375 -0.359375,-0.359375 -0.46875,0 -0.578125,0.5 -0.609375,0.671875 z m 0,0"
             id="path8022"
             style="fill:#ff0000" />
        </g>
        <g
           transform="translate(300.589,66.884)"
           id="g8028"
           style="fill:#ff0000">
          <path
             d="m 2.796875,0.0625 c 0,-0.84375 -0.265625,-1.453125 -0.859375,-1.453125 -0.453125,0 -0.6875,0.375 -0.6875,0.6875 C 1.25,-0.390625 1.46875,0 1.953125,0 c 0.1875,0 0.34375,-0.0625 0.46875,-0.1875 0.03125,-0.03125 0.046875,-0.03125 0.0625,-0.03125 0.03125,0 0.03125,0.203125 0.03125,0.28125 0,0.46875 -0.09375,1.40625 -0.921875,2.328125 C 1.4375,2.5625 1.4375,2.59375 1.4375,2.625 c 0,0.078125 0.0625,0.140625 0.140625,0.140625 0.109375,0 1.21875,-1.0625 1.21875,-2.703125 z m 0,0"
             id="path8026"
             style="fill:#ff0000" />
        </g>
      </g>
      <g
         fill="#000000"
         fill-opacity="1"
         id="g8036"
         transform="translate(-277.044,-56.134)"
         style="fill:#ff0000">
        <g
           transform="translate(306.887,66.884)"
           id="g8034"
           style="fill:#ff0000">
          <path
             d="m 2,-3.265625 c 0.453125,0.1875 0.9375,0.1875 1.21875,0.1875 0.359375,0 1.109375,0 1.109375,-0.421875 0,-0.265625 -0.265625,-0.359375 -1,-0.359375 -0.359375,0 -0.796875,0.046875 -1.296875,0.265625 -0.4375,-0.21875 -0.609375,-0.546875 -0.609375,-0.859375 0,-0.890625 1.40625,-1.40625 2.6875,-1.40625 0.234375,0 0.75,0 1.359375,0.4375 0.078125,0.0625 0.125,0.09375 0.21875,0.09375 0.171875,0 0.359375,-0.1875 0.359375,-0.359375 0,-0.25 -0.828125,-0.796875 -1.8125,-0.796875 -1.609375,0 -3.125,0.96875 -3.125,2.03125 0,0.515625 0.34375,0.859375 0.578125,1.03125 -0.828125,0.46875 -1.3125,1.234375 -1.3125,1.9375 0,1 0.890625,1.78125 2.265625,1.78125 1.890625,0 2.65625,-1.265625 2.65625,-1.453125 0,-0.078125 -0.0625,-0.140625 -0.140625,-0.140625 C 5.09375,-1.296875 5.0625,-1.25 5,-1.15625 4.84375,-0.890625 4.46875,-0.3125 2.765625,-0.3125 c -0.890625,0 -2.0625,-0.234375 -2.0625,-1.25 C 0.703125,-2.046875 1.0625,-2.78125 2,-3.265625 Z M 2.4375,-3.4375 c 0.390625,-0.140625 0.765625,-0.140625 0.859375,-0.140625 0.40625,0 0.46875,0.03125 0.703125,0.09375 C 3.765625,-3.375 3.734375,-3.375 3.21875,-3.375 c -0.265625,0 -0.5,0 -0.78125,-0.0625 z m 0,0"
             id="path8032"
             style="fill:#ff0000" />
        </g>
      </g>
      <g
         fill="#000000"
         fill-opacity="1"
         id="g8042"
         transform="translate(-277.044,-56.134)"
         style="fill:#ff0000">
        <g
           transform="translate(313.456,66.884)"
           id="g8040"
           style="fill:#ff0000">
          <path
             d="M 4.046875,-3.578125 C 4.046875,-4.65625 3.90625,-6.4375 3.09375,-8.109375 2.25,-9.828125 1.078125,-10.75 0.921875,-10.75 c -0.0625,0 -0.140625,0.01563 -0.140625,0.109375 0,0.04687 0,0.0625 0.25,0.3125 1.4375,1.453125 2.234375,3.8125 2.234375,6.75 0,2.78125 -0.671875,5.171875 -2.328125,6.859375 -0.15625,0.125 -0.15625,0.15625 -0.15625,0.203125 0,0.09375 0.078125,0.109375 0.140625,0.109375 0.1875,0 1.359375,-1.03125 2.0625,-2.4375 0.734375,-1.453125 1.0625,-3 1.0625,-4.734375 z m 0,0"
             id="path8038"
             style="fill:#ff0000" />
        </g>
      </g>
    </g>
    <circle
       style="fill:#ff0000;fill-rule:evenodd;stroke:#ff0000;stroke-width:0.627999;paint-order:markers stroke fill"
       id="circle8824"
       cx="158.49345"
       cy="256.23218"
       r="0.47999999" />
    <circle
       style="fill:#ff0000;fill-opacity:0;fill-rule:evenodd;stroke:#ff0000;stroke-width:0.228;stroke-dasharray:none;marker-mid:url(#marker5226);marker-end:url(#marker5226);paint-order:markers stroke fill"
       id="circle8826"
       cx="158.49345"
       cy="256.23218"
       r="2.5799999" />
    <g
       transform="matrix(0.29549265,0,0,0.29549265,152.35125,247.99912)"
       ns1:version="1.8.2"
       ns1:texconverter="pdflatex"
       ns1:pdfconverter="inkscape"
       ns1:text="$$B(a, \\varepsilon)$$"
       ns1:preamble="/home/buyolitsez/.config/inkscape/extensions/textext/default_packages.tex"
       ns1:scale="1.3"
       ns1:alignment="middle center"
       ns1:stroke-to-path="0"
       ns1:inkscapeversion="1.2.2"
       ns1:jacobian_sqrt="0.458611"
       id="g8894"
       style="fill:#ff0000">
      <defs
         id="defs8858">
        <g
           id="g8856">
          <g
             id="g8828" />
          <g
             id="g8832">
            <path
               d="M 5.25,-8.828125 C 5.375,-9.359375 5.4375,-9.375 6,-9.375 h 1.859375 c 1.625,0 1.625,1.375 1.625,1.5 0,1.15625 -1.171875,2.640625 -3.0625,2.640625 h -2.0625 z M 7.671875,-5.125 c 1.5625,-0.28125 2.984375,-1.375 2.984375,-2.6875 0,-1.125 -0.984375,-1.984375 -2.609375,-1.984375 H 3.4375 c -0.265625,0 -0.390625,0 -0.390625,0.265625 0,0.15625 0.125,0.15625 0.34375,0.15625 0.875,0 0.875,0.109375 0.875,0.265625 0,0.03125 0,0.109375 -0.0625,0.328125 l -1.9375,7.71875 c -0.125,0.5 -0.15625,0.640625 -1.15625,0.640625 -0.28125,0 -0.421875,0 -0.421875,0.265625 C 0.6875,0 0.78125,0 1.0625,0 H 5.984375 C 8.171875,0 9.875,-1.65625 9.875,-3.109375 9.875,-4.28125 8.828125,-5 7.671875,-5.125 Z m -2.03125,4.703125 h -1.9375 c -0.203125,0 -0.234375,0 -0.3125,-0.015625 -0.15625,0 -0.171875,-0.03125 -0.171875,-0.15625 0,-0.09375 0.015625,-0.1875 0.046875,-0.3125 L 4.28125,-4.953125 h 2.6875 c 1.6875,0 1.6875,1.578125 1.6875,1.703125 0,1.375 -1.234375,2.828125 -3.015625,2.828125 z m 0,0"
               id="path8830" />
          </g>
          <g
             id="g8836">
            <path
               d="M 4.3125,-1.703125 C 4.25,-1.46875 4.25,-1.4375 4.046875,-1.15625 c -0.3125,0.390625 -0.953125,1.015625 -1.625,1.015625 -0.578125,0 -0.921875,-0.53125 -0.921875,-1.375 0,-0.796875 0.453125,-2.40625 0.71875,-3 0.5,-1 1.171875,-1.515625 1.71875,-1.515625 0.953125,0 1.140625,1.171875 1.140625,1.28125 0,0.015625 -0.046875,0.203125 -0.0625,0.234375 z M 5.234375,-5.375 C 5.078125,-5.75 4.6875,-6.328125 3.9375,-6.328125 c -1.609375,0 -3.359375,2.09375 -3.359375,4.21875 0,1.421875 0.828125,2.25 1.796875,2.25 0.796875,0 1.46875,-0.609375 1.875,-1.09375 0.140625,0.859375 0.8125,1.09375 1.25,1.09375 0.421875,0 0.765625,-0.25 1.03125,-0.765625 C 6.75,-1.125 6.953125,-2 6.953125,-2.046875 6.953125,-2.125 6.90625,-2.1875 6.8125,-2.1875 c -0.125,0 -0.140625,0.078125 -0.203125,0.296875 -0.21875,0.84375 -0.484375,1.75 -1.078125,1.75 -0.40625,0 -0.4375,-0.375 -0.4375,-0.65625 0,-0.34375 0.046875,-0.5 0.171875,-1.046875 0.09375,-0.359375 0.171875,-0.6875 0.28125,-1.09375 0.53125,-2.15625 0.65625,-2.671875 0.65625,-2.75 0,-0.203125 -0.15625,-0.359375 -0.359375,-0.359375 -0.46875,0 -0.578125,0.5 -0.609375,0.671875 z m 0,0"
               id="path8834" />
          </g>
          <g
             id="g8840">
            <path
               d="m 2.796875,0.0625 c 0,-0.84375 -0.265625,-1.453125 -0.859375,-1.453125 -0.453125,0 -0.6875,0.375 -0.6875,0.6875 C 1.25,-0.390625 1.46875,0 1.953125,0 c 0.1875,0 0.34375,-0.0625 0.46875,-0.1875 0.03125,-0.03125 0.046875,-0.03125 0.0625,-0.03125 0.03125,0 0.03125,0.203125 0.03125,0.28125 0,0.46875 -0.09375,1.40625 -0.921875,2.328125 C 1.4375,2.5625 1.4375,2.59375 1.4375,2.625 c 0,0.078125 0.0625,0.140625 0.140625,0.140625 0.109375,0 1.21875,-1.0625 1.21875,-2.703125 z m 0,0"
               id="path8838" />
          </g>
          <g
             id="g8844">
            <path
               d="m 2,-3.265625 c 0.453125,0.1875 0.9375,0.1875 1.21875,0.1875 0.359375,0 1.109375,0 1.109375,-0.421875 0,-0.265625 -0.265625,-0.359375 -1,-0.359375 -0.359375,0 -0.796875,0.046875 -1.296875,0.265625 -0.4375,-0.21875 -0.609375,-0.546875 -0.609375,-0.859375 0,-0.890625 1.40625,-1.40625 2.6875,-1.40625 0.234375,0 0.75,0 1.359375,0.4375 0.078125,0.0625 0.125,0.09375 0.21875,0.09375 0.171875,0 0.359375,-0.1875 0.359375,-0.359375 0,-0.25 -0.828125,-0.796875 -1.8125,-0.796875 -1.609375,0 -3.125,0.96875 -3.125,2.03125 0,0.515625 0.34375,0.859375 0.578125,1.03125 -0.828125,0.46875 -1.3125,1.234375 -1.3125,1.9375 0,1 0.890625,1.78125 2.265625,1.78125 1.890625,0 2.65625,-1.265625 2.65625,-1.453125 0,-0.078125 -0.0625,-0.140625 -0.140625,-0.140625 C 5.09375,-1.296875 5.0625,-1.25 5,-1.15625 4.84375,-0.890625 4.46875,-0.3125 2.765625,-0.3125 c -0.890625,0 -2.0625,-0.234375 -2.0625,-1.25 C 0.703125,-2.046875 1.0625,-2.78125 2,-3.265625 Z M 2.4375,-3.4375 c 0.390625,-0.140625 0.765625,-0.140625 0.859375,-0.140625 0.40625,0 0.46875,0.03125 0.703125,0.09375 C 3.765625,-3.375 3.734375,-3.375 3.21875,-3.375 c -0.265625,0 -0.5,0 -0.78125,-0.0625 z m 0,0"
               id="path8842" />
          </g>
          <g
             id="g8846" />
          <g
             id="g8850">
            <path
               d="m 4.65625,3.484375 c 0,-0.046875 0,-0.078125 -0.234375,-0.3125 -1.4375,-1.453125 -2.234375,-3.8125 -2.234375,-6.75 0,-2.78125 0.671875,-5.171875 2.328125,-6.859375 0.140625,-0.140625 0.140625,-0.15625 0.140625,-0.203125 0,-0.09375 -0.0625,-0.109375 -0.125,-0.109375 -0.1875,0 -1.359375,1.03125 -2.0625,2.4375 -0.734375,1.4375 -1.0625,2.984375 -1.0625,4.734375 0,1.28125 0.203125,2.984375 0.953125,4.53125 0.84375,1.71875 2.015625,2.640625 2.171875,2.640625 0.0625,0 0.125,-0.015625 0.125,-0.109375 z m 0,0"
               id="path8848" />
          </g>
          <g
             id="g8854">
            <path
               d="M 4.046875,-3.578125 C 4.046875,-4.65625 3.90625,-6.4375 3.09375,-8.109375 2.25,-9.828125 1.078125,-10.75 0.921875,-10.75 c -0.0625,0 -0.140625,0.01563 -0.140625,0.109375 0,0.04687 0,0.0625 0.25,0.3125 1.4375,1.453125 2.234375,3.8125 2.234375,6.75 0,2.78125 -0.671875,5.171875 -2.328125,6.859375 -0.15625,0.125 -0.15625,0.15625 -0.15625,0.203125 0,0.09375 0.078125,0.109375 0.140625,0.109375 0.1875,0 1.359375,-1.03125 2.0625,-2.4375 0.734375,-1.453125 1.0625,-3 1.0625,-4.734375 z m 0,0"
               id="path8852" />
          </g>
        </g>
      </defs>
      <g
         fill="#000000"
         fill-opacity="1"
         id="g8864"
         transform="translate(-277.044,-56.134)"
         style="fill:#ff0000">
        <g
           transform="translate(276.357,66.884)"
           id="g8862"
           style="fill:#ff0000">
          <path
             d="M 5.25,-8.828125 C 5.375,-9.359375 5.4375,-9.375 6,-9.375 h 1.859375 c 1.625,0 1.625,1.375 1.625,1.5 0,1.15625 -1.171875,2.640625 -3.0625,2.640625 h -2.0625 z M 7.671875,-5.125 c 1.5625,-0.28125 2.984375,-1.375 2.984375,-2.6875 0,-1.125 -0.984375,-1.984375 -2.609375,-1.984375 H 3.4375 c -0.265625,0 -0.390625,0 -0.390625,0.265625 0,0.15625 0.125,0.15625 0.34375,0.15625 0.875,0 0.875,0.109375 0.875,0.265625 0,0.03125 0,0.109375 -0.0625,0.328125 l -1.9375,7.71875 c -0.125,0.5 -0.15625,0.640625 -1.15625,0.640625 -0.28125,0 -0.421875,0 -0.421875,0.265625 C 0.6875,0 0.78125,0 1.0625,0 H 5.984375 C 8.171875,0 9.875,-1.65625 9.875,-3.109375 9.875,-4.28125 8.828125,-5 7.671875,-5.125 Z m -2.03125,4.703125 h -1.9375 c -0.203125,0 -0.234375,0 -0.3125,-0.015625 -0.15625,0 -0.171875,-0.03125 -0.171875,-0.15625 0,-0.09375 0.015625,-0.1875 0.046875,-0.3125 L 4.28125,-4.953125 h 2.6875 c 1.6875,0 1.6875,1.578125 1.6875,1.703125 0,1.375 -1.234375,2.828125 -3.015625,2.828125 z m 0,0"
             id="path8860"
             style="fill:#ff0000" />
        </g>
      </g>
      <g
         fill="#000000"
         fill-opacity="1"
         id="g8870"
         transform="translate(-277.044,-56.134)"
         style="fill:#ff0000">
        <g
           transform="translate(287.753,66.884)"
           id="g8868"
           style="fill:#ff0000">
          <path
             d="m 4.65625,3.484375 c 0,-0.046875 0,-0.078125 -0.234375,-0.3125 -1.4375,-1.453125 -2.234375,-3.8125 -2.234375,-6.75 0,-2.78125 0.671875,-5.171875 2.328125,-6.859375 0.140625,-0.140625 0.140625,-0.15625 0.140625,-0.203125 0,-0.09375 -0.0625,-0.109375 -0.125,-0.109375 -0.1875,0 -1.359375,1.03125 -2.0625,2.4375 -0.734375,1.4375 -1.0625,2.984375 -1.0625,4.734375 0,1.28125 0.203125,2.984375 0.953125,4.53125 0.84375,1.71875 2.015625,2.640625 2.171875,2.640625 0.0625,0 0.125,-0.015625 0.125,-0.109375 z m 0,0"
             id="path8866"
             style="fill:#ff0000" />
        </g>
      </g>
      <g
         fill="#000000"
         fill-opacity="1"
         id="g8880"
         transform="translate(-277.044,-56.134)"
         style="fill:#ff0000">
        <g
           transform="translate(293.215,66.884)"
           id="g8874"
           style="fill:#ff0000">
          <path
             d="M 4.3125,-1.703125 C 4.25,-1.46875 4.25,-1.4375 4.046875,-1.15625 c -0.3125,0.390625 -0.953125,1.015625 -1.625,1.015625 -0.578125,0 -0.921875,-0.53125 -0.921875,-1.375 0,-0.796875 0.453125,-2.40625 0.71875,-3 0.5,-1 1.171875,-1.515625 1.71875,-1.515625 0.953125,0 1.140625,1.171875 1.140625,1.28125 0,0.015625 -0.046875,0.203125 -0.0625,0.234375 z M 5.234375,-5.375 C 5.078125,-5.75 4.6875,-6.328125 3.9375,-6.328125 c -1.609375,0 -3.359375,2.09375 -3.359375,4.21875 0,1.421875 0.828125,2.25 1.796875,2.25 0.796875,0 1.46875,-0.609375 1.875,-1.09375 0.140625,0.859375 0.8125,1.09375 1.25,1.09375 0.421875,0 0.765625,-0.25 1.03125,-0.765625 C 6.75,-1.125 6.953125,-2 6.953125,-2.046875 6.953125,-2.125 6.90625,-2.1875 6.8125,-2.1875 c -0.125,0 -0.140625,0.078125 -0.203125,0.296875 -0.21875,0.84375 -0.484375,1.75 -1.078125,1.75 -0.40625,0 -0.4375,-0.375 -0.4375,-0.65625 0,-0.34375 0.046875,-0.5 0.171875,-1.046875 0.09375,-0.359375 0.171875,-0.6875 0.28125,-1.09375 0.53125,-2.15625 0.65625,-2.671875 0.65625,-2.75 0,-0.203125 -0.15625,-0.359375 -0.359375,-0.359375 -0.46875,0 -0.578125,0.5 -0.609375,0.671875 z m 0,0"
             id="path8872"
             style="fill:#ff0000" />
        </g>
        <g
           transform="translate(300.589,66.884)"
           id="g8878"
           style="fill:#ff0000">
          <path
             d="m 2.796875,0.0625 c 0,-0.84375 -0.265625,-1.453125 -0.859375,-1.453125 -0.453125,0 -0.6875,0.375 -0.6875,0.6875 C 1.25,-0.390625 1.46875,0 1.953125,0 c 0.1875,0 0.34375,-0.0625 0.46875,-0.1875 0.03125,-0.03125 0.046875,-0.03125 0.0625,-0.03125 0.03125,0 0.03125,0.203125 0.03125,0.28125 0,0.46875 -0.09375,1.40625 -0.921875,2.328125 C 1.4375,2.5625 1.4375,2.59375 1.4375,2.625 c 0,0.078125 0.0625,0.140625 0.140625,0.140625 0.109375,0 1.21875,-1.0625 1.21875,-2.703125 z m 0,0"
             id="path8876"
             style="fill:#ff0000" />
        </g>
      </g>
      <g
         fill="#000000"
         fill-opacity="1"
         id="g8886"
         transform="translate(-277.044,-56.134)"
         style="fill:#ff0000">
        <g
           transform="translate(306.887,66.884)"
           id="g8884"
           style="fill:#ff0000">
          <path
             d="m 2,-3.265625 c 0.453125,0.1875 0.9375,0.1875 1.21875,0.1875 0.359375,0 1.109375,0 1.109375,-0.421875 0,-0.265625 -0.265625,-0.359375 -1,-0.359375 -0.359375,0 -0.796875,0.046875 -1.296875,0.265625 -0.4375,-0.21875 -0.609375,-0.546875 -0.609375,-0.859375 0,-0.890625 1.40625,-1.40625 2.6875,-1.40625 0.234375,0 0.75,0 1.359375,0.4375 0.078125,0.0625 0.125,0.09375 0.21875,0.09375 0.171875,0 0.359375,-0.1875 0.359375,-0.359375 0,-0.25 -0.828125,-0.796875 -1.8125,-0.796875 -1.609375,0 -3.125,0.96875 -3.125,2.03125 0,0.515625 0.34375,0.859375 0.578125,1.03125 -0.828125,0.46875 -1.3125,1.234375 -1.3125,1.9375 0,1 0.890625,1.78125 2.265625,1.78125 1.890625,0 2.65625,-1.265625 2.65625,-1.453125 0,-0.078125 -0.0625,-0.140625 -0.140625,-0.140625 C 5.09375,-1.296875 5.0625,-1.25 5,-1.15625 4.84375,-0.890625 4.46875,-0.3125 2.765625,-0.3125 c -0.890625,0 -2.0625,-0.234375 -2.0625,-1.25 C 0.703125,-2.046875 1.0625,-2.78125 2,-3.265625 Z M 2.4375,-3.4375 c 0.390625,-0.140625 0.765625,-0.140625 0.859375,-0.140625 0.40625,0 0.46875,0.03125 0.703125,0.09375 C 3.765625,-3.375 3.734375,-3.375 3.21875,-3.375 c -0.265625,0 -0.5,0 -0.78125,-0.0625 z m 0,0"
             id="path8882"
             style="fill:#ff0000" />
        </g>
      </g>
      <g
         fill="#000000"
         fill-opacity="1"
         id="g8892"
         transform="translate(-277.044,-56.134)"
         style="fill:#ff0000">
        <g
           transform="translate(313.456,66.884)"
           id="g8890"
           style="fill:#ff0000">
          <path
             d="M 4.046875,-3.578125 C 4.046875,-4.65625 3.90625,-6.4375 3.09375,-8.109375 2.25,-9.828125 1.078125,-10.75 0.921875,-10.75 c -0.0625,0 -0.140625,0.01563 -0.140625,0.109375 0,0.04687 0,0.0625 0.25,0.3125 1.4375,1.453125 2.234375,3.8125 2.234375,6.75 0,2.78125 -0.671875,5.171875 -2.328125,6.859375 -0.15625,0.125 -0.15625,0.15625 -0.15625,0.203125 0,0.09375 0.078125,0.109375 0.140625,0.109375 0.1875,0 1.359375,-1.03125 2.0625,-2.4375 0.734375,-1.453125 1.0625,-3 1.0625,-4.734375 z m 0,0"
             id="path8888"
             style="fill:#ff0000" />
        </g>
      </g>
    </g>
    <g
       transform="matrix(0.458611,0,0,0.458611,186.83342,205.96121)"
       ns1:version="1.8.2"
       ns1:texconverter="pdflatex"
       ns1:pdfconverter="inkscape"
       ns1:text="$$\\tilde \\Omega$$"
       ns1:preamble="/home/buyolitsez/.config/inkscape/extensions/textext/default_packages.tex"
       ns1:scale="1.3"
       ns1:alignment="middle center"
       ns1:stroke-to-path="0"
       ns1:inkscapeversion="1.2.2"
       ns1:jacobian_sqrt="0.458611"
       id="g9177"
       style="fill:#ff0000">
      <defs
         id="id-5c699fd9-7493-477c-b299-3ddaea9d217c">
        <g
           id="id-53a7a189-a215-4db2-b45d-56c71aee95c3">
          <g
             id="id-30980785-2e71-4753-9344-c22bc15e580c" />
          <g
             id="id-1fcaf788-922e-4bd8-bcb3-4740ee710055">
            <path
               d="m 5.640625,-9.53125 c -0.421875,0.421875 -0.71875,0.703125 -1.1875,0.703125 -0.203125,0 -0.40625,-0.03125 -0.859375,-0.34375 C 3.3125,-9.34375 3.03125,-9.53125 2.703125,-9.53125 c -0.53125,0 -0.859375,0.359375 -1.53125,1.109375 L 1.375,-8.21875 c 0.421875,-0.421875 0.71875,-0.703125 1.171875,-0.703125 0.21875,0 0.421875,0.046875 0.859375,0.34375 0.296875,0.171875 0.578125,0.359375 0.90625,0.359375 0.53125,0 0.84375,-0.359375 1.53125,-1.109375 z m 0,0"
               id="id-cecaca27-f029-49af-8082-8931dfa4cfb8" />
          </g>
          <g
             id="id-df85f660-74fc-46e6-a58a-e3403f19bcd1">
            <path
               d="M 9.5,-2.234375 H 9.1875 c -0.078125,0.375 -0.15625,0.75 -0.265625,1.046875 C 8.84375,-0.96875 8.8125,-0.84375 7.96875,-0.84375 h -1.125 c 0.171875,-0.8125 0.59375,-1.5 1.171875,-2.390625 0.671875,-1.046875 1.34375,-2.09375 1.34375,-3.28125 0,-1.96875 -1.90625,-3.578125 -4.296875,-3.578125 -2.40625,0 -4.28125,1.609375 -4.28125,3.578125 0,1.1875 0.640625,2.21875 1.3125,3.265625 0.609375,0.921875 1.03125,1.59375 1.1875,2.40625 h -1.125 c -0.84375,0 -0.875,-0.125 -0.953125,-0.328125 -0.109375,-0.3125 -0.1875,-0.71875 -0.25,-1.0625 H 0.625 L 1.09375,0 H 3.3125 C 3.625,0 3.65625,0 3.65625,-0.265625 3.65625,-1.28125 3.203125,-2.53125 2.90625,-3.25 2.5,-4.390625 2.109375,-5.4375 2.109375,-6.53125 c 0,-2.203125 1.53125,-3.28125 2.953125,-3.28125 1.421875,0 2.953125,1.078125 2.953125,3.28125 0,1.09375 -0.40625,2.171875 -0.796875,3.234375 -0.25,0.6875 -0.75,2 -0.75,3.03125 C 6.46875,0 6.515625,0 6.828125,0 H 9.03125 Z m 0,0"
               id="id-30511d29-273d-4f51-a7ac-97764798aae2" />
          </g>
        </g>
      </defs>
      <g
         fill="#000000"
         fill-opacity="1"
         id="id-32b3ec7c-52fe-4d90-a171-3f72b48f9903"
         transform="translate(-293.19,-53.7267)"
         style="fill:#ff0000">
        <g
           transform="translate(294.126,63.258)"
           id="g9170"
           style="fill:#ff0000">
          <path
             d="m 5.640625,-9.53125 c -0.421875,0.421875 -0.71875,0.703125 -1.1875,0.703125 -0.203125,0 -0.40625,-0.03125 -0.859375,-0.34375 C 3.3125,-9.34375 3.03125,-9.53125 2.703125,-9.53125 c -0.53125,0 -0.859375,0.359375 -1.53125,1.109375 L 1.375,-8.21875 c 0.421875,-0.421875 0.71875,-0.703125 1.171875,-0.703125 0.21875,0 0.421875,0.046875 0.859375,0.34375 0.296875,0.171875 0.578125,0.359375 0.90625,0.359375 0.53125,0 0.84375,-0.359375 1.53125,-1.109375 z m 0,0"
             id="id-621738e0-8b3f-4c28-a64a-799e3d505a45"
             style="fill:#ff0000" />
        </g>
      </g>
      <g
         fill="#000000"
         fill-opacity="1"
         id="id-15d11e73-ccbb-49a3-9bc3-de548a2a673f"
         transform="translate(-293.19,-53.7267)"
         style="fill:#ff0000">
        <g
           transform="translate(292.565,66.884)"
           id="g9174"
           style="fill:#ff0000">
          <path
             d="M 9.5,-2.234375 H 9.1875 c -0.078125,0.375 -0.15625,0.75 -0.265625,1.046875 C 8.84375,-0.96875 8.8125,-0.84375 7.96875,-0.84375 h -1.125 c 0.171875,-0.8125 0.59375,-1.5 1.171875,-2.390625 0.671875,-1.046875 1.34375,-2.09375 1.34375,-3.28125 0,-1.96875 -1.90625,-3.578125 -4.296875,-3.578125 -2.40625,0 -4.28125,1.609375 -4.28125,3.578125 0,1.1875 0.640625,2.21875 1.3125,3.265625 0.609375,0.921875 1.03125,1.59375 1.1875,2.40625 h -1.125 c -0.84375,0 -0.875,-0.125 -0.953125,-0.328125 -0.109375,-0.3125 -0.1875,-0.71875 -0.25,-1.0625 H 0.625 L 1.09375,0 H 3.3125 C 3.625,0 3.65625,0 3.65625,-0.265625 3.65625,-1.28125 3.203125,-2.53125 2.90625,-3.25 2.5,-4.390625 2.109375,-5.4375 2.109375,-6.53125 c 0,-2.203125 1.53125,-3.28125 2.953125,-3.28125 1.421875,0 2.953125,1.078125 2.953125,3.28125 0,1.09375 -0.40625,2.171875 -0.796875,3.234375 -0.25,0.6875 -0.75,2 -0.75,3.03125 C 6.46875,0 6.515625,0 6.828125,0 H 9.03125 Z m 0,0"
             id="id-8b1d69ae-29c4-4aea-b081-0e9e58168b17"
             style="fill:#ff0000" />
        </g>
      </g>
    </g>
  </g>
</svg>
